<svg xmlns="http://www.w3.org/2000/svg" width="60" height="60" viewBox="0 0 60 60">
  <g id="Group_4549" data-name="Group 4549" transform="translate(-2.1 -2.1)">
    <path id="Path_1899" data-name="Path 1899" d="M32.1,2.1a30,30,0,1,1-30,30,30,30,0,0,1,30-30Z" fill="#0090da" fill-rule="evenodd"/>
    <circle id="Ellipse_90" data-name="Ellipse 90" cx="23.5" cy="23.5" r="23.5" transform="translate(9.1 8.1)" fill="#fff"/>
    <path id="Path_1900" data-name="Path 1900" d="M45.8,25.773a1.373,1.373,0,1,1,2.745,0v13.66l10.327,6.34a1.379,1.379,0,0,1-1.438,2.353L46.519,41.393a1.434,1.434,0,0,1-.719-1.176Z" transform="translate(-15.138 -7.725)" fill="#0090da" fill-rule="evenodd"/>
    <path id="Path_1901" data-name="Path 1901" d="M8.912,38.582c0-.131-.065-.261-.065-.392-.065-.915-.131-1.765-.131-2.68a24.543,24.543,0,0,1,49.085,0,24.066,24.066,0,0,1-2.614,10.98,25.231,25.231,0,0,1-7.255,8.693A1.353,1.353,0,1,1,46.3,53.026a22.462,22.462,0,0,0,6.471-7.712,22.022,22.022,0,0,0,2.288-9.739,21.83,21.83,0,0,0-43.66,0c0,.784.065,1.5.131,2.222l.85-1.5a1.442,1.442,0,0,1,1.9-.523,1.46,1.46,0,0,1,.523,1.9l-2.549,4.379a1.4,1.4,0,0,1-1.9.523l-4.51-2.614a1.442,1.442,0,0,1-.523-1.9,1.46,1.46,0,0,1,1.9-.523Z" transform="translate(-1.061 -3.083)" fill="#0061a0" fill-rule="evenodd"/>
    <path id="Path_1902" data-name="Path 1902" d="M56.994,79.453A1.366,1.366,0,1,1,57.975,82a27.853,27.853,0,0,1-3.072.98,25.2,25.2,0,0,1-3.2.588,1.35,1.35,0,1,1-.327-2.68c.98-.131,1.9-.327,2.81-.523a28.378,28.378,0,0,0,2.81-.915Z" transform="translate(-16.659 -26.764)" fill="#0061a0" fill-rule="evenodd"/>
    <path id="Path_1903" data-name="Path 1903" d="M39.488,80.671a1.386,1.386,0,0,1-.392,2.745,24.249,24.249,0,0,1-3.137-.654c-1.046-.327-2.026-.654-3.007-1.046a1.312,1.312,0,0,1-.719-1.765,1.363,1.363,0,0,1,1.83-.719,18.481,18.481,0,0,0,2.68.915,20.293,20.293,0,0,0,2.745.523Z" transform="translate(-10.394 -26.675)" fill="#0061a0" fill-rule="evenodd"/>
    <path id="Path_1904" data-name="Path 1904" d="M24.2,72.368a1.292,1.292,0,0,1,.2,1.9,1.356,1.356,0,0,1-1.9.261,18.423,18.423,0,0,1-2.353-2.157c-.719-.784-1.438-1.569-2.092-2.418a1.353,1.353,0,0,1,2.157-1.634,19.863,19.863,0,0,0,1.83,2.157c.719.654,1.373,1.307,2.157,1.9Z" transform="translate(-5.431 -22.752)" fill="#0061a0" fill-rule="evenodd"/>
  </g>
</svg>
