<svg xmlns="http://www.w3.org/2000/svg" width="44.16" height="45.336" viewBox="0 0 44.16 45.336">
  <g id="_5_icon" data-name="5% icon" transform="translate(-0.393 1)">
    <g id="Group_7973" data-name="Group 7973" transform="translate(0.393 -1)">
      <path id="Path_3190" data-name="Path 3190" d="M19.841,14.379a4.076,4.076,0,0,1,1.2,2.885V19.38a4.076,4.076,0,0,1-1.2,2.885,4.315,4.315,0,0,1-5.981,0,4.07,4.07,0,0,1-1.2-2.885V17.264a4.074,4.074,0,0,1,1.2-2.884,4.313,4.313,0,0,1,5.982,0m4.947,8.82a4.314,4.314,0,0,1,5.982,0,4.079,4.079,0,0,1,1.2,2.885V28.2a4.079,4.079,0,0,1-1.2,2.886,4.314,4.314,0,0,1-5.98,0,4.073,4.073,0,0,1-1.2-2.886V26.083A4.076,4.076,0,0,1,24.788,23.2Zm1.5-9.4,1.99,1.2L18.343,31.462l-1.99-1.2ZM15.5,16.021a1.747,1.747,0,0,0-.517,1.242v2.116a1.754,1.754,0,0,0,.518,1.242,1.99,1.99,0,0,0,2.692,0,1.754,1.754,0,0,0,.516-1.241V17.263a1.745,1.745,0,0,0-.514-1.24A1.993,1.993,0,0,0,15.5,16.021Zm10.928,8.82a1.749,1.749,0,0,0-.516,1.242V28.2a1.754,1.754,0,0,0,.517,1.242,1.989,1.989,0,0,0,2.692,0,1.75,1.75,0,0,0,.517-1.242V26.082a1.75,1.75,0,0,0-.513-1.241A2,2,0,0,0,26.432,24.84ZM7.363,5.513l.663,8.037-7.377,2.9L5.47,22.836.8,29.335l7.443,2.718L7.77,40.106,15.49,38.3l3.883,7.041,5.541-5.779,7,3.784,1.59-7.9L41.4,34.77l-2.861-7.519,6.274-4.894-6.386-4.74L41.1,10.034l-7.9-.475L31.428,1.69,24.515,5.645,18.84,0,15.123,7.136Z" transform="translate(-0.649)" fill="#db0a5b" fill-rule="evenodd"/>
    </g>
    <rect id="Rectangle_2032" data-name="Rectangle 2032" width="21" height="21" transform="translate(11.533 11)" fill="#db0a5b"/>
    <text id="_5_" data-name="5%" transform="translate(22.392 28)" fill="#fff" font-size="17" font-family="NotoSans-Bold, Noto Sans" font-weight="700" letter-spacing="-0.01em"><tspan x="-11.703" y="0">5</tspan><tspan y="0" font-family="MetLifeCircular-Bold, MetLife Circular">%</tspan></text>
  </g>
</svg>
