<svg xmlns="http://www.w3.org/2000/svg" width="47.42" height="47.765" viewBox="0 0 47.42 47.765"><defs><style>.a{fill:#b7dd58;}.b{fill:#0090da;}.c{fill:#0061a0;}</style></defs><g transform="translate(-5 -3)"><path class="a" d="M47.918,5.74a22.194,22.194,0,0,1-8.67,16.688c-.636-.556-1.275-1.071-1.863-1.639A21.873,21.873,0,0,1,30.741,7.413c-.061-.487-.077-.979-.122-1.468-.014-.159.032-.229.2-.254A27.353,27.353,0,0,0,39.1,3.029a.45.45,0,0,1,.348.014,27.705,27.705,0,0,0,7.275,2.481C47.1,5.6,47.491,5.664,47.918,5.74ZM34.809,12.473l3.454,3.457L44.64,9.553,43.3,8.222,38.245,13.3,36.118,11.17Z" transform="translate(-3.925)"/><path class="b" d="M41.882,31.637c.556.138.938.248,1.325.324,1.205.237,2.058.674,2.1,2.173a3.486,3.486,0,0,0,1.636,2.439,1.724,1.724,0,0,1,.594,1.355c-.4,2.1-.911,4.177-1.434,6.249a1.418,1.418,0,0,1-1.789,1.154,1.473,1.473,0,0,1-.959-1.76c.158-.925.392-1.836.616-2.862l-2.293,1.223a4.958,4.958,0,0,1-.9,3.571q-1.867,3.052-3.763,6.088a1.547,1.547,0,0,1-2.468.59c-.654-.389-1.3-.793-2.009-1.227-.661.893-1.1,2.16-2.38,2.061a6.046,6.046,0,0,1-2.488-.969c-1.362-.819-1.363-1.762-.14-4.218L12.905,38.733c-.657.93-1.166,2.261-2.559,2.1a5.971,5.971,0,0,1-2.464-1.082c-1.243-.83-1.2-1.77.019-4.113-.661-.415-1.336-.821-1.992-1.258a1.555,1.555,0,0,1-.542-2.428c1.4-2.264,2.836-4.505,4.228-6.774a3.8,3.8,0,0,1,3.924-1.814,2.36,2.36,0,0,0,1.927-.513c1.806-1.468,3.669-2.863,5.514-4.283a3.2,3.2,0,0,1,4.17-.152c4.769,3.1,9.619,6.08,14.483,9.03C41.227,28.431,42.517,29.452,41.882,31.637ZM23.495,21.148a3.767,3.767,0,0,0-.724.39c-1.318,1.146-2.62,2.311-3.931,3.466-.483.426-.39.782.114,1.092.859.528,1.722,1.048,2.583,1.573q7.4,4.515,14.807,9.029c.788.479.958.407,1.2-.484.4-1.5.762-3.019,1.185-4.517a1.265,1.265,0,0,0-.664-1.6q-6.87-4.244-13.723-8.513C24.084,21.425,23.807,21.307,23.495,21.148Zm18.3,11.267c-.386,1.952-.678,3.852-1.159,5.7a3,3,0,0,0,.861,3.007l3.463-1.754c-.1.656-.126.979-.193,1.294-.215,1.015-.493,2.019-.634,3.044-.037.271.333.6.517.9.25-.218.655-.4.723-.661.5-1.948.962-3.908,1.359-5.88a1.3,1.3,0,0,0-.439-1.011,4.128,4.128,0,0,1-1.722-2.722c-.082-1.173-.7-1.5-1.645-1.666C42.594,32.611,42.271,32.523,41.793,32.415Zm-22.727-.434c-.363.206-.83.326-1.058.626a15.881,15.881,0,0,0-1.451,2.321,1.278,1.278,0,0,0,.531,1.757q5.233,3.293,10.5,6.53a1.384,1.384,0,0,0,2.047-.531c.345-.5.661-1.026.981-1.546.7-1.138.54-1.8-.6-2.516q-4.9-3.051-9.8-6.093A12.091,12.091,0,0,0,19.066,31.981ZM8.6,36.076c-.517.853-1.432,1.686-.661,2.571a4.42,4.42,0,0,0,2.51,1.381c.988.139,1.309-.959,1.727-1.75ZM31.813,50.5l-3.545-2.211c-1.385,1.922-1.308,2.465.467,3.554C30.191,52.733,30.782,52.483,31.813,50.5Zm4.258-6.6a2.534,2.534,0,0,0-2.578-2.622,2.576,2.576,0,0,0-2.587,2.539,2.626,2.626,0,0,0,2.6,2.634A2.543,2.543,0,0,0,36.071,43.9Zm-19.6-12.255a2.6,2.6,0,1,0-5.206.017,2.727,2.727,0,0,0,2.665,2.613A2.668,2.668,0,0,0,16.471,31.641Z" transform="translate(0 -2.255)"/><path class="b" d="M56.917,32.506a2.96,2.96,0,0,1,3.01,2.913,2.993,2.993,0,0,1-2.959,2.987A2.9,2.9,0,0,1,54,35.471,2.86,2.86,0,0,1,56.917,32.506Z" transform="translate(-7.507 -4.521)"/><path class="c" d="M49.71,22.064c-1.221,0-2.443.019-3.662-.017-.232-.007-.458-.235-.687-.361.208-.128.416-.365.625-.367q3.8-.037,7.6,0c.206,0,.408.252.611.388-.214.119-.426.334-.642.339C52.275,22.079,50.993,22.064,49.71,22.064Z" transform="translate(-6.184 -2.804)"/><path class="c" d="M15.979,56.513c-1.225,0-2.451.021-3.675-.015-.251-.007-.5-.229-.743-.352.231-.134.46-.382.692-.384q3.721-.043,7.443,0c.233,0,.465.247.7.379-.246.124-.489.348-.738.355C18.43,56.532,17.2,56.512,15.979,56.513Z" transform="translate(-1.005 -8.081)"/><path class="c" d="M12.558,45.761c0,.467.1.788-.017.968A3.137,3.137,0,0,1,9.758,48.2a3.042,3.042,0,0,1-2.792-1.438c-.12-.189-.017-.519-.017-.943C9.639,48.014,10.064,48.014,12.558,45.761Z" transform="translate(-0.292 -6.552)"/><path class="c" d="M54.651,23.626a3.838,3.838,0,0,1-.82.188c-1.653.02-3.309.031-4.963,0-.267,0-.529-.245-.794-.377a2.453,2.453,0,0,1,.824-.363c1.653-.034,3.308-.029,4.963,0a2.941,2.941,0,0,1,.819.265C54.67,23.431,54.661,23.529,54.651,23.626Z" transform="translate(-6.6 -3.072)"/><path class="c" d="M14.886,57.509c.887,0,1.775-.02,2.66.017.179.007.351.228.525.351-.176.13-.349.37-.527.373-1.8.029-3.609.033-5.413,0-.2,0-.389-.275-.584-.422.195-.106.387-.3.586-.3C13.049,57.491,13.968,57.509,14.886,57.509Z" transform="translate(-1.003 -8.351)"/><path class="c" d="M51.318,20.3c-.888,0-1.776.019-2.663-.014-.2-.007-.387-.2-.581-.3.195-.141.386-.4.584-.4q2.708-.046,5.418,0c.181,0,.358.235.536.363-.179.12-.355.336-.54.343C53.155,20.323,52.236,20.3,51.318,20.3Z" transform="translate(-6.6 -2.537)"/><path class="c" d="M11.5,54.192a3.156,3.156,0,0,1,.725-.18c1.709-.014,3.419-.02,5.128.011.235,0,.466.234.7.359-.24.13-.478.368-.72.373-1.678.033-3.358.031-5.036,0a2.825,2.825,0,0,1-.824-.285C11.484,54.381,11.494,54.286,11.5,54.192Z" transform="translate(-0.992 -7.814)"/><path class="c" d="M11.109,19.6a3.066,3.066,0,0,1,.357.195c.77.593,1.549,1.178,2.294,1.8.137.115.136.4.2.6-.214,0-.491.081-.632-.023-.81-.591-1.6-1.217-2.369-1.854a.617.617,0,0,1-.16-.468C10.8,19.759,11,19.681,11.109,19.6Z" transform="translate(-0.888 -2.543)"/><path class="c" d="M13.506,17.431a4.568,4.568,0,0,0,.227.61c.436.8.909,1.588,1.316,2.406.087.176-.05.462-.083.7-.187-.115-.443-.187-.546-.353-.478-.779-.932-1.574-1.348-2.387-.1-.193-.014-.478-.014-.719C13.206,17.6,13.356,17.515,13.506,17.431Z" transform="translate(-1.229 -2.211)"/><path class="c" d="M16.723,18.762a12.677,12.677,0,0,1-.02,1.458c-.021.174-.27.32-.415.479-.1-.16-.292-.319-.3-.481q-.041-1.5,0-3.011c0-.149.222-.291.341-.437.13.147.358.285.372.443C16.754,17.725,16.725,18.244,16.723,18.762Z" transform="translate(-1.681 -2.11)"/></g></svg>