<svg xmlns="http://www.w3.org/2000/svg" width="40.5" height="42.16" viewBox="0 0 40.5 42.16">
  <g id="Group_4569" data-name="Group 4569" transform="translate(-1.176 -1.386)">
    <path id="Path_1911" data-name="Path 1911" d="M38.5,7.851a1.415,1.415,0,0,0-.945-.908l-17.032-5a1.412,1.412,0,0,0-.4-.058h0a1.422,1.422,0,0,0-.4.058L2.7,6.943A1.417,1.417,0,0,0,1.676,8.3V26.632c0,4.046,3.162,7.68,6.672,10.391a38.874,38.874,0,0,0,11.365,5.963,1.433,1.433,0,0,0,.827,0c.592-.18,1.232-.413,1.889-.667.139-.054.273-.105.414-.162.65-.261,1.317-.551,2-.874.04-.018.077-.033.118-.051l0,0a39.216,39.216,0,0,0,6.945-4.2c3.51-2.711,6.674-6.344,6.674-10.391V8.3A1.416,1.416,0,0,0,38.5,7.851Z" transform="translate(0 0)" fill="#0061a0" stroke="#fff" stroke-width="1"/>
    <circle id="Ellipse_92" data-name="Ellipse 92" cx="10.135" cy="10.135" r="10.135" transform="translate(21.406 22.428)" fill="#fff"/>
    <path id="a" d="M16.718,26.016a8.516,8.516,0,1,1,8.516,8.516A8.516,8.516,0,0,1,16.718,26.016ZM26.3,22a1.064,1.064,0,1,0-2.129,0v2.949H21.219a1.064,1.064,0,0,0,0,2.129h2.951v2.951a1.064,1.064,0,0,0,2.129,0V27.08h2.949a1.064,1.064,0,0,0,0-2.129H26.3Z" transform="translate(6.307 6.547)" fill="#0061a0" fill-rule="evenodd"/>
    <g id="Group_4568" data-name="Group 4568" transform="translate(7.921 7.583)">
      <path id="b" d="M30.488,10.269V19.54a11.377,11.377,0,0,0-1.7.213V10.9l-10.5-3.255L7.779,10.9V23.166c0,1.937,1.5,4.012,3.767,5.862a22.985,22.985,0,0,0,6.736,3.794c.474-.162.978-.359,1.5-.589a11.243,11.243,0,0,0,.335,1.7c-.554.237-1.083.437-1.574.595a.838.838,0,0,1-.521,0,25.349,25.349,0,0,1-7.552-4.181c-2.345-1.912-4.393-4.428-4.393-7.182v-12.9a.851.851,0,0,1,.6-.813L18.03,5.938a.847.847,0,0,1,.5,0L29.888,9.455A.853.853,0,0,1,30.488,10.269Z" transform="translate(-6.076 -5.9)" fill="#fff"/>
    </g>
  </g>
</svg>
