<svg xmlns="http://www.w3.org/2000/svg" width="89.189" height="55" viewBox="0 0 89.189 55"><defs><style>.a{fill:#0090da;}.b{fill:#b7dd58;}.c{fill:#0061a0;}</style></defs><g transform="translate(-2 -15)"><path class="a" d="M29.809,28.163Q26.8,31.145,23.8,34.144a1.381,1.381,0,0,0-.108,2.056,1.4,1.4,0,0,0,2.065-.144c1.008-.99,2-1.992,3-2.989s2.01-1.988,3-2.993a1.339,1.339,0,0,0,.1-2A1.358,1.358,0,0,0,29.809,28.163Z" transform="translate(10.354 6.153)"/><path class="a" d="M25.773,29.955a1.365,1.365,0,0,0-1.951-1.908,1.388,1.388,0,0,0-.024,1.915A1.4,1.4,0,0,0,25.773,29.955Z" transform="translate(10.424 6.156)"/><path class="a" d="M27.836,32.233a1.317,1.317,0,0,0-.022,1.893,1.4,1.4,0,0,0,1.968,0,1.357,1.357,0,0,0-1.946-1.891Z" transform="translate(12.368 8.189)"/><path class="b" d="M76.595,34.655c-.321,1.014-.651,2.025-.957,3.043q-2.178,7.221-4.347,14.448a1.351,1.351,0,0,1-1.54,1.124H46.675a1.345,1.345,0,0,1-1.531-1.133Q42.1,41.549,39.057,30.958c-.039-.133-.081-.266-.132-.429h-.479q-2.5,0-5.007,0A1.273,1.273,0,1,1,33.428,28q3.157-.005,6.313,0a1.336,1.336,0,0,1,1.487,1.082c.348,1.2.691,2.4,1.039,3.6.035.119.077.236.119.369h.537q15.979,0,31.956-.011a1.655,1.655,0,0,1,1.713.938C76.595,34.207,76.595,34.432,76.595,34.655ZM58.223,40.636q-4.5,0-9.006,0a1.337,1.337,0,0,0-1.335.761,1.267,1.267,0,0,0,1.3,1.766q6.158.005,12.314,0c1.914,0,3.828,0,5.744,0a1.32,1.32,0,0,0,1.3-.743,1.263,1.263,0,0,0-1.269-1.784Q62.748,40.631,58.223,40.636Zm.037,5.054q-3.2,0-6.4,0a1.279,1.279,0,1,0-.024,2.527q6.372,0,12.745,0a1.279,1.279,0,1,0-.02-2.527Z" transform="translate(14.595 6.324)"/><path class="c" d="M55.715,55.332H9.547v-35.1H68.342v17.2h3.523q0-8.723-.007-17.448a6.478,6.478,0,0,0-.2-1.779C71.071,16.162,69.265,15,66.742,15Q38.93,15,11.117,15c-3.286,0-5.064,1.8-5.064,5.1V57.69c-1.16,0-2.238.026-3.313-.011-.568-.018-.748.165-.739.742a5.62,5.62,0,0,0,5.691,5.634c12.674-.048,25.347-.018,38.021-.018H58.136Q56.923,59.684,55.715,55.332ZM38.884,16.456a1.175,1.175,0,0,1,1.183,1.113,1.193,1.193,0,0,1-1.141,1.164,1.16,1.16,0,0,1-1.132-1.085A1.135,1.135,0,0,1,38.884,16.456Z" transform="translate(0 0)"/><path class="b" d="M45.739,47A3.716,3.716,0,1,1,42,50.672,3.721,3.721,0,0,1,45.739,47Z" transform="translate(19.459 15.568)"/><path class="b" d="M56.48,47c2.467.007,4.459,1.692,4.439,3.754-.019,2.035-2.03,3.687-4.48,3.679s-4.457-1.7-4.439-3.755C52.021,48.646,54.033,46.993,56.48,47Z" transform="translate(24.324 15.568)"/><path class="a" d="M18.176,26C13.659,26,10,29.329,10,33.432s3.662,7.432,8.176,7.432,8.176-3.329,8.176-7.432S22.692,26,18.176,26Zm2.146,10.352A2.6,2.6,0,0,1,18.127,37.4a2.772,2.772,0,0,1-1.831-.587,2.4,2.4,0,0,1-.845-1.579L17,35.075a1.286,1.286,0,0,0,.393.811,1.078,1.078,0,0,0,.751.3,1.051,1.051,0,0,0,.824-.386,1.719,1.719,0,0,0,.336-1.161,1.566,1.566,0,0,0-.334-1.092,1.129,1.129,0,0,0-.87-.365,1.594,1.594,0,0,0-1.2.576l-1.26-.178.8-4.113h4.107v1.417h-2.93l-.243,1.342a2.4,2.4,0,0,1,1.062-.254,2.361,2.361,0,0,1,1.752.733,2.6,2.6,0,0,1,.718,1.9A2.823,2.823,0,0,1,20.321,36.352Z" transform="translate(3.892 5.351)"/></g></svg>