<svg id="Aggressive" xmlns="http://www.w3.org/2000/svg" width="46.422" height="53.881" viewBox="0 0 46.422 53.881">
  <path id="Path_2847" data-name="Path 2847" d="M33.637,30.315a23.443,23.443,0,0,0-4.849,12.011c.263.1.522.194.776.286a17.422,17.422,0,0,1,1.656.663,1.941,1.941,0,0,1,1.134,1.938c-.031,2.657-.02,5.314,0,7.971a1.208,1.208,0,0,0,.345.788,10.275,10.275,0,0,0,5.732,2.848,48.953,48.953,0,0,0,6.066.243A12.105,12.105,0,0,0,56.462,44.846,22.336,22.336,0,0,0,52.885,32.43c-1.166-1.777-2.478-3.455-3.789-5.133-.5-.638-1-1.275-1.487-1.918a.767.767,0,0,0-.548-.2c-3-.013-5.99-.017-8.984.006a1.03,1.03,0,0,0-.7.345c-1.119,1.4-2.214,2.815-3.311,4.23ZM33.27,42.987a9.278,9.278,0,1,1,9.292,9.4A9.345,9.345,0,0,1,33.27,42.987Zm9.279,7.754a7.728,7.728,0,1,0-7.64-7.728A7.684,7.684,0,0,0,42.549,50.741Zm.356-8.3H41.9c-.576,0-1.152,0-1.727,0a.576.576,0,0,1-.578-.774.565.565,0,0,1,.573-.373h2.916c-.009-.025-.016-.049-.023-.071h0a.717.717,0,0,0-.039-.106,1.264,1.264,0,0,0-1.168-.774c-.328-.006-.656-.005-.985,0h0c-.235,0-.47,0-.7,0a.576.576,0,0,1-.567-.782.56.56,0,0,1,.547-.364q.774,0,1.547,0h3.342a.572.572,0,0,1,.469.9.564.564,0,0,1-.489.244H43.934c.115.316.226.622.349.956h.222c.161,0,.333,0,.5,0a.569.569,0,0,1,.551.8.558.558,0,0,1-.542.349c-.111,0-.222,0-.332,0-.138,0-.276,0-.414,0a.189.189,0,0,0-.146.083,2.452,2.452,0,0,1-2.069,1.621.124.124,0,0,0-.029.009L42,44.165l.058.044c.032.024.061.047.092.067l.926.638h0q.737.509,1.475,1.016a.592.592,0,0,1,.3.592.561.561,0,0,1-.891.39c-.427-.289-.851-.582-1.275-.875h0l-.59-.407h0q-1.112-.768-2.226-1.533a.6.6,0,0,1-.3-.577.571.571,0,0,1,.6-.511c.218,0,.437,0,.655,0h0c.355,0,.711,0,1.065,0A1.3,1.3,0,0,0,42.9,42.437Z" transform="translate(-10.041 -3.22)" fill="#0061a0" fill-rule="evenodd"/>
  <path id="Path_2848" data-name="Path 2848" d="M30.731,8.941h.554L25.791,2l-.153.193L20.3,8.941h1.468c.942,0,1.237.3,1.237,1.27q0,2.795,0,5.591,0,1.4,0,2.795v.622h5.568v-.39q0-1.249,0-2.5,0-3.121,0-6.241c0-.81.328-1.139,1.121-1.148C30.027,8.939,30.356,8.94,30.731,8.941ZM19.773,16.448h1.3l-1.691-2.137c-1.276-1.613-2.529-3.2-3.8-4.8-1.84,2.328-3.627,4.588-5.489,6.941h1.459c.948,0,1.245.3,1.245,1.261q0,2.795,0,5.591,0,1.4,0,2.8v.633h5.568V17.841C18.368,16.693,18.616,16.448,19.773,16.448Z" transform="translate(-9.058 -2)" fill="#0090da" fill-rule="evenodd"/>
  <path id="Path_2849" data-name="Path 2849" d="M36,15.409c2.055-1.967,3.911-1.865,5.732.254a4.263,4.263,0,0,0,6.855.034c.19-.216.371-.441.675-.806a9.2,9.2,0,0,1-.163,1.065c-.327,1.1-.678,2.18-1.014,3.273a.536.536,0,0,1-.589.456c-2.8-.015-5.605-.006-8.407-.017a.6.6,0,0,1-.471-.218C37.74,18.127,36.885,16.784,36,15.409Z" transform="translate(-10.421 -2.632)" fill="#0061a0"/>
  <path id="Path_2850" data-name="Path 2850" d="M43.626,23.894c-1.482,0-2.963,0-4.445,0-.747,0-1.181-.355-1.181-.945S38.434,22,39.181,22q4.5,0,9.007,0c.747,0,1.181.356,1.181.945s-.435.943-1.181.946Q45.908,23.9,43.626,23.894Z" transform="translate(-10.526 -3.053)" fill="#0061a0"/>
  <path id="Path_2851" data-name="Path 2851" d="M20.259,34.146a18.474,18.474,0,0,1-11,.006C10.881,32.819,18.3,32.762,20.259,34.146ZM9.053,36.055a20.663,20.663,0,0,0,11.36,0c0,.137,0,.272.005.407h0a7.447,7.447,0,0,1-.024,1,.642.642,0,0,1-.384.426l-.418.124a14.708,14.708,0,0,1-2.15.529,18.507,18.507,0,0,1-7.011-.3c-1.419-.348-1.419-.374-1.4-1.817,0-.08.006-.158.012-.243C9.048,36.145,9.051,36.1,9.053,36.055ZM29.444,54.818v.651c0,1.128,0,1.162-1.081,1.447A17.922,17.922,0,0,1,19.1,56.9c-1.039-.276-1.039-.325-1.038-1.407v-.671A20.678,20.678,0,0,0,29.444,54.818ZM20.415,39.81a20.592,20.592,0,0,1-11.344,0c-.008.281-.021.517-.033.715-.029.5-.044.766.075.94.134.2.438.277,1.085.449h0l.284.076a17.35,17.35,0,0,0,6.951.3,14.8,14.8,0,0,0,2.242-.555h0l.325-.1a.7.7,0,0,0,.393-.478,6.191,6.191,0,0,0,.025-.953C20.418,40.08,20.415,39.946,20.415,39.81Zm9.029,7.5v.6c0,1.186,0,1.221-1.138,1.516A17.888,17.888,0,0,1,19.1,49.4c-1.039-.278-1.039-.323-1.038-1.412v-.667A20.678,20.678,0,0,0,29.444,47.311Zm0,3.747a20.724,20.724,0,0,1-11.382.011v.657c0,1.1,0,1.119,1.044,1.43a15.976,15.976,0,0,0,5.961.53,23.752,23.752,0,0,0,3.084-.547c.237-.053.473-.106.71-.157a.823.823,0,0,0,.556-.484,4.87,4.87,0,0,0,.036-1.011h0C29.447,51.345,29.443,51.2,29.443,51.058Zm-11.064-5.7c2.165-1.361,9.111-1.236,10.9.05A17.762,17.762,0,0,1,18.379,45.357Zm-9.347-1.82a20.036,20.036,0,0,0,7.366.76c-.063.423-.124.839-.191,1.29l-.094.634c-.226,0-.457.007-.691.014h0a11.048,11.048,0,0,1-1.614-.031c-1.127-.132-2.248-.33-3.366-.528h0l-.557-.1a.908.908,0,0,1-.858-1.172,2.6,2.6,0,0,0,.015-.56C9.036,43.747,9.032,43.645,9.032,43.537ZM15.565,57.5c.255-.007.507-.015.756-.015l-.078-.865h0c-.031-.346-.061-.675-.092-1.018a20.922,20.922,0,0,1-7.118-.8c0,.111,0,.216.007.315a2.9,2.9,0,0,1-.015.57.881.881,0,0,0,.821,1.144c.309.053.618.108.927.162h0c1.017.18,2.035.36,3.058.477A12.285,12.285,0,0,0,15.565,57.5Zm.616-9.408v1.886c-.25,0-.5.007-.747.014h0a10.972,10.972,0,0,1-1.621-.032c-1.038-.123-2.068-.306-3.1-.489h0l-.88-.155a.884.884,0,0,1-.808-1.148A2.93,2.93,0,0,0,9.04,47.6c0-.1-.008-.2-.008-.312A20.818,20.818,0,0,0,16.181,48.088Zm-.026,3.832c-.014-.016-.034-.04-.063-.078a20.411,20.411,0,0,1-7.059-.8v.791q0,.03,0,.059c0,.924,0,1.029.939,1.211a28.855,28.855,0,0,0,4.621.606c.958.027,1.361.125,1.522-.029s.069-.609.065-1.719C16.181,51.95,16.174,51.942,16.155,51.919Z" transform="translate(-9 -3.638)" fill="#b7dd58" fill-rule="evenodd"/>
</svg>
