<svg xmlns="http://www.w3.org/2000/svg" width="40.284" height="40.307" viewBox="0 0 40.284 40.307">
  <g id="noun_Coins_871853" transform="translate(-7.3 -7.25)">
    <g id="Group_7527" data-name="Group 7527" transform="translate(8.3 8.25)">
      <path id="Path_2823" data-name="Path 2823" d="M21.2,46.557A12.919,12.919,0,0,0,34.1,34.071,12.924,12.924,0,0,0,42.82,12.037a12.911,12.911,0,0,0-18.27,0,12.75,12.75,0,0,0-3.764,8.722,12.9,12.9,0,0,0,.413,25.8Zm4.682-33.188a11.068,11.068,0,1,1,0,15.653A11.082,11.082,0,0,1,25.881,13.368Zm-5,9.227A12.885,12.885,0,0,0,24.6,30.307a12.56,12.56,0,0,0,7.712,3.672,11.065,11.065,0,1,1-11.43-11.384Z" transform="translate(-8.3 -8.25)" fill="#0090da" stroke="#0090da" stroke-width="2"/>
      <path id="Path_2824" data-name="Path 2824" d="M58.051,31.161H54.7l5.371,5.692.78-.826-3.535-3.718h.826a2.641,2.641,0,0,0,2.479-2.157h1.7V29h-1.7a3.082,3.082,0,0,0-.459-1.056H62.32V26.8H55.251v1.148h2.8A1.579,1.579,0,0,1,59.474,29H55.3v1.1h4.177A1.579,1.579,0,0,1,58.051,31.161Z" transform="translate(-33.401 -18.285)" fill="#0061a0" stroke="#0061a0" stroke-width="0.2"/>
      <path id="Path_2825" data-name="Path 2825" d="M30.151,60.207H26.8L32.171,65.9l.78-.826-3.535-3.718h.826a2.639,2.639,0,0,0,2.479-2.2h1.7V58h-1.7a3.082,3.082,0,0,0-.459-1.056H34.42V55.8H27.351v1.148h2.8A1.579,1.579,0,0,1,31.574,58H27.351v1.148h4.177A1.419,1.419,0,0,1,30.151,60.207Z" transform="translate(-18.308 -33.973)" fill="#0061a0" stroke="#0061a0" stroke-width="0.2"/>
    </g>
  </g>
</svg>
