<svg xmlns="http://www.w3.org/2000/svg" width="42.912" height="50.098" viewBox="0 0 42.912 50.098"><defs><style>.a{fill:#0090da;fill-rule:evenodd;}.b{fill:#0061a0;}.c{fill:#fff;}</style></defs><g transform="translate(0 0)"><path class="a" d="M65.863,2.136c-1.872-1.362-6.127-1.021-8.17.34-16.68-8.34-7.489,6.3-4.255,6.3H68.757C71.139,8.774,79.82-4.842,65.863,2.136Z" transform="translate(-39.768 0.092)"/><path class="b" d="M71.287,63.4a1.7,1.7,0,1,1,0-3.4H86.435a1.7,1.7,0,0,1,0,3.4Z" transform="translate(-57.617 -49.772)"/><path class="a" d="M12.163,88c-49.7,47.146,68.592,46.465,17.191,0Z" transform="translate(0.315 -73.006)"/><path class="c" d="M31.471,21.429H28.217a6.124,6.124,0,0,1,.9,1.989h2.35v2.305h-2.35a5.477,5.477,0,0,1-5.334,4.294h-.542l6.147,6.238H25.956l-5.7-5.7V27.577h3.481A2.924,2.924,0,0,0,26.5,25.724H20.261V23.418h6.283a3.017,3.017,0,0,0-2.757-1.853H20.306V19.124H31.471Z" transform="translate(-4.158 4.856)"/></g></svg>