<svg xmlns="http://www.w3.org/2000/svg" width="101.396" height="78.49" viewBox="0 0 101.396 78.49"><defs><style>.a,.b{fill:#0061a0;}.a,.d{fill-rule:evenodd;}.c{fill:#fff;}.d{fill:#0090da;}</style></defs><g transform="translate(0)"><g transform="translate(0 31.721)"><path class="a" d="M61.991,1.654c-1.467-1.067-4.8-.8-6.4.267-13.066-6.533-5.867,4.933-3.333,4.933h12C66.124,6.853,72.924-3.813,61.991,1.654Z" transform="translate(-41.55 0.092)"/><path class="b" d="M70.9,62.667A1.335,1.335,0,1,1,70.9,60H82.766a1.334,1.334,0,0,1,0,2.667Z" transform="translate(-60.192 -51.988)"/><path class="a" d="M9.46,88c-38.932,36.932,53.732,36.4,13.466,0Z" transform="translate(0.315 -76.255)"/><path class="c" d="M29.042,20.93H26.493a4.8,4.8,0,0,1,.708,1.558h1.841v1.806H27.2a4.29,4.29,0,0,1-4.178,3.364H22.6l4.816,4.886H24.723l-4.462-4.462V25.746h2.726a2.291,2.291,0,0,0,2.16-1.452H20.261V22.488h4.922a2.364,2.364,0,0,0-2.16-1.452H20.3V19.124h8.746Z" transform="translate(-7.647 -0.339)"/></g><g transform="translate(22.48)"><path class="d" d="M75.992,3.4c-2.933-2.133-9.6-1.6-12.8.533C37.06-9.134,51.459,13.8,56.526,13.8h24C84.258,13.8,97.858-7.534,75.992,3.4Z" transform="translate(-35.109 0.092)"/><path class="b" d="M72.3,65.333A2.67,2.67,0,1,1,72.3,60H96.033c3.467,0,3.467,5.333,0,5.333Z" transform="translate(-50.883 -43.976)"/><path class="d" d="M19.235,88C-58.63,161.865,126.7,160.8,46.167,88Z" transform="translate(0.315 -64.509)"/><path class="c" d="M37.824,22.736h-5.1a9.594,9.594,0,0,1,1.416,3.116h3.683v3.612H34.141a8.581,8.581,0,0,1-8.356,6.728h-.85l9.631,9.773H29.184l-8.923-8.923V32.367h5.453a4.582,4.582,0,0,0,4.32-2.9H20.261V25.852H30.1a4.727,4.727,0,0,0-4.32-2.9H20.332V19.124H37.824Z" transform="translate(4.967 18.446)"/></g><g transform="translate(73.729 45.125)"><path class="a" d="M59.513,1.345c-1.207-.878-3.951-.658-5.267.219-10.754-5.377-4.828,4.06-2.743,4.06h9.876C62.915,5.624,68.512-3.154,59.513,1.345Z" transform="translate(-42.689 0.092)"/><path class="b" d="M70.652,62.195a1.1,1.1,0,1,1,0-2.195h9.767a1.1,1.1,0,0,1,0,2.195Z" transform="translate(-61.839 -53.406)"/><path class="a" d="M7.73,88c-32.043,30.4,44.224,29.958,11.083,0Z" transform="translate(0.315 -78.333)"/><path class="c" d="M27.489,20.611h-2.1a3.948,3.948,0,0,1,.583,1.282h1.515v1.486H25.973a3.531,3.531,0,0,1-3.439,2.769h-.35l3.963,4.022H23.933L20.261,26.5V24.574h2.244a1.885,1.885,0,0,0,1.778-1.195H20.261V21.893h4.051A1.945,1.945,0,0,0,22.534,20.7H20.29V19.124h7.2Z" transform="translate(-9.879 -3.663)"/></g></g></svg>