<svg id="Layer_1" xmlns="http://www.w3.org/2000/svg" width="64.48" height="60" viewBox="0 0 64.48 60">
  <g id="Group_4573" data-name="Group 4573">
    <path id="Path_1912" data-name="Path 1912" d="M56.674,4.887H52.127V2.715A2.723,2.723,0,0,0,49.412,0H15.136a2.723,2.723,0,0,0-2.715,2.715V4.887H7.805A7.85,7.85,0,0,0,0,12.692v5.43A12.142,12.142,0,0,0,7.738,29.457l9.977,3.937a28.248,28.248,0,0,0,4.072,4.48l5.226,4.615v7.738H24.706a5.62,5.62,0,0,0-5.633,5.633V58.71A1.289,1.289,0,0,0,20.362,60H44.186a1.289,1.289,0,0,0,1.29-1.29V55.86a5.62,5.62,0,0,0-5.633-5.633H37.534v-7.67l5.226-4.615a25.333,25.333,0,0,0,4.072-4.48l9.977-3.937A12.249,12.249,0,0,0,64.48,18.19V12.76A7.865,7.865,0,0,0,56.674,4.887ZM9.706,24.367A6.7,6.7,0,0,1,5.43,18.122v-5.43a2.289,2.289,0,0,1,2.308-2.308h4.548v6.787A27.36,27.36,0,0,0,13.778,26ZM32.24,31.29A11.98,11.98,0,1,1,44.186,19.276,11.963,11.963,0,0,1,32.24,31.29Zm26.742-13.1a6.7,6.7,0,0,1-4.276,6.244l-4.14,1.629a27.677,27.677,0,0,0,1.493-8.824V10.452h4.615a2.289,2.289,0,0,1,2.308,2.308Z" fill="#0090da"/>
  </g>
  <path id="Path_1913" data-name="Path 1913" d="M44.062,19.2l2.24,4.548,5.023.747-3.6,3.529.814,5.023-4.48-2.376-4.48,2.376.814-5.023-3.6-3.529,5.023-.747Z" transform="translate(-11.823 -6.168)" fill="#0061a0"/>
</svg>
