<svg xmlns="http://www.w3.org/2000/svg" width="41.199" height="35.146" viewBox="0 0 41.199 35.146">
  <g id="Group_7354" data-name="Group 7354" transform="translate(-5 -17.564)">
    <path id="Path_2743" data-name="Path 2743" d="M45.923,59.565c0-2.115-3.633-3.265-6.989-3.265-3.449,0-6.989,1.2-7.127,3.219a.417.417,0,0,0-.138.322v1.287a11.981,11.981,0,0,0-5.886-1.333c-3.679,0-7.449,1.287-7.449,3.449v1.7a11.612,11.612,0,0,0-5.978-1.425C8.724,63.519,5,64.807,5,66.968v3.357c0,2.161,3.77,3.311,7.357,3.311,2.621,0,5.38-.644,6.667-1.885,1.241,1.241,4.046,1.885,6.667,1.885s5.38-.644,6.621-1.885c1.2,1.241,3.862,1.839,6.483,1.839,4.046,0,7.127-1.471,7.127-3.4V67.2a.583.583,0,0,0-.046-.276,1.273,1.273,0,0,0,.046-.414V63.519a.583.583,0,0,0-.046-.276,1.273,1.273,0,0,0,.046-.414V59.565Zm-1.379,6.943c0,.828-2.253,2.023-5.748,2.023-3.541,0-5.748-1.15-5.748-1.931V64.99A11.939,11.939,0,0,0,38.8,66.278a10.938,10.938,0,0,0,5.748-1.333ZM19.714,65.22a12.5,12.5,0,0,0,6.07,1.287,11.858,11.858,0,0,0,5.886-1.333v1.333c0,.828-2.529,2.023-5.978,2.023-3.587,0-5.978-1.15-5.978-1.931Zm24.83-2.391c0,.828-2.253,2.023-5.748,2.023-3.541,0-5.748-1.15-5.748-1.931V61.542a11.75,11.75,0,0,0,5.886,1.287,11.372,11.372,0,0,0,5.61-1.287Zm-5.61-5.2c3.449,0,5.656,1.15,5.656,1.931S42.383,61.5,38.934,61.5c-3.495,0-5.794-1.1-5.794-1.885C33.095,58.829,35.532,57.633,38.934,57.633ZM25.784,61.174c3.587,0,5.886,1.2,5.886,1.977s-2.3,1.977-5.886,1.977c-3.633,0-6.07-1.15-6.07-1.931C19.714,62.37,22.243,61.174,25.784,61.174ZM12.357,64.853c3.541,0,5.84,1.2,5.84,1.977s-2.253,1.977-5.84,1.977-5.978-1.15-5.978-1.931S8.908,64.853,12.357,64.853Zm0,7.357c-3.587,0-5.978-1.15-5.978-1.931V68.9a12.243,12.243,0,0,0,5.978,1.287,11.612,11.612,0,0,0,5.978-1.425v1.425C18.335,71.014,15.944,72.21,12.357,72.21Zm13.335,0c-3.587,0-5.978-1.15-5.978-1.931v-1.7a12.232,12.232,0,0,0,5.978,1.333,12.222,12.222,0,0,0,5.978-1.379v1.655C31.669,71.014,29.278,72.21,25.692,72.21Zm13.1,0c-3.541,0-5.748-1.15-5.748-1.931V68.669A11.939,11.939,0,0,0,38.8,69.956a10.938,10.938,0,0,0,5.748-1.333v1.609C44.544,71.014,42.291,72.21,38.8,72.21Z" transform="translate(0 -20.925)" fill="#fff"/>
    <path id="Path_2744" data-name="Path 2744" d="M47.021,19.971v-.184c0-.046-.046-.138-.046-.184s-.046-.092-.046-.138c-.046-.092-.046-.138-.092-.184,0-.046-.046-.092-.046-.138a1.219,1.219,0,0,0-.23-.276h0l-.046-.046a.459.459,0,0,0-.23-.184c-.046-.046-.092-.046-.138-.092a.349.349,0,0,0-.184-.092.169.169,0,0,0-.138-.046.276.276,0,0,0-.184-.046c-.046,0-.092-.046-.184-.046-.046,0-.092,0-.092-.046L40.4,17.58a1.879,1.879,0,1,0-.506,3.724l.92.138-9.84,8.644-7.4-4.828a1.864,1.864,0,0,0-2.207.092L7.247,36.387a1.85,1.85,0,0,0-.322,2.621,1.92,1.92,0,0,0,1.471.736,1.766,1.766,0,0,0,1.15-.414L22.6,29.122l7.495,4.92a1.874,1.874,0,0,0,2.3-.184l10.852-9.61v.92a1.885,1.885,0,0,0,3.77,0v-5.2Z" transform="translate(-0.822)" fill="#fff"/>
  </g>
</svg>
