<svg id="Balanced" xmlns="http://www.w3.org/2000/svg" width="41.685" height="51.851" viewBox="0 0 41.685 51.851">
  <path id="Path_2852" data-name="Path 2852" d="M23.071,24.663a31.27,31.27,0,0,1-4.64-.341,21.094,21.094,0,0,1-5.6-1.493,7.25,7.25,0,0,1-2.288-1.478,1.5,1.5,0,0,1,.029-2.33,7.239,7.239,0,0,1,2.236-1.428,24.306,24.306,0,0,1,8.253-1.78,34.817,34.817,0,0,1,7.567.3,22.161,22.161,0,0,1,4.46,1.1,9.23,9.23,0,0,1,2.78,1.488,3.665,3.665,0,0,1,.628.668,1.366,1.366,0,0,1-.143,1.863,6.523,6.523,0,0,1-2.229,1.516,20.341,20.341,0,0,1-5.134,1.473A35.742,35.742,0,0,1,23.071,24.663ZM10.015,23.7c.179.1.355.205.53.308.383.225.76.447,1.151.639a20.922,20.922,0,0,0,5.549,1.727,35.263,35.263,0,0,0,8.16.481,30.558,30.558,0,0,0,6.242-.939,16.734,16.734,0,0,0,4.462-1.8c.156-.1.307-.2.468-.3l.22-.146v3.247l-.291.016h0c-.222.012-.447.023-.67.043a15.524,15.524,0,0,0-6.955,2.294A16.145,16.145,0,0,0,26.2,31.356a.635.635,0,0,1-.358.165,33.351,33.351,0,0,1-6.039-.1,23.309,23.309,0,0,1-6.25-1.46,8.433,8.433,0,0,1-2.674-1.577,3.452,3.452,0,0,1-.63-.77,1.66,1.66,0,0,1-.23-.767C10,26.11,10,25.373,10,24.636q0-.42,0-.84c0-.021,0-.04.006-.059h0C10.012,23.726,10.014,23.715,10.015,23.7ZM24.183,53.442c.231,0,.466,0,.7,0-.019-.04-.031-.067-.04-.084a.218.218,0,0,0-.021-.04,15.693,15.693,0,0,1-2.506-4.441c-.052-.145-.142-.153-.264-.162-.29-.022-.58-.042-.869-.062-.78-.054-1.561-.109-2.338-.2a24.039,24.039,0,0,1-4.039-.8,15.466,15.466,0,0,1-4.658-2.074.417.417,0,0,0-.092-.045h0L10,45.506q0,.428,0,.852c0,.8,0,1.6.01,2.39a1.271,1.271,0,0,0,.187.615,4.33,4.33,0,0,0,.623.8,7.306,7.306,0,0,0,2.243,1.421,21.959,21.959,0,0,0,6.763,1.669c.944.1,1.894.14,2.844.176C23.17,53.451,23.669,53.446,24.183,53.442Zm-13.5-21.453h0c.485.274.963.544,1.457.781a19.079,19.079,0,0,0,4.23,1.368,30.153,30.153,0,0,0,5.786.676c.377.008.755.006,1.15,0h0l.585,0-.054.1c-.042.075-.07.127-.1.177a15.836,15.836,0,0,0-1.87,4.258c-.037.136-.071.213-.24.2a26.948,26.948,0,0,1-7.243-1.3,10.056,10.056,0,0,1-3.443-1.859,2.352,2.352,0,0,1-.914-1.481,7.586,7.586,0,0,1-.025-1c0-.137.005-.275,0-.412,0-.318,0-.636,0-.952s0-.625,0-.933C10.239,31.736,10.463,31.863,10.686,31.989ZM21.275,46.448l.635.05a16.291,16.291,0,0,1-.218-4.717l-.154-.015c-.147-.015-.283-.028-.418-.037a30.848,30.848,0,0,1-5.567-.838A17.634,17.634,0,0,1,10.54,38.9c-.105-.064-.209-.131-.319-.2l-.215-.137c0,.294,0,.585,0,.873,0,.746-.008,1.476.015,2.206a1.921,1.921,0,0,0,.253.9,3.57,3.57,0,0,0,.756.857,10.488,10.488,0,0,0,3.6,1.842,25.563,25.563,0,0,0,5.562,1.115C20.541,46.391,20.9,46.419,21.275,46.448Z" transform="translate(-10 -5.565)" fill="#0061a0" fill-rule="evenodd"/>
  <path id="Path_2853" data-name="Path 2853" d="M52.456,43.742A14.149,14.149,0,0,1,38.562,58.132,14.149,14.149,0,0,1,24.667,43.742,14.149,14.149,0,0,1,38.562,29.351,14.149,14.149,0,0,1,52.456,43.742ZM39.07,43.226h.466a1.9,1.9,0,0,1-1.516.86c-.518.011-1.035.009-1.553.008-.329,0-.659,0-.988,0a.852.852,0,0,0-.879.777.919.919,0,0,0,.442.876q1.288.908,2.572,1.823l.715.508.789.562c.652.465,1.3.93,1.963,1.388a.824.824,0,0,0,1.315-.593.906.906,0,0,0-.444-.9q-1.28-.9-2.557-1.814l-.985-.7c-.046-.033-.091-.067-.14-.106l-.081-.063.049-.018a.2.2,0,0,1,.042-.013,3.638,3.638,0,0,0,3.054-2.465.278.278,0,0,1,.214-.126c.206-.007.413-.006.619-.006.161,0,.322,0,.483,0a.823.823,0,0,0,.8-.53.862.862,0,0,0-.813-1.211c-.269,0-.538,0-.79,0h-.281l-.38-1.072-.135-.38h.564c.341,0,.683,0,1.024,0a.824.824,0,0,0,.723-.37.847.847,0,0,0,.065-.9.793.793,0,0,0-.755-.477H37.631q-1.087,0-2.174,0a.828.828,0,0,0-.806.554.871.871,0,0,0,.836,1.188c.359,0,.718,0,1.077,0,.472,0,.944,0,1.416.006A1.868,1.868,0,0,1,39.7,41.211a1.215,1.215,0,0,1,.06.167c.01.032.02.066.033.1h-.3q-2,0-4,0a.835.835,0,0,0-.844.567.869.869,0,0,0,.851,1.176c.833,0,1.666,0,2.5,0Z" transform="translate(-10.772 -6.282)" fill="#b7dd58" fill-rule="evenodd"/>
  <path id="Path_2854" data-name="Path 2854" d="M51.263,13.018H49.688c-1.4,0-1.7.282-1.7,1.609V24.895H41.266v-.731q0-4.843,0-9.687c0-1.109-.359-1.453-1.5-1.457-.531,0-1.064,0-1.762,0L44.63,5Z" transform="translate(-11.474 -5)" fill="#0090da"/>
</svg>
