<svg id="Group_6060" data-name="Group 6060" xmlns="http://www.w3.org/2000/svg" width="89.789" height="69.505" viewBox="0 0 89.789 69.505">
  <g id="Group_6055" data-name="Group 6055" transform="translate(0 28.09)">
    <path id="Path_2024" data-name="Path 2024" d="M60.388,1.454c-1.3-.945-4.25-.708-5.667.236C43.15-4.1,49.526,6.058,51.769,6.058H62.4C64.048,6.058,70.07-3.387,60.388,1.454Z" transform="translate(-42.287 0.092)" fill="#0061a0" fill-rule="evenodd"/>
    <path id="Path_2025" data-name="Path 2025" d="M70.74,62.361a1.182,1.182,0,1,1,0-2.361H81.248a1.181,1.181,0,0,1,0,2.361Z" transform="translate(-61.257 -52.905)" fill="#0061a0"/>
    <path id="Path_2026" data-name="Path 2026" d="M8.341,88c-34.476,32.7,47.581,32.233,11.925,0Z" transform="translate(0.315 -77.599)" fill="#0061a0" fill-rule="evenodd"/>
    <path id="Path_2027" data-name="Path 2027" d="M28.037,20.723H25.78a4.248,4.248,0,0,1,.627,1.38h1.63v1.6h-1.63a3.8,3.8,0,0,1-3.7,2.979h-.376l4.264,4.327H24.212l-3.951-3.951V24.988h2.414A2.029,2.029,0,0,0,24.588,23.7H20.261V22.1H24.62a2.093,2.093,0,0,0-1.913-1.286H20.292V19.124h7.745Z" transform="translate(-9.091 -2.489)" fill="#fff"/>
  </g>
  <g id="Group_5448" data-name="Group 5448" transform="translate(19.907)">
    <path id="Path_2024-2" data-name="Path 2024" d="M72.787,3c-2.6-1.889-8.5-1.417-11.335.472-23.141-11.571-10.39,8.737-5.9,8.737H76.8C80.107,12.209,92.15-6.682,72.787,3Z" transform="translate(-36.583 0.092)" fill="#0090da" fill-rule="evenodd"/>
    <path id="Path_2025-2" data-name="Path 2025" d="M71.979,64.723a2.364,2.364,0,1,1,0-4.723H93c3.07,0,3.07,4.723,0,4.723Z" transform="translate(-53.014 -45.81)" fill="#0061a0"/>
    <path id="Path_2026-2" data-name="Path 2026" d="M17,88c-68.952,65.41,95.163,64.465,23.85,0Z" transform="translate(0.315 -67.198)" fill="#0090da" fill-rule="evenodd"/>
    <path id="Path_2027-2" data-name="Path 2027" d="M35.814,22.323H31.3a8.5,8.5,0,0,1,1.254,2.759h3.261v3.2H32.553a7.6,7.6,0,0,1-7.4,5.958H24.4l8.529,8.654H28.163l-7.9-7.9V30.851H25.09a4.057,4.057,0,0,0,3.825-2.571H20.261v-3.2h8.717a4.186,4.186,0,0,0-3.825-2.571H20.324V19.124h15.49Z" transform="translate(2.079 14.145)" fill="#fff"/>
  </g>
  <g id="Group_6056" data-name="Group 6056" transform="translate(65.289 39.96)">
    <path id="Path_2024-3" data-name="Path 2024" d="M58.194,1.18C57.126.4,54.7.6,53.53,1.375c-9.523-4.762-4.276,3.6-2.429,3.6h8.746C61.207,4.97,66.163-2.8,58.194,1.18Z" transform="translate(-43.296 0.092)" fill="#0061a0" fill-rule="evenodd"/>
    <path id="Path_2025-3" data-name="Path 2025" d="M70.52,61.943a.973.973,0,1,1,0-1.944h8.649a.972.972,0,0,1,0,1.944Z" transform="translate(-62.716 -54.161)" fill="#0061a0"/>
    <path id="Path_2026-3" data-name="Path 2026" d="M6.809,88c-28.375,26.918,39.162,26.529,9.815,0Z" transform="translate(0.315 -79.44)" fill="#0061a0" fill-rule="evenodd"/>
    <path id="Path_2027-3" data-name="Path 2027" d="M26.661,20.44H24.8a3.5,3.5,0,0,1,.516,1.136h1.342v1.316H25.319a3.127,3.127,0,0,1-3.045,2.452h-.31l3.51,3.561H23.513l-3.252-3.252v-1.7h1.987a1.67,1.67,0,0,0,1.574-1.058H20.261V21.576h3.587a1.723,1.723,0,0,0-1.574-1.058H20.287V19.124h6.374Z" transform="translate(-11.067 -5.433)" fill="#fff"/>
  </g>
</svg>
