<svg xmlns="http://www.w3.org/2000/svg" width="24.347" height="28.66" viewBox="0 0 24.347 28.66">
  <g id="Business_Expansion" data-name="Business Expansion" transform="translate(-10.039 -6)">
    <path id="Path_2926" data-name="Path 2926" d="M44.269,15.243c-1.1.636-2.127,1.209-3.13,1.822-.411.251-.623.195-.846-.235-.425-.815-.448-.8.34-1.264.922-.54,1.847-1.078,2.848-1.661-.455-.128-.816-.24-1.182-.33a.4.4,0,0,1-.34-.563c.014-.052.023-.107.036-.16.24-.958.25-.966,1.215-.708.914.244,1.822.5,2.741.728.427.1.577.294.454.734-.3,1.049-.568,2.106-.84,3.162-.1.388-.286.578-.7.4a2.038,2.038,0,0,0-.42-.115c-.429-.078-.6-.287-.442-.732C44.108,16,44.165,15.663,44.269,15.243Z" transform="translate(-13.448 -2.693)" fill="#b7dd58"/>
    <path id="Path_2927" data-name="Path 2927" d="M13.177,15.243c1.1.636,2.127,1.209,3.13,1.822.411.251.623.195.846-.235.425-.815.448-.8-.34-1.264-.922-.54-1.847-1.078-2.848-1.661.455-.128.816-.24,1.182-.33a.4.4,0,0,0,.34-.563c-.014-.052-.023-.107-.036-.16-.24-.958-.25-.966-1.215-.708-.914.244-1.822.5-2.741.728-.427.1-.577.294-.454.734.3,1.049.568,2.106.84,3.162.1.388.286.578.7.4a2.04,2.04,0,0,1,.42-.115c.43-.078.6-.287.442-.732C13.338,16,13.281,15.663,13.177,15.243Z" transform="translate(-0.431 -2.693)" fill="#b7dd58"/>
    <path id="Path_2928" data-name="Path 2928" d="M28.109,8.863c-.2.184-.307.278-.409.377-.824.812-.9.819-1.665-.059a.55.55,0,0,1-.016-.532Q27.277,7.326,28.6,6.065a.515.515,0,0,1,.5,0q1.32,1.262,2.583,2.581c.089.093.021.337.023.51,0,.013-.022.027-.035.04-.951.95-.716.891-1.561.07-.114-.11-.234-.212-.452-.41V12.1c0,.985,0,.968-.995.96-.437,0-.567-.187-.562-.6C28.119,11.31,28.109,10.15,28.109,8.863Z" transform="translate(-7.145)" fill="#b7dd58"/>
    <path id="Path_2929" data-name="Path 2929" d="M41.788,23.453a4.726,4.726,0,1,0,4.726,4.726A4.726,4.726,0,0,0,41.788,23.453Zm1.037,3.638c.114,0,.245,0,.375,0a.292.292,0,1,1,0,.584c-.129,0-.258,0-.385,0a.1.1,0,0,0-.075.042,1.263,1.263,0,0,1-1.068.827l-.033.01.077.057q.619.423,1.238.843a.3.3,0,0,1,.155.3.29.29,0,0,1-.46.2c-.323-.215-.641-.435-.962-.654l-1.148-.783a.3.3,0,0,1-.155-.294.294.294,0,0,1,.308-.261c.3,0,.592,0,.887,0a.676.676,0,0,0,.53-.287h-.163c-.416,0-.832,0-1.248,0a.293.293,0,0,1-.3-.395.29.29,0,0,1,.3-.189h1.505a.769.769,0,0,0-.033-.09.653.653,0,0,0-.6-.395c-.29-.007-.581,0-.871,0a.292.292,0,1,1-.01-.584c.354,0,.709,0,1.063,0h1.458a.28.28,0,0,1,.264.16.272.272,0,0,1-.023.3.291.291,0,0,1-.253.124c-.16,0-.318,0-.478,0h-.078C42.706,26.765,42.763,26.922,42.825,27.091Z" transform="translate(-12.129 -7.833)" fill="#0061a0"/>
    <path id="Path_2930" data-name="Path 2930" d="M20.55,42.733h2.583V41.686l1.993-.352c.59-.1,1.182-.21,1.774-.307a.611.611,0,0,1,.307.028,5.841,5.841,0,0,0,5.9-.791c.033-.023.067-.044.121-.078v5.861H10.08V39.765c.506.091,1,.179,1.5.271q4.379.8,8.761,1.593c.171.031.22.093.212.258C20.54,42.161,20.55,42.435,20.55,42.733Z" transform="translate(-0.019 -15.155)" fill="#0090da"/>
    <path id="Path_2931" data-name="Path 2931" d="M26.029,36.25c-.972.17-1.9.333-2.82.493a.376.376,0,0,1-.1-.018c0-.192.008-.388-.007-.584,0-.051-.08-.137-.124-.137C22.179,36,21.373,36,20.541,36v.7c-.522-.093-1.014-.178-1.505-.267l-6.465-1.179c-.778-.142-1.557-.287-2.337-.422-.147-.026-.2-.077-.2-.23.008-.678,0-1.358,0-2.037a2.076,2.076,0,0,1,2.089-2.092q5.666-.01,11.329,0c.062,0,.124.008.192.013A5.969,5.969,0,0,0,26.029,36.25Z" transform="translate(0 -10.983)" fill="#0090da"/>
    <path id="Path_2932" data-name="Path 2932" d="M10.043,52.55H33.211a3.7,3.7,0,0,1-.222,1.851A2.019,2.019,0,0,1,31.12,55.55q-9.491.01-18.983,0a2.08,2.08,0,0,1-2.092-2.068C10.038,53.18,10.043,52.877,10.043,52.55Z" transform="translate(-0.001 -20.893)" fill="#0090da"/>
    <path id="Path_2933" data-name="Path 2933" d="M30.437,25.582c0-.465,0-.928,0-1.393a1.243,1.243,0,0,0-.29-.864,1.15,1.15,0,0,0-.89-.424c-.672,0-1.344-.008-2.014,0a1.2,1.2,0,0,0-1.2,1.207c0,.488,0,.974,0,1.5-.4,0-.783,0-1.168-.007-.033,0-.093-.082-.093-.127,0-.884-.028-1.768.011-2.65a1.3,1.3,0,0,1,1.347-1.23q2.1-.007,4.2,0A1.34,1.34,0,0,1,31.7,22.927a1.534,1.534,0,0,1-.32,1.044,12.21,12.21,0,0,0-.82,1.474c-.026.047-.046.1-.068.145A.323.323,0,0,1,30.437,25.582Z" transform="translate(-6.614 -6.996)" fill="#0090da"/>
  </g>
</svg>
