<svg xmlns="http://www.w3.org/2000/svg" width="55.507" height="68.228" viewBox="0 0 55.507 68.228"><defs><style>.a{fill:#b7dd58;}.b{fill:#0061a0;}.c{fill:#fff;}</style></defs><path class="a" d="M8,26.739q0-6.962,0-13.923c0-1.462.166-1.625,1.576-1.832A66.464,66.464,0,0,0,34.6,2.369a1.879,1.879,0,0,1,2.215-.015,65.594,65.594,0,0,0,25.132,8.617c1.121.157,1.5.636,1.493,1.71-.027,6.619-.015,13.238-.01,19.856,0,2.77.176,5.55,0,8.309A23.8,23.8,0,0,1,59.642,52.44C54.047,61.1,46.135,66.781,36.4,70.122a2.2,2.2,0,0,1-1.329,0c-9.98-3.416-18.052-9.253-23.607-18.249A23.012,23.012,0,0,1,8.009,39.62C7.992,35.327,8.005,31.032,8,26.739Zm50.852,2.012h.023q0-5.989,0-11.979c0-1.5-.159-1.693-1.611-1.986A72.127,72.127,0,0,1,36.7,7.5a1.8,1.8,0,0,0-1.933-.021,71.887,71.887,0,0,1-20.45,7.276c-1.653.335-1.767.467-1.762,2.1.02,7.643.084,15.286.052,22.927a18.034,18.034,0,0,0,2.682,9.651c4.627,7.6,11.359,12.689,19.642,15.885a2.348,2.348,0,0,0,1.541.007A38.413,38.413,0,0,0,56.08,49.562a17.3,17.3,0,0,0,2.744-8.614C58.955,36.887,58.856,32.818,58.856,28.751Z" transform="translate(-8 -2)"/><path class="b" d="M39.285,23.947a2.469,2.469,0,0,0-2.1,1.079,3.88,3.88,0,0,0-.7,2.334,3.945,3.945,0,0,0,.706,2.344,2.456,2.456,0,0,0,2.09,1.106,2.493,2.493,0,0,0,2.082-1.132,4.081,4.081,0,0,0,.027-4.652A2.485,2.485,0,0,0,39.285,23.947Z" transform="translate(-3.545 1.433)"/><path class="b" d="M29.956,23.947a2.47,2.47,0,0,0-2.1,1.079,3.88,3.88,0,0,0-.7,2.334,3.945,3.945,0,0,0,.706,2.344,2.456,2.456,0,0,0,2.09,1.106,2.493,2.493,0,0,0,2.082-1.132,4.081,4.081,0,0,0,.027-4.652A2.5,2.5,0,0,0,29.956,23.947Z" transform="translate(-5.003 1.433)"/><path class="b" d="M55.476,16.8c0-.3-.034-.6-.052-.917-.191-.058-.33-.112-.474-.143A76.566,76.566,0,0,1,35.325,8.784a1.779,1.779,0,0,0-1.34.047C31.267,10,28.638,11.406,25.859,12.4c-3.865,1.374-7.836,2.451-11.922,3.707v1.159c0,7.053.022,14.108-.008,21.162a17.032,17.032,0,0,0,2.7,9.351A35.7,35.7,0,0,0,34.013,61.962a2.054,2.054,0,0,0,1.4,0,35.791,35.791,0,0,0,17.63-14.586,15.687,15.687,0,0,0,2.443-8.048C55.583,31.821,55.495,24.311,55.476,16.8Zm-29.838,8a46.467,46.467,0,0,0-.2,5.214q0,.772.018,2.326t.018,2.326c0,.228-.1.343-.291.343s-.474,0-.838.018-.638.018-.82.018-.273-.073-.273-.22q0-.185.115-3.23.053-1.474.054-4.3c0-.135-.03-.2-.089-.2a2.576,2.576,0,0,0-.666.14,2.57,2.57,0,0,1-.674.14c-.136,0-.2-.035-.2-.105s.007-.175.022-.316.022-.246.022-.316-.007-.162-.019-.29-.018-.225-.018-.29.065-.14.194-.193a3.911,3.911,0,0,0,1.084-.719c.018-.018.179-.193.485-.526a2.42,2.42,0,0,1,.442-.43c-.007,0,.238.053.733.158.182.023.447.067.793.132a.157.157,0,0,1,.124.166C25.646,24.679,25.643,24.732,25.638,24.807Zm9.968,8.752a4.593,4.593,0,0,1-7.153,0,5.806,5.806,0,0,1-1.324-3.81,5.736,5.736,0,0,1,1.324-3.792,4.631,4.631,0,0,1,7.153-.008,6.167,6.167,0,0,1,0,7.61Zm10.789,0a4.593,4.593,0,0,1-7.153,0,5.806,5.806,0,0,1-1.324-3.81,5.736,5.736,0,0,1,1.324-3.792,4.631,4.631,0,0,1,7.153-.008,6.167,6.167,0,0,1,0,7.61Z" transform="translate(-7.073 -0.956)"/><path class="c" d="M23.025,36.071h1.211l1.451,2.523,1.459-2.523H28.3l-2.133,3.473v2.548H25.14V39.544Z" transform="translate(-5.65 3.329)"/><path class="c" d="M31.159,40.673a1.872,1.872,0,0,1-1.877,1.307,2.2,2.2,0,0,1-.1-4.389,1.936,1.936,0,0,1,2.031,2.148,1.5,1.5,0,0,1-.025.315H28.147a1.111,1.111,0,0,0,1.135,1.079,1,1,0,0,0,1.041-.721Zm-.947-1.342a.929.929,0,0,0-1.024-.917,1,1,0,0,0-1.016.917Z" transform="translate(-5.004 3.567)"/><path class="c" d="M32.528,39.485l1.066-.162c.239-.033.308-.153.308-.3,0-.348-.239-.628-.785-.628a.8.8,0,0,0-.853.748l-.905-.2a1.626,1.626,0,0,1,1.749-1.35c1.28,0,1.767.721,1.767,1.545v2.055a3.563,3.563,0,0,0,.052.663H34a2.261,2.261,0,0,1-.043-.526,1.451,1.451,0,0,1-1.28.654,1.3,1.3,0,0,1-1.407-1.249A1.276,1.276,0,0,1,32.528,39.485Zm1.374.654v-.187l-1.084.162c-.308.052-.554.221-.554.561a.548.548,0,0,0,.606.534A.945.945,0,0,0,33.9,40.139Z" transform="translate(-4.36 3.567)"/><path class="c" d="M37.852,38.685a2.217,2.217,0,0,0-.325-.025c-.768,0-1.118.441-1.118,1.214v1.97h-.991V37.709h.964v.663a1.258,1.258,0,0,1,1.2-.713,1.448,1.448,0,0,1,.264.025v1Z" transform="translate(-3.712 3.577)"/><path class="c" d="M38.813,40.5a.777.777,0,0,0,.845.7c.41,0,.622-.221.622-.476,0-.222-.154-.391-.487-.458l-.614-.137a1.25,1.25,0,0,1-1.118-1.206,1.44,1.44,0,0,1,1.528-1.334,1.465,1.465,0,0,1,1.6,1.156l-.837.238a.711.711,0,0,0-.768-.619.54.54,0,0,0-.6.476.455.455,0,0,0,.418.433l.631.128a1.3,1.3,0,0,1,1.195,1.257,1.411,1.411,0,0,1-1.57,1.325,1.562,1.562,0,0,1-1.715-1.249Z" transform="translate(-3.316 3.566)"/></svg>