<svg xmlns="http://www.w3.org/2000/svg" width="66" height="55.93" viewBox="0 0 66 55.93">
  <g id="Group_4935" data-name="Group 4935" transform="translate(0 -30.366)">
    <path id="Path_1885" data-name="Path 1885" d="M72.441,79.33l-25.1-25.1,3.338-3.338.08.08h0a4.113,4.113,0,0,0,5.819-5.814L42.939,31.52a4.113,4.113,0,0,0-5.814,5.819l.08.08L24.654,49.914l-.08-.08a4.113,4.113,0,0,0-5.819,5.814L32.39,69.283a4.113,4.113,0,1,0,5.918-5.714l-.1-.1-.08-.08,3.338-3.338,25.1,25.1a4.136,4.136,0,0,0,5.848-5.848ZM38.706,33.118a1.831,1.831,0,0,1,2.59,0h0L54.932,46.753a1.832,1.832,0,0,1-2.59,2.59l-.884-.884h0l-3.765-3.765-8.986-9a1.836,1.836,0,0,1,0-2.59ZM36.6,67.68a1.882,1.882,0,0,1-2.59,0L20.369,54.044a1.832,1.832,0,1,1,2.59-2.59h0l.884.9h0L35.711,64.194h0l.884.884a1.783,1.783,0,0,1,.131,2.546.125.125,0,0,1-.131.05ZM26.263,51.523,38.786,39.005l6.989,6.989,3.263,3.263L44.9,53.4h0l-1.215,1.238-7.166,7.137ZM70.826,83.563a1.86,1.86,0,0,1-2.624,0L43.1,58.46l2.624-2.624,25.1,25.1A1.866,1.866,0,0,1,70.826,83.563Z" transform="translate(-7.559)" fill="#0090da"/>
    <path id="Path_1886" data-name="Path 1886" d="M41.157,113.151a5.516,5.516,0,0,0-5.409-4.461H9.927a5.516,5.516,0,0,0-5.409,4.461A5.517,5.517,0,0,0,0,118.566a1.141,1.141,0,0,0,1.141,1.141H44.535a1.141,1.141,0,0,0,1.141-1.141A5.517,5.517,0,0,0,41.157,113.151Z" transform="translate(0 -33.639)" fill="#0061a0"/>
    <path id="Path_1887" data-name="Path 1887" d="M32.784,58.026,45.307,45.509,52.3,52.5l3.263,3.263L51.417,59.9h0L50.2,61.141l-7.166,7.137Z" transform="translate(-14.08 -6.504)" fill="#fff"/>
    <path id="Path_1888" data-name="Path 1888" d="M54.192,34.785a1.831,1.831,0,0,1,2.59,0h0L70.417,48.421a1.832,1.832,0,1,1-2.59,2.59l-.884-.884h0l-3.765-3.765-8.986-9a1.836,1.836,0,0,1,0-2.59Z" transform="translate(-23.045 -1.668)" fill="#0090da"/>
    <path id="Path_1889" data-name="Path 1889" d="M38.276,83.151a1.882,1.882,0,0,1-2.59,0L22.05,69.516a1.832,1.832,0,0,1,2.59-2.59h0l.884.9h0L37.391,79.665h0l.884.884a1.783,1.783,0,0,1,.131,2.546.125.125,0,0,1-.131.05Z" transform="translate(-9.24 -15.471)" fill="#0090da"/>
    <path id="Path_1890" data-name="Path 1890" d="M90.021,102.736a1.86,1.86,0,0,1-2.624,0l-25.1-25.1,2.624-2.624,25.1,25.1A1.866,1.866,0,0,1,90.021,102.736Z" transform="translate(-26.754 -19.173)" fill="#0090da"/>
  </g>
</svg>
