<svg id="Conservative" xmlns="http://www.w3.org/2000/svg" width="50.843" height="43.949" viewBox="0 0 50.843 43.949">
  <path id="Path_2855" data-name="Path 2855" d="M53.816,15H50.057a1.121,1.121,0,0,0,0,2.241h1.109l-7.832,8H38.146a1.1,1.1,0,0,0-.777.329l-9.077,9.268H23.738a1.1,1.1,0,0,0-.777.329L17.322,40.92a1.131,1.131,0,0,0-.322.794h.942a.159.159,0,0,1,.045-.112l.057-.058,1.567-.465.333.34,4.247-4.349H28.75a1.1,1.1,0,0,0,.777-.329L38.6,27.473h5.189a1.081,1.081,0,0,0,.777-.329l8.151-8.322v1.132a1.1,1.1,0,1,0,2.2,0V16.121A1.108,1.108,0,0,0,53.816,15Z" transform="translate(-4.074 -7.244)" fill="#0090da"/>
  <path id="Path_2856" data-name="Path 2856" d="M14.159,50.064c-1.35-2.515-2.75-5.1-4.117-7.709a.809.809,0,0,1,.119-.715,9.622,9.622,0,0,1,11.658-2.665,26.128,26.128,0,0,0,7.694,2.867c1.211.216,2.439.348,3.641.6a1.554,1.554,0,0,1,1.3,1.5,1.585,1.585,0,0,1-1.344,1.443,10.483,10.483,0,0,1-1.053.232,26.228,26.228,0,0,1-8.75-.457,5.811,5.811,0,0,0-.691-.05c-.019.073-.036.144-.054.217a4.551,4.551,0,0,0,.784.34,23.01,23.01,0,0,0,8.66.515c1.423-.217,2.657-.641,3-2.264a1.089,1.089,0,0,1,.639-.6c2.232-.826,4.476-1.617,6.719-2.413a2.079,2.079,0,0,1,.382-.053,1.341,1.341,0,0,1,1.593.623,1.254,1.254,0,0,1-.506,1.605,22.24,22.24,0,0,1-2.749,2.082A32.828,32.828,0,0,1,30.366,49.1a32.66,32.66,0,0,1-7.318.143,50.444,50.444,0,0,0-5.548.07A22.658,22.658,0,0,0,14.159,50.064Z" transform="translate(-3.106 -10.424)" fill="#0061a0"/>
  <path id="Path_2857" data-name="Path 2857" d="M2,44.2c1.511-.715,2.964-1.389,4.4-2.09.687-.334.874.158,1.1.572,1.013,1.866,2.012,3.737,3.022,5.606.54,1,1.069,2.009,1.647,2.99.254.429.26.68-.214.967-1.4.852-2.778,1.748-4.249,2.681Zm7.558,6.5a1.094,1.094,0,1,0-.473,2.132,1.2,1.2,0,0,0,1.345-.886A1.1,1.1,0,0,0,9.558,50.7Z" transform="translate(-2 -10.977)" fill="#0061a0"/>
  <path id="Path_2858" data-name="Path 2858" d="M31.658,15.947h-.342c-.871,0-1.743,0-2.614,0a.613.613,0,1,1,0-1.222q1.465,0,2.929,0h.221a1.6,1.6,0,0,0-.068-.189,1.371,1.371,0,0,0-1.263-.827c-.607-.012-1.216,0-1.825,0a.616.616,0,0,1-.612-.834.6.6,0,0,1,.59-.388c.742,0,1.485,0,2.229,0h3.053a.584.584,0,0,1,.553.335.577.577,0,0,1-.047.628.612.612,0,0,1-.528.261c-.334,0-.666,0-1,0h-.163c.124.338.245.662.376,1.019.238,0,.511,0,.784,0a.612.612,0,1,1,.009,1.222c-.269,0-.539,0-.808.006a.205.205,0,0,0-.157.088,2.643,2.643,0,0,1-2.236,1.729.38.38,0,0,0-.067.022c.062.045.11.084.161.118q1.3.882,2.594,1.763a.627.627,0,0,1,.325.631.607.607,0,0,1-.961.416c-.676-.451-1.343-.912-2.014-1.368q-1.2-.819-2.406-1.636a.635.635,0,0,1-.323-.616.616.616,0,0,1,.645-.546c.62,0,1.239.006,1.859-.006A1.387,1.387,0,0,0,31.658,15.947Z" transform="translate(-5.6 -6.896)" fill="#b7dd58"/>
  <path id="Path_2859" data-name="Path 2859" d="M30.4,24.749a9.375,9.375,0,1,1,9.39-9.375A9.393,9.393,0,0,1,30.4,24.749Zm0-17a7.626,7.626,0,1,0,7.638,7.626A7.641,7.641,0,0,0,30.4,7.748Z" transform="translate(-4.629 -6)" fill="#b7dd58"/>
</svg>
