<svg xmlns="http://www.w3.org/2000/svg" width="23.217" height="23.322" viewBox="0 0 23.217 23.322">
  <g id="Cover_Till" data-name="Cover Till" transform="translate(-5 -3.302)">
    <path id="Path_1790" data-name="Path 1790" d="M33.839,37.831H16.423c-.525,0-.95.256-.95.573v7.922c0,.316.425.572.95.572H33.839c.525,0,.95-.256.95-.572V38.4C34.789,38.087,34.364,37.831,33.839,37.831ZM21.746,45.817H17.138V42.678h4.608Zm0-3.859H17.138V38.819h4.608Zm5.8,3.859H22.939V42.678h4.607v3.139Zm0-3.859H22.939V38.819h4.607v3.139Zm6.016,3.859H28.955V42.678h4.607Zm0-3.859H28.955V38.819h4.607Z" transform="translate(-8.522 -21.423)" fill="none"/>
    <path id="Path_1791" data-name="Path 1791" d="M26.027,14.058H25.26v1.387a1.679,1.679,0,1,1-3.359,0V14.058H11.315v1.387a1.679,1.679,0,1,1-3.359,0V14.058H7.19A2.19,2.19,0,0,0,5,16.248V33.187a2.19,2.19,0,0,0,2.19,2.19H26.027a2.19,2.19,0,0,0,2.19-2.19V16.248A2.19,2.19,0,0,0,26.027,14.058Zm-.512,17.9a.837.837,0,0,1-.876.792H8.578a.837.837,0,0,1-.876-.792V20.984a.838.838,0,0,1,.876-.793H24.639a.837.837,0,0,1,.876.793V31.956Z" transform="translate(0 -8.753)" fill="#0090da"/>
    <path id="Path_1792" data-name="Path 1792" d="M20.439,6.887a.58.58,0,0,0,.58-.58V3.882a.58.58,0,1,0-1.16,0V6.307A.58.58,0,0,0,20.439,6.887Z" transform="translate(-10.947)" fill="#0061a0"/>
    <path id="Path_1793" data-name="Path 1793" d="M74.494,6.887a.58.58,0,0,0,.58-.58V3.882a.58.58,0,0,0-1.16,0V6.307A.581.581,0,0,0,74.494,6.887Z" transform="translate(-50.769)" fill="#0061a0"/>
    <rect id="Rectangle_1529" data-name="Rectangle 1529" width="3.068" height="3.139" transform="translate(9.501 14.21)" fill="#0061a0"/>
    <rect id="Rectangle_1530" data-name="Rectangle 1530" width="3.068" height="3.139" transform="translate(15.184 14.21)" fill="#0061a0"/>
    <rect id="Rectangle_1531" data-name="Rectangle 1531" width="3.068" height="3.139" transform="translate(9.501 19.883)" fill="#0061a0"/>
    <rect id="Rectangle_1532" data-name="Rectangle 1532" width="3.068" height="3.139" transform="translate(15.184 19.883)" fill="#0061a0"/>
    <rect id="Rectangle_1533" data-name="Rectangle 1533" width="3.068" height="3.139" transform="translate(21.078 14.21)" fill="#0061a0"/>
    <rect id="Rectangle_1534" data-name="Rectangle 1534" width="3.068" height="3.139" transform="translate(21.078 19.883)" fill="#0061a0"/>
  </g>
</svg>
