<svg id="Accidental_Death_Benefit" data-name="Accidental Death Benefit" xmlns="http://www.w3.org/2000/svg" width="38.272" height="38.55" viewBox="0 0 38.272 38.55">
  <path id="Path_3009" data-name="Path 3009" d="M44.58,5.212a17.913,17.913,0,0,1-7,13.468c-.513-.449-1.029-.864-1.5-1.323a17.653,17.653,0,0,1-5.363-10.8c-.049-.393-.062-.79-.1-1.185-.012-.129.026-.185.159-.205A22.076,22.076,0,0,0,37.46,3.023a.363.363,0,0,1,.281.012,22.36,22.36,0,0,0,5.871,2C43.924,5.1,44.235,5.15,44.58,5.212ZM34,10.645l2.788,2.79,5.146-5.146L40.856,7.215l-4.083,4.1-1.716-1.72Z" transform="translate(-13.109 -3)" fill="#b7dd58"/>
  <path id="Path_3010" data-name="Path 3010" d="M34.767,28.952c.449.111.757.2,1.07.262.973.191,1.661.544,1.692,1.754a2.813,2.813,0,0,0,1.32,1.969,1.391,1.391,0,0,1,.48,1.094c-.322,1.693-.735,3.371-1.157,5.043A1.144,1.144,0,0,1,36.728,40a1.189,1.189,0,0,1-.774-1.421c.128-.746.317-1.482.5-2.31l-1.851.987a4,4,0,0,1-.727,2.882q-1.507,2.464-3.037,4.914a1.249,1.249,0,0,1-1.992.476c-.528-.314-1.048-.64-1.621-.99-.533.72-.891,1.743-1.921,1.664a4.88,4.88,0,0,1-2.008-.782c-1.1-.661-1.1-1.422-.113-3.4l-11.8-7.34c-.531.75-.941,1.825-2.065,1.7A4.819,4.819,0,0,1,7.326,35.5c-1-.67-.971-1.428.015-3.319-.533-.335-1.078-.663-1.608-1.015a1.255,1.255,0,0,1-.437-1.96c1.128-1.828,2.289-3.636,3.412-5.467a3.066,3.066,0,0,1,3.167-1.464,1.9,1.9,0,0,0,1.555-.414c1.457-1.185,2.962-2.311,4.45-3.457a2.582,2.582,0,0,1,3.365-.123c3.849,2.5,7.763,4.907,11.689,7.288C34.238,26.365,35.279,27.189,34.767,28.952Zm-14.84-8.465a3.04,3.04,0,0,0-.584.315c-1.064.925-2.114,1.865-3.172,2.8-.389.343-.315.631.092.882.694.426,1.39.846,2.085,1.269q5.975,3.644,11.95,7.287c.636.387.773.328.965-.39.324-1.214.615-2.437.956-3.645a1.021,1.021,0,0,0-.536-1.293q-5.544-3.425-11.075-6.871C20.4,20.71,20.179,20.615,19.927,20.487ZM34.695,29.58c-.312,1.575-.547,3.109-.935,4.6a2.423,2.423,0,0,0,.695,2.427L37.249,35.2c-.078.53-.1.791-.155,1.045-.174.819-.4,1.63-.511,2.457-.03.219.269.482.417.726.2-.176.529-.319.583-.533.4-1.572.776-3.154,1.1-4.746a1.052,1.052,0,0,0-.354-.816,3.332,3.332,0,0,1-1.39-2.2c-.066-.947-.565-1.211-1.328-1.345C35.341,29.739,35.08,29.668,34.695,29.58Zm-18.342-.35c-.293.166-.67.263-.854.506a12.817,12.817,0,0,0-1.171,1.874,1.032,1.032,0,0,0,.429,1.418q4.224,2.658,8.476,5.271a1.117,1.117,0,0,0,1.652-.429c.278-.406.533-.828.791-1.248.564-.918.436-1.456-.486-2.031q-3.953-2.462-7.911-4.918A9.758,9.758,0,0,0,16.352,29.23Zm-8.443,3.3c-.417.689-1.156,1.36-.533,2.075A3.567,3.567,0,0,0,9.4,35.725c.8.112,1.056-.774,1.394-1.412ZM26.64,44.174l-2.861-1.784c-1.118,1.551-1.055,1.99.377,2.868C25.331,45.978,25.808,45.777,26.64,44.174Zm3.436-5.327A2.045,2.045,0,0,0,28,36.73a2.079,2.079,0,0,0-2.088,2.049,2.119,2.119,0,0,0,2.1,2.126A2.053,2.053,0,0,0,30.077,38.846ZM14.258,28.956a2.1,2.1,0,1,0-4.2.013,2.2,2.2,0,0,0,2.151,2.109A2.154,2.154,0,0,0,14.258,28.956Z" transform="translate(-5 -7.66)" fill="#0061a0"/>
  <path id="Path_3011" data-name="Path 3011" d="M56.353,32.506a2.389,2.389,0,0,1,2.429,2.351,2.416,2.416,0,0,1-2.388,2.411A2.343,2.343,0,0,1,54,34.9,2.308,2.308,0,0,1,56.353,32.506Z" transform="translate(-20.511 -12.341)" fill="#0090da"/>
  <path id="Path_3012" data-name="Path 3012" d="M48.871,21.917c-.985,0-1.971.015-2.956-.013-.187-.006-.369-.19-.555-.292.168-.1.336-.295.5-.3q3.067-.03,6.134,0c.166,0,.329.2.493.313-.173.1-.343.27-.518.273C50.941,21.929,49.906,21.917,48.871,21.917Z" transform="translate(-17.777 -8.794)" fill="#0090da"/>
  <path id="Path_3013" data-name="Path 3013" d="M15.126,56.364c-.989,0-1.978.017-2.966-.013-.2-.006-.4-.185-.6-.284.186-.108.371-.308.558-.31q3-.035,6.007,0c.188,0,.375.2.562.306-.2.1-.394.281-.6.287C17.1,56.379,16.115,56.363,15.126,56.364Z" transform="translate(-7.077 -19.696)" fill="#0090da"/>
  <path id="Path_3014" data-name="Path 3014" d="M11.468,45.761c0,.377.081.636-.013.781a2.532,2.532,0,0,1-2.246,1.188,2.455,2.455,0,0,1-2.253-1.161c-.1-.153-.013-.419-.013-.761C9.113,47.58,9.455,47.58,11.468,45.761Z" transform="translate(-5.604 -16.537)" fill="#0090da"/>
  <path id="Path_3015" data-name="Path 3015" d="M53.382,23.515a3.1,3.1,0,0,1-.662.152c-1.334.016-2.671.025-4.005,0-.216,0-.427-.2-.641-.3a1.98,1.98,0,0,1,.665-.293c1.334-.028,2.67-.023,4.005,0a2.374,2.374,0,0,1,.661.214C53.4,23.358,53.39,23.436,53.382,23.515Z" transform="translate(-18.636 -9.347)" fill="#0090da"/>
  <path id="Path_3016" data-name="Path 3016" d="M14.242,57.508c.716,0,1.432-.016,2.147.013.145.006.283.184.424.283-.142.1-.282.3-.425.3-1.456.023-2.913.027-4.369,0-.159,0-.314-.222-.471-.341.157-.085.313-.24.473-.246C12.76,57.493,13.5,57.508,14.242,57.508Z" transform="translate(-7.073 -20.255)" fill="#0090da"/>
  <path id="Path_3017" data-name="Path 3017" d="M50.692,20.161c-.717,0-1.433.015-2.149-.012-.159-.006-.313-.159-.469-.245.157-.114.312-.323.471-.326q2.186-.037,4.373,0c.146,0,.289.19.433.293-.145.1-.287.271-.436.277C52.174,20.176,51.433,20.161,50.692,20.161Z" transform="translate(-18.636 -8.243)" fill="#0090da"/>
  <path id="Path_3018" data-name="Path 3018" d="M11.5,54.155a2.547,2.547,0,0,1,.585-.145c1.38-.011,2.759-.016,4.139.009.19,0,.376.189.563.29-.194.1-.386.3-.581.3-1.355.027-2.71.025-4.065,0a2.28,2.28,0,0,1-.665-.23C11.482,54.308,11.49,54.231,11.5,54.155Z" transform="translate(-7.049 -19.146)" fill="#0090da"/>
  <path id="Path_3019" data-name="Path 3019" d="M11.048,19.6a2.475,2.475,0,0,1,.288.157c.622.479,1.25.951,1.852,1.454.11.093.109.319.159.484-.173,0-.4.065-.51-.018-.653-.477-1.287-.982-1.912-1.5a.5.5,0,0,1-.13-.378C10.8,19.728,10.959,19.666,11.048,19.6Z" transform="translate(-6.834 -8.255)" fill="#0090da"/>
  <path id="Path_3020" data-name="Path 3020" d="M13.413,17.431a3.687,3.687,0,0,0,.183.492c.352.648.734,1.282,1.062,1.942.07.142-.04.373-.067.563-.151-.093-.358-.151-.44-.285-.386-.628-.752-1.27-1.088-1.926-.08-.155-.012-.386-.012-.58C13.171,17.567,13.292,17.5,13.413,17.431Z" transform="translate(-7.54 -7.569)" fill="#0090da"/>
  <path id="Path_3021" data-name="Path 3021" d="M16.578,18.377a10.232,10.232,0,0,1-.016,1.177c-.017.14-.218.258-.335.387-.083-.13-.236-.257-.24-.389q-.033-1.214,0-2.43c0-.12.179-.235.275-.353.1.119.289.23.3.358C16.6,17.541,16.579,17.96,16.578,18.377Z" transform="translate(-8.473 -7.359)" fill="#0090da"/>
</svg>
