<svg xmlns="http://www.w3.org/2000/svg" width="39.853" height="35.658" viewBox="0 0 39.853 35.658"><defs><style>.a{fill:#079add;}.b{fill:#0061a0;}.c{fill:#fff;}.d{fill:#b7dd58;}</style></defs><path class="a" d="M28.582,41.484a3.225,3.225,0,0,0-2.57-3.067l-5.885-1.191a7.948,7.948,0,0,0-6.555,1.624L4,46.753l3.836,5.629,1.937-1.588a8.018,8.018,0,0,1,5.4-1.046l11.174,1.191a8.179,8.179,0,0,0,6.108-1.624l11.4-10.068-.894-1.01c-1.378-1.552-4.73-1.624-6.332-.325L28.47,44.624s-8.12-1.552-8.939-1.732" transform="translate(-4 -16.724)"/><path class="b" d="M41.537,27.889a6.729,6.729,0,0,0,0-9.854,7.65,7.65,0,0,0-10.391,0,6.688,6.688,0,0,0,0,9.818l5.2,4.927Z" transform="translate(-11.521 -10.407)"/><path class="c" d="M39.016,30.788c-3.693-4.271-3.693-4.271-3.693-4.307v-.854l.036-.107h.072a4.849,4.849,0,0,0,.753.036c1.327,0,2.151-.427,2.474-1.246a.832.832,0,0,0,.072-.285H35.108A.1.1,0,0,1,35,23.919v-.071c.645-.925.645-.925.681-.925h2.8a2.086,2.086,0,0,0-.861-.641,3.067,3.067,0,0,0-.9-.178H35v-.178c.61-.925.61-.925.681-.925h6.31v.142a9.009,9.009,0,0,1-.645.925l-.036.036H39.8a1.963,1.963,0,0,1,.359.783h1.721a.114.114,0,0,1,.108.107v.071c-.61.925-.61.925-.681.925H40.235a2.99,2.99,0,0,1-.43,1.068,2.685,2.685,0,0,1-1.04.854,4.534,4.534,0,0,1-1.613.427c.251.32,1.147,1.353,3.657,4.271l.108.142Z" transform="translate(-13.326 -11.911)"/><path class="d" d="M5,17.622V16.557q.022-.191.044-.383a9.119,9.119,0,0,1,7.483-8.033c.342-.06.689-.095,1.033-.141h1.065c.3.038.61.066.912.116A9.113,9.113,0,0,1,23.134,18a8.671,8.671,0,0,1-2.22,5.08,8.9,8.9,0,0,1-6.44,3.084A8.649,8.649,0,0,1,9.459,24.9a8.956,8.956,0,0,1-4.318-6.247C5.078,18.313,5.046,17.966,5,17.622Zm9.1-8.21a7.678,7.678,0,1,0,7.675,7.679A7.685,7.685,0,0,0,14.1,9.412Z" transform="translate(-4.301 -8)"/><path class="d" d="M18.638,17.574c0,.594,0,1.188,0,1.781a.317.317,0,0,0,.173.306c.9.573,1.8,1.155,2.7,1.732a.66.66,0,0,1,.363.765.854.854,0,0,1-1.288.387c-.565-.352-1.119-.718-1.678-1.077-.5-.324-1.006-.651-1.513-.972A.728.728,0,0,1,17,19.867q0-2.073,0-4.145a.735.735,0,0,1,.662-.71.832.832,0,0,1,.9.419.927.927,0,0,1,.071.361C18.641,16.386,18.638,16.98,18.638,17.574Z" transform="translate(-7.911 -10.106)"/></svg>