<svg xmlns="http://www.w3.org/2000/svg" width="35.999" height="39.936" viewBox="0 0 35.999 39.936">
  <g id="Group_4567" data-name="Group 4567" transform="translate(-7.272 -2.6)">
    <path id="Path_1908" data-name="Path 1908" d="M37.4,23.1h.253l9.26.337A3.715,3.715,0,0,1,49.605,24.7l.21.21L55.5,23.141a.716.716,0,0,1,.295-.042,12.335,12.335,0,1,0-18.478.042H37.4Z" transform="translate(-15.594)" fill="#0061a0"/>
    <g id="Group_4566" data-name="Group 4566" transform="translate(7.272 25.158)">
      <path id="Path_1909" data-name="Path 1909" d="M9.851,75.6l-2.4,3.157a.808.808,0,0,0,.126,1.136l6.314,4.756a.8.8,0,0,0,1.136-.168l2.4-3.157-7.408-5.6C9.978,75.684,9.893,75.642,9.851,75.6Z" transform="translate(-7.272 -67.431)" fill="#0090da"/>
      <path id="Path_1910" data-name="Path 1910" d="M46.127,56.279l-5.767,1.81v.421A3.584,3.584,0,0,1,37.5,61.835l-.379.084a36.372,36.372,0,0,1-6.4.758l-1.768.042a.969.969,0,0,1-.084-1.936l1.768-.042a41.787,41.787,0,0,0,6.061-.716l.379-.084a1.657,1.657,0,0,0,1.3-1.515,1.576,1.576,0,0,0-.421-1.179,1.716,1.716,0,0,0-1.136-.547l-9.218-.337a4.561,4.561,0,0,0-2.9.884L17,62.761l7.955,6.019,7.745.758a5.369,5.369,0,0,0,3.788-1.094L47.9,59.6a1.871,1.871,0,0,0,.716-1.347,1.9,1.9,0,0,0-2.483-1.978Z" transform="translate(-12.905 -56.192)" fill="#0090da"/>
    </g>
    <g id="Group_4564" data-name="Group 4564" transform="translate(25.888 6.631)">
      <path id="Path_1907" data-name="Path 1907" d="M52.426,12.176H61.6v.019a13.473,13.473,0,0,1-.917,1.336H58.233a3.23,3.23,0,0,1,.689,1.441h2.612c.034.008.046.021.046.038-.583.88-.884,1.319-.9,1.319H58.99a3.77,3.77,0,0,1-2.147,2.878,5.922,5.922,0,0,1-2.557.639v.021q0,.095,5.524,6.556H57.375q-5.383-6.271-5.381-6.3V18.854l.021-.051a7.854,7.854,0,0,0,1.116.067q3.012,0,3.749-1.953a1.6,1.6,0,0,0,.114-.592H51.537A.034.034,0,0,1,51.5,16.3a.03.03,0,0,1,0-.009q.907-1.319.926-1.319h4.327v-.016a2.526,2.526,0,0,0-1.436-1.18,4.548,4.548,0,0,0-1.374-.249H51.516v-.041C52.1,12.616,52.4,12.176,52.426,12.176Z" transform="translate(-51.499 -12.176)" fill="#fff"/>
    </g>
  </g>
</svg>
