<svg id="Earn_Regular_Income" data-name="Earn Regular Income" xmlns="http://www.w3.org/2000/svg" width="38.211" height="34.115" viewBox="0 0 38.211 34.115">
  <path id="Path_2865" data-name="Path 2865" d="M2,36.953c.252-.309.489-.633.759-.924a20.93,20.93,0,0,0,4.162-6.813A27.5,27.5,0,0,0,8.73,20.4c.006-.126.021-.251.034-.4H40.211c-.07.909-.114,1.8-.212,2.686A28.208,28.208,0,0,1,36.646,33.5,20.279,20.279,0,0,1,33.4,37.881a1.7,1.7,0,0,1-1.3.539q-14.316-.015-28.634,0A1.41,1.41,0,0,1,2,37.568Z" transform="translate(-2 -11.13)" fill="#b7dd58"/>
  <path id="Path_2866" data-name="Path 2866" d="M12,45.6h.492q11.4,0,22.808.007a3.7,3.7,0,0,0,2.783-1.179,24.723,24.723,0,0,0,4.994-7.759c.082-.19.157-.384.274-.671.018.181.035.27.035.36q0,6.319,0,12.637a1.17,1.17,0,0,1-1.271,1.332q-14.423,0-28.846,0A1.17,1.17,0,0,1,12,49C12,47.882,12,46.768,12,45.6Z" transform="translate(-5.177 -16.212)" fill="#0090da"/>
  <path id="Path_2867" data-name="Path 2867" d="M12.006,13.823c0-1.179-.016-2.331.006-3.483A1.094,1.094,0,0,1,13.2,9.285c1.689,0,3.378,0,5.068,0h.448c0-.365,0-.7,0-1.041a1.125,1.125,0,1,1,2.236.013c0,.327,0,.655,0,1H26.54c0-.365,0-.717,0-1.069a1.119,1.119,0,1,1,2.234,0c.006.352,0,.7,0,1.073h5.666c0-.349,0-.7,0-1.047A1.121,1.121,0,1,1,36.677,8.2c0,.342,0,.682,0,1.08h.409q2.516,0,5.03,0a1.144,1.144,0,0,1,1.269,1.285c0,1.077,0,2.152,0,3.255Z" transform="translate(-5.177 -7)" fill="#0090da"/>
  <path id="Path_2868" data-name="Path 2868" d="M27.533,31.248h-.427c-1.091,0-2.182,0-3.274,0a.757.757,0,0,1-.781-1.011.766.766,0,0,1,.774-.487q1.835,0,3.669,0h.276a1.99,1.99,0,0,0-.085-.231A1.716,1.716,0,0,0,26.1,28.5c-.761-.015-1.523,0-2.284-.006a.75.75,0,1,1-.027-1.5c.93,0,1.86,0,2.79,0h3.822a.733.733,0,0,1,.693.41.693.693,0,0,1-.059.771.773.773,0,0,1-.662.319c-.417,0-.835,0-1.252,0h-.2l.47,1.248c.3,0,.641,0,.982,0a.748.748,0,0,1,.746,1.041.759.759,0,0,1-.733.456c-.336.006-.674,0-1.01.007a.259.259,0,0,0-.2.109,3.3,3.3,0,0,1-2.8,2.118.663.663,0,0,0-.084.026c.077.056.138.1.2.145q1.623,1.081,3.248,2.16a.757.757,0,1,1-.8,1.282c-.846-.552-1.683-1.117-2.523-1.676-1-.668-2.006-1.339-3.012-2a.776.776,0,0,1-.405-.754.766.766,0,0,1,.807-.668c.776,0,1.553.008,2.328-.007A1.77,1.77,0,0,0,27.533,31.248Z" transform="translate(-8.671 -13.353)" fill="#0061a0"/>
</svg>
