<svg xmlns="http://www.w3.org/2000/svg" width="20" height="19.972" viewBox="0 0 20 19.972"><defs><style>.a{fill:#0090da;}</style></defs><g transform="translate(-2.5 -3.498)"><g transform="translate(2.5 3.498)"><path class="a" d="M19.926,22.47H3.609A1.109,1.109,0,0,1,2.5,21.36V5.088A1.109,1.109,0,0,1,3.609,3.979h8.136a1.109,1.109,0,0,1,0,2.219H4.719V20.251h14.1V13.224a1.109,1.109,0,0,1,2.219,0V21.36a1.109,1.109,0,0,1-1.109,1.109ZM9.63,16.553l3.025-.37a1.087,1.087,0,0,0,.643-.318l8.876-8.817a1.124,1.124,0,0,0,.325-.784,1.139,1.139,0,0,0-.325-.791L19.5,2.825a1.095,1.095,0,0,0-1.561,0L9.068,11.641a1.109,1.109,0,0,0-.318.651L8.365,15.3a1.106,1.106,0,0,0,1.161,1.25Zm2.885-1.479Zm6.206-9.9,1.072,1.065L12,14.008l-1.22.155.155-1.213Z" transform="translate(-2.5 -2.498)"/></g></g></svg>