<svg xmlns="http://www.w3.org/2000/svg" width="32.995" height="41.269" viewBox="0 0 32.995 41.269">
  <g id="noun_Money_4145417" transform="translate(-15.624 -8.251)">
    <path id="Path_2800" data-name="Path 2800" d="M45.019,8.315c.722.035.8.276.69,1.006a54.2,54.2,0,0,0,.535,19.621l-2.206,0c-.553,0-.506-.051-.6-.377a3.76,3.76,0,0,0-1.085-2.089A2.354,2.354,0,0,0,40.565,26l-7.012,1.5a43.791,43.791,0,0,1-3.3-14.428c-.053-1.018-.038-1.445.7-1.971C35.291,8.382,40.378,8.08,45.019,8.315Z" transform="translate(-6.406)" fill="#0061a0"/>
    <path id="Path_2801" data-name="Path 2801" d="M64.085,14.873c.555.2.444.348.251.784-2.247,5.119-3.072,10.8-3.911,15.9l-.808,0a64.6,64.6,0,0,1-.957-17.215A11.113,11.113,0,0,1,64.085,14.873Z" transform="translate(-18.775 -2.615)" fill="#0061a0"/>
    <path id="Path_2802" data-name="Path 2802" d="M66.588,23a5.943,5.943,0,0,1,3.268,1.6c.307.3.146.465.029.568a23.768,23.768,0,0,0-4.864,6.5h-.542A68.149,68.149,0,0,1,66.588,23Z" transform="translate(-21.414 -6.465)" fill="#0061a0"/>
    <path id="Path_2803" data-name="Path 2803" d="M39.273,41.573A1.56,1.56,0,0,1,41.04,43.09l.932,8.241a1.8,1.8,0,0,1-1.059,1.576,2.512,2.512,0,0,1-2.209,0,2.322,2.322,0,0,1-1.065-1.7l-1.132-4.605c-.167-.676-.869-.614-.746.053l1.281,6.808c.293,1.556-1.577,4.01-5.225,3.443-.687-.158-.573.837.131.9a5.559,5.559,0,0,0,5.011-1.524,4.007,4.007,0,0,0,.451,1.875,2.977,2.977,0,0,0,.945,1.09,3.014,3.014,0,0,0-.95,1.091,3.356,3.356,0,0,0,0,3.084c.207.395.316.691-.129.691l-5.843,0a2.2,2.2,0,0,1-1.483-.451A3.935,3.935,0,0,1,29.06,62.5a.5.5,0,0,0-.428-.246h-.857c-.638,0-.685-.295-.591-.823a28.869,28.869,0,0,0-.046-12.471c-.156-.617-.135-.634.266-1.094l3.11-3.583a4.082,4.082,0,0,1,2.715-1.6Z" transform="translate(-5.007 -14.594)" fill="#079add"/>
    <path id="Path_2804" data-name="Path 2804" d="M60.613,46.834A1.8,1.8,0,0,1,62.2,47.877a2.444,2.444,0,0,1,0,2.18,1.268,1.268,0,0,1-1.15.831l-6.577.023-.459-4.07Z" transform="translate(-16.825 -16.912)" fill="#079add"/>
    <path id="Path_2805" data-name="Path 2805" d="M15.721,52.174c1.755,5.366,1.378,10.066.021,15.874-.121.513.111.509.421.509H19.85c.62,0,.664-.028.772-.5,1.3-5.664,1.673-10.254.123-15.458-.288-.966-.463-.913-1.492-.913H16.079C15.49,51.682,15.6,51.794,15.721,52.174Z" transform="translate(0 -19.037)" fill="#079add"/>
    <path id="Path_2806" data-name="Path 2806" d="M59.886,55.813a1.788,1.788,0,0,1,1.585,1.043,2.439,2.439,0,0,1,0,2.181A1.765,1.765,0,0,1,59.88,60.09l-5.442-.259c-.231-.009-.314-.367-.182-.6a2.78,2.78,0,0,0,.6-1.65l-.2-1.763Z" transform="translate(-16.906 -20.847)" fill="#079add"/>
    <path id="Path_2807" data-name="Path 2807" d="M48.252,64.483c2.545.107,5.092.284,7.638.394a1.856,1.856,0,0,1,1.586,1.045,2.431,2.431,0,0,1-.007,2.18,1.82,1.82,0,0,1-1.591,1.052l-7.433-.347a.344.344,0,0,0-.059,0A1.794,1.794,0,0,1,46.8,67.763a2.583,2.583,0,0,1-.144-2.227A1.774,1.774,0,0,1,48.252,64.483Z" transform="translate(-13.518 -24.647)" fill="#079add"/>
    <path id="Path_2808" data-name="Path 2808" d="M48.44,73.932l7.1.33a2,2,0,0,1,.676.761,2.448,2.448,0,0,1-.006,2.182,1.8,1.8,0,0,1-1.518,1.044l-6.029.015a2.133,2.133,0,0,1-1.82-1.1,2.42,2.42,0,0,1,0-2.182A1.819,1.819,0,0,1,48.44,73.932Z" transform="translate(-13.572 -28.789)" fill="#079add"/>
  </g>
</svg>
