<svg xmlns="http://www.w3.org/2000/svg" xmlns:xlink="http://www.w3.org/1999/xlink" width="28" height="28" viewBox="0 0 28 28">
  <defs>
    <clipPath id="clip-path">
      <rect id="Rectangle_241" data-name="Rectangle 241" width="28" height="28" transform="translate(0 0.26)" fill="#fff"/>
    </clipPath>
  </defs>
  <g id="Mask_Group_8" data-name="Mask Group 8" transform="translate(0 -0.26)" clip-path="url(#clip-path)">
    <path id="Path_2409" data-name="Path 2409" d="M661.783,371.5a4.1,4.1,0,0,0,.424,2.008c.684,1.232,2.148,1.442,4.022,1.442.926,0,1.952-.049,3.03-.049h7.7c1.078,0,2.1.049,3.03.049,1.874,0,3.338-.21,4.024-1.442a4.1,4.1,0,0,0,.424-2.008,7.513,7.513,0,0,0-5.227-7.131c1.283.144,2.408.365,2.408.365-2.56-1.407-2.494-6.459-2.494-6.459.405-8.857-4.849-9.277-5.847-9.277-.1,0-.164.005-.164.005l0,.015L673.1,349s-.058-.005-.163-.005c-1,0-6.252.419-5.846,9.277,0,0,.066,5.053-2.495,6.46,0,0,.689-.047,1.611-.064a7.51,7.51,0,0,0-4.429,6.829Zm13.056-5.17-1.729,2.811-1.731-2.811a3.9,3.9,0,0,1-2.62-1.6c1.015.087,1.874.274,2.1.639l-.953-2.126a4.269,4.269,0,0,0,6.349.063l-.666,1.383c.2-.333.909-.444,1.771-.444.088,0,.179,0,.271,0C677.473,365.2,676.366,365.985,674.839,366.331Zm-3.489-9.63a20.018,20.018,0,0,0,4.8-2.624c.013-.01.026-.018.039-.029s.048.069.115.185c.229.392.719,1.563-.209,2.1l1.691.215h.031l.31.057a5.66,5.66,0,0,1-.056.722,9.435,9.435,0,0,1-.927,3.489c-.907,1.822-2.378,3-4.038,3-2.532,0-4.623-2.751-4.951-6.317A19.717,19.717,0,0,0,671.351,356.7Z" transform="translate(-659.158 -346.918)" fill="#0061a0"/>
  </g>
</svg>
