<svg xmlns="http://www.w3.org/2000/svg" xmlns:xlink="http://www.w3.org/1999/xlink" width="24" height="24" viewBox="0 0 24 24">
  <defs>
    <clipPath id="clip-path">
      <rect id="Rectangle_1435" data-name="Rectangle 1435" width="32" height="32" transform="translate(-3339 1243)" fill="#fff"/>
    </clipPath>
    <clipPath id="clip-Female_1">
      <rect width="24" height="24"/>
    </clipPath>
  </defs>
  <g id="Female_1" data-name="Female 1" clip-path="url(#clip-Female_1)">
    <path id="Path_2470" data-name="Path 2470" d="M-917.4,524.044c.058-.294.1-.593.177-.881a4.843,4.843,0,0,1,4.884-3.549,4.816,4.816,0,0,1,4.487,4.03,4.783,4.783,0,0,1-3.628,5.45c-.178.043-.359.071-.551.108v3.215h.491c.349,0,.7,0,1.046,0a.536.536,0,0,1,.579.537.535.535,0,0,1-.572.526c-.455,0-.91,0-1.366,0h-.191c0,.529,0,1.041,0,1.553a.539.539,0,0,1-.257.494.528.528,0,0,1-.807-.46c-.007-.52,0-1.04,0-1.587H-914.6c-.394,0-.639-.2-.641-.528s.243-.536.633-.536h1.483V529.2a4.694,4.694,0,0,1-1.615-.483,4.738,4.738,0,0,1-2.632-3.736c-.007-.051-.022-.1-.033-.152Zm1.065.379a3.749,3.749,0,0,0,3.755,3.736,3.732,3.732,0,0,0,3.732-3.716,3.749,3.749,0,0,0-3.721-3.769A3.766,3.766,0,0,0-916.339,524.423Z" transform="translate(924.404 -515.609)" fill="#333"/>
  </g>
</svg>
