<svg xmlns="http://www.w3.org/2000/svg" xmlns:xlink="http://www.w3.org/1999/xlink" width="32" height="32" viewBox="0 0 32 32">
  <defs>
    <clipPath id="clip-path">
      <rect id="Rectangle_1435" data-name="Rectangle 1435" width="32" height="32" transform="translate(-3339 1243)" fill="#fff"/>
    </clipPath>
    <clipPath id="clip-Female_B">
      <rect width="32" height="32"/>
    </clipPath>
  </defs>
  <g id="Female_B" clip-path="url(#clip-Female_B)">
    <g id="Mask_Group_19" data-name="Mask Group 19" transform="translate(3339 -1243)" clip-path="url(#clip-path)">
      <path id="Path_2475" data-name="Path 2475" d="M661.783,374.716a4.682,4.682,0,0,0,.485,2.294c.782,1.408,2.455,1.648,4.6,1.648,1.058,0,2.23-.056,3.462-.056h8.8c1.232,0,2.4.056,3.463.056,2.142,0,3.814-.24,4.6-1.648a4.69,4.69,0,0,0,.485-2.294,8.586,8.586,0,0,0-5.974-8.15c1.466.165,2.752.417,2.752.417-2.926-1.608-2.85-7.382-2.85-7.382.463-10.123-5.542-10.6-6.683-10.6-.12,0-.187.006-.187.006l0,.018-.006-.017s-.067-.006-.186-.006c-1.141,0-7.145.479-6.681,10.6,0,0,.075,5.775-2.851,7.382,0,0,.788-.053,1.841-.073a8.583,8.583,0,0,0-5.061,7.8Zm14.921-5.908-1.977,3.212-1.978-3.212a4.46,4.46,0,0,1-2.994-1.823c1.16.1,2.141.313,2.4.73l-1.089-2.429a4.879,4.879,0,0,0,7.256.072l-.761,1.581c.231-.38,1.039-.507,2.024-.507.1,0,.205,0,.31,0C679.715,367.509,678.449,368.412,676.7,368.807ZM672.717,357.8a22.878,22.878,0,0,0,5.489-3c.015-.011.03-.021.044-.033s.054.078.132.211c.262.448.821,1.787-.238,2.4l1.932.246h.036l.354.065a6.469,6.469,0,0,1-.064.825,10.781,10.781,0,0,1-1.059,3.987c-1.037,2.082-2.718,3.434-4.615,3.434-2.893,0-5.284-3.144-5.658-7.22A22.533,22.533,0,0,0,672.717,357.8Z" transform="translate(-3997.783 895.342)" fill="#0061a0"/>
    </g>
  </g>
</svg>
