<svg xmlns="http://www.w3.org/2000/svg" width="63.832" height="66.071" viewBox="0 0 63.832 66.071"><defs><style>.a{fill:#0090da;}.b{fill:#0061a0;}.c{fill:#b7dd58;}.d{fill:#fff;}</style></defs><path class="a" d="M8,48.859c1.635-.929,3.209-1.8,4.768-2.715.745-.435.946.205,1.189.744,1.1,2.424,2.18,4.857,3.272,7.283.585,1.3,1.158,2.609,1.783,3.884.275.557.28.884-.233,1.258-1.521,1.108-3.008,2.272-4.6,3.485C12.09,58.085,10.053,53.49,8,48.859Zm8.182,8.452a1.25,1.25,0,0,0-1.487,1.073,1.489,1.489,0,0,0,.974,1.7,1.321,1.321,0,0,0,1.457-1.15A1.434,1.434,0,0,0,16.182,57.311Z" transform="translate(-2.401 3.274)"/><path class="b" d="M35.248,2.956a31.461,31.461,0,0,1,4.3.655,4.756,4.756,0,0,0,4.6-.782c1.437-1.123,2.807-1.182,4.131.3,1.309,1.471,3,1.368,4.741,1.123a7.617,7.617,0,0,1,2.136.316,11.725,11.725,0,0,1-.573,2.348c-1.96,4.142-5,6.051-9.616,6.253-3.133.136-5.124-.189-6.432-3.382A53.473,53.473,0,0,0,35,3.554C35.081,3.356,35.166,3.156,35.248,2.956Z" transform="translate(0.835 -2)"/><path class="c" d="M27.149,43.744c-.729.618-1.48,1.218-2.259,1.793a.438.438,0,0,1-.621.006c-8.05-5.83-13.221-13.531-15-23.422a36.051,36.051,0,0,1-.494-7.47c1.15-.182,2.286-.348,3.418-.545a37.029,37.029,0,0,0,11.777-4.13,1.084,1.084,0,0,1,1.213,0,37.123,37.123,0,0,0,14.148,4.47c2.828-2.111,3.98-3.122,3.98-3.122a9.106,9.106,0,0,1-1.538-2.507,17.284,17.284,0,0,1-2.465-.182A32.14,32.14,0,0,1,28.281,5.145C27.043,4.5,25.874,3.719,24.673,3h-.192a3.23,3.23,0,0,1-.319.268A33.14,33.14,0,0,1,4.653,8.9c-.536-.017-1.073,0-1.653,0,.094,4.042-.16,8.026.288,12A39.3,39.3,0,0,0,7.664,35.207,42.779,42.779,0,0,0,24.069,52.063c.283.166.5.327.894.094A50.2,50.2,0,0,0,29.227,49.3,11.937,11.937,0,0,1,27.149,43.744Z" transform="translate(-3 -1.88)"/><path class="c" d="M26,38.31c1.878-13.064,6.851-20.1,11-23.8-.259-.047-.516-.094-.771-.145a46.169,46.169,0,0,1-12.3-4.29.746.746,0,0,0-.589-.026,45.5,45.5,0,0,1-14,4.6c-.28.043-.359.165-.334.44.077.846.1,1.7.207,2.54a38.138,38.138,0,0,0,11.233,23.13c.992.983,2.074,1.874,3.148,2.835Q24.851,42.564,26,41.479A23.372,23.372,0,0,1,26,38.31Z" transform="translate(-2.281 -1.041)"/><path class="a" d="M20.269,56.678c-1.711-3.269-3.486-6.633-5.217-10.019a1.077,1.077,0,0,1,.151-.929c3.512-4.467,9.966-6.1,14.771-3.463a32.644,32.644,0,0,0,9.748,3.728c1.534.281,3.09.451,4.614.784a2,2,0,0,1,1.642,1.951,2.038,2.038,0,0,1-1.7,1.875,12.637,12.637,0,0,1-1.334.3,32.354,32.354,0,0,1-11.088-.595,6.872,6.872,0,0,0-.876-.064c-.022.094-.045.187-.069.281a5.778,5.778,0,0,0,.994.443,28.467,28.467,0,0,0,10.974.669c1.8-.281,3.367-.833,3.805-2.944a1.4,1.4,0,0,1,.811-.784c2.828-1.073,5.671-2.1,8.513-3.137a2.654,2.654,0,0,1,.483-.07,1.684,1.684,0,0,1,2.019.808,1.652,1.652,0,0,1-.64,2.087,28.28,28.28,0,0,1-3.484,2.706A40.919,40.919,0,0,1,40.8,55.416c-3.082.593-6.175.306-9.273.187a62.774,62.774,0,0,0-7.03.09A28.593,28.593,0,0,0,20.269,56.678Z" transform="translate(-1.562 2.674)"/><path class="b" d="M64.045,40.2a37.538,37.538,0,0,0-6.6-19.846c-1.782-2.521-4.346-4.49-6.59-6.671a4.646,4.646,0,0,0-1.332-.617c1.315,2.222,2.6,4.238,3.709,6.348a5.815,5.815,0,0,1,.17,2.209,10.409,10.409,0,0,1-1.458-1.548c-1.185-1.909-2.282-3.873-3.415-5.816-1.231,3.972-1.376,4.183-2.807,3.845.271-1.575.544-3.151.866-5.02a44.322,44.322,0,0,1-5.241-.042,4.489,4.489,0,0,0-4.073,1.74,40.421,40.421,0,0,0-11.1,23.138c-.906,6.641,1.919,10.918,8.584,11.524a140.638,140.638,0,0,0,21.447.2C61.975,49.282,64.377,46.015,64.045,40.2Z" transform="translate(-0.243 -0.682)"/><path class="d" d="M43.959,30.649h-.468c-1.194,0-2.388,0-3.582,0a.829.829,0,0,1-.854-1.107.839.839,0,0,1,.846-.533q2.007,0,4.014,0h.3a2.03,2.03,0,0,0-.093-.253A1.875,1.875,0,0,0,42.4,27.647c-.832-.015-1.666,0-2.5-.006A.821.821,0,1,1,39.868,26c1.018,0,2.034,0,3.052,0H47.1a.8.8,0,0,1,.757.448.755.755,0,0,1-.065.842.839.839,0,0,1-.723.348c-.457,0-.913,0-1.37,0h-.223c.17.452.336.889.516,1.366.326,0,.7,0,1.075,0a.819.819,0,0,1,.816,1.14.828.828,0,0,1-.8.5c-.368.006-.737-.006-1.1.008a.283.283,0,0,0-.215.118A3.606,3.606,0,0,1,42.7,33.088a.724.724,0,0,0-.093.029c.085.06.152.112.221.158q1.776,1.183,3.554,2.365a.83.83,0,1,1-.874,1.4c-.925-.6-1.84-1.223-2.759-1.836-1.1-.732-2.194-1.465-3.295-2.193a.847.847,0,0,1-.443-.825.835.835,0,0,1,.882-.73c.85-.006,1.7.008,2.548-.008A1.912,1.912,0,0,0,43.959,30.649Z" transform="translate(1.315 0.877)"/></svg>