<svg xmlns="http://www.w3.org/2000/svg" width="77.569" height="48.995" viewBox="0 0 77.569 48.995"><defs><style>.a{fill:#b7dd58;}.b{fill:#0090da;}.c{fill:#0061a0;}</style></defs><g transform="translate(-3 -13)"><path class="a" d="M37.419,25.467A13.044,13.044,0,0,1,41.994,21.5a11.35,11.35,0,0,1,16.183,8.772A16.281,16.281,0,0,1,55.69,40.524a37.2,37.2,0,0,1-9.206,10.282c-2.753,2.2-5.683,4.186-8.556,6.236a1.025,1.025,0,0,1-.916.075A66.387,66.387,0,0,1,22.719,45.429a23.785,23.785,0,0,1-5.827-10.473c-1.424-6.315,1.79-12.228,7.654-14.1a11.244,11.244,0,0,1,12.339,3.95Z" transform="translate(4.393 2.374)"/><path class="b" d="M57.231,35.592c.536-1.988,1.033-3.737,1.463-5.5a2.254,2.254,0,0,0-.177-1.074c-.475-1.584-.933-3.176-1.477-4.736A17.593,17.593,0,0,0,56,22.237a13.653,13.653,0,0,0-3.744-4.793A9.162,9.162,0,0,1,50.445,15.1a1.382,1.382,0,0,1,.119-1.754c.505-.552,1.126-.347,1.649-.064a19.283,19.283,0,0,1,7.038,6c2.522,3.652,3.944,7.744,5.494,11.812a9.514,9.514,0,0,1,.119,4.913c-.529,3.558-1.184,7.1-1.787,10.646-.071.422-.092.857-.2,1.269a6.523,6.523,0,0,0,1.89,6.63c1.351,1.379,1.275,1.454-.216,2.72-1.691,1.435-3.39,2.864-5.071,4.311-.521.448-.96.655-1.491-.01-2.384-2.98-4.831-5.911-7.174-8.922a8.918,8.918,0,0,1-1.787-7.672c.64-2.835,1.441-5.638,2.3-8.415a8.7,8.7,0,0,0,.2-5.122,9.412,9.412,0,0,1-.415-4.98,6.884,6.884,0,0,1,.607-1.675,1.41,1.41,0,0,1,2.59-.13,14.137,14.137,0,0,1,1.237,3.51c.555,2.241,1,4.51,1.489,6.768C57.061,35.067,57.111,35.2,57.231,35.592Z" transform="translate(14.84 0)"/><path class="b" d="M11.5,35.592c-.536-1.988-1.033-3.737-1.463-5.5a2.254,2.254,0,0,1,.177-1.073c.475-1.584.932-3.176,1.477-4.736a17.575,17.575,0,0,1,1.038-2.044,13.654,13.654,0,0,1,3.744-4.793A9.157,9.157,0,0,0,18.285,15.1a1.382,1.382,0,0,0-.119-1.754c-.505-.552-1.126-.346-1.649-.063A19.269,19.269,0,0,0,9.48,19.279c-2.522,3.653-3.944,7.744-5.5,11.812A9.514,9.514,0,0,0,3.865,36c.529,3.558,1.184,7.1,1.787,10.646.071.422.092.857.2,1.269a6.523,6.523,0,0,1-1.89,6.629c-1.351,1.379-1.275,1.454.216,2.72,1.691,1.435,3.39,2.864,5.071,4.311.521.448.96.655,1.491-.01,2.384-2.98,4.831-5.911,7.174-8.922A8.918,8.918,0,0,0,19.7,44.974c-.64-2.835-1.441-5.638-2.3-8.415a8.7,8.7,0,0,1-.2-5.122,9.412,9.412,0,0,0,.415-4.98,6.892,6.892,0,0,0-.607-1.675,1.41,1.41,0,0,0-2.59-.13,14.136,14.136,0,0,0-1.237,3.51c-.555,2.241-1,4.51-1.489,6.768C11.669,35.067,11.618,35.2,11.5,35.592Z" transform="translate(0 0)"/><path class="c" d="M42.987,28.4q-2.792,2.8-5.571,5.613a1.307,1.307,0,0,0-.1,1.929A1.288,1.288,0,0,0,39.23,35.8c.934-.929,1.858-1.869,2.786-2.806s1.863-1.866,2.782-2.809a1.267,1.267,0,0,0,.093-1.874A1.249,1.249,0,0,0,42.987,28.4Z" transform="translate(10.997 4.832)"/><path class="c" d="M39.262,30.079a1.286,1.286,0,0,0-.036-1.79,1.248,1.248,0,0,0-1.773,0,1.314,1.314,0,0,0-.022,1.8A1.291,1.291,0,0,0,39.262,30.079Z" transform="translate(11.045 4.834)"/><path class="c" d="M41.628,32.7a1.247,1.247,0,0,0-.02,1.777,1.283,1.283,0,0,0,1.824,0,1.3,1.3,0,0,0-.031-1.794A1.256,1.256,0,0,0,41.628,32.7Z" transform="translate(12.393 6.261)"/><path class="c" d="M22.744,28.55c-.248-.046-.437-.079-.568-.1-.354-.077-.529-.115-.524-.115a1.866,1.866,0,0,0-.316.312l-.347.382a2.84,2.84,0,0,1-.776.521c-.092.038-.14.086-.14.141s0,.117.012.209.012.163.012.209-.005.127-.015.23-.015.178-.015.23.048.077.145.077a1.856,1.856,0,0,0,.483-.1,1.776,1.776,0,0,1,.476-.1c.043,0,.063.048.063.146q0,2.05-.037,3.118-.082,2.207-.082,2.342c0,.106.065.159.2.159s.327-.005.587-.012.461-.012.6-.012.208-.082.208-.249c0-.374-.005-.936-.012-1.686s-.012-1.314-.012-1.686a34.086,34.086,0,0,1,.145-3.779c0-.055.007-.093.007-.115A.116.116,0,0,0,22.744,28.55Z" transform="translate(5.53 4.97)"/><path class="c" d="M26.461,28.378A3.161,3.161,0,0,0,23.9,29.606a4.192,4.192,0,0,0-.948,2.749,4.245,4.245,0,0,0,.948,2.763,3.262,3.262,0,0,0,5.122,0,4.516,4.516,0,0,0,0-5.518A3.18,3.18,0,0,0,26.461,28.378Zm1.489,5.657a1.782,1.782,0,0,1-1.491.821,1.749,1.749,0,0,1-1.5-.8,2.882,2.882,0,0,1-.505-1.7,2.844,2.844,0,0,1,.5-1.693,1.841,1.841,0,0,1,3.012,0,2.988,2.988,0,0,1-.019,3.373Z" transform="translate(6.466 4.983)"/><path class="c" d="M34.857,29.6a3.289,3.289,0,0,0-5.122.005,4.192,4.192,0,0,0-.948,2.749,4.245,4.245,0,0,0,.948,2.763,3.262,3.262,0,0,0,5.122,0,4.513,4.513,0,0,0,0-5.517Zm-1.074,4.434a1.782,1.782,0,0,1-1.491.821,1.749,1.749,0,0,1-1.5-.8,2.882,2.882,0,0,1-.505-1.7,2.844,2.844,0,0,1,.5-1.693,1.841,1.841,0,0,1,3.012,0,2.988,2.988,0,0,1-.019,3.373Z" transform="translate(8.356 4.983)"/></g></svg>