<svg xmlns="http://www.w3.org/2000/svg" width="34.636" height="29.183" viewBox="0 0 34.636 29.183">
  <g id="Home_Improvement" data-name="Home Improvement" transform="translate(-4 -8)">
    <path id="Path_2934" data-name="Path 2934" d="M21.321,8a2.216,2.216,0,0,1,1.424.512q4.489,3.417,8.978,6.832,3.211,2.443,6.421,4.888A1.11,1.11,0,1,1,36.807,22Q33.2,19.267,29.6,16.526l-7.674-5.832a.838.838,0,0,0-1.2-.006L8.7,19.828c-.963.732-1.924,1.468-2.89,2.2a1.114,1.114,0,0,1-1.368.013,1.058,1.058,0,0,1-.355-1.272,1.5,1.5,0,0,1,.448-.563c2.043-1.568,4.1-3.122,6.146-4.682L19.913,8.5A2.233,2.233,0,0,1,21.321,8Z" transform="translate(0)" fill="#b7dd58"/>
    <path id="Path_2935" data-name="Path 2935" d="M49.883,16.37c-.6-.458-1.164-.881-1.722-1.305-.969-.736-1.928-1.487-2.912-2.2a.78.78,0,0,1-.358-.776,1.321,1.321,0,0,1,.938-1.216,1.48,1.48,0,0,1,.387-.05c.776,0,1.552-.005,2.329,0A1.27,1.27,0,0,1,49.9,12.174q0,1.961,0,3.922C49.9,16.168,49.89,16.239,49.883,16.37Z" transform="translate(-16.07 -1.107)" fill="#0061a0"/>
    <path id="Path_2936" data-name="Path 2936" d="M37.3,32.5v-.981c0-1.439,0-2.89,0-4.742a.96.96,0,0,0-.1-.428l-.01-.019q-.014-.027-.03-.053c-.014-.023-.029-.046-.045-.067l-.017-.023c-.012-.015-.024-.031-.036-.045a1.41,1.41,0,0,0-.227-.212q-1.45-1.093-2.892-2.2l-2.369-1.8-6.305-4.8a.875.875,0,0,0-1.258,0l-6.305,4.8-2.369,1.8q-1.446,1.1-2.892,2.2a1.441,1.441,0,0,0-.228.212c-.013.014-.024.03-.036.045l-.017.024c-.016.022-.031.045-.045.067s-.02.035-.029.053-.007.012-.01.019a.959.959,0,0,0-.095.428c0,2.228,0,3.564,0,5.05v3.79c0,.02,0,.141,0,.3q0,.715,0,1.429a3.387,3.387,0,0,0,3.334,3.318l0,0H33.964A3.276,3.276,0,0,0,37.3,37.348c0-.17,0-.34,0-.51,0-.154,0-.282,0-.307Zm-19.232-1.6a.284.284,0,0,1-.271-.031c-.442-.422-.869-.857-1.3-1.29a.21.21,0,0,1,0-.327,2.293,2.293,0,0,1,1.112-.775,1.123,1.123,0,0,0,.858-.939,1.081,1.081,0,0,1,.326-.584c.3-.287.584-.592.894-.869a3.567,3.567,0,0,1,2.716-1,5.689,5.689,0,0,1,1.62.4c.3.114.59.237.885.357.1.042.23.081.19.225s-.162.141-.287.14c-.531,0-1.066-.037-1.594.009a3.641,3.641,0,0,0-1.044.283,1.033,1.033,0,0,0-.438.416.546.546,0,0,0,.116.648c.145.174.307.334.461.5l-1.523,1.528c-.123-.138-.249-.294-.389-.436A.642.642,0,0,0,19.523,29a1.2,1.2,0,0,0-.676.88C18.748,30.351,18.375,30.594,18.07,30.894Zm6.149-.706-1.269,1.267-1.582-1.717,1.145-1.122Zm5.978,6.6a.983.983,0,0,1-1.636.408c-.393-.379-.773-.771-1.159-1.157q-1.172-1.171-2.343-2.344c-.049-.05-.1-.1-.14-.149l1.393-1.386c.052.049.114.1.172.164l3.446,3.446A.967.967,0,0,1,30.2,36.787Zm.7-9.3a1.935,1.935,0,0,1-1.94,1.966,1.485,1.485,0,0,0-1.117.482q-2.413,2.438-4.852,4.85a1.542,1.542,0,0,0-.5,1.168,1.927,1.927,0,0,1-2.051,1.911.943.943,0,0,1-.193-.023.216.216,0,0,1-.113-.392c.221-.229.444-.457.676-.674a.477.477,0,0,0,.129-.55,1.1,1.1,0,0,0-.742-.716.454.454,0,0,0-.5.126c-.221.229-.444.457-.677.673a.223.223,0,0,1-.4-.132,1.944,1.944,0,0,1,1.77-2.209c.1-.006.208-.007.312-.006a1.048,1.048,0,0,0,.788-.322q2.6-2.6,5.2-5.2a1.213,1.213,0,0,0,.319-.928,1.893,1.893,0,0,1,1.357-1.861,3.287,3.287,0,0,1,.863-.072.218.218,0,0,1,.133.392c-.221.238-.453.465-.686.692a.446.446,0,0,0-.125.48,1.1,1.1,0,0,0,.726.755.479.479,0,0,0,.549-.136c.207-.224.425-.44.649-.647.062-.058.183-.118.244-.094a.4.4,0,0,1,.17.228A.749.749,0,0,1,30.9,27.483Z" transform="translate(-3.14 -3.485)" fill="#0090da"/>
  </g>
</svg>
