<svg xmlns="http://www.w3.org/2000/svg" width="27.658" height="27.805" viewBox="0 0 27.658 27.805">
  <g id="noun_Home_4146258" transform="translate(-8.406 -8.049)">
    <path id="Path_2786" data-name="Path 2786" d="M20.953,8.415l-11.585,7.2a2.04,2.04,0,0,0-.961,1.731V34.342a1.51,1.51,0,0,0,1.51,1.511h7.877a.755.755,0,0,0,.755-.756v-5.75a3.688,3.688,0,1,1,7.377,0V35.1a.755.755,0,0,0,.755.756h7.876a1.51,1.51,0,0,0,1.51-1.511V17.35a2.038,2.038,0,0,0-.963-1.731l-11.583-7.2A2.429,2.429,0,0,0,20.953,8.415Z" fill="#0090da"/>
  </g>
</svg>
