<svg xmlns="http://www.w3.org/2000/svg" width="40" height="45.5" viewBox="0 0 40 45.5">
  <g id="Riders" transform="translate(0.059)">
    <path id="Path_2811" data-name="Path 2811" d="M76.8,5.717C72.379,5.341,68.183,5,64.913,0c-3.27,5-7.456,5.351-11.888,5.717-1.113.089-2.256.188-3.4.366-5.447,14.679-1.517,26.805,12,37.063.552.415,1,.781,1.369,1.078.877.7,1.359,1.1,1.783,1.1.5,0,1.192-.514,2.571-1.533l.276-.208c14-10.346,18.113-22.612,12.588-37.5C79.067,5.915,77.915,5.816,76.8,5.717Z" transform="translate(-42.638)" fill="#0090da"/>
    <path id="Path_2812" data-name="Path 2812" d="M29.485,7.517C25.063,7.141,20.867,6.8,17.6,1.8c-3.27,5-7.456,5.351-11.888,5.717-1.113.089-2.256.188-3.4.366-5.447,14.679-1.527,26.805,12,37.063.552.415,1,.781,1.369,1.078.877.7,1.359,1.1,1.783,1.1.5,0,1.192-.514,2.571-1.533l.276-.208c13.986-10.346,18.1-22.612,12.578-37.5C31.751,7.705,30.6,7.606,29.485,7.517Z" transform="translate(0 -1.622)" fill="#0061a0"/>
    <path id="Path_2813" data-name="Path 2813" d="M101.168,143.264a1.034,1.034,0,0,1-1.029,1.029H94.412v5.727a1.028,1.028,0,0,1-1.029,1.029H89.7a1.028,1.028,0,0,1-1.029-1.029v-5.727H82.929a1.034,1.034,0,0,1-1.029-1.029v-3.68a1.028,1.028,0,0,1,1.029-1.029h5.727v-5.727a1.028,1.028,0,0,1,1.029-1.029h3.68a1.028,1.028,0,0,1,1.029,1.029v5.717h5.727a1.028,1.028,0,0,1,1.029,1.029v3.689Z" transform="translate(-73.91 -118.763)" fill="#fff"/>
  </g>
</svg>
