<svg xmlns="http://www.w3.org/2000/svg" width="68.448" height="69.225" viewBox="0 0 68.448 69.225"><defs><style>.a{fill:#0061a0;}.b{fill:#b7dd58;}.c{fill:#0090da;}</style></defs><g transform="translate(0 1)"><path class="a" d="M47.334,47h-.691c-1.766,0-3.531.006-5.3,0a1.238,1.238,0,1,1-.01-2.467q2.968,0,5.936,0h.447a3.731,3.731,0,0,0-.137-.381,2.772,2.772,0,0,0-2.557-1.667c-1.232-.024-2.464,0-3.7-.01a1.242,1.242,0,0,1-1.24-1.683A1.23,1.23,0,0,1,41.283,40c1.5-.006,3.01,0,4.515,0h6.185a1.184,1.184,0,0,1,1.12.676,1.16,1.16,0,0,1-.1,1.268,1.242,1.242,0,0,1-1.071.525c-.675,0-1.351,0-2.026,0h-.329c.252.682.5,1.337.761,2.055.483,0,1.036-.006,1.59,0A1.235,1.235,0,1,1,51.953,47c-.545.01-1.091-.007-1.635.01a.418.418,0,0,0-.317.178,5.352,5.352,0,0,1-4.531,3.49.869.869,0,0,0-.136.044c.125.092.224.167.328.238q2.626,1.78,5.255,3.559a1.266,1.266,0,0,1,.659,1.273,1.232,1.232,0,0,1-1.949.84c-1.368-.91-2.722-1.839-4.083-2.762q-2.436-1.651-4.874-3.3a1.283,1.283,0,0,1-.656-1.242,1.245,1.245,0,0,1,1.305-1.1c1.256-.007,2.512.012,3.768-.012A2.845,2.845,0,0,0,47.334,47Z" transform="translate(4.36 3.36)"/><path class="b" d="M16.4,24.578H12.288a1,1,0,0,0-1,.991v4.089a1,1,0,0,0,1,.991H16.4a1,1,0,0,0,1-.991V25.569A1,1,0,0,0,16.4,24.578Z" transform="translate(-2.51 0.207)"/><path class="b" d="M24.423,24.578H20.306a1,1,0,0,0-1,.991v4.089a1,1,0,0,0,1,.991h4.116a1,1,0,0,0,1-.991V25.569A1,1,0,0,0,24.423,24.578Z" transform="translate(-0.87 0.207)"/><path class="b" d="M32.44,24.578H28.323a1,1,0,0,0-1,.991v4.089a1,1,0,0,0,1,.991H32.44a1,1,0,0,0,1-.991V25.569A.994.994,0,0,0,32.44,24.578Z" transform="translate(0.769 0.207)"/><path class="b" d="M16.4,32.039H12.288a1,1,0,0,0-1,.991V37.12a1,1,0,0,0,1,.991H16.4a1,1,0,0,0,1-.991V33.03A.994.994,0,0,0,16.4,32.039Z" transform="translate(-2.51 1.732)"/><path class="b" d="M24.423,32.039H20.306a1,1,0,0,0-1,.991V37.12a1,1,0,0,0,1,.991h4.116a1,1,0,0,0,1-.991V33.03A.994.994,0,0,0,24.423,32.039Z" transform="translate(-0.87 1.732)"/><path class="b" d="M32.44,32.039H28.323a1,1,0,0,0-1,.991V37.12a1,1,0,0,0,1,.991H32.44a1,1,0,0,0,1-.991V33.03A.993.993,0,0,0,32.44,32.039Z" transform="translate(0.769 1.732)"/><path class="b" d="M16.4,39.4H12.288a1,1,0,0,0-1,.991v4.089a1,1,0,0,0,1,.991H16.4a1,1,0,0,0,1-.991V40.389A1,1,0,0,0,16.4,39.4Z" transform="translate(-2.51 3.237)"/><path class="b" d="M24.423,39.4H20.306a1,1,0,0,0-1,.991v4.089a1,1,0,0,0,1,.991h4.116a1,1,0,0,0,1-.991V40.389A1,1,0,0,0,24.423,39.4Z" transform="translate(-0.87 3.237)"/><path class="b" d="M32.44,39.4H28.323a1,1,0,0,0-1,.991v4.089a1,1,0,0,0,1,.991H32.44a1,1,0,0,0,1-.991V40.389A.994.994,0,0,0,32.44,39.4Z" transform="translate(0.769 3.237)"/><path class="b" d="M40.54,24.578H36.424a1,1,0,0,0-1,.991v4.089a1,1,0,0,0,1,.991H40.54a1,1,0,0,0,1-.991V25.569A1,1,0,0,0,40.54,24.578Z" transform="translate(2.425 0.207)"/><path class="b" d="M41.538,33.03v2.626a14.649,14.649,0,0,0-3.849,2.454H36.424a1,1,0,0,1-1-.991V33.03a1,1,0,0,1,1-.991H40.54a1,1,0,0,1,.919.6A.974.974,0,0,1,41.538,33.03Z" transform="translate(2.425 1.732)"/><path class="b" d="M14.57,4a2.707,2.707,0,0,0-2.716,2.7v5.838a2.716,2.716,0,0,0,5.433,0V6.7A2.707,2.707,0,0,0,14.57,4Z" transform="translate(-2.394 -5)"/><path class="b" d="M38.446,4A2.707,2.707,0,0,0,35.73,6.7v5.838a2.716,2.716,0,0,0,5.433,0V6.7A2.708,2.708,0,0,0,38.446,4Z" transform="translate(2.8 -5)"/><path class="c" d="M53.135,9H49.007v1.718a3.673,3.673,0,0,1-7.162,1.168,3.664,3.664,0,0,1-.189-1.168V9H19.97v1.718a3.674,3.674,0,0,1-7.164,1.168,3.664,3.664,0,0,1-.189-1.168V9H9.064A5.076,5.076,0,0,0,4,14.087V52.092a5.075,5.075,0,0,0,5.064,5.085H39.885a15.077,15.077,0,0,1-.367-2.886H9.064a2.2,2.2,0,0,1-2.192-2.2V22.917H55.325v16.02a14.635,14.635,0,0,1,2.874.469V14.087A5.075,5.075,0,0,0,53.135,9Z" transform="translate(-4 -2.978)"/><path class="a" d="M48.4,34.573c.263,0,.529.008.792.022a14.657,14.657,0,0,1,10.576,5.354,14.467,14.467,0,0,1-1.012,19.457A14.692,14.692,0,0,1,35.8,56.535a14.311,14.311,0,0,1-1.784-4.678,14.5,14.5,0,0,1-.254-2.357v-.006c0-.118,0-.244,0-.373a14.547,14.547,0,0,1,.1-1.727v0a14.337,14.337,0,0,1,1.366-4.627A14.661,14.661,0,0,1,48.4,34.573Zm0-2.9a17.575,17.575,0,0,0-15.8,9.821,17.318,17.318,0,0,0-1.762,7.626c0,.151,0,.3.006.452A17.592,17.592,0,1,0,49.344,31.7C49.031,31.681,48.715,31.673,48.4,31.673Z" transform="translate(2.486 1.657)"/></g></svg>