<svg xmlns="http://www.w3.org/2000/svg" width="37" height="36.004" viewBox="0 0 37 36.004">
  <g id="Income_Lumpsum" data-name="Income + Lumpsum" transform="translate(-3 -4)">
    <path id="Path_2968" data-name="Path 2968" d="M11.417,51.839c-.806-1.528-1.642-3.1-2.457-4.686a.5.5,0,0,1,.071-.434A5.675,5.675,0,0,1,15.989,45.1a15.421,15.421,0,0,0,4.592,1.743c.723.132,1.455.211,2.173.367a.938.938,0,0,1,.773.913.958.958,0,0,1-.8.877,6.053,6.053,0,0,1-.629.141,15.383,15.383,0,0,1-5.222-.278,3.482,3.482,0,0,0-.413-.031c-.011.044-.021.088-.032.132a2.7,2.7,0,0,0,.468.206,13.519,13.519,0,0,0,5.168.313c.849-.132,1.585-.39,1.793-1.377a.653.653,0,0,1,.382-.365c1.332-.5,2.672-.983,4.01-1.467a1.165,1.165,0,0,1,.227-.032.794.794,0,0,1,.95.378.77.77,0,0,1-.3.976,13.479,13.479,0,0,1-1.64,1.267,19.359,19.359,0,0,1-6.4,2.389,19.162,19.162,0,0,1-4.368.088,29.639,29.639,0,0,0-3.312.042A12.92,12.92,0,0,0,11.417,51.839Z" transform="translate(-2.149 -14.667)" fill="#0061a0"/>
    <path id="Path_2969" data-name="Path 2969" d="M3,49.353c.892-.439,1.748-.853,2.6-1.281.406-.2.515.1.648.351.6,1.145,1.187,2.293,1.782,3.44.318.614.63,1.233.971,1.834.149.263.153.417-.127.594-.828.523-1.637,1.072-2.506,1.645C5.227,53.71,4.117,51.541,3,49.353Zm4.457,3.991a.677.677,0,0,0-.81.507.7.7,0,0,0,.531.8.706.706,0,0,0,.793-.544A.673.673,0,0,0,7.457,53.344Z" transform="translate(0 -15.933)" fill="#0061a0"/>
    <path id="Path_2970" data-name="Path 2970" d="M44.37,24.149a4.86,4.86,0,1,0,4.86,4.86A4.861,4.861,0,0,0,44.37,24.149Zm1.1,3.776c.14,0,.3,0,.461,0a.361.361,0,1,1,.007.721c-.158,0-.317,0-.476,0a.125.125,0,0,0-.093.052,1.556,1.556,0,0,1-1.317,1.02c-.01,0-.018.006-.039.013.036.026.065.049.1.07q.763.521,1.527,1.04a.371.371,0,0,1,.192.372.358.358,0,0,1-.567.245c-.4-.266-.791-.538-1.186-.807-.473-.322-.944-.645-1.416-.965a.375.375,0,0,1-.19-.362.363.363,0,0,1,.378-.322c.365,0,.729,0,1.095,0a.828.828,0,0,0,.653-.354h-.2c-.513,0-1.026,0-1.54,0a.363.363,0,0,1-.367-.487.358.358,0,0,1,.364-.234c.575,0,1.15,0,1.725,0h.13a1.026,1.026,0,0,0-.041-.11.8.8,0,0,0-.744-.487c-.357-.007-.716,0-1.074,0a.363.363,0,0,1-.361-.492.356.356,0,0,1,.348-.229c.437,0,.874,0,1.312,0h1.8a.346.346,0,0,1,.326.2.338.338,0,0,1-.028.37.358.358,0,0,1-.312.153c-.2,0-.393,0-.59,0h-.1C45.322,27.522,45.394,27.714,45.472,27.925Z" transform="translate(-13.219 -7.295)" fill="#0090da"/>
    <path id="Path_2971" data-name="Path 2971" d="M33.408,24.968a14.648,14.648,0,0,1,3.084-7.553c.788-1.005,1.574-2.012,2.376-3.006a.652.652,0,0,1,.448-.216c1.905-.015,3.809-.011,5.714,0a.487.487,0,0,1,.348.123c1.132,1.468,2.332,2.893,3.356,4.434a13.934,13.934,0,0,1,2.276,7.808A7.651,7.651,0,0,1,43.4,34.234a31.48,31.48,0,0,1-3.858-.153A6.562,6.562,0,0,1,35.9,32.29a.757.757,0,0,1-.219-.5c-.016-1.671-.023-3.343,0-5.012a1.218,1.218,0,0,0-.721-1.218C34.472,25.335,33.956,25.176,33.408,24.968Zm8.743-5.475A5.9,5.9,0,1,0,48.064,25.4,5.908,5.908,0,0,0,42.151,19.493Z" transform="translate(-11.01 -3.687)" fill="#0090da"/>
    <path id="Path_2972" data-name="Path 2972" d="M39.262,4.734a2.746,2.746,0,0,1,3.872.132,3.426,3.426,0,0,0,4.629.018c.128-.112.25-.229.456-.419a3.7,3.7,0,0,1-.11.554c-.221.572-.458,1.135-.685,1.7a.358.358,0,0,1-.4.237c-1.892-.008-3.786,0-5.678-.01a.463.463,0,0,1-.318-.114C40.438,6.15,39.859,5.45,39.262,4.734Z" transform="translate(-13.129 0)" fill="#0090da"/>
    <path id="Path_2973" data-name="Path 2973" d="M30.991,42.99v.395c0,.724.007.745-.687.924A11.528,11.528,0,0,1,24.41,44.3c-.669-.175-.661-.2-.659-.91v-.4A13.278,13.278,0,0,0,30.991,42.99Z" transform="translate(-7.513 -14.117)" fill="#b7dd58"/>
    <path id="Path_2974" data-name="Path 2974" d="M14.758,24.5a13.288,13.288,0,0,0,7.226,0,7.974,7.974,0,0,1-.011.884.406.406,0,0,1-.245.268,11.73,11.73,0,0,1-1.634.411,11.885,11.885,0,0,1-4.46-.187c-.9-.219-.9-.236-.89-1.143C14.747,24.656,14.754,24.585,14.758,24.5Z" transform="translate(-4.251 -7.421)" fill="#b7dd58"/>
    <path id="Path_2975" data-name="Path 2975" d="M14.767,28.2a13.252,13.252,0,0,0,7.216,0,6.747,6.747,0,0,1-.011.853.44.44,0,0,1-.25.3,11.3,11.3,0,0,1-1.634.411,11.168,11.168,0,0,1-4.421-.19C14.541,29.272,14.733,29.4,14.767,28.2Z" transform="translate(-4.248 -8.762)" fill="#b7dd58"/>
    <path id="Path_2976" data-name="Path 2976" d="M30.991,35.591v.357c0,.763.008.785-.724.971A11.508,11.508,0,0,1,24.41,36.9c-.668-.175-.661-.2-.659-.91v-.4A13.279,13.279,0,0,0,30.991,35.591Z" transform="translate(-7.513 -11.438)" fill="#b7dd58"/>
    <path id="Path_2977" data-name="Path 2977" d="M23.75,39.292a13.313,13.313,0,0,0,7.239-.007,5.224,5.224,0,0,1-.016.9.523.523,0,0,1-.352.3,19.885,19.885,0,0,1-2.414.443,10.252,10.252,0,0,1-3.793-.333c-.668-.2-.664-.208-.664-.908Z" transform="translate(-7.513 -12.776)" fill="#b7dd58"/>
    <path id="Path_2978" data-name="Path 2978" d="M45.083,11.663c-.923,0-1.843,0-2.766,0-.464,0-.736-.221-.736-.59s.27-.588.734-.59q2.8,0,5.605,0c.465,0,.736.221.736.59s-.271.588-.736.59C46.975,11.664,46.03,11.663,45.083,11.663Z" transform="translate(-13.969 -2.347)" fill="#0090da"/>
    <path id="Path_2979" data-name="Path 2979" d="M24.066,33.32c1.377-.856,5.8-.778,6.934.032A11.44,11.44,0,0,1,24.066,33.32Z" transform="translate(-7.628 -10.395)" fill="#b7dd58"/>
    <path id="Path_2980" data-name="Path 2980" d="M21.973,22.251a11.9,11.9,0,0,1-6.994,0C16.008,21.416,20.728,21.381,21.973,22.251Z" transform="translate(-4.337 -6.377)" fill="#b7dd58"/>
    <path id="Path_2981" data-name="Path 2981" d="M14.735,31.871a12.878,12.878,0,0,0,4.684.477c-.058.387-.114.762-.182,1.21a12.656,12.656,0,0,1-1.467-.01c-.836-.1-1.666-.25-2.5-.395-.4-.07-.627-.288-.546-.737A3.172,3.172,0,0,0,14.735,31.871Z" transform="translate(-4.241 -10.091)" fill="#b7dd58"/>
    <path id="Path_2982" data-name="Path 2982" d="M19.373,44.659a13.915,13.915,0,0,1-1.582-.011c-.849-.1-1.692-.26-2.535-.4a.555.555,0,0,1-.521-.72,3.687,3.687,0,0,0,0-.557,13.4,13.4,0,0,0,4.527.5C19.3,43.86,19.333,44.219,19.373,44.659Z" transform="translate(-4.243 -14.11)" fill="#b7dd58"/>
    <path id="Path_2983" data-name="Path 2983" d="M19.286,36.073v1.186a13.272,13.272,0,0,1-1.506-.01c-.848-.1-1.689-.261-2.531-.4a.558.558,0,0,1-.515-.723,3.83,3.83,0,0,0,0-.551A13.37,13.37,0,0,0,19.286,36.073Z" transform="translate(-4.244 -11.431)" fill="#b7dd58"/>
    <path id="Path_2984" data-name="Path 2984" d="M19.238,39.771c.042.055.055.065.055.075,0,1.358.244,1.134-1.01,1.1a18.394,18.394,0,0,1-2.94-.382c-.609-.117-.6-.184-.6-.8v-.5A13.173,13.173,0,0,0,19.238,39.771Z" transform="translate(-4.253 -12.769)" fill="#b7dd58"/>
  </g>
</svg>
