<svg xmlns="http://www.w3.org/2000/svg" width="42.486" height="33.899" viewBox="0 0 42.486 33.899">
  <g id="noun_earnings_3570477" transform="translate(-3.248 -70.164)">
    <path id="Path_2826" data-name="Path 2826" d="M94.362,204.357q-.076-.055-.153-.109a6.046,6.046,0,0,0-2.985-1.047H91.2c-.067,0-.135-.009-.2-.011l-.094,0-.141,0h-.081a6.081,6.081,0,1,0,2.232,11.773h0q.111-.042.219-.087a6.044,6.044,0,0,0,2.4-1.816q.147-.184.28-.381h0a6.044,6.044,0,0,0,1.027-2.952q.017-.227.017-.456a6.081,6.081,0,0,0-2.492-4.909Z" transform="translate(-75.329 -121.073)" fill="#0061a0" stroke="#fff" stroke-width="1.4"/>
    <path id="Path_2827" data-name="Path 2827" d="M203.6,129.208c0,.057-.005.115-.01.172,0,.033-.006.067-.009.1,0,.052-.009.1-.014.155,0,.035-.008.07-.012.105s-.012.1-.02.149-.011.072-.016.107-.016.1-.024.145-.013.072-.02.107-.019.1-.03.144-.016.071-.024.106-.023.1-.036.145-.017.068-.027.1c-.013.049-.028.1-.042.148-.01.032-.019.064-.029.1-.016.053-.034.1-.051.157-.009.028-.018.056-.028.084-.023.065-.047.129-.071.193l-.017.045q-.046.119-.1.236l-.027.06c-.025.057-.051.114-.078.171l-.042.085c-.023.048-.047.1-.072.143l-.05.093c-.024.044-.047.088-.072.131s-.037.064-.056.1l-.044.076a11.14,11.14,0,1,0-1.783-9.381l.027.021.077.061.09.072.076.064.086.074.075.066.084.076.073.069.081.078.071.071.078.08.069.072.076.083.066.074.073.085.063.075.072.089.06.075.071.094.055.074.071.1.051.071c.025.037.05.074.074.111l.042.063c.032.05.064.1.095.151l.016.026q.054.09.106.181l.031.057c.023.042.047.085.07.127l.037.072c.019.038.039.076.058.114l.037.079c.018.037.035.074.052.111l.037.083c.016.036.032.073.048.109l.035.086c.015.036.029.072.043.109l.033.088c.013.036.027.072.04.109l.031.09c.012.036.025.073.036.109l.029.091q.017.055.033.11l.026.092q.015.056.029.111t.024.093c.009.037.018.075.026.112s.014.062.021.094.016.076.023.114.012.062.018.094.013.077.02.116.01.062.015.094.011.079.016.118.008.062.012.093.009.081.013.122.007.06.009.09.007.086.01.128,0,.057.006.085c0,.048,0,.1.007.143,0,.024,0,.048,0,.071,0,.072,0,.144,0,.216s0,.172,0,.258C203.6,129.151,203.6,129.18,203.6,129.208Zm6.565-8.326h-2.846a.539.539,0,0,1,0-1.078h8.016a.539.539,0,1,1,0,1.078h-2.456a4.056,4.056,0,0,1,1.214,2.335h1.241a.539.539,0,1,1,0,1.078h-1.241a3.921,3.921,0,0,1-3.929,3.413H208.76l4.256,3.714a.554.554,0,0,1,.053.772.537.537,0,0,1-.76.051l-5.344-4.65a.553.553,0,0,1,.354-.965h2.846A2.868,2.868,0,0,0,213,124.295h-5.683a.539.539,0,0,1,0-1.078H213A2.87,2.87,0,0,0,210.165,120.882Z" transform="translate(-181.007 -40.673)" fill="#0061a0" stroke="#fff" stroke-width="1"/>
    <path id="Path_2828" data-name="Path 2828" d="M173.5,70.164a14.993,14.993,0,0,0-9.423,3.285,15.243,15.243,0,0,0-5.123,7.609l.178.017.048,0q.126.014.25.033l.07.011.178.03.091.018.157.033.1.022.152.038.095.025.154.045.088.026c.058.018.116.038.174.057l.064.022q.118.042.235.088l.046.019c.062.025.124.051.186.077l.081.036.148.068.088.043.138.07.089.047.005,0a12.225,12.225,0,1,1,2.075,10.913l-.019.02-.063.073c-.037.043-.075.085-.114.127l-.059.064q-.073.078-.148.153l-.03.031q-.091.09-.184.177l-.054.048c-.045.041-.091.082-.137.122l-.071.06-.127.1-.076.06-.132.1-.074.054c-.051.037-.1.073-.155.108l-.054.037q-.106.071-.214.137l-.051.03c-.056.034-.112.067-.169.1l-.079.043c-.049.027-.1.051-.147.077-.029.015-.058.026-.087.041s-.043.015-.065.026a16.245,16.245,0,0,0,1.546,1.688h.272c.086,0,.172.017.258.019.029,0,.057.018.086.019.057,0,.114,0,.171.009l.1.008.153.013.108.012.145.017.112.017.14.021.112.02.137.025.113.024.134.03.112.028.132.034.112.032.13.038.111.035.128.042.11.039.126.046.109.042.124.05.108.046.122.053.107.049.12.057.1.053.118.061.1.056.116.065.1.059.114.069.1.063.111.072.1.066.109.076.1.069.107.079.093.072.1.083.091.075.1.086.089.078.1.09.086.081.1.093.084.084.093.1.081.086.09.1.078.089.087.1.076.091.084.107.072.093.081.11c.023.032.046.063.069.1s.052.076.078.114l.066.1c.026.039.05.079.075.118s.042.065.062.1l.015.024a15.155,15.155,0,1,0,3.5-29.9Z" transform="translate(-142.919)" fill="#fff"/>
    <path id="Path_2829" data-name="Path 2829" d="M45.112,376.457c-.005-.008-.01-.031-.014-.039A6.717,6.717,0,0,0,39.269,373H29.3a6.759,6.759,0,0,0-6.67,6.2h23.31A6.605,6.605,0,0,0,45.112,376.457Z" transform="translate(-18.839 -275.635)" fill="#0061a0" stroke="#fff" stroke-width="1"/>
  </g>
</svg>
