<svg id="Group_4567" data-name="Group 4567" xmlns="http://www.w3.org/2000/svg" width="38.084" height="42.248" viewBox="0 0 38.084 42.248">
  <path id="Path_1908" data-name="Path 1908" d="M37.584,24.285h.267l9.8.356a3.93,3.93,0,0,1,2.85,1.336l.223.223,6.011-1.87a.758.758,0,0,1,.312-.045A13.049,13.049,0,1,0,37.5,24.33h.089Z" transform="translate(-22.209 -2.6)" fill="#0061a0"/>
  <g id="Group_4566" data-name="Group 4566" transform="translate(0 23.864)">
    <path id="Path_1909" data-name="Path 1909" d="M10,75.6,7.463,78.94a.855.855,0,0,0,.134,1.2l6.679,5.032a.851.851,0,0,0,1.2-.178l2.538-3.34-7.837-5.922C10.134,75.689,10.045,75.645,10,75.6Z" transform="translate(-7.272 -66.958)" fill="#0090da"/>
    <path id="Path_1910" data-name="Path 1910" d="M47.814,56.284l-6.1,1.915v.445a3.791,3.791,0,0,1-3.028,3.518l-.4.089a38.478,38.478,0,0,1-6.768.8l-1.87.045a1.025,1.025,0,1,1-.089-2.048L31.427,61a44.207,44.207,0,0,0,6.412-.757l.4-.089a1.753,1.753,0,0,0,1.38-1.6,1.667,1.667,0,0,0-.445-1.247,1.815,1.815,0,0,0-1.2-.579l-9.752-.356a4.825,4.825,0,0,0-3.072.935L17,63.142l8.416,6.368,8.193.8a5.68,5.68,0,0,0,4.008-1.158L49.684,59.8a1.979,1.979,0,0,0,.757-1.425,2.008,2.008,0,0,0-2.627-2.093Z" transform="translate(-12.668 -56.192)" fill="#0090da"/>
  </g>
  <g id="Group_4564" data-name="Group 4564" transform="translate(19.694 4.264)">
    <path id="Path_1907" data-name="Path 1907" d="M52.479,12.176h9.707v.02a14.25,14.25,0,0,1-.97,1.413H58.623a3.417,3.417,0,0,1,.729,1.525h2.763c.036.009.049.022.049.04-.616.931-.935,1.4-.948,1.4H59.423a3.988,3.988,0,0,1-2.271,3.045,6.265,6.265,0,0,1-2.706.675v.022q0,.1,5.844,6.936H57.715q-5.695-6.634-5.693-6.663V19.241l.022-.053a8.309,8.309,0,0,0,1.181.071q3.186,0,3.966-2.066a1.7,1.7,0,0,0,.12-.627H51.54a.036.036,0,0,1-.04-.031.033.033,0,0,1,0-.009q.96-1.4.98-1.4h4.577v-.017a2.672,2.672,0,0,0-1.519-1.249,4.811,4.811,0,0,0-1.453-.264H51.517v-.043C52.139,12.641,52.457,12.176,52.479,12.176Z" transform="translate(-51.499 -12.176)" fill="#fff"/>
  </g>
</svg>
