<svg id="Guaranteed_Surrender_Value_Factor_1_" data-name="Guaranteed Surrender Value Factor (1)" xmlns="http://www.w3.org/2000/svg" width="56" height="47.469" viewBox="0 0 56 47.469">
  <path id="Path_2814" data-name="Path 2814" d="M34.542,54.577a4.64,4.64,0,0,0-3.611-4.449L22.662,48.4a10.911,10.911,0,0,0-9.211,2.355L0,62.218l5.391,8.164,2.721-2.3c1.518-1.256,4.92-1.936,7.589-1.518l15.7,1.727a11.232,11.232,0,0,0,8.583-2.355L56,51.332l-1.256-1.465c-1.936-2.25-6.647-2.355-8.9-.471L34.385,59.13s-11.409-2.25-12.561-2.512" transform="translate(0 -22.913)" fill="#107bd1"/>
  <path id="Path_2815" data-name="Path 2815" d="M65.428,17.428a10.214,10.214,0,1,0-14.445-.052L58.206,24.6Z" transform="translate(-22.879 0)" fill="#0061a0"/>
  <path id="Path_2816" data-name="Path 2816" d="M63.562,24.193h0c-5.391-6.28-5.391-6.28-5.391-6.333V16.6l.052-.157h.1a7.025,7.025,0,0,0,1.1.052c1.936,0,3.14-.628,3.611-1.832a1.232,1.232,0,0,0,.1-.419H57.857a.139.139,0,0,1-.157-.157v-.1c.942-1.361.942-1.361.994-1.361h4.082a3.047,3.047,0,0,0-1.256-.942,4.448,4.448,0,0,0-1.308-.262H57.7v-.262c.89-1.361.89-1.361.994-1.361h9.211v.209a13.264,13.264,0,0,1-.942,1.361l-.052.052h-2.2a2.9,2.9,0,0,1,.523,1.151h2.512a.167.167,0,0,1,.157.157v.1c-.89,1.361-.89,1.361-.994,1.361h-1.57a4.415,4.415,0,0,1-.628,1.57h0A3.924,3.924,0,0,1,63.2,17.022a6.58,6.58,0,0,1-2.355.628c.366.471,1.675,1.989,5.338,6.28l.157.209-2.774.052Z" transform="translate(-27.502 -4.671)" fill="#fff"/>
</svg>
