<svg xmlns="http://www.w3.org/2000/svg" xmlns:xlink="http://www.w3.org/1999/xlink" width="32" height="32" viewBox="0 0 32 32">
  <defs>
    <clipPath id="clip-path">
      <rect id="Rectangle_242" data-name="Rectangle 242" width="32" height="32" fill="#fff"/>
    </clipPath>
  </defs>
  <g id="Mask_Group_9" data-name="Mask Group 9" clip-path="url(#clip-path)">
    <g id="Group_2879" data-name="Group 2879" transform="translate(3 2.081)">
      <path id="Path_2410" data-name="Path 2410" d="M118.629,621.172c-.035,1.6-2.407,2.893-5.329,2.893s-5.293-1.292-5.328-2.893A8.781,8.781,0,0,0,100,629.914c0,4.849,3.931,4.837,8.779,4.837h9.042c4.848,0,8.779.012,8.779-4.837A8.78,8.78,0,0,0,118.629,621.172Z" transform="translate(-100 -605.091)" fill="#fff"/>
      <path id="Path_2411" data-name="Path 2411" d="M211.492,357.144c0,.064.01.126.016.189.423,4.794,3.227,8.5,6.625,8.5s6.2-3.7,6.625-8.5c.005-.063.011-.125.016-.189.03-.208.05-.418.063-.632.009-.146.014-.293.014-.441a7.545,7.545,0,0,0-.077-1.073,6.675,6.675,0,0,0-13.282,0,7.452,7.452,0,0,0-.077,1.073c0,.149.006.3.013.441C211.441,356.726,211.462,356.936,211.492,357.144Zm2.5-3.813a9.086,9.086,0,0,0,8.287,0c1.4.553.737,4.493.737,4.494a2.833,2.833,0,0,1,.932-.437c-.385,4.187-2.84,7.415-5.813,7.415s-5.427-3.228-5.813-7.415a2.822,2.822,0,0,1,.932.437S212.588,353.884,213.989,353.331Z" transform="translate(-204.832 -348.999)" fill="#fff"/>
    </g>
  </g>
</svg>
