<svg xmlns="http://www.w3.org/2000/svg" xmlns:xlink="http://www.w3.org/1999/xlink" width="24" height="24" viewBox="0 0 24 24">
  <defs>
    <clipPath id="clip-path">
      <rect id="Rectangle_1435" data-name="Rectangle 1435" width="32" height="32" transform="translate(-3339 1243)" fill="#fff"/>
    </clipPath>
    <clipPath id="clip-Male_1">
      <rect width="24" height="24"/>
    </clipPath>
  </defs>
  <g id="Male_1" data-name="Male 1" clip-path="url(#clip-Male_1)">
    <path id="Path_2471" data-name="Path 2471" d="M-617.551,565.709a13.942,13.942,0,0,1-.925-1.111,5.557,5.557,0,0,1,.543-6.8,5.524,5.524,0,0,1,6.777-1.11l.112.06,3.165-4.217c-.074,0-.13,0-.185.011-.561.079-1.122.161-1.683.238a.623.623,0,0,1-.771-.515.625.625,0,0,1,.606-.7q1.642-.236,3.285-.468a.621.621,0,0,1,.778.58q.24,1.652.472,3.305a.621.621,0,0,1-.505.76.622.622,0,0,1-.713-.593c-.089-.614-.174-1.229-.266-1.88l-3.143,4.189a16.391,16.391,0,0,1,.973,1.346,5.512,5.512,0,0,1-.526,6.284,5.611,5.611,0,0,1-7.123,1.23,1.277,1.277,0,0,0-.148-.066Zm6.289-7.624a4.309,4.309,0,0,0-6.021.85,4.33,4.33,0,0,0,.828,6.06,4.351,4.351,0,0,0,6.077-.858A4.329,4.329,0,0,0-611.262,558.085Z" transform="translate(624.389 -547.084)" fill="#fff"/>
  </g>
</svg>
