<svg xmlns="http://www.w3.org/2000/svg" width="36" height="23.895" viewBox="0 0 36 23.895">
  <g id="Reason_1" transform="translate(-3.333 -19.584)">
    <path id="Path_1957" data-name="Path 1957" d="M32.328,37A8.362,8.362,0,0,0,25.5,40.511a6.325,6.325,0,0,1,3.316,5.56v1.658h11.7c0-2.731.293-5.56-2.438-8.291A8.191,8.191,0,0,0,32.328,37Z" transform="translate(-1.196 -4.249)" fill="#0090da"/>
    <path id="Path_1958" data-name="Path 1958" d="M19.118,40.511a10.366,10.366,0,0,0-.878-1.073A8.661,8.661,0,0,0,12.291,37,8.284,8.284,0,0,0,4,45.291v2.438H15.7C15.7,46.363,15.314,42.462,19.118,40.511Z" transform="translate(-0.667 -4.249)" fill="#0090da"/>
    <path id="Path_1959" data-name="Path 1959" d="M37.727,34.186c-.975-.683-1.17-3.024-1.17-3.024.878-4.389-3.414-5.364-3.414-5.364-4.877-.683-4.974,4.292-4.974,4.292A5.26,5.26,0,0,1,26.9,34.382l3.024.39c-1.17-1.268-.975-4.292-.975-4.292,2.243.488,4-2.829,4-2.829a4.268,4.268,0,0,0,2.829,2.243c.878,2.146-.975,4.877-.975,4.877Z" transform="translate(-1.231 -3.972)" fill="#0090da"/>
    <path id="Path_1960" data-name="Path 1960" d="M5.8,30.328A1.107,1.107,0,0,0,6.873,31.5a.586.586,0,0,0,.39-.1,5.624,5.624,0,0,0,5.169,3.316A5.73,5.73,0,0,0,17.6,31.4a.586.586,0,0,0,.39.1,1.171,1.171,0,0,0,1.073-1.17,1.159,1.159,0,0,0-.975-1.17h0a5.657,5.657,0,0,0-11.314,0h0A1.092,1.092,0,0,0,5.8,30.328Zm8.1-2.243a4.668,4.668,0,0,0,2.926,2.146v.2a4.71,4.71,0,0,1-4.487,3.414,4.624,4.624,0,0,1-4.487-3.316v-.1a.731.731,0,0,0-.1-.488A7.043,7.043,0,0,0,13.9,28.084Z" transform="translate(-0.711 -3.917)" fill="#0090da"/>
    <path id="Path_1961" data-name="Path 1961" d="M22.264,40.9A5.412,5.412,0,0,0,16.9,46.265v1.561H27.629V46.265A5.349,5.349,0,0,0,22.264,40.9Z" transform="translate(-0.984 -4.345)" fill="#0061a0"/>
    <path id="Path_1962" data-name="Path 1962" d="M18.786,37.369a.358.358,0,0,0,.293-.1,3.635,3.635,0,0,0,6.632,0c.1,0,.2.1.293.1a.754.754,0,0,0,.683-.78.85.85,0,0,0-.585-.78h0A3.6,3.6,0,0,0,22.492,32.2a3.665,3.665,0,0,0-3.609,3.609h0c-.39,0-.585.39-.585.78A.533.533,0,0,0,18.786,37.369Zm4.584-2.243a3.007,3.007,0,0,0,1.853,1.366v.2a3.068,3.068,0,0,1-5.852,0v-.1a.358.358,0,0,0-.1-.293A4.41,4.41,0,0,0,23.37,35.126Z" transform="translate(-1.017 -4.131)" fill="#0061a0"/>
  </g>
</svg>
