<svg xmlns="http://www.w3.org/2000/svg" width="53" height="34.336" viewBox="0 0 53 34.336"><defs><style>.a{fill:#0061a0;}.b{fill:#0090da;}.c{fill:#b7dd58;}</style></defs><path class="a" d="M9.1,21.3c.005.073.012.144.018.216.486,5.476,3.7,9.706,7.593,9.706S23.815,27,24.3,21.52l.018-.216c.035-.238.058-.478.072-.721.01-.167.016-.334.016-.5a8.6,8.6,0,0,0-.088-1.226A7.828,7.828,0,0,0,16.707,12,7.827,7.827,0,0,0,9.1,18.853a8.5,8.5,0,0,0-.088,1.226c0,.17.007.337.016.5C9.039,20.826,9.062,21.066,9.1,21.3Zm2.862-4.356a13.07,13.07,0,0,0,4.749,1.142,13.09,13.09,0,0,0,4.749-1.142c1.606.632.844,5.132.844,5.133a3.261,3.261,0,0,1,1.068-.5c-.441,4.783-3.255,8.47-6.662,8.47s-6.22-3.687-6.662-8.47a3.249,3.249,0,0,1,1.069.5S10.353,17.58,11.959,16.948Z" transform="translate(-1.464 -12)"/><path class="b" d="M22.464,45.287l1.28-.685.636-.595L22.464,43l-1.848-4.224.212-3.53c-.95,1.172-3.093,1.989-5.584,1.989-3.349,0-6.067-1.476-6.107-3.3A10.044,10.044,0,0,0,0,43.917c0,5.539,4.505,5.525,10.062,5.525H20.425c.828,0,1.633,0,2.31-.007Z" transform="translate(0 -15.564)"/><path class="b" d="M55.485,39.419a8.7,8.7,0,0,0-2.319-1.475l-.829-.309L50.494,37.5c-.182,1.094-1.473,2.012-3.255,2.415l-2.018,3.268L43.2,39.915a4.552,4.552,0,0,1-3.056-1.855L37.3,37.988l-.152,3.02-1.587,1.159a7.621,7.621,0,0,1-.587,1.151l-1.178.138-.33.241.146,1.026.383.54,1.816.476,1.091,4.2h.3c1.081,0,2.277-.057,3.535-.057h8.984c1.257,0,2.455.057,3.535.057,2.187,0,3.894-.244,4.694-1.677a4.757,4.757,0,0,0,.495-2.334A8.654,8.654,0,0,0,55.485,39.419Z" transform="translate(-5.438 -16.144)"/><path class="a" d="M52.97,27.107c.473-10.3-5.657-10.787-6.822-10.787-.123,0-.191.006-.191.006l0,.018-.006-.018s-.068-.006-.19-.006c-1.165,0-7.294.487-6.82,10.786a20.518,20.518,0,0,1-.97,5.608l.131.4-.072,1.427,2.852.072c1.184.1,2.186.319,2.447.743l-1.112-2.471a4.992,4.992,0,0,0,7.407.074l-.777,1.608c.236-.387,1.06-.516,2.067-.516.1,0,.209,0,.317,0l1.845.134c1.5.167,2.809.424,2.809.424C52.893,32.982,52.97,27.107,52.97,27.107ZM51.745,26a10.928,10.928,0,0,1-1.081,4.057c-1.058,2.118-2.774,3.494-4.711,3.494-2.953,0-5.393-3.2-5.776-7.345a23.065,23.065,0,0,0,3.724-.931,23.372,23.372,0,0,0,5.6-3.051c.015-.011.03-.021.045-.034s.056.08.135.215c.267.456.838,1.817-.243,2.44l1.973.25h.037l.362.067A6.708,6.708,0,0,1,51.745,26Z" transform="translate(-6.17 -12.702)"/><path class="a" d="M36.016,33.218a6.658,6.658,0,0,0-6.3-6.451h0a6.61,6.61,0,0,0-6.3,6.451,19.415,19.415,0,0,1-2.055,8.977,21.357,21.357,0,0,0,6.253,1.129,1.611,1.611,0,0,0,.237-.48,4.057,4.057,0,0,0,.089-.888,3.145,3.145,0,0,0,3.552,0,4.113,4.113,0,0,0,.089.89,1.608,1.608,0,0,0,.24.484,19.84,19.84,0,0,0,6.249-1.132A19.411,19.411,0,0,1,36.016,33.218Zm-11.4,1.875c0-.29.012-.572.033-.848h.042c3.194,0,5.86-1.143,6.488-2.665A3.565,3.565,0,0,0,34.8,34.5c.01.194.017.391.017.593,0,3.986-3.084,7.013-5.1,7.013S24.616,39.078,24.616,35.092Z" transform="translate(-3.472 -14.4)"/><path class="c" d="M38.323,51.609a.152.152,0,0,0,.11-.075.149.149,0,0,0,.007-.132c-.407-.952-.854-1.927-1.33-2.9a2.821,2.821,0,0,0-2.1-1.593c-.1-.021-.362-.059-.432-.069l-2.264-.447a1,1,0,0,1-.631-.737A4.844,4.844,0,0,1,31.6,44.6a.15.15,0,0,0-.077-.13.145.145,0,0,0-.072-.019.151.151,0,0,0-.079.022.784.784,0,0,0-.122.094.149.149,0,0,0-.049.113,4.59,4.59,0,0,0,.1,1.1,1.366,1.366,0,0,0,.936,1.01l.983.194c-.863,1.956-2.7,3.631-3.593,3.631s-2.717-1.62-3.6-3.63l.987-.2a1.367,1.367,0,0,0,.938-1.01,4.349,4.349,0,0,0,.1-1.031.15.15,0,0,0-.074-.132l-.1-.059a.146.146,0,0,0-.076-.021.152.152,0,0,0-.074.019.149.149,0,0,0-.076.128,4.082,4.082,0,0,1-.083.977,1,1,0,0,1-.632.737l-2.263.447c-.054.007-.327.046-.432.069a2.823,2.823,0,0,0-2.1,1.6c-.475.971-.922,1.946-1.328,2.9a.149.149,0,0,0,.007.132.152.152,0,0,0,.11.075H38.323Z" transform="translate(-3.38 -17.273)"/></svg>