<svg xmlns="http://www.w3.org/2000/svg" width="36" height="29.031" viewBox="0 0 36 29.031">
  <g id="Reason_1" transform="translate(-8.722 -19.583)">
    <path id="Path_1959" data-name="Path 1959" d="M40.053,36c-1.185-.829-1.422-3.673-1.422-3.673C39.7,27,34.484,25.812,34.484,25.812c-5.925-.829-6.043,5.214-6.043,5.214A6.391,6.391,0,0,1,26.9,36.24l3.673.474c-1.422-1.54-1.185-5.214-1.185-5.214,2.725.592,4.858-3.436,4.858-3.436a5.185,5.185,0,0,0,3.436,2.725C38.75,33.4,36.5,36.714,36.5,36.714Z" transform="translate(1.196 -2.289)" fill="#fff"/>
    <path id="Path_1960" data-name="Path 1960" d="M5.8,31.795a1.345,1.345,0,0,0,1.3,1.422.712.712,0,0,0,.474-.118,6.833,6.833,0,0,0,6.28,4.029,6.962,6.962,0,0,0,6.28-4.029.712.712,0,0,0,.474.118,1.423,1.423,0,0,0,1.3-1.422,1.408,1.408,0,0,0-1.185-1.422h0a6.873,6.873,0,0,0-13.746,0h0A1.327,1.327,0,0,0,5.8,31.795Zm9.835-2.725s.711,1.659,3.555,2.607v.237a5.723,5.723,0,0,1-5.451,4.147,5.618,5.618,0,0,1-5.451-4.029v-.118a.888.888,0,0,0-.118-.592A8.556,8.556,0,0,0,15.635,29.069Z" transform="translate(5.798 -3.917)" fill="#fff"/>
    <path id="Path_2837" data-name="Path 2837" d="M27.834,40.9A11.031,11.031,0,0,0,16.9,51.834v3.181H38.768V51.834A10.9,10.9,0,0,0,27.834,40.9Z" transform="translate(-8.178 -6.476)" fill="#fff"/>
    <path id="Path_2838" data-name="Path 2838" d="M26.619,40.9A9.806,9.806,0,0,0,16.9,50.619v2.827H36.339V50.619A9.691,9.691,0,0,0,26.619,40.9Z" transform="translate(8.384 -4.832)" fill="#fff"/>
  </g>
</svg>
