<svg id="Married_without_Children" data-name="Married without Children" xmlns="http://www.w3.org/2000/svg" width="48" height="39.484" viewBox="0 0 48 39.484">
  <path id="Path_2875" data-name="Path 2875" d="M11.108,17.032c.007.086.014.171.022.256.595,6.493,4.531,11.509,9.3,11.509s8.708-5.016,9.3-11.509c.007-.085.015-.17.022-.256.043-.282.071-.567.088-.855.012-.2.02-.4.02-.6a9.888,9.888,0,0,0-.108-1.453,9.414,9.414,0,0,0-18.65,0A9.762,9.762,0,0,0,11,15.579c0,.2.008.4.019.6C11.037,16.465,11.066,16.75,11.108,17.032Zm3.507-5.165a16.433,16.433,0,0,0,5.818,1.354,16.46,16.46,0,0,0,5.818-1.354c1.968.749,1.035,6.086,1.035,6.086a4.052,4.052,0,0,1,1.309-.591c-.541,5.671-3.988,10.043-8.162,10.043s-7.621-4.372-8.162-10.043a4.045,4.045,0,0,1,1.309.591S12.648,12.616,14.615,11.867Z" transform="translate(-3.333 -6)" fill="#fff"/>
  <path id="Path_2876" data-name="Path 2876" d="M24.932,51.866l.091-.022c4.712-1.053,3.5-13.594,2.863-18.368A11.072,11.072,0,0,0,25.578,33c-.046,2.224-3.176,4.019-7.03,4.019s-6.984-1.8-7.03-4.019A11.975,11.975,0,0,0,1,45.146c0,6.738,5.186,6.72,11.583,6.72h12.35Z" transform="translate(-1 -12.382)" fill="#fff"/>
  <path id="Path_2877" data-name="Path 2877" d="M50.932,41.183A10.43,10.43,0,0,0,48.173,39.5l-.986-.352L44.994,39c-.217,1.245-1.753,2.289-3.873,2.747l-2.4,3.719-2.4-3.719a5.45,5.45,0,0,1-3.636-2.111l-3.537-.084a10.426,10.426,0,0,0-2.643,1.63,9.665,9.665,0,0,0-3.5,7.4,5.208,5.208,0,0,0,.589,2.656c.95,1.63,2.982,1.908,5.582,1.908,1.286,0,2.708-.065,4.205-.065H44.065c1.5,0,2.92.065,4.205.065,2.6,0,4.632-.277,5.584-1.908a5.217,5.217,0,0,0,.589-2.656A9.663,9.663,0,0,0,50.932,41.183Z" transform="translate(-6.443 -13.666)" fill="#fff"/>
  <path id="Path_2878" data-name="Path 2878" d="M48.815,24.313c.558-12.187-6.678-12.765-8.053-12.765-.145,0-.225.007-.225.007l0,.022-.007-.021s-.081-.007-.224-.007c-1.375,0-8.61.577-8.051,12.764,0,0,.09,6.952-3.436,8.888,0,0,.95-.064,2.218-.088l3.509.088c1.4.121,2.58.377,2.888.879l-1.313-2.924a5.883,5.883,0,0,0,8.743.087l-.917,1.9c.279-.458,1.252-.611,2.44-.611.122,0,.247,0,.374,0l2.177.159c1.767.2,3.316.5,3.316.5C48.724,31.265,48.815,24.313,48.815,24.313Zm-1.446-1.307a12.953,12.953,0,0,1-1.277,4.8c-1.249,2.506-3.275,4.134-5.561,4.134-3.486,0-6.367-3.785-6.819-8.692a27.188,27.188,0,0,0,4.4-1.1,27.57,27.57,0,0,0,6.615-3.611c.018-.013.036-.025.054-.04,0,0,.066.094.159.254.315.54.99,2.151-.287,2.888l2.329.3h.043l.427.079A7.963,7.963,0,0,1,47.369,23.006Z" transform="translate(-7.687 -7.187)" fill="#fff"/>
  <path id="Path_2879" data-name="Path 2879" d="M54.408,38.453l.978.366A10.248,10.248,0,0,0,54.408,38.453Z" transform="translate(-13.162 -13.332)" fill="#fff"/>
</svg>
