<svg xmlns="http://www.w3.org/2000/svg" width="80" height="78.435" viewBox="0 0 80 78.435"><defs><style>.a{fill:#0090da;}.b{fill:#b7dd58;}.c{fill:#0061a0;}</style></defs><g transform="translate(-2 -3)"><path class="a" d="M27.415,9C16.692,9,8,18.291,8,29.754s8.692,20.754,19.415,20.754S46.83,41.217,46.83,29.754,38.137,9,27.415,9Zm6.97,17.771a1.181,1.181,0,0,1-1.147.781c-.528.011-1.056-.009-1.583.011a.4.4,0,0,0-.308.186,5.255,5.255,0,0,1-4.385,3.632,1.189,1.189,0,0,0-.132.046c.121.1.217.175.318.249q2.544,1.853,5.088,3.7a1.347,1.347,0,0,1,.637,1.326,1.179,1.179,0,0,1-1.888.874c-1.325-.945-2.637-1.914-3.952-2.873q-2.359-1.72-4.719-3.435a1.365,1.365,0,0,1-.635-1.291,1.236,1.236,0,0,1,1.263-1.144c1.216-.009,2.432.013,3.649-.013a2.7,2.7,0,0,0,2.175-1.263H28.1c-1.71,0-3.418.006-5.128,0a1.276,1.276,0,0,1-1.222-1.733,1.2,1.2,0,0,1,1.212-.835q2.875,0,5.747,0h.433a3.985,3.985,0,0,0-.134-.4,2.684,2.684,0,0,0-2.475-1.735c-1.192-.026-2.386,0-3.58-.011a1.278,1.278,0,0,1-1.2-1.75,1.19,1.19,0,0,1,1.158-.816c1.457-.006,2.914,0,4.371,0q2.993,0,5.988,0a1.137,1.137,0,0,1,1.085.7,1.275,1.275,0,0,1-.093,1.32,1.175,1.175,0,0,1-1.038.545c-.654,0-1.307,0-1.961,0h-.32c.245.71.48,1.391.739,2.139.468,0,1,0,1.538,0A1.263,1.263,0,0,1,34.385,26.771Z" transform="translate(2.034 2.034)"/><path class="b" d="M42.3,51.707a22.438,22.438,0,0,1-12.181,3.588c-12.659,0-22.961-10.544-22.961-23.507S17.458,8.28,30.12,8.28,53.08,18.826,53.08,31.788A23.858,23.858,0,0,1,51.5,40.362l5.31.492a29.306,29.306,0,0,0,1.429-9.066C58.237,15.914,45.623,3,30.12,3S2,15.914,2,31.788,14.614,60.576,30.12,60.576a27.422,27.422,0,0,0,12.391-2.95Z" transform="translate(0 0)"/><path class="c" d="M69.15,47.24Q61.7,39.727,54.178,32.28a2.87,2.87,0,0,0-1.49-.686c-.962-.16-1.95-.166-2.993-.241l-3.6-.252c-1.253-.037-2.5-.156-3.785-.252l-3.531-.1a18.355,18.355,0,0,1-2.168,3.095c-.516-.543-.981-1.067-1.484-1.552a1.566,1.566,0,0,0-2.284-.058,1.517,1.517,0,0,0,.077,2.226c.5.52,1.047,1,1.575,1.494a16.986,16.986,0,0,1-3.583,2.594l.118,3.469c.087,1.24.146,2.4.262,3.546l.241,3.865c.075,1.053.179,1.982.2,2.912a2.439,2.439,0,0,0,.792,1.783q7.439,7.416,14.859,14.851a6.472,6.472,0,0,0,9.5,0Q63.037,62.854,69.148,56.7A6.472,6.472,0,0,0,69.15,47.24Zm-2.116,7.151q-6.207,6.274-12.477,12.488a3.3,3.3,0,0,1-4.864,0q-7.28-7.238-14.51-14.524a1.374,1.374,0,0,1-.364-.8q-.383-5.079-.709-10.163a.92.92,0,0,1,.193-.626c.775-.83,1.58-1.631,2.39-2.459,1.014.83,1.891,2.4,3.272,1.019s-.214-2.257-1.043-3.3c.674-.639,1.314-1.277,1.993-1.87a1.072,1.072,0,0,1,.7-.183q5.082.309,10.157.668A1.269,1.269,0,0,1,52.5,35q7.27,7.248,14.512,14.52A3.3,3.3,0,0,1,67.034,54.391Z" transform="translate(10.799 10.386)"/><path class="c" d="M48.624,46.969a5.847,5.847,0,0,0,.994-6.531,5.681,5.681,0,0,0-5.088-3.584,7.189,7.189,0,0,0-6.46,3.709,5.643,5.643,0,0,0-.166,6.132,5.836,5.836,0,0,0,5.281,3.135C45.529,49.891,47.2,48.654,48.624,46.969Zm-1.688-3.23a4.471,4.471,0,0,1-3.783,2.983,2.949,2.949,0,0,1-2.785-3.779,4.5,4.5,0,0,1,3.706-2.985A2.949,2.949,0,0,1,46.936,43.739Z" transform="translate(12.604 12.165)"/><path class="c" d="M55.683,47.472q-4.811-.012-9.621,0a1.565,1.565,0,1,0,.027,3.108c1.6.01,3.207,0,4.812,0s3.207.01,4.812,0a1.559,1.559,0,1,0-.029-3.105Z" transform="translate(15.345 15.858)"/><path class="c" d="M49.758,46.961a1.55,1.55,0,0,0-.029-3.1,1.55,1.55,0,1,0,.029,3.1Z" transform="translate(16.464 14.573)"/><path class="c" d="M49.551,51.166a1.505,1.505,0,0,0-1.54,1.506,1.545,1.545,0,1,0,3.089.008A1.544,1.544,0,0,0,49.551,51.166Z" transform="translate(16.408 17.308)"/></g></svg>