<svg xmlns="http://www.w3.org/2000/svg" xmlns:xlink="http://www.w3.org/1999/xlink" width="64" height="64" viewBox="0 0 64 64">
  <defs>
    <clipPath id="clip-Money_bag">
      <rect width="64" height="64"/>
    </clipPath>
  </defs>
  <g id="Money_bag" data-name="Money bag" clip-path="url(#clip-Money_bag)">
    <g id="Group_2979" data-name="Group 2979" transform="translate(7 5)">
      <g id="Group_2916" data-name="Group 2916" transform="translate(0 19.664)">
        <path id="Path_2458" data-name="Path 2458" d="M1383.354,302.618c.667.884,1.331,1.634,2.576.99a.852.852,0,0,1,.569-.032,1.463,1.463,0,0,0,1.85-.926,4.617,4.617,0,0,1,.48-.568l-.525,1.537a.956.956,0,0,0,1.559-.164c.695-.881,1.46-1.706,2.2-2.553,1.157-1.328,1.009-2.222-.561-3.155l-.891,1.061-.137-.071.95-2.419c-1.511-1.117-5.763-1.315-7.308-.4a.729.729,0,0,0-.405,1.013c.308.872.524,1.777.779,2.668a9.469,9.469,0,0,1-.926-1.48c-.1-.177-.391-.454-.431-.429a9.691,9.691,0,0,0-1.752,1.253,1.014,1.014,0,0,0,.116,1.471C1382.133,301.13,1382.776,301.85,1383.354,302.618Z" transform="translate(-1375.238 -295.339)" fill="#0061a0"/>
        <path id="Path_2459" data-name="Path 2459" d="M1371.934,350.845a23.229,23.229,0,0,0-6.927-7.64,10.626,10.626,0,0,0-1.268-.6c.1.748.177,1.274.251,1.8a6.184,6.184,0,0,1-.846-1.326.922.922,0,0,0-1.666-.147c-.284.338-.548.692-.821,1.04l-.111-.085.494-1.013-.167-.208a19.344,19.344,0,0,0-1.655,1.048,26.12,26.12,0,0,0-6.319,7.2,15.909,15.909,0,0,0-2.12,5.437c-.621,3.438,1.193,6.2,4.6,6.733a45.633,45.633,0,0,0,14.763-.094,3.969,3.969,0,0,0,3.254-2.408,9.4,9.4,0,0,0,.68-3.619A12.551,12.551,0,0,0,1371.934,350.845Zm-7.173-.063a6.823,6.823,0,0,1-.434.633h-1.162a1.516,1.516,0,0,1,.325.683h1.239c.015,0,.023.009.023.018q-.416.624-.425.624h-.8a1.84,1.84,0,0,1-.307.773,1.888,1.888,0,0,1-.71.592,2.805,2.805,0,0,1-1.212.3v.009q0,.045,2.618,3.106h-1.153q-2.55-2.97-2.55-2.984v-.6l.009-.023a3.872,3.872,0,0,0,.529.032q1.429,0,1.777-.927a.739.739,0,0,0,.054-.28h-2.586a.016.016,0,0,1-.018-.018q.43-.624.439-.624h2.052v-.009a1.2,1.2,0,0,0-.682-.556,2.13,2.13,0,0,0-.651-.117h-1.148v-.023q.416-.619.429-.619h4.349Z" transform="translate(-1350.66 -333.381)" fill="#0061a0"/>
      </g>
      <g id="Group_2915" data-name="Group 2915" transform="translate(8.44 0)">
        <path id="Path_2458-2" data-name="Path 2458" d="M1385.149,308.44c1.2,1.592,2.4,2.941,4.636,1.782a1.532,1.532,0,0,1,1.024-.057c1.639.464,2.621-.3,3.331-1.667a8.379,8.379,0,0,1,.865-1.022l-.945,2.767c1.1.844,1.936.809,2.807-.3,1.251-1.586,2.628-3.071,3.956-4.6,2.083-2.391,1.815-4-1.009-5.679l-1.6,1.91-.248-.128,1.711-4.354c-2.721-2.01-10.374-2.367-13.156-.728a1.314,1.314,0,0,0-.729,1.823c.555,1.569.944,3.2,1.4,4.8a17.056,17.056,0,0,1-1.667-2.663c-.184-.319-.7-.818-.776-.772a17.482,17.482,0,0,0-3.152,2.255c-.772.782-.554,1.787.208,2.647C1382.95,305.763,1384.108,307.059,1385.149,308.44Z" transform="translate(-1370.539 -295.339)" fill="#0061a0"/>
        <path id="Path_2459-2" data-name="Path 2459" d="M1388.952,357.544c-3.258-5.391-7.149-10.228-12.468-13.751a19.079,19.079,0,0,0-2.282-1.084c.188,1.346.32,2.294.452,3.242a11.156,11.156,0,0,1-1.522-2.387c-.72-1.346-1.992-1.46-3-.264-.511.608-.986,1.246-1.478,1.871l-.2-.152.889-1.824-.3-.375a34.856,34.856,0,0,0-2.979,1.886,47.016,47.016,0,0,0-11.374,12.953,28.655,28.655,0,0,0-3.816,9.786c-1.118,6.188,2.148,11.16,8.28,12.12a82.136,82.136,0,0,0,26.573-.169,7.146,7.146,0,0,0,5.857-4.334,16.924,16.924,0,0,0,1.224-6.515C1392.709,364.542,1391,360.937,1388.952,357.544Zm-12.912-.113a12.173,12.173,0,0,1-.781,1.139h-2.092a2.732,2.732,0,0,1,.586,1.229h2.23c.027.006.041.016.041.033q-.749,1.123-.765,1.123h-1.449a3.323,3.323,0,0,1-.553,1.392,3.4,3.4,0,0,1-1.278,1.066,5.05,5.05,0,0,1-2.181.546v.016q0,.082,4.711,5.591h-2.075q-4.589-5.347-4.589-5.371v-1.082l.017-.041a6.957,6.957,0,0,0,.952.057q2.571,0,3.2-1.668a1.343,1.343,0,0,0,.1-.5h-4.654a.029.029,0,0,1-.033-.033q.773-1.123.79-1.123h3.694v-.016a2.168,2.168,0,0,0-1.229-1,3.839,3.839,0,0,0-1.172-.211h-2.067v-.041q.749-1.115.773-1.115h7.828Z" transform="translate(-1350.66 -326.107)" fill="#0061a0"/>
      </g>
    </g>
  </g>
</svg>
