<svg id="Old_Person" data-name="Old Person" xmlns="http://www.w3.org/2000/svg" width="46.029" height="34.974" viewBox="0 0 46.029 34.974">
  <path id="Path_2880" data-name="Path 2880" d="M27.411,16.738a8.132,8.132,0,0,0-16.023,0,7.83,7.83,0,0,0-.093,1.205c0,.167.007.331.016.5.016.239.04.476.076.71.006.072.012.142.019.212.511,5.384,3.893,9.544,7.992,9.544s7.481-4.16,7.993-9.544c.006-.071.013-.14.019-.212.037-.233.061-.47.076-.71.011-.164.017-.329.017-.5A8.007,8.007,0,0,0,27.411,16.738Zm-.788,1.809c-.013.214-.034.426-.068.634l-.017.19c-.457,4.81-3.48,8.525-7.139,8.525s-6.682-3.716-7.138-8.525c-.006-.063-.012-.125-.017-.19-.033-.208-.054-.42-.068-.634-.009-.147-.014-.294-.014-.443a6.962,6.962,0,0,1,.083-1.076,7.264,7.264,0,0,1,14.312,0A7.07,7.07,0,0,1,26.64,18.1C26.638,18.253,26.632,18.4,26.623,18.547Z" transform="translate(-3.354 -10)" fill="#fff"/>
  <path id="Path_2881" data-name="Path 2881" d="M13.781,14.414a1.56,1.56,0,0,0,1.625,1.669s.85,1.875-3.134,3.029A3.327,3.327,0,0,1,13.781,14.414Z" transform="translate(-3.497 -11.198)" fill="#fff"/>
  <path id="Path_2882" data-name="Path 2882" d="M29.7,14.414a1.56,1.56,0,0,1-1.625,1.669s-.85,1.875,3.134,3.029A3.327,3.327,0,0,0,29.7,14.414Z" transform="translate(-7.888 -11.198)" fill="#fff"/>
  <path id="Path_2883" data-name="Path 2883" d="M26.865,25.076H24.69a1.117,1.117,0,0,1-1.114-1.106l-.013-1.77h4.48v1.7A1.18,1.18,0,0,1,26.865,25.076ZM24.137,22.77l.009,1.2a.546.546,0,0,0,.544.54h2.175a.609.609,0,0,0,.608-.608V22.771H24.137Z" transform="translate(-6.683 -13.311)" fill="#fff"/>
  <path id="Path_2884" data-name="Path 2884" d="M18.819,25.076H16.644A1.117,1.117,0,0,1,15.53,23.97l-.013-1.77H20v1.7A1.18,1.18,0,0,1,18.819,25.076ZM16.092,22.77l.009,1.2a.546.546,0,0,0,.544.54h2.175a.609.609,0,0,0,.608-.608V22.771H16.092Z" transform="translate(-4.5 -13.311)" fill="#fff"/>
  <path id="Path_2885" data-name="Path 2885" d="M11.825,22.267l0,.57,2.981.014,0-.57Z" transform="translate(-3.497 -13.329)" fill="#fff"/>
  <path id="Path_2886" data-name="Path 2886" d="M29.321,22.267l0,.57,2.981.014,0-.57Z" transform="translate(-8.245 -13.329)" fill="#fff"/>
  <path id="Path_2887" data-name="Path 2887" d="M21.1,23.256l0,.57,2.084.014,0-.57Z" transform="translate(-6.013 -13.597)" fill="#fff"/>
  <path id="Path_2888" data-name="Path 2888" d="M48.289,30.4H46.5a.879.879,0,0,1-.918-.82l-.011-1.313H49.26v1.259A.927.927,0,0,1,48.289,30.4Zm-2.248-1.711.007.887a.429.429,0,0,0,.448.4h1.793a.479.479,0,0,0,.5-.451v-.837H46.041Z" transform="translate(-12.655 -14.957)" fill="#fff"/>
  <path id="Path_2889" data-name="Path 2889" d="M41.659,30.4H39.866a.879.879,0,0,1-.918-.82l-.011-1.313H42.63v1.259A.927.927,0,0,1,41.659,30.4Zm-2.248-1.711.007.887a.429.429,0,0,0,.448.4h1.793a.479.479,0,0,0,.5-.451v-.837H39.411Z" transform="translate(-10.855 -14.957)" fill="#fff"/>
  <path id="Path_2890" data-name="Path 2890" d="M38.347,28.748l-2.456-.01,0-.423,2.456.011Z" transform="translate(-10.029 -14.97)" fill="#fff"/>
  <path id="Path_2891" data-name="Path 2891" d="M52.768,28.748l-2.456-.01,0-.423,2.456.011Z" transform="translate(-13.942 -14.97)" fill="#fff"/>
  <path id="Path_2892" data-name="Path 2892" d="M45.25,29.483l-1.717-.011,0-.423,1.718.011Z" transform="translate(-12.103 -15.169)" fill="#fff"/>
  <path id="Path_2893" data-name="Path 2893" d="M41.968,13.518c-.129,0-.2.006-.2.006l0,.019-.006-.019s-.072-.006-.2-.006c-1.078,0-6.2.4-7.076,7.89.282,6.829,3.345,9.609,3.345,9.609a5.243,5.243,0,0,0,7.8.078s3.219-2.786,3.456-9.4C48.3,13.927,43.06,13.518,41.968,13.518Zm3.58,6.2a2.61,2.61,0,0,0,2.381,3.139,6.994,6.994,0,0,1-.069.887,11.57,11.57,0,0,1-1.138,4.284c-1.114,2.237-2.92,3.69-4.959,3.69-3.108,0-5.677-3.378-6.08-7.758a24.206,24.206,0,0,0,3.92-.984,24.573,24.573,0,0,0,5.9-3.222c.016-.013.033-.023.048-.036s.058.084.142.227Z" transform="translate(-9.646 -10.955)" fill="#fff"/>
  <path id="Path_2894" data-name="Path 2894" d="M43.2,18.019a4.009,4.009,0,1,0-4.009-4.009A4.009,4.009,0,0,0,43.2,18.019Z" transform="translate(-10.923 -10)" fill="#fff"/>
  <path id="Path_2895" data-name="Path 2895" d="M28.951,50.263l-3.72-11.556s.07-.011.2-.028a31.789,31.789,0,0,1,4.62-.182A10.572,10.572,0,0,0,22.87,34.7c-.042,1.931-2.9,3.49-6.429,3.49s-6.386-1.559-6.428-3.49A10.593,10.593,0,0,0,.4,45.249c0,5.85,4.742,5.836,10.591,5.836H21.9c3.532,0,6.659,0,8.583-1.279Z" transform="translate(-0.396 -16.704)" fill="#fff"/>
  <path id="Path_2896" data-name="Path 2896" d="M50.1,42a9.185,9.185,0,0,0-1.211-.908,6.5,6.5,0,0,0-3.962-1.117h-.159a2.586,2.586,0,0,1-.969,1.549,6.652,6.652,0,0,1-2.334.99l-.059.011.011,0L39.3,45.975l-2.125-3.452A5.691,5.691,0,0,1,34.4,41.152a2.389,2.389,0,0,1-.59-1.179,6.448,6.448,0,0,0-4.143,1.136,9.333,9.333,0,0,0-1.18.89,9.15,9.15,0,0,0-3.1,6.873,5.03,5.03,0,0,0,.521,2.465c.84,1.513,2.638,1.771,4.939,1.771,1.138,0,2.4-.061,3.721-.061h9.457c1.324,0,2.584.061,3.721.061,2.3,0,4.1-.257,4.941-1.771a5.037,5.037,0,0,0,.521-2.465A9.148,9.148,0,0,0,50.1,42Z" transform="translate(-7.178 -18.134)" fill="#fff"/>
</svg>
