<svg xmlns="http://www.w3.org/2000/svg" width="28.326" height="28.326" viewBox="0 0 28.326 28.326">
  <g id="noun_mutual_funds_3861591" data-name="noun_mutual funds_3861591" transform="translate(-6.07 -6.07)">
    <path id="Path_2787" data-name="Path 2787" d="M22.242,15.45h0l-3.295,3.281L15.766,15.55a1.07,1.07,0,0,0-1.512,0l-3.623,3.623a1.07,1.07,0,1,0,1.512,1.512L15,17.832l3.181,3.195a1.127,1.127,0,0,0,.756.314,1.07,1.07,0,0,0,.756-.314l4.065-4.051h0L25.48,18.7V13.71H20.5Z" transform="translate(1.8 3.257)" fill="#fff"/>
    <path id="Path_2788" data-name="Path 2788" d="M26.951,6.07H13.515A7.474,7.474,0,0,0,6.07,13.515V26.951A7.474,7.474,0,0,0,13.515,34.4H26.951A7.474,7.474,0,0,0,34.4,26.951V13.515A7.474,7.474,0,0,0,26.951,6.07Zm5.306,20.881a5.32,5.32,0,0,1-5.306,5.306H13.515a5.32,5.32,0,0,1-5.306-5.306V13.515a5.32,5.32,0,0,1,5.306-5.306H26.951a5.32,5.32,0,0,1,5.306,5.306Z" transform="translate(0 0)" fill="#fff"/>
  </g>
</svg>
