<svg xmlns="http://www.w3.org/2000/svg" width="29.866" height="34.231" viewBox="0 0 29.866 34.231">
  <g id="Pay_Liabilites" data-name="Pay Liabilites" transform="translate(-5 -2)">
    <path id="Path_2918" data-name="Path 2918" d="M27.639,21.759a5.7,5.7,0,1,0,5.7,5.7A5.7,5.7,0,0,0,27.639,21.759Zm1.253,4.392c.138,0,.295,0,.452,0a.352.352,0,0,1,.344.491.348.348,0,0,1-.338.214c-.155,0-.31,0-.465,0a.12.12,0,0,0-.09.051,1.523,1.523,0,0,1-1.288,1c-.009,0-.018.006-.039.012l.093.068q.748.51,1.494,1.017a.364.364,0,0,1,.188.364.35.35,0,0,1-.554.24c-.389-.26-.774-.526-1.161-.79q-.693-.472-1.386-.944a.366.366,0,0,1-.186-.355.355.355,0,0,1,.372-.314c.357,0,.714,0,1.071,0a.8.8,0,0,0,.639-.347h-.2c-.5,0-1,0-1.506,0a.355.355,0,0,1-.36-.476.351.351,0,0,1,.356-.229c.563,0,1.126,0,1.688,0h.127a.828.828,0,0,0-.039-.108.787.787,0,0,0-.727-.476c-.35-.007-.7,0-1.052,0a.355.355,0,0,1-.352-.481.351.351,0,0,1,.34-.224h3.043a.337.337,0,0,1,.319.193.334.334,0,0,1-.027.363.353.353,0,0,1-.3.15c-.193,0-.384,0-.576,0h-.094C28.747,25.757,28.816,25.944,28.892,26.15Z" transform="translate(-7.259 -8.469)" fill="#0061a0"/>
    <path id="Path_2919" data-name="Path 2919" d="M25.839,33.764a8.1,8.1,0,1,1,8.1-8.1A8.112,8.112,0,0,1,25.839,33.764Zm0-14.719a6.617,6.617,0,1,0,6.617,6.617A6.624,6.624,0,0,0,25.839,19.045Z" transform="translate(-5.459 -6.669)" fill="#0090da"/>
    <path id="Path_2920" data-name="Path 2920" d="M48.432,42.646,46.126,41.3c-.368-.214-.723-.457-1.108-.636-.535-.25-.591-.541-.277-1.041.542-.863.515-.881,1.409-.357,1.025.6,2.047,1.208,3.2,1.884-.129-.512-.217-.881-.318-1.248-.112-.406,0-.673.434-.764.2-.041.395-.094.589-.154.42-.132.659.033.766.444q.481,1.822.968,3.644c.094.352,0,.58-.385.679q-1.855.473-3.7.982c-.4.11-.624-.006-.712-.409-.039-.178-.091-.353-.147-.526-.147-.451-.056-.741.468-.83A10.6,10.6,0,0,0,48.432,42.646Z" transform="translate(-16.952 -15.824)" fill="#b7dd58"/>
    <path id="Path_2921" data-name="Path 2921" d="M8.39,16.771c1.225.706,2.32,1.361,3.441,1.968.5.272.669.553.284,1.035a1.526,1.526,0,0,0-.182.316c-.2.439-.453.539-.905.253-.993-.629-2.02-1.205-3.035-1.8-.118-.069-.242-.128-.452-.236.077.339.127.59.19.838.249.968.251.968-.73,1.233-.1.027-.218.094-.292.061-.206-.091-.518-.189-.567-.35Q5.577,18.2,5.12,16.272a.675.675,0,0,1,.322-.575c1.262-.373,2.542-.688,3.814-1.031a.463.463,0,0,1,.641.36c.411,1.194.4,1.216-.835,1.552C8.891,16.623,8.72,16.675,8.39,16.771Z" transform="translate(-0.049 -5.416)" fill="#b7dd58"/>
    <path id="Path_2922" data-name="Path 2922" d="M49.437,18.331c-1.225.709-2.371,1.348-3.49,2.031-.458.28-.695.217-.943-.262-.474-.909-.5-.9.379-1.41,1.028-.6,2.059-1.2,3.176-1.852-.507-.143-.91-.268-1.318-.368a.45.45,0,0,1-.379-.628c.016-.059.026-.119.04-.178.268-1.069.279-1.077,1.355-.79,1.019.272,2.031.563,3.056.812.476.116.643.328.506.819-.329,1.17-.634,2.348-.937,3.525-.112.433-.319.645-.785.448a2.271,2.271,0,0,0-.468-.128c-.479-.087-.664-.32-.492-.816C49.258,19.178,49.322,18.8,49.437,18.331Z" transform="translate(-17.007 -5.45)" fill="#b7dd58"/>
    <path id="Path_2923" data-name="Path 2923" d="M7.425,41.1c1.251-.726,2.4-1.368,3.524-2.056.447-.274.7-.2.894.262a1.983,1.983,0,0,0,.21.37c.271.384.194.636-.227.87-1.148.641-2.276,1.316-3.518,2.039.5.141.9.267,1.3.363a.469.469,0,0,1,.395.671,4.038,4.038,0,0,0-.124.469c-.089.584-.389.714-.948.55-1.127-.333-2.268-.624-3.408-.907-.452-.112-.6-.333-.475-.788.33-1.192.641-2.388.954-3.585.107-.409.32-.6.753-.419a2.132,2.132,0,0,0,.468.13c.52.085.686.349.5.86C7.6,40.273,7.541,40.633,7.425,41.1Z" transform="translate(0 -15.806)" fill="#b7dd58"/>
    <path id="Path_2924" data-name="Path 2924" d="M27.729,5.192c-.223.2-.342.31-.456.42-.919.905-1,.913-1.857-.066a.613.613,0,0,1-.018-.593q1.4-1.475,2.878-2.881a.574.574,0,0,1,.561,0q1.471,1.407,2.881,2.878c.1.1.023.375.026.569,0,.015-.024.03-.039.045-1.06,1.059-.8.993-1.74.078-.127-.123-.261-.236-.5-.457V8.8c0,1.1,0,1.08-1.109,1.07-.487,0-.632-.208-.626-.664C27.74,7.92,27.729,6.628,27.729,5.192Z" transform="translate(-8.714)" fill="#b7dd58"/>
    <path id="Path_2925" data-name="Path 2925" d="M27.815,52.742c0-1.375-.012-2.622.01-3.87,0-.252.112-.7.218-.716a4.623,4.623,0,0,1,1.357.057c.076.012.135.353.138.542.012,1.289.006,2.578.006,3.868l.151.1a8.426,8.426,0,0,1,.851-.9.636.636,0,0,1,.6-.038c.98.7.982.871.132,1.722-.746.746-1.5,1.482-2.231,2.241-.3.307-.53.374-.857.039q-1.314-1.351-2.665-2.667c-.3-.292-.311-.525.018-.8,1.091-.915.8-.963,1.785,0C27.45,52.436,27.585,52.542,27.815,52.742Z" transform="translate(-8.699 -19.771)" fill="#b7dd58"/>
  </g>
</svg>
