<svg xmlns="http://www.w3.org/2000/svg" width="34.551" height="44.5" viewBox="0 0 34.551 44.5"><defs><style>.a{fill:#0090da;}.b{fill:#0061a0;}.c{fill:#b7dd58;}</style></defs><g transform="translate(-12 -6)"><path class="a" d="M47.635,12.031H46.489c-1.017,0-1.234.212-1.234,1.21v7.723H40.361v-.55q0-3.642,0-7.286c0-.834-.261-1.093-1.094-1.1-.387,0-.775,0-1.282,0C39.62,9.987,41.192,8.023,42.809,6,44.413,8.006,45.987,9.972,47.635,12.031Z" transform="translate(-3.57)"/><path class="b" d="M12,46.46c1.263-.622,2.479-1.209,3.683-1.818.576-.291.731.137.919.5.847,1.624,1.684,3.253,2.528,4.878.452.871.894,1.748,1.377,2.6.212.373.216.592-.18.843C19.153,54.2,18,54.983,16.773,55.8Zm6.321,5.661a.96.96,0,0,0-1.149.719.991.991,0,0,0,.753,1.136,1,1,0,0,0,1.126-.77A.958.958,0,0,0,18.321,52.121Z" transform="translate(0 -5.296)"/><path class="c" d="M44.038,39.288v.559c0,1.028.008,1.056-.976,1.312a16.342,16.342,0,0,1-8.36-.011c-.949-.249-.938-.291-.936-1.29v-.565A18.867,18.867,0,0,0,44.038,39.288Z" transform="translate(-2.991 -4.574)"/><path class="c" d="M24.342,19.886a18.849,18.849,0,0,0,10.249,0,11.25,11.25,0,0,1-.016,1.254.573.573,0,0,1-.347.38,16.652,16.652,0,0,1-2.318.583,16.86,16.86,0,0,1-6.325-.265c-1.279-.31-1.279-.333-1.262-1.621C24.326,20.114,24.335,20.011,24.342,19.886Z" transform="translate(-1.693 -1.908)"/><path class="c" d="M24.357,23.773a18.788,18.788,0,0,0,10.236,0,9.608,9.608,0,0,1-.016,1.209.62.62,0,0,1-.355.426,15.058,15.058,0,0,1-8.587.313C24.037,25.293,24.308,25.469,24.357,23.773Z" transform="translate(-1.691 -2.442)"/><path class="c" d="M44.038,31.526v.506c0,1.082.011,1.113-1.028,1.377a16.337,16.337,0,0,1-8.308-.024c-.949-.249-.938-.29-.936-1.29V31.53A18.855,18.855,0,0,0,44.038,31.526Z" transform="translate(-2.991 -3.507)"/><path class="c" d="M33.767,35.411a18.906,18.906,0,0,0,10.27-.01,7.43,7.43,0,0,1-.023,1.284.743.743,0,0,1-.5.431,27.925,27.925,0,0,1-3.425.627,14.574,14.574,0,0,1-5.379-.472c-.949-.278-.943-.3-.942-1.289Z" transform="translate(-2.991 -4.04)"/><path class="c" d="M34.1,29.367c1.953-1.214,8.221-1.1,9.835.045A16.2,16.2,0,0,1,34.1,29.367Z" transform="translate(-3.036 -3.092)"/><path class="c" d="M34.486,17.767a16.851,16.851,0,0,1-9.921.005C26.025,16.583,32.719,16.533,34.486,17.767Z" transform="translate(-1.726 -1.492)"/><path class="c" d="M24.318,27.624a18.291,18.291,0,0,0,6.645.678c-.082.549-.162,1.081-.257,1.716A18.019,18.019,0,0,1,28.626,30c-1.187-.136-2.364-.355-3.542-.559A.811.811,0,0,1,24.31,28.4,4.527,4.527,0,0,0,24.318,27.624Z" transform="translate(-1.688 -2.971)"/><path class="c" d="M30.895,41.661a19.633,19.633,0,0,1-2.244-.016c-1.2-.136-2.4-.367-3.6-.569a.787.787,0,0,1-.74-1.019,5.179,5.179,0,0,0,.007-.789,19.044,19.044,0,0,0,6.422.715C30.791,40.527,30.838,41.037,30.895,41.661Z" transform="translate(-1.689 -4.571)"/><path class="c" d="M30.77,32.216V33.9a18.577,18.577,0,0,1-2.136-.015c-1.2-.142-2.4-.37-3.591-.574a.79.79,0,0,1-.73-1.025,5.237,5.237,0,0,0,.007-.78A18.976,18.976,0,0,0,30.77,32.216Z" transform="translate(-1.689 -3.504)"/><path class="c" d="M30.694,36.095c.06.078.079.091.079.1.005,1.926.346,1.609-1.432,1.56a26.035,26.035,0,0,1-4.169-.542c-.866-.166-.847-.26-.847-1.134v-.705A18.552,18.552,0,0,0,30.694,36.095Z" transform="translate(-1.693 -4.037)"/><path class="b" d="M21.746,51.278c-1.143-2.168-2.329-4.4-3.486-6.646a.71.71,0,0,1,.1-.617,8.05,8.05,0,0,1,9.869-2.3,21.906,21.906,0,0,0,6.513,2.473c1.025.186,2.065.3,3.083.52a1.332,1.332,0,0,1,1.1,1.294,1.356,1.356,0,0,1-1.138,1.244,8.464,8.464,0,0,1-.891.2,21.768,21.768,0,0,1-7.408-.395,4.627,4.627,0,0,0-.585-.042c-.015.063-.03.124-.046.186a3.877,3.877,0,0,0,.664.294,19.153,19.153,0,0,0,7.332.444c1.2-.186,2.25-.553,2.543-1.953a.933.933,0,0,1,.542-.52c1.889-.712,3.789-1.394,5.688-2.081a1.788,1.788,0,0,1,.323-.046,1.128,1.128,0,0,1,1.349.536,1.092,1.092,0,0,1-.427,1.384,18.875,18.875,0,0,1-2.327,1.8,27.464,27.464,0,0,1-9.073,3.389,27.186,27.186,0,0,1-6.2.124,42.235,42.235,0,0,0-4.7.06A19.219,19.219,0,0,0,21.746,51.278Z" transform="translate(-0.855 -4.792)"/></g></svg>