<svg xmlns="http://www.w3.org/2000/svg" width="34.5" height="41.876" viewBox="0 0 34.5 41.876"><defs><style>.a{fill:#0061a0;}.b{fill:#b7dd58;}</style></defs><g transform="translate(-12 -8)"><path class="a" d="M12,45.486c1.261-.621,2.475-1.207,3.678-1.816.575-.291.73.137.917.5.845,1.621,1.681,3.248,2.524,4.871.451.87.893,1.745,1.375,2.6.212.372.216.591-.179.841C19.142,53.218,18,54,16.766,54.808Zm6.312,5.653a.959.959,0,0,0-1.147.718.989.989,0,0,0,.752,1.135,1,1,0,0,0,1.124-.769A.956.956,0,0,0,18.312,51.139Z" transform="translate(0 -4.933)"/><path class="b" d="M44.023,38.316v.559c0,1.026.008,1.055-.975,1.31a16.32,16.32,0,0,1-8.348-.011c-.947-.249-.936-.291-.935-1.288v-.564A18.84,18.84,0,0,0,44.023,38.316Z" transform="translate(-3.018 -4.204)"/><path class="b" d="M24.342,11.025a18.822,18.822,0,0,0,10.234,0,11.231,11.231,0,0,1-.016,1.252.572.572,0,0,1-.347.379,16.615,16.615,0,0,1-2.315.582,16.832,16.832,0,0,1-6.316-.265c-1.278-.31-1.278-.333-1.26-1.619C24.326,11.253,24.335,11.15,24.342,11.025Z" transform="translate(-1.708 -0.419)"/><path class="b" d="M24.357,22.8a18.76,18.76,0,0,0,10.221,0A9.6,9.6,0,0,1,34.561,24a.619.619,0,0,1-.355.425,15.039,15.039,0,0,1-8.575.313C24.037,24.318,24.308,24.5,24.357,22.8Z" transform="translate(-1.707 -2.052)"/><path class="b" d="M44.023,30.554v.506c0,1.081.011,1.112-1.026,1.375a16.314,16.314,0,0,1-8.3-.024c-.947-.249-.936-.289-.935-1.288v-.564A18.84,18.84,0,0,0,44.023,30.554Z" transform="translate(-3.018 -3.127)"/><path class="b" d="M33.767,34.439a18.878,18.878,0,0,0,10.255-.01A7.42,7.42,0,0,1,44,35.712a.742.742,0,0,1-.5.431,27.868,27.868,0,0,1-3.42.627,14.552,14.552,0,0,1-5.371-.472c-.947-.277-.942-.295-.94-1.287Z" transform="translate(-3.018 -3.665)"/><path class="b" d="M34.1,28.394c1.95-1.212,8.209-1.1,9.821.045A16.178,16.178,0,0,1,34.1,28.394Z" transform="translate(-3.064 -2.708)"/><path class="b" d="M34.225,8.905a16.826,16.826,0,0,1-9.907.005C25.777,7.723,32.461,7.672,34.225,8.905Z" transform="translate(-1.708)"/><path class="b" d="M24.318,26.652a18.264,18.264,0,0,0,6.635.677c-.082.548-.162,1.079-.257,1.714a17.993,17.993,0,0,1-2.077-.015c-1.185-.136-2.361-.355-3.536-.559a.81.81,0,0,1-.773-1.044A4.521,4.521,0,0,0,24.318,26.652Z" transform="translate(-1.704 -2.586)"/><path class="b" d="M30.885,40.685a19.6,19.6,0,0,1-2.241-.016c-1.2-.136-2.4-.367-3.592-.568a.786.786,0,0,1-.739-1.018,5.172,5.172,0,0,0,.007-.788,19.016,19.016,0,0,0,6.412.714C30.782,39.554,30.828,40.061,30.885,40.685Z" transform="translate(-1.704 -4.201)"/><path class="b" d="M30.76,31.243v1.68a18.552,18.552,0,0,1-2.132-.015c-1.2-.141-2.392-.37-3.585-.573a.788.788,0,0,1-.729-1.023,5.229,5.229,0,0,0,.007-.779A18.983,18.983,0,0,0,30.76,31.243Z" transform="translate(-1.705 -3.124)"/><path class="b" d="M30.685,35.123c.06.077.079.091.079.1.005,1.923.345,1.606-1.43,1.558a26,26,0,0,1-4.163-.541c-.864-.166-.845-.26-.845-1.132v-.7A18.525,18.525,0,0,0,30.685,35.123Z" transform="translate(-1.709 -3.662)"/><path class="a" d="M21.741,50.292C20.6,48.127,19.415,45.9,18.26,43.655a.709.709,0,0,1,.1-.616,8.038,8.038,0,0,1,9.855-2.294,21.876,21.876,0,0,0,6.5,2.47c1.023.186,2.062.3,3.078.519a1.331,1.331,0,0,1,1.1,1.293,1.354,1.354,0,0,1-1.136,1.242,8.478,8.478,0,0,1-.89.2,21.739,21.739,0,0,1-7.4-.394,4.621,4.621,0,0,0-.584-.042c-.015.063-.03.124-.046.186a3.871,3.871,0,0,0,.663.294,19.125,19.125,0,0,0,7.322.443c1.2-.186,2.247-.552,2.539-1.95a.932.932,0,0,1,.541-.519c1.886-.711,3.784-1.392,5.68-2.078a1.786,1.786,0,0,1,.322-.046,1.127,1.127,0,0,1,1.347.535,1.09,1.09,0,0,1-.427,1.382A18.856,18.856,0,0,1,44.5,46.072a27.421,27.421,0,0,1-9.06,3.384,27.146,27.146,0,0,1-6.187.124,42.2,42.2,0,0,0-4.69.06A19.026,19.026,0,0,0,21.741,50.292Z" transform="translate(-0.863 -4.424)"/><path class="b" d="M24.368,19.324a18.759,18.759,0,0,0,10.22,0,9.612,9.612,0,0,1-.016,1.207.619.619,0,0,1-.355.425,15.039,15.039,0,0,1-8.575.313C24.049,20.842,24.319,21.018,24.368,19.324Z" transform="translate(-1.708 -1.57)"/><path class="b" d="M24.368,15.537a18.76,18.76,0,0,0,10.22,0,9.612,9.612,0,0,1-.016,1.207.619.619,0,0,1-.355.425,15.039,15.039,0,0,1-8.575.313C24.049,17.055,24.319,17.231,24.368,15.537Z" transform="translate(-1.708 -1.045)"/></g></svg>