<svg xmlns="http://www.w3.org/2000/svg" width="28" height="34.355" viewBox="0 0 28 34.355">
  <g id="Group_7547" data-name="Group 7547" transform="translate(13434.439 19506.631)">
    <circle id="Ellipse_91" data-name="Ellipse 91" cx="6.087" cy="6.087" r="6.087" transform="translate(-13426.527 -19495.539)" fill="#0061a0"/>
    <g id="Group_7546" data-name="Group 7546" transform="translate(-13434.439 -19506.631)">
      <path id="Path_1905" data-name="Path 1905" d="M13.072,10.741A2.446,2.446,0,0,1,10.638,8.3a2.63,2.63,0,0,1,2.634-2.441l6.5.007a.609.609,0,1,1,0,1.217h-6.7a1.217,1.217,0,1,0,0,2.434,20.24,20.24,0,0,1,6.952,1.344A9.555,9.555,0,0,0,23,11.339a5.842,5.842,0,0,0,3.258-1.125A5.741,5.741,0,0,1,29.507,8.9a.611.611,0,0,0,.61-.61V3.427a.61.61,0,0,0-.61-.607l-1.235,0a18.078,18.078,0,0,1-6.06-.886A16.722,16.722,0,0,0,16.716,1a9.251,9.251,0,0,0-6.522,2.613L2.648,11.274l-.014.012a1.935,1.935,0,0,0-.518,1.263v.014a1.839,1.839,0,0,0,1.824,1.829c1.219,0,4.15-.014,4.87,0a1.732,1.732,0,0,0,1.217-.61c1.171-1.238,2.333-2.33,3.044-3.044Z" transform="translate(-2.117 -1)" fill="#0090da"/>
      <path id="Path_1906" data-name="Path 1906" d="M19.159,13.765A2.444,2.444,0,0,1,21.593,16.2a2.627,2.627,0,0,1-2.632,2.441l-6.5-.007a.609.609,0,1,1,0-1.217h6.695a1.217,1.217,0,1,0,0-2.434,20.24,20.24,0,0,1-6.952-1.344,9.612,9.612,0,0,0-2.977-.474,5.833,5.833,0,0,0-3.258,1.127A5.751,5.751,0,0,1,2.724,15.6a.607.607,0,0,0-.607.607v4.868a.608.608,0,0,0,.607.607l1.235,0a18.116,18.116,0,0,1,6.06.888,16.733,16.733,0,0,0,5.5.936,9.25,9.25,0,0,0,6.52-2.613l7.546-7.659.014-.014a1.948,1.948,0,0,0,.52-1.263v-.014a1.842,1.842,0,0,0-1.827-1.829c-1.217,0-4.148.016-4.87,0a1.737,1.737,0,0,0-1.217.61c-1.171,1.24-2.333,2.333-3.044,3.044Z" transform="translate(-2.117 10.851)" fill="#0090da"/>
      <g id="Group_4564" data-name="Group 4564" transform="translate(11.249 13.301)">
        <path id="Path_1907" data-name="Path 1907" d="M7.511,6.782h4.994v.009a7.343,7.343,0,0,1-.5.727H10.672a1.758,1.758,0,0,1,.375.784h1.422c.018,0,.025.012.025.021-.317.479-.481.718-.488.718h-.923a2.052,2.052,0,0,1-1.169,1.567,3.225,3.225,0,0,1-1.392.347v.012q0,.052,3.007,3.568H10.2q-2.93-3.413-2.929-3.428v-.69l.012-.028a4.257,4.257,0,0,0,.607.037q1.639,0,2.041-1.063A.871.871,0,0,0,10,9.041H7.028a.018.018,0,0,1-.021-.021q.493-.718.5-.718H9.867V8.293a1.375,1.375,0,0,0-.782-.64,2.47,2.47,0,0,0-.748-.136H7.016V7.493C7.336,7.019,7.5,6.782,7.511,6.782Z" transform="translate(-7.007 -6.782)" fill="#fff"/>
      </g>
    </g>
  </g>
</svg>
