<svg id="Payment_Freq" data-name="Payment Freq" xmlns="http://www.w3.org/2000/svg" width="24" height="24" viewBox="0 0 24 24">
  <path id="Path_1794" data-name="Path 1794" d="M14.5,2.5a12,12,0,1,0,12,12A12.011,12.011,0,0,0,14.5,2.5Zm0,22.434A10.434,10.434,0,1,1,24.908,14.5,10.448,10.448,0,0,1,14.5,24.934Z" transform="translate(-2.5 -2.5)" fill="#0061a0"/>
  <path id="Path_1795" data-name="Path 1795" d="M23.394,14.4a8.994,8.994,0,1,0,8.994,8.994A9,9,0,0,0,23.394,14.4Zm3.133,6.013H24.707a3.423,3.423,0,0,1,.505,1.112h1.314v1.288H25.213a3.061,3.061,0,0,1-2.981,2.4h-.3L25.364,28.7h-1.92l-3.183-3.183V23.848h1.945a1.634,1.634,0,0,0,1.541-1.036H20.261V21.524h3.512a1.686,1.686,0,0,0-1.541-1.036H20.286V19.124h6.24Z" transform="translate(-11.394 -11.394)" fill="#0090da"/>
</svg>
