<svg id="Planning_for_Retirement" data-name="Planning for Retirement" xmlns="http://www.w3.org/2000/svg" width="41.299" height="40.645" viewBox="0 0 41.299 40.645">
  <path id="Path_2902" data-name="Path 2902" d="M34.727,39.832c-.031-.079-.057-.132-.074-.188a30.78,30.78,0,0,1-.886-3.612c-.144-.79-.26-1.583-.345-2.38-.047-.444-.084-.89-.107-1.335-.032-.635-.061-1.271-.063-1.906,0-.613.024-1.226.053-1.838.02-.438.055-.876.1-1.313.057-.549.118-1.1.2-1.645a30.212,30.212,0,0,1,.621-3.091A31.46,31.46,0,0,1,42.377,8.035q.724-.738,1.5-1.423l.051-.045a1.012,1.012,0,0,0,.318-1.129,1.911,1.911,0,0,0-.455-.777,2.013,2.013,0,0,0-1.008-.624,1,1,0,0,0-.97.235c-.439.406-.885.8-1.311,1.225a34.6,34.6,0,0,0-9.771,18.539c-.127.715-.238,1.433-.318,2.155-.009.081-.028.161-.045.254a1.537,1.537,0,0,1-.186-.015q-1.578-.323-3.155-.649l-2.978-.61L20.6,24.465l-3.2-.656-3.222-.66c-.578-.118-1.155-.239-1.734-.349a2.311,2.311,0,0,0-2.563,1.494,5.813,5.813,0,0,0-.166.659c-.044.192-.077.386-.116.578a2.33,2.33,0,0,0,1.447,2.657l.159.063a1.331,1.331,0,0,1,.031.171,29.846,29.846,0,0,1,.029,3.087c-.018.332-.034.665-.055,1-.058.93-.171,1.853-.315,2.773A30.787,30.787,0,0,1,9.929,39.5c-.031.1-.066.2-.1.294-.075.034-.126,0-.18-.027-.619-.265-1.227-.555-1.826-.862a31.856,31.856,0,0,1-2.961-1.724c-.063-.042-.126-.085-.192-.12A1.128,1.128,0,0,0,3,38.048a1.074,1.074,0,0,0,.425.89,2.255,2.255,0,0,0,.186.129A33.784,33.784,0,0,0,14.148,43.66q1.477.362,2.981.591c.688.105,1.379.192,2.072.252a32.891,32.891,0,0,0,3.607.133c.741-.017,1.482-.049,2.222-.11.838-.069,1.672-.163,2.5-.293A33.6,33.6,0,0,0,38.539,40.5c.817-.447,1.616-.923,2.395-1.435a1.884,1.884,0,0,0,.168-.116,1.09,1.09,0,0,0,.414-1.109,1.131,1.131,0,0,0-1.657-.773c-.085.049-.167.1-.249.158a30.813,30.813,0,0,1-4.626,2.5ZM30.221,32.15c.012.055.02.076.021.1.062.883.145,1.765.268,2.642q.159,1.124.39,2.235a36.891,36.891,0,0,0,.941,3.575c.018.055.027.113.042.179a9.68,9.68,0,0,1-1.005.314,31.893,31.893,0,0,1-13.378.827,31,31,0,0,1-5.372-1.3c-.055-.019-.108-.046-.155-.066a.218.218,0,0,1-.008-.059c.012-.052.026-.1.042-.153q.435-1.41.756-2.85c.191-.857.352-1.72.467-2.59.081-.607.139-1.218.2-1.827.072-.708.1-1.419.117-2.131s.019-1.393-.024-2.089a.256.256,0,0,1,.031-.2.525.525,0,0,1,.107,0Z" transform="translate(-3 -4)" fill="#b7dd58"/>
  <path id="Path_2903" data-name="Path 2903" d="M33.884,15.488a3.781,3.781,0,0,1-.238.613,1.439,1.439,0,0,1-1.235.736c-.524.021-1.05.011-1.575,0a.482.482,0,0,1,0-.964c.4-.007.791,0,1.187,0h.17c-.152-.213-.279-.413-.427-.6a5.118,5.118,0,0,0-3.021-1.857,5.241,5.241,0,0,0-6.141,3.835,5.239,5.239,0,0,0,4.306,6.46A9.785,9.785,0,0,0,28,23.767a1.958,1.958,0,0,1,.289.01.474.474,0,0,1,.381.5.487.487,0,0,1-.449.447c-.076.007-.152.015-.227.023h-.679c-.039-.007-.078-.016-.118-.021-.228-.03-.458-.047-.684-.09a6.21,6.21,0,0,1-5.006-6.718,5.83,5.83,0,0,1,1.482-3.432,6.208,6.208,0,0,1,9.608.28c.1.132.2.271.316.433v-.145c0-.4,0-.792,0-1.188a.46.46,0,0,1,.3-.447.445.445,0,0,1,.515.094,1.234,1.234,0,0,1,.157.253Q33.884,14.627,33.884,15.488Z" transform="translate(-8.09 -6.298)" fill="#0061a0"/>
  <path id="Path_2904" data-name="Path 2904" d="M29.608,17.306c0,.63,0,1.26,0,1.891a.554.554,0,0,1-.168.413c-.623.622-1.244,1.247-1.869,1.867a.485.485,0,1,1-.689-.681l.54-.54c.38-.38.759-.761,1.141-1.138a.243.243,0,0,0,.077-.19q0-1.757,0-3.515a.5.5,0,0,1,.32-.505.484.484,0,0,1,.648.472c0,.57,0,1.139,0,1.709C29.608,17.161,29.608,17.233,29.608,17.306Z" transform="translate(-9.534 -6.996)" fill="#0061a0"/>
  <path id="Path_2905" data-name="Path 2905" d="M33.13,28.324a.5.5,0,0,1-.464-.369.466.466,0,0,1,.215-.532,5.316,5.316,0,0,1,.5-.25A.477.477,0,0,1,34,27.4a.471.471,0,0,1-.174.625c-.162.1-.335.178-.506.258A.934.934,0,0,1,33.13,28.324Z" transform="translate(-11.167 -10.372)" fill="#0061a0"/>
  <path id="Path_2906" data-name="Path 2906" d="M36.951,22.791a5.518,5.518,0,0,1,.189-.622.455.455,0,0,1,.567-.224.46.46,0,0,1,.324.506,3.876,3.876,0,0,1-.156.607.466.466,0,0,1-.552.281A.505.505,0,0,1,36.951,22.791Z" transform="translate(-12.352 -8.936)" fill="#0061a0"/>
  <path id="Path_2907" data-name="Path 2907" d="M36.616,25.439a2.07,2.07,0,0,1-.142.3,4.312,4.312,0,0,1-.287.359.485.485,0,0,1-.681.085.478.478,0,0,1-.081-.68c.107-.142.219-.28.338-.411a.47.47,0,0,1,.522-.116A.55.55,0,0,1,36.616,25.439Z" transform="translate(-11.903 -9.768)" fill="#0061a0"/>
</svg>
