<svg id="Plan_Child_s_Education" data-name="Plan Child’s Education" xmlns="http://www.w3.org/2000/svg" width="43.131" height="36.175" viewBox="0 0 43.131 36.175">
  <path id="Path_2897" data-name="Path 2897" d="M24.087,6a18.12,18.12,0,0,1,12.79,5.248,17.8,17.8,0,0,1,4.1,19.1q-.917-.089-1.831-.1a16.089,16.089,0,0,0-3.493-17.784,16.463,16.463,0,0,0-23.126,0A16.092,16.092,0,0,0,9.033,30.247q-.914.013-1.831.1a17.8,17.8,0,0,1,4.1-19.1A18.12,18.12,0,0,1,24.087,6Z" transform="translate(-2.522 -6)" fill="#fff" fill-rule="evenodd"/>
  <path id="Path_2898" data-name="Path 2898" d="M41.78,43.421a21.109,21.109,0,0,0-19.215,5.861A21.109,21.109,0,0,0,3.351,43.421a17.577,17.577,0,0,1,11.566,2.261A12.89,12.89,0,0,0,1,47.113a17.994,17.994,0,0,1,19.446,6.322h4.24a17.994,17.994,0,0,1,19.446-6.322,12.887,12.887,0,0,0-13.916-1.43A17.568,17.568,0,0,1,41.78,43.421Z" transform="translate(-1 -17.26)" fill="#fff" fill-rule="evenodd"/>
  <path id="Path_2899" data-name="Path 2899" d="M26.816,24.538l12.365-4.761L26.816,14.932,14.451,19.776l4.277,1.647L26.4,17.968a.636.636,0,0,1,.523,1.161L20.4,22.068Z" transform="translate(-5.094 -8.718)" fill="#fff" fill-rule="evenodd"/>
  <path id="Path_2900" data-name="Path 2900" d="M35.649,27.264l-6.085,2.3-6.085-2.3v3.653c0,4.658,12.171,4.658,12.171,0Z" transform="translate(-7.841 -12.471)" fill="#fff" fill-rule="evenodd"/>
  <path id="Path_2901" data-name="Path 2901" d="M18.047,33.479l-.864,3.963h3.058l-.8-3.991a1.733,1.733,0,0,0,.928-1.549,1.714,1.714,0,0,0-1.222-1.665V25.867a.431.431,0,0,0-.862,0v4.369A1.715,1.715,0,0,0,17.059,31.9,1.732,1.732,0,0,0,18.047,33.479Z" transform="translate(-5.887 -11.915)" fill="#fff" fill-rule="evenodd"/>
</svg>
