<svg xmlns="http://www.w3.org/2000/svg" width="170.143" height="52" viewBox="0 0 170.143 52">
  <g id="Group_6" data-name="Group 6" transform="translate(-253.092 -820.841)">
    <path id="Path_32" data-name="Path 32" d="M314.594,901.959c.034,0,.05.024.046.076a.449.449,0,0,1-.052.17.6.6,0,0,1-.129.169.268.268,0,0,1-.186.077.52.52,0,0,1-.293-.113,1.146,1.146,0,0,1-.294-.324,2.2,2.2,0,0,1-.227-.5,2.079,2.079,0,0,1-.092-.638,4.377,4.377,0,0,1,.247-1.27q.247-.776.644-1.7t.892-1.918q.495-1,1-1.924l-.846,1.049q-.464.576-.943,1.168l-.943,1.162q-.464.57-.846,1.023t-.644.752a3,3,0,0,1-.336.349c-.007,0-.01,0-.01.005s0,0-.01,0a.58.58,0,0,1-.289-.1,1.206,1.206,0,0,1-.315-.277,1.675,1.675,0,0,1-.253-.427,1.43,1.43,0,0,1-.1-.555,5.212,5.212,0,0,1,.056-.715q.057-.407.16-.864t.227-.956q.124-.5.268-.993-.464.864-1.026,1.774t-1.165,1.774q-.6.865-1.221,1.631a14.2,14.2,0,0,1-1.217,1.337,6.922,6.922,0,0,1-1.144.905,1.94,1.94,0,0,1-.99.334,1.866,1.866,0,0,1-.722-.124,1.573,1.573,0,0,1-.49-.307.988.988,0,0,1-.32-.787.494.494,0,0,1,.129-.3.4.4,0,0,1,.309-.124c.041,0,.06.036.057.108s-.01.15-.021.237a1.433,1.433,0,0,0-.01.236c0,.072.036.108.1.108a2.552,2.552,0,0,0,1.4-.478,8.407,8.407,0,0,0,1.469-1.259,17.7,17.7,0,0,0,1.47-1.778q.726-1,1.391-2.034t1.243-2.035q.576-.995,1.016-1.777l.706-1.258q.268-.478.33-.478h.011a.147.147,0,0,1,.036,0,.1.1,0,0,0,.036.005.794.794,0,0,1,.253.134,1.637,1.637,0,0,1,.257.241,1.443,1.443,0,0,1,.2.3.7.7,0,0,1,.077.3,2.85,2.85,0,0,1-.087.488q-.088.375-.227.92c-.092.364-.2.767-.32,1.209s-.24.895-.36,1.358-.237.922-.351,1.378-.211.873-.294,1.25q.289-.371.717-.89l.923-1.121q.5-.6,1.042-1.249t1.078-1.271q.531-.622,1.016-1.177t.866-.972q.382-.417.629-.663t.3-.246c.1,0,.194.094.274.282a1.74,1.74,0,0,1,.118.674,1.956,1.956,0,0,1-.2.525c-.131.28-.3.634-.51,1.06s-.45.9-.722,1.434-.548,1.085-.83,1.661-.559,1.156-.83,1.738-.512,1.136-.722,1.657-.379.993-.51,1.419a3.7,3.7,0,0,0-.2,1.029c0,.062.012.1.036.112a.137.137,0,0,0,.088.016.363.363,0,0,0,.1-.025.238.238,0,0,1,.083-.02m5.815-4.2c-.055,0-.145.057-.268.17s-.27.256-.438.427l-.546.555q-.294.3-.588.555a4.572,4.572,0,0,1-.562.428.922.922,0,0,1-.474.17.269.269,0,0,1-.309-.3,2.479,2.479,0,0,1,.1-.674,6.5,6.5,0,0,1,.257-.735q.155-.371.33-.725c.116-.237.227-.453.33-.648s.189-.361.258-.5a.815.815,0,0,0,.1-.278.425.425,0,0,0-.077-.231,1.023,1.023,0,0,0-.2-.221,1.161,1.161,0,0,0-.264-.164.645.645,0,0,0-.262-.061c-.042,0-.106.058-.2.175a4.86,4.86,0,0,0-.3.457q-.17.284-.356.649t-.34.745a6.336,6.336,0,0,0-.253.752,2.611,2.611,0,0,0-.1.658,2.7,2.7,0,0,0,.071.617,1.58,1.58,0,0,0,.243.551,1.235,1.235,0,0,0,.464.39,1.622,1.622,0,0,0,.737.149,1.273,1.273,0,0,0,.675-.216,3.663,3.663,0,0,0,.665-.54,6.088,6.088,0,0,0,.592-.7,6.963,6.963,0,0,0,.454-.7,3.854,3.854,0,0,0,.258-.54c.051-.143.049-.216-.005-.216m-1.608-2.736a.523.523,0,0,0,.5.021.937.937,0,0,0,.454-.411.987.987,0,0,0,.149-.592.514.514,0,0,0-.252-.427.524.524,0,0,0-.5-.021.938.938,0,0,0-.453.411.953.953,0,0,0-.144.592.538.538,0,0,0,.248.426m4.319,2.736c-.055,0-.144.056-.268.169s-.268.256-.433.427-.345.357-.542.556-.392.384-.587.555a4.414,4.414,0,0,1-.567.428.946.946,0,0,1-.479.169.264.264,0,0,1-.3-.3,2.328,2.328,0,0,1,.18-.71q.181-.483.464-1.116t.644-1.368q.362-.734.722-1.46t.686-1.4q.324-.674.546-1.193a5.866,5.866,0,0,0,.3-.827c.052-.207.033-.309-.057-.309a.778.778,0,0,0-.443.252,5.665,5.665,0,0,0-.618.678q-.34.427-.717.993T320.9,894.5q-.371.628-.706,1.27t-.592,1.234a10.011,10.011,0,0,0-.408,1.084,2.944,2.944,0,0,0-.149.813,2.143,2.143,0,0,0,.113.715,1.808,1.808,0,0,0,.309.561,1.359,1.359,0,0,0,.459.365,1.255,1.255,0,0,0,.562.129,1.273,1.273,0,0,0,.676-.216,3.719,3.719,0,0,0,.665-.54,5.784,5.784,0,0,0,.587-.7c.178-.251.33-.483.453-.7a3.155,3.155,0,0,0,.258-.54c.048-.143.045-.215-.01-.215m4.691,0c-.055,0-.141.056-.258.169s-.252.256-.407.427l-.5.561q-.273.3-.546.56a3.964,3.964,0,0,1-.531.426.874.874,0,0,1-.464.17c-.076,0-.151-.067-.227-.2a2.812,2.812,0,0,1-.216-.529,5.268,5.268,0,0,1-.17-.757,8.178,8.178,0,0,1-.088-.879,7.354,7.354,0,0,1,.531-.52,6.4,6.4,0,0,1,.526-.422,3.368,3.368,0,0,1,.464-.282.871.871,0,0,1,.366-.1c.062,0,.1.012.118.036a.168.168,0,0,1,.031.082.319.319,0,0,0,.021.082c.011.024.036.036.078.036.062,0,.1-.057.1-.17a.883.883,0,0,0-.068-.37,1.068,1.068,0,0,0-.247-.371.609.609,0,0,0-.449-.169,1.082,1.082,0,0,0-.427.1,2.7,2.7,0,0,0-.48.284,5.275,5.275,0,0,0-.505.422q-.258.242-.5.52.3-.659.634-1.322t.654-1.276q.319-.61.593-1.136t.448-.909a4.008,4.008,0,0,0,.232-.607q.057-.221-.067-.222a.8.8,0,0,0-.448.252,5.927,5.927,0,0,0-.634.684q-.35.432-.742,1.008t-.773,1.229q-.382.654-.732,1.341t-.614,1.343a11.2,11.2,0,0,0-.423,1.244,4.043,4.043,0,0,0-.159,1.034,1.4,1.4,0,0,0,.066.432,1.2,1.2,0,0,0,.191.365,1.076,1.076,0,0,0,.283.257.658.658,0,0,0,.347.1c.11,0,.163-.046.159-.139s0-.211,0-.354a1.66,1.66,0,0,1,.155-.648,4.406,4.406,0,0,1,.412-.741,2.711,2.711,0,0,0,.644,1.368,1.539,1.539,0,0,0,1.17.514,1.231,1.231,0,0,0,.665-.215,3.319,3.319,0,0,0,.634-.54,5.3,5.3,0,0,0,.547-.7,7.818,7.818,0,0,0,.412-.705,3.191,3.191,0,0,0,.227-.54c.041-.143.034-.215-.021-.215m5.546,0c-.055,0-.145.056-.269.169s-.27.256-.438.427l-.546.561q-.294.3-.583.56a4.087,4.087,0,0,1-.562.426.951.951,0,0,1-.48.17.264.264,0,0,1-.3-.3,1.9,1.9,0,0,1,.145-.658q.144-.38.319-.751c.117-.246.223-.47.319-.668a1.188,1.188,0,0,0,.145-.411.237.237,0,0,0-.093-.216.366.366,0,0,0-.206-.063.777.777,0,0,0-.469.217,5.822,5.822,0,0,0-.563.535q-.3.319-.608.7t-.593.7a6.086,6.086,0,0,1-.531.534.705.705,0,0,1-.412.216c-.1,0-.128-.091-.093-.274a3.029,3.029,0,0,1,.243-.685,7.61,7.61,0,0,1,.495-.893,6.415,6.415,0,0,1,.68-.892,4.041,4.041,0,0,1,.8-.686,1.572,1.572,0,0,1,.851-.273.468.468,0,0,1,.3.089.775.775,0,0,1,.17.194c.041.07.075.135.1.194s.062.089.1.089c.1,0,.163-.064.18-.191a.6.6,0,0,0-.134-.422,1.4,1.4,0,0,0-.525-.421,2.151,2.151,0,0,0-.985-.191,1.726,1.726,0,0,0-.773.2,3.643,3.643,0,0,0-.758.512,5.326,5.326,0,0,0-.685.725,6.418,6.418,0,0,0-.557.826,5.137,5.137,0,0,0-.376.821,2.194,2.194,0,0,0-.139.709,1.91,1.91,0,0,0,.088.615,1.173,1.173,0,0,0,.237.421.861.861,0,0,0,.345.236,1.17,1.17,0,0,0,.4.072.815.815,0,0,0,.345-.092,2.507,2.507,0,0,0,.4-.252,4.684,4.684,0,0,0,.427-.37q.216-.212.433-.448a1.428,1.428,0,0,0,.469.8,1.478,1.478,0,0,0,.449.262,1.629,1.629,0,0,0,.577.1,1.3,1.3,0,0,0,.68-.215,3.612,3.612,0,0,0,.67-.54,5.635,5.635,0,0,0,.588-.7q.267-.381.453-.705a3.159,3.159,0,0,0,.258-.54c.048-.143.044-.215-.011-.215m4.959,0c-.056,0-.144.056-.268.169s-.27.256-.438.427-.351.359-.546.561-.391.388-.582.56a4.136,4.136,0,0,1-.563.426.946.946,0,0,1-.479.17.268.268,0,0,1-.3-.308,2.216,2.216,0,0,1,.154-.726q.155-.425.351-.895t.371-.936a4.242,4.242,0,0,0,.231-.838.927.927,0,0,0-.072-.6.576.576,0,0,0-.551-.231,3.1,3.1,0,0,0-.32.025l-.5.061c-.193.025-.4.045-.635.062s-.462.025-.7.025a1.539,1.539,0,0,1-.309-.025.96.96,0,0,1-.206-.062l-.139-.061a.271.271,0,0,0-.108-.025.115.115,0,0,0-.124.107.479.479,0,0,0,.041.262,1.2,1.2,0,0,0,.2.32,1.052,1.052,0,0,0,.356.267c-.035.1-.105.271-.211.5a8.5,8.5,0,0,1-.407.771,10.358,10.358,0,0,1-.583.879,6.011,6.011,0,0,1-.726.829c-.021.02-.013.062.025.123a.891.891,0,0,0,.15.18.834.834,0,0,0,.2.139.167.167,0,0,0,.186-.01,1.882,1.882,0,0,0,.366-.36q.2-.247.417-.561t.423-.663c.137-.233.267-.458.387-.674s.221-.415.3-.6a4.154,4.154,0,0,0,.175-.437c.165-.007.349-.02.551-.041s.4-.045.593-.072c-.1.185-.206.388-.309.607a7.177,7.177,0,0,0-.278.684,5.83,5.83,0,0,0-.2.715,3.3,3.3,0,0,0-.077.7,1.372,1.372,0,0,0,.139.633,1.465,1.465,0,0,0,.356.457,1.6,1.6,0,0,0,1.02.381,1.3,1.3,0,0,0,.68-.215,3.6,3.6,0,0,0,.671-.54,5.579,5.579,0,0,0,.588-.7q.267-.381.454-.705a3.158,3.158,0,0,0,.258-.54c.048-.143.045-.215-.01-.215m5.4,0c-.055,0-.144.056-.268.169s-.269.256-.433.427-.345.357-.541.556-.392.384-.588.555a4.375,4.375,0,0,1-.567.428.944.944,0,0,1-.479.169.264.264,0,0,1-.3-.3,2.329,2.329,0,0,1,.18-.71q.181-.483.464-1.116t.644-1.368q.362-.734.721-1.46t.685-1.4q.325-.674.547-1.193a5.941,5.941,0,0,0,.3-.827c.052-.207.033-.309-.057-.309a.778.778,0,0,0-.443.252,5.665,5.665,0,0,0-.618.678q-.341.427-.717.993T341.5,894.5q-.371.628-.706,1.27t-.593,1.234a10.11,10.11,0,0,0-.408,1.084,2.941,2.941,0,0,0-.149.813,2.13,2.13,0,0,0,.114.715,1.786,1.786,0,0,0,.309.561,1.363,1.363,0,0,0,.458.365,1.218,1.218,0,0,0,1.238-.087,3.683,3.683,0,0,0,.665-.54,5.728,5.728,0,0,0,.587-.7c.179-.251.33-.483.454-.7a3.111,3.111,0,0,0,.258-.54c.048-.143.045-.215-.01-.215m2.959,0c-.055,0-.145.057-.269.17s-.27.256-.437.427l-.548.555q-.293.3-.587.555a4.616,4.616,0,0,1-.562.428.925.925,0,0,1-.475.17.268.268,0,0,1-.309-.3,2.5,2.5,0,0,1,.1-.674,6.474,6.474,0,0,1,.258-.735q.154-.371.33-.725c.116-.237.227-.453.33-.648s.189-.361.258-.5a.816.816,0,0,0,.1-.278.422.422,0,0,0-.077-.231.99.99,0,0,0-.2-.221,1.173,1.173,0,0,0-.263-.164.65.65,0,0,0-.263-.061c-.042,0-.107.058-.2.175a4.884,4.884,0,0,0-.3.457q-.171.284-.356.649t-.34.745a6.244,6.244,0,0,0-.253.752,2.613,2.613,0,0,0-.1.658,2.729,2.729,0,0,0,.071.617,1.57,1.57,0,0,0,.243.551,1.238,1.238,0,0,0,.464.39,1.626,1.626,0,0,0,.738.149,1.273,1.273,0,0,0,.675-.216,3.667,3.667,0,0,0,.665-.54,6.2,6.2,0,0,0,.593-.7,7.03,7.03,0,0,0,.453-.7,3.788,3.788,0,0,0,.257-.54c.052-.143.05-.216,0-.216m-1.608-2.736a.522.522,0,0,0,.495.021.935.935,0,0,0,.455-.411.988.988,0,0,0,.149-.592.514.514,0,0,0-.253-.427.524.524,0,0,0-.495-.021.938.938,0,0,0-.453.411.952.952,0,0,0-.144.592.536.536,0,0,0,.247.426m4.753,2.736q-.1,0-.377.247c-.182.164-.39.358-.623.581s-.479.448-.737.673a3.771,3.771,0,0,1-.717.514,3.621,3.621,0,0,0-.536-1.121q.392-.884.8-1.764t.794-1.687q.382-.808.707-1.5t.546-1.2a6.732,6.732,0,0,0,.3-.8c.055-.2.048-.293-.021-.293a.9.9,0,0,0-.536.257,4.947,4.947,0,0,0-.67.7,12.358,12.358,0,0,0-.758,1.064q-.4.618-.794,1.342t-.783,1.527q-.387.8-.727,1.615h-.042a.9.9,0,0,0-.335.061.691.691,0,0,0-.216.13.105.105,0,0,0-.036.128c.021.041.09.061.206.061a.393.393,0,0,1,.227.093q-.278.689-.51,1.359t-.4,1.29q-.165.623-.258,1.173a6,6,0,0,0-.093.992,2.565,2.565,0,0,0,.113.793,1.98,1.98,0,0,0,.294.586,1.337,1.337,0,0,0,.412.365.984.984,0,0,0,.479.129,1.351,1.351,0,0,0,.84-.289,2.5,2.5,0,0,0,.65-.776,4.345,4.345,0,0,0,.423-1.147,6.316,6.316,0,0,0,.149-1.4c0-.179-.006-.351-.021-.519s-.034-.331-.062-.489a1.966,1.966,0,0,0,.624-.334,4.938,4.938,0,0,0,.593-.54,6.253,6.253,0,0,0,.51-.622q.232-.325.382-.586a2.467,2.467,0,0,0,.206-.437c.038-.117.032-.175-.015-.175m-4.392,6.562a.406.406,0,0,1-.206-.061c-.069-.042-.1-.14-.1-.3a5.957,5.957,0,0,1,.3-1.641q.3-.992.773-2.154a1.362,1.362,0,0,0,.361.226,4.216,4.216,0,0,1,.113.967,6.106,6.106,0,0,1-.108,1.193,4.272,4.272,0,0,1-.289.942,2.033,2.033,0,0,1-.4.611.641.641,0,0,1-.438.216m7.9-6.562c-.056,0-.145.056-.269.169s-.27.256-.438.427-.35.359-.546.561-.39.388-.582.56a4.075,4.075,0,0,1-.562.427.951.951,0,0,1-.479.17.562.562,0,0,1-.366-.113.492.492,0,0,1-.139-.4,2.538,2.538,0,0,1,.051-.5,4,4,0,0,1,.144-.525,1.077,1.077,0,0,0,.216.088.961.961,0,0,0,.268.036,1,1,0,0,0,.387-.1,2.472,2.472,0,0,0,.449-.263,4.744,4.744,0,0,0,.449-.37,4.032,4.032,0,0,0,.4-.422,2.373,2.373,0,0,0,.283-.431.867.867,0,0,0,.108-.381,1.078,1.078,0,0,0-.118-.519,1.094,1.094,0,0,0-.3-.36,1.25,1.25,0,0,0-.4-.206,1.49,1.49,0,0,0-.428-.066,1.236,1.236,0,0,0-.546.143,2.734,2.734,0,0,0-.577.4,4.554,4.554,0,0,0-.553.581,4.68,4.68,0,0,0-.469.7,4.188,4.188,0,0,0-.323.772,2.653,2.653,0,0,0-.119.766,1.8,1.8,0,0,0,.474,1.214,1.74,1.74,0,0,0,.576.411,1.9,1.9,0,0,0,.785.154,1.276,1.276,0,0,0,.675-.216,3.682,3.682,0,0,0,.665-.54,5.572,5.572,0,0,0,.587-.7q.269-.381.454-.705a3.12,3.12,0,0,0,.258-.54c.048-.143.045-.215-.01-.215m-1.3-1.532c.035,0,.038.036.011.107a1.645,1.645,0,0,1-.145.273,4.147,4.147,0,0,1-.267.37,3.844,3.844,0,0,1-.361.39,3.212,3.212,0,0,1-.418.334,1.52,1.52,0,0,1-.448.211,4.89,4.89,0,0,1,.392-.653,4.714,4.714,0,0,1,.438-.534,2.346,2.346,0,0,1,.433-.366.716.716,0,0,1,.365-.133m10.207,1.532c-.055,0-.144.056-.268.169s-.27.256-.438.427-.351.359-.546.561-.39.388-.583.56a4.121,4.121,0,0,1-.562.426.95.95,0,0,1-.479.17.264.264,0,0,1-.3-.3,1.907,1.907,0,0,1,.144-.658q.144-.38.319-.751c.117-.246.224-.47.319-.668a1.19,1.19,0,0,0,.145-.411.237.237,0,0,0-.093-.216.362.362,0,0,0-.206-.063.779.779,0,0,0-.469.217,5.889,5.889,0,0,0-.562.535q-.3.319-.608.7t-.593.7a6.242,6.242,0,0,1-.531.534.708.708,0,0,1-.413.216q-.144,0-.093-.274a3.058,3.058,0,0,1,.243-.685,7.686,7.686,0,0,1,.5-.893,6.407,6.407,0,0,1,.68-.892,4.028,4.028,0,0,1,.8-.686,1.569,1.569,0,0,1,.85-.273.467.467,0,0,1,.3.089.777.777,0,0,1,.17.194c.041.07.075.135.1.194s.062.089.1.089c.1,0,.163-.064.18-.191a.606.606,0,0,0-.134-.422,1.407,1.407,0,0,0-.526-.421,2.152,2.152,0,0,0-.985-.191,1.727,1.727,0,0,0-.773.2,3.624,3.624,0,0,0-.757.512,5.292,5.292,0,0,0-.686.725,6.465,6.465,0,0,0-.557.826,5.083,5.083,0,0,0-.376.821,2.2,2.2,0,0,0-.139.709,1.912,1.912,0,0,0,.088.615,1.165,1.165,0,0,0,.237.421.862.862,0,0,0,.345.236,1.169,1.169,0,0,0,.4.072.812.812,0,0,0,.345-.092,2.5,2.5,0,0,0,.4-.252,4.7,4.7,0,0,0,.428-.37q.216-.212.433-.448a1.419,1.419,0,0,0,.159.426,1.4,1.4,0,0,0,.31.375,1.477,1.477,0,0,0,.449.262,1.625,1.625,0,0,0,.577.1,1.307,1.307,0,0,0,.68-.215,3.609,3.609,0,0,0,.67-.54,5.542,5.542,0,0,0,.588-.7q.268-.381.453-.705a3.125,3.125,0,0,0,.258-.54c.048-.143.044-.215-.011-.215m5.371,0c-.055,0-.144.056-.268.169s-.27.256-.438.427-.351.359-.546.561-.39.388-.582.56a4.163,4.163,0,0,1-.562.426.949.949,0,0,1-.479.17.264.264,0,0,1-.3-.3,1.9,1.9,0,0,1,.144-.658q.144-.38.32-.751c.117-.246.223-.47.319-.668a1.2,1.2,0,0,0,.144-.411.237.237,0,0,0-.093-.216.361.361,0,0,0-.206-.063.778.778,0,0,0-.469.217,5.952,5.952,0,0,0-.562.535q-.3.319-.608.7t-.593.7a6.086,6.086,0,0,1-.531.534.708.708,0,0,1-.412.216c-.1,0-.128-.091-.093-.274a3.089,3.089,0,0,1,.243-.685,7.715,7.715,0,0,1,.5-.893,6.418,6.418,0,0,1,.68-.892,4.03,4.03,0,0,1,.8-.686,1.572,1.572,0,0,1,.851-.273.467.467,0,0,1,.3.089.765.765,0,0,1,.17.194,2.081,2.081,0,0,1,.1.194c.028.06.062.089.1.089.1,0,.164-.064.18-.191a.606.606,0,0,0-.134-.422,1.408,1.408,0,0,0-.526-.421,2.148,2.148,0,0,0-.984-.191,1.727,1.727,0,0,0-.774.2,3.64,3.64,0,0,0-.758.512,5.363,5.363,0,0,0-.686.725,6.336,6.336,0,0,0-.556.826,5.045,5.045,0,0,0-.377.821,2.195,2.195,0,0,0-.139.709,1.91,1.91,0,0,0,.088.615,1.189,1.189,0,0,0,.237.421.873.873,0,0,0,.345.236,1.174,1.174,0,0,0,.4.072.813.813,0,0,0,.345-.092,2.483,2.483,0,0,0,.4-.252,4.537,4.537,0,0,0,.428-.37q.217-.212.433-.448a1.43,1.43,0,0,0,.47.8,1.476,1.476,0,0,0,.448.262,1.63,1.63,0,0,0,.577.1,1.305,1.305,0,0,0,.68-.215,3.651,3.651,0,0,0,.671-.54,5.674,5.674,0,0,0,.587-.7c.178-.254.33-.488.453-.705a3.113,3.113,0,0,0,.258-.54c.048-.143.045-.215-.01-.215m1.557,3.95q.33-.545.639-1.111t.578-1.106q.268-.539.49-1.028t.377-.89c.1-.267.184-.5.242-.689a1.646,1.646,0,0,0,.088-.421,1.237,1.237,0,0,0-.046-.325,1.059,1.059,0,0,0-.134-.3.894.894,0,0,0-.2-.221.382.382,0,0,0-.237-.087c-.027,0-.085.052-.175.158s-.2.249-.33.427a.9.9,0,0,0-.382-.427,1.2,1.2,0,0,0-.629-.158,1.7,1.7,0,0,0-.768.195,3.631,3.631,0,0,0-.752.514,5.335,5.335,0,0,0-.686.726,6.416,6.416,0,0,0-.557.828,5,5,0,0,0-.376.823,2.2,2.2,0,0,0-.139.711,1.941,1.941,0,0,0,.087.617,1.194,1.194,0,0,0,.238.421.882.882,0,0,0,.34.237,1.119,1.119,0,0,0,.4.072.892.892,0,0,0,.453-.16,3.587,3.587,0,0,0,.546-.427,7.2,7.2,0,0,0,.588-.617c.2-.232.4-.476.6-.729q-.34.7-.722,1.424t-.773,1.4a4.341,4.341,0,0,0-1.1.205,3.646,3.646,0,0,0-.974.478,2.586,2.586,0,0,0-.7.715,1.638,1.638,0,0,0-.268.914,1.427,1.427,0,0,0,.232.843.815.815,0,0,0,.716.331,1.319,1.319,0,0,0,.634-.186,3.642,3.642,0,0,0,.685-.508,7.6,7.6,0,0,0,.711-.767q.362-.442.712-.957h.01a2.837,2.837,0,0,1,.845.114,1.764,1.764,0,0,1,.6.314,1.281,1.281,0,0,1,.362.463,1.348,1.348,0,0,1,.118.561c0,.164.017.263.051.3s.074.03.119-.015a.572.572,0,0,0,.118-.216.877.877,0,0,0,.052-.293,2.014,2.014,0,0,0-.109-.643,2.3,2.3,0,0,0-.314-.612,2.372,2.372,0,0,0-.526-.525,2.521,2.521,0,0,0-.732-.37m-3.7,2.664a.127.127,0,0,1-.1-.052.207.207,0,0,1-.041-.133,1.085,1.085,0,0,1,.5-.916,3.454,3.454,0,0,1,1.361-.525,9.114,9.114,0,0,1-.933,1.172,1.193,1.193,0,0,1-.788.453m1.794-4.474c-.1,0-.122-.091-.077-.273a3.454,3.454,0,0,1,.273-.684,9.292,9.292,0,0,1,.516-.89,9.427,9.427,0,0,1,.649-.89,4.773,4.773,0,0,1,.681-.684,1.024,1.024,0,0,1,.608-.273.205.205,0,0,1,.2.155.371.371,0,0,1-.088.349q-.35.484-.752,1.044t-.789,1.039a8.922,8.922,0,0,1-.711.792.9.9,0,0,1-.511.314m8.753-2.139c-.055,0-.145.056-.269.169s-.27.256-.438.427-.35.359-.546.561-.39.388-.582.56a4.068,4.068,0,0,1-.562.427.952.952,0,0,1-.48.17.559.559,0,0,1-.365-.113.492.492,0,0,1-.139-.4,2.547,2.547,0,0,1,.051-.5,4.023,4.023,0,0,1,.144-.525,1.086,1.086,0,0,0,.217.088.957.957,0,0,0,.268.036.991.991,0,0,0,.386-.1,2.461,2.461,0,0,0,.449-.263,4.818,4.818,0,0,0,.448-.37,4.038,4.038,0,0,0,.4-.422,2.4,2.4,0,0,0,.283-.431.868.868,0,0,0,.108-.381,1.079,1.079,0,0,0-.118-.519,1.1,1.1,0,0,0-.3-.36,1.243,1.243,0,0,0-.4-.206,1.493,1.493,0,0,0-.428-.066,1.234,1.234,0,0,0-.546.143,2.751,2.751,0,0,0-.578.4,4.549,4.549,0,0,0-.553.581,4.674,4.674,0,0,0-.468.7,4.146,4.146,0,0,0-.323.772,2.651,2.651,0,0,0-.119.766,1.792,1.792,0,0,0,.473,1.214,1.747,1.747,0,0,0,.575.411,1.905,1.905,0,0,0,.786.154,1.28,1.28,0,0,0,.676-.216,3.676,3.676,0,0,0,.664-.54,5.489,5.489,0,0,0,.587-.7q.269-.381.454-.705a3.16,3.16,0,0,0,.258-.54c.048-.143.044-.215-.01-.215m-1.3-1.532c.034,0,.038.036.01.107a1.6,1.6,0,0,1-.144.273,4.062,4.062,0,0,1-.268.37,3.778,3.778,0,0,1-.361.39,3.164,3.164,0,0,1-.417.334,1.53,1.53,0,0,1-.449.211,5,5,0,0,1,.392-.653,4.775,4.775,0,0,1,.438-.534,2.343,2.343,0,0,1,.433-.366.719.719,0,0,1,.366-.133m7.712-.679a.831.831,0,0,0-.463.169,3.374,3.374,0,0,0-.521.457,8.46,8.46,0,0,0-.557.657q-.284.37-.556.769c-.183.267-.357.531-.526.795s-.321.507-.458.733q.185-.464.458-1.044t.583-1.214q.311-.633.639-1.286t.624-1.26q.294-.607.547-1.146c.168-.36.3-.673.406-.937a3.614,3.614,0,0,0,.2-.628c.027-.154,0-.231-.083-.231a.821.821,0,0,0-.485.3,6.651,6.651,0,0,0-.66.8q-.361.5-.757,1.152T380.03,895q-.382.71-.732,1.424t-.619,1.348q-.268.633-.423,1.126a2.789,2.789,0,0,0-.155.752.862.862,0,0,0,.093.39,1.4,1.4,0,0,0,.227.329,1.137,1.137,0,0,0,.294.231.612.612,0,0,0,.294.088h.01c.048-.006.126-.076.232-.205s.23-.3.371-.5.3-.439.464-.7.338-.526.51-.8.343-.535.516-.793.33-.486.475-.689a5.355,5.355,0,0,1,.386-.489c.114-.123.2-.185.263-.185s.065.09.031.268a4.747,4.747,0,0,1-.191.663q-.139.4-.345.864a7.213,7.213,0,0,1-.448.864,4.021,4.021,0,0,1-.494.664.7.7,0,0,1-.48.267.1.1,0,0,1-.077-.031c-.017-.021-.032-.042-.047-.062l-.041-.062a.081.081,0,0,0-.073-.031c-.068,0-.1.05-.1.149a.6.6,0,0,0,.124.33,1.192,1.192,0,0,0,.365.328,1.148,1.148,0,0,0,.614.149.68.68,0,0,0,.433-.216,3.24,3.24,0,0,0,.479-.569,6.682,6.682,0,0,0,.464-.8q.222-.446.4-.9a7.122,7.122,0,0,0,.278-.883,3.2,3.2,0,0,0,.1-.745,1.218,1.218,0,0,0-.206-.734.7.7,0,0,0-.6-.282m7.557,2.211c-.055,0-.144.056-.268.169s-.27.256-.438.427l-.547.561q-.293.3-.583.56a4.021,4.021,0,0,1-.562.426.945.945,0,0,1-.478.17.264.264,0,0,1-.3-.3,1.9,1.9,0,0,1,.145-.658q.144-.38.319-.751c.117-.246.224-.47.319-.668a1.19,1.19,0,0,0,.145-.411.238.238,0,0,0-.093-.216.361.361,0,0,0-.206-.063.778.778,0,0,0-.469.217,5.879,5.879,0,0,0-.562.535q-.3.319-.608.7t-.593.7a6.09,6.09,0,0,1-.531.534.705.705,0,0,1-.412.216q-.144,0-.093-.274a3.085,3.085,0,0,1,.243-.685,7.7,7.7,0,0,1,.5-.893,6.415,6.415,0,0,1,.68-.892,4.04,4.04,0,0,1,.8-.686,1.569,1.569,0,0,1,.851-.273.467.467,0,0,1,.3.089.777.777,0,0,1,.17.194c.04.07.075.135.1.194s.062.089.1.089c.1,0,.163-.064.181-.191a.613.613,0,0,0-.135-.422,1.412,1.412,0,0,0-.526-.421,2.149,2.149,0,0,0-.985-.191,1.725,1.725,0,0,0-.773.2,3.671,3.671,0,0,0-.758.512,5.358,5.358,0,0,0-.685.725,6.354,6.354,0,0,0-.557.826,4.992,4.992,0,0,0-.376.821,2.185,2.185,0,0,0-.14.709,1.9,1.9,0,0,0,.088.615,1.179,1.179,0,0,0,.237.421.871.871,0,0,0,.346.236,1.164,1.164,0,0,0,.4.072.811.811,0,0,0,.345-.092,2.531,2.531,0,0,0,.4-.252,4.6,4.6,0,0,0,.427-.37q.217-.212.433-.448a1.42,1.42,0,0,0,.159.426,1.4,1.4,0,0,0,.31.375,1.477,1.477,0,0,0,.449.262,1.627,1.627,0,0,0,.577.1,1.307,1.307,0,0,0,.68-.215,3.591,3.591,0,0,0,.67-.54,5.542,5.542,0,0,0,.588-.7q.268-.381.454-.705a3.2,3.2,0,0,0,.258-.54c.048-.143.044-.215-.011-.215m5.867,0c-.056,0-.145.056-.269.169s-.27.256-.438.427-.351.359-.547.561-.392.388-.587.56a4.6,4.6,0,0,1-.562.426.928.928,0,0,1-.474.17.274.274,0,0,1-.31-.309,2.333,2.333,0,0,1,.181-.709q.18-.484.47-1.116t.644-1.368q.356-.735.716-1.46t.691-1.4q.331-.674.552-1.193a5.973,5.973,0,0,0,.3-.827c.051-.206.033-.309-.057-.309q-.216,0-.613.416a10.068,10.068,0,0,0-.871,1.086q-.473.67-.974,1.5t-.912,1.652a.838.838,0,0,0-.377-.359,1.285,1.285,0,0,0-.583-.127,1.721,1.721,0,0,0-.772.2,3.655,3.655,0,0,0-.758.513,5.321,5.321,0,0,0-.686.724,6.411,6.411,0,0,0-.557.827,5.142,5.142,0,0,0-.376.821,2.194,2.194,0,0,0-.139.709,1.9,1.9,0,0,0,.087.615,1.183,1.183,0,0,0,.237.421.869.869,0,0,0,.345.237,1.174,1.174,0,0,0,.4.072.951.951,0,0,0,.485-.164,3.518,3.518,0,0,0,.551-.428q.284-.261.572-.58t.546-.638v.031a2.133,2.133,0,0,0,.113.715,1.751,1.751,0,0,0,.315.561,1.5,1.5,0,0,0,.459.37,1.186,1.186,0,0,0,.557.134,1.3,1.3,0,0,0,.68-.216,3.583,3.583,0,0,0,.67-.54,5.631,5.631,0,0,0,.587-.7q.268-.381.454-.705a3.191,3.191,0,0,0,.257-.54q.072-.215-.01-.215m-6.217,2.15q-.144,0-.072-.274a3.932,3.932,0,0,1,.273-.685,8.793,8.793,0,0,1,.511-.893,9.669,9.669,0,0,1,.649-.892,4.82,4.82,0,0,1,.68-.686,1.025,1.025,0,0,1,.609-.273.22.22,0,0,1,.211.139.355.355,0,0,1-.015.315v.01c-.014.028-.035.075-.063.144q-.113.216-.319.532t-.459.66q-.253.345-.537.685c-.189.228-.373.43-.551.609a3.981,3.981,0,0,1-.511.438.768.768,0,0,1-.408.17m12.125-2.15c-.056,0-.146.056-.268.169s-.27.256-.439.427-.35.359-.546.561-.391.388-.583.56a4.121,4.121,0,0,1-.562.426.951.951,0,0,1-.48.17.269.269,0,0,1-.3-.308,2.048,2.048,0,0,1,.17-.726q.17-.425.382-.9t.412-.936a3.828,3.828,0,0,0,.268-.834.848.848,0,0,0-.072-.6.639.639,0,0,0-.592-.231.665.665,0,0,0-.413.221,5.2,5.2,0,0,0-.515.571c-.186.232-.378.5-.578.792s-.4.59-.592.885-.383.577-.562.848-.339.5-.484.685a9.142,9.142,0,0,1,.366-1.143q.242-.628.545-1.3t.645-1.358q.341-.684.66-1.317t.592-1.188q.273-.555.444-.967a3.231,3.231,0,0,0,.211-.648c.028-.158-.006-.236-.1-.236q-.216,0-.629.432a10.322,10.322,0,0,0-.912,1.135q-.5.705-1.021,1.585t-.948,1.779a14.962,14.962,0,0,0-.7,1.723,4.611,4.611,0,0,0-.273,1.408,1.321,1.321,0,0,0,.068.4,1.5,1.5,0,0,0,.19.4,1.139,1.139,0,0,0,.3.308.654.654,0,0,0,.391.124c.1,0,.229-.082.376-.246a6.86,6.86,0,0,0,.5-.638c.182-.259.373-.552.573-.874s.4-.641.607-.957a5,5,0,0,0-.2.648,2.746,2.746,0,0,0-.072.6,1.388,1.388,0,0,0,.485,1.09,1.558,1.558,0,0,0,.49.283,1.608,1.608,0,0,0,.541.1,1.284,1.284,0,0,0,.676-.215,3.777,3.777,0,0,0,.666-.54,5.77,5.77,0,0,0,.587-.7c.178-.254.33-.488.453-.705a3.157,3.157,0,0,0,.258-.54c.048-.143.044-.215-.01-.215m5.639,0c-.055,0-.144.056-.268.169s-.27.256-.438.427l-.546.561q-.293.3-.582.56a4.053,4.053,0,0,1-.562.426.948.948,0,0,1-.479.17.264.264,0,0,1-.3-.3,1.9,1.9,0,0,1,.145-.658q.144-.38.319-.751c.117-.246.224-.47.319-.668a1.189,1.189,0,0,0,.145-.411.237.237,0,0,0-.093-.216.362.362,0,0,0-.206-.063.781.781,0,0,0-.47.217,5.948,5.948,0,0,0-.562.535q-.3.319-.609.7t-.592.7a6.26,6.26,0,0,1-.531.534.708.708,0,0,1-.413.216q-.144,0-.093-.274a3.092,3.092,0,0,1,.243-.685,7.69,7.69,0,0,1,.494-.893,6.423,6.423,0,0,1,.681-.892,4.013,4.013,0,0,1,.8-.686,1.569,1.569,0,0,1,.85-.273.468.468,0,0,1,.3.089.732.732,0,0,1,.17.194c.042.07.076.135.1.194s.062.089.1.089c.1,0,.163-.064.18-.191a.609.609,0,0,0-.134-.422,1.407,1.407,0,0,0-.526-.421,2.15,2.15,0,0,0-.985-.191,1.728,1.728,0,0,0-.773.2,3.641,3.641,0,0,0-.758.512,5.291,5.291,0,0,0-.686.725,6.391,6.391,0,0,0-.557.826,5.079,5.079,0,0,0-.376.821,2.195,2.195,0,0,0-.139.709,1.9,1.9,0,0,0,.088.615,1.165,1.165,0,0,0,.237.421.867.867,0,0,0,.346.236,1.169,1.169,0,0,0,.4.072.811.811,0,0,0,.345-.092,2.508,2.508,0,0,0,.4-.252,4.672,4.672,0,0,0,.428-.37c.144-.141.289-.29.433-.448a1.433,1.433,0,0,0,.469.8,1.479,1.479,0,0,0,.449.262,1.629,1.629,0,0,0,.577.1,1.306,1.306,0,0,0,.681-.215,3.629,3.629,0,0,0,.67-.54,5.582,5.582,0,0,0,.589-.7q.268-.381.453-.705a3.1,3.1,0,0,0,.257-.54c.049-.143.045-.215-.01-.215m3.021,0c-.055,0-.144.056-.269.169s-.27.256-.438.427-.351.359-.546.561-.39.388-.583.56a4.1,4.1,0,0,1-.562.427.953.953,0,0,1-.479.17.561.561,0,0,1-.366-.113.492.492,0,0,1-.139-.4,2.545,2.545,0,0,1,.051-.5,4.107,4.107,0,0,1,.144-.525,1.091,1.091,0,0,0,.216.088.962.962,0,0,0,.268.036.993.993,0,0,0,.387-.1,2.444,2.444,0,0,0,.449-.263,4.755,4.755,0,0,0,.449-.37,3.981,3.981,0,0,0,.4-.422,2.376,2.376,0,0,0,.284-.431.875.875,0,0,0,.108-.381,1.079,1.079,0,0,0-.118-.519,1.1,1.1,0,0,0-.3-.36,1.254,1.254,0,0,0-.4-.206,1.494,1.494,0,0,0-.428-.066,1.237,1.237,0,0,0-.546.143,2.751,2.751,0,0,0-.578.4,4.721,4.721,0,0,0-1.021,1.285,4.186,4.186,0,0,0-.323.772,2.637,2.637,0,0,0-.12.766,1.8,1.8,0,0,0,.474,1.214,1.745,1.745,0,0,0,.576.411,1.9,1.9,0,0,0,.785.154,1.274,1.274,0,0,0,.675-.216,3.642,3.642,0,0,0,.665-.54,5.522,5.522,0,0,0,.587-.7q.268-.381.455-.705a3.146,3.146,0,0,0,.257-.54c.048-.143.044-.215-.01-.215m-1.3-1.532c.034,0,.038.036.01.107a1.673,1.673,0,0,1-.144.273,4.267,4.267,0,0,1-.268.37,3.917,3.917,0,0,1-.362.39,3.166,3.166,0,0,1-.417.334,1.522,1.522,0,0,1-.449.211,4.89,4.89,0,0,1,.392-.653,4.658,4.658,0,0,1,.438-.534,2.341,2.341,0,0,1,.433-.366.719.719,0,0,1,.366-.133m4.65,1.532c-.055,0-.144.057-.268.17s-.27.256-.439.427l-.546.555q-.293.3-.587.555a4.538,4.538,0,0,1-.562.428.922.922,0,0,1-.474.17.269.269,0,0,1-.309-.3,2.5,2.5,0,0,1,.1-.674,6.6,6.6,0,0,1,.258-.735c.1-.247.214-.489.33-.725s.227-.453.33-.648.189-.361.258-.5a.816.816,0,0,0,.1-.278.421.421,0,0,0-.077-.231.994.994,0,0,0-.2-.221,1.168,1.168,0,0,0-.263-.164.652.652,0,0,0-.263-.061c-.042,0-.107.058-.2.175a5.1,5.1,0,0,0-.3.457q-.17.284-.356.649t-.34.745a6.138,6.138,0,0,0-.253.752,2.59,2.59,0,0,0-.1.658,2.731,2.731,0,0,0,.071.617,1.59,1.59,0,0,0,.243.551,1.235,1.235,0,0,0,.464.39,1.621,1.621,0,0,0,.737.149,1.275,1.275,0,0,0,.676-.216,3.658,3.658,0,0,0,.664-.54,5.975,5.975,0,0,0,.593-.7,6.857,6.857,0,0,0,.454-.7,3.916,3.916,0,0,0,.258-.54c.051-.143.049-.216-.005-.216m-1.608-2.736a.523.523,0,0,0,.495.021.939.939,0,0,0,.454-.411.991.991,0,0,0,.149-.592.515.515,0,0,0-.252-.427.525.525,0,0,0-.5-.021.934.934,0,0,0-.453.411.953.953,0,0,0-.145.592.536.536,0,0,0,.248.426m7.124,2.736c-.055,0-.144.056-.268.169s-.269.256-.438.427l-.546.561q-.293.3-.583.56a4.085,4.085,0,0,1-.562.426.948.948,0,0,1-.479.17.268.268,0,0,1-.3-.308,2.146,2.146,0,0,1,.159-.726q.16-.425.361-.9l.4-.936a3.806,3.806,0,0,0,.258-.834.939.939,0,0,0-.062-.6c-.082-.155-.265-.231-.546-.231a.739.739,0,0,0-.454.205,3.946,3.946,0,0,0-.52.54,9.17,9.17,0,0,0-.557.761q-.285.426-.562.858c-.185.288-.363.565-.531.833s-.322.5-.459.7q.114-.391.289-.839t.346-.879c.114-.288.214-.565.3-.828a4.774,4.774,0,0,0,.186-.694.947.947,0,0,0-.016-.478.288.288,0,0,0-.3-.18c-.076,0-.177.075-.3.226a5.106,5.106,0,0,0-.413.581c-.148.236-.3.5-.449.8s-.289.588-.412.88a7.607,7.607,0,0,0-.3.818,2.264,2.264,0,0,0-.114.606,1.34,1.34,0,0,0,.068.4,1.507,1.507,0,0,0,.191.4,1.152,1.152,0,0,0,.3.308.659.659,0,0,0,.392.124q.155,0,.376-.246a6.768,6.768,0,0,0,.5-.638c.182-.259.372-.552.571-.874s.4-.641.609-.957a4.918,4.918,0,0,0-.2.648,2.713,2.713,0,0,0-.072.6,1.381,1.381,0,0,0,.484,1.09,1.551,1.551,0,0,0,.49.283,1.609,1.609,0,0,0,.541.1,1.283,1.283,0,0,0,.676-.215,3.71,3.71,0,0,0,.664-.54,5.582,5.582,0,0,0,.588-.7q.268-.381.453-.705a3.156,3.156,0,0,0,.258-.54c.048-.143.045-.215-.011-.215" transform="translate(-23.012 -32.234)" fill="#585756"/>
    <g id="Group_5" data-name="Group 5" transform="translate(253.092 820.841)">
      <g id="Group_4" data-name="Group 4" transform="translate(1.762)">
        <g id="Group_2" data-name="Group 2">
          <path id="Path_33" data-name="Path 33" d="M256.36,820.841v14.63a13.232,13.232,0,0,0,13.31,12.891H284.6v-27.52Z" transform="translate(-256.36 -820.841)" fill="#a51d39" fill-rule="evenodd"/>
          <g id="Group_1" data-name="Group 1" transform="translate(3.235 3.239)">
            <path id="Path_34" data-name="Path 34" d="M278.647,839.9a4.527,4.527,0,1,0,0-9.053,4.527,4.527,0,0,0,0,9.053Zm.4-7.57a.568.568,0,1,1,.32.835A.64.64,0,0,1,279.05,832.333Zm-1.722,5.711s1.138-3.3,1.138-3.356a.118.118,0,0,0-.12-.121.5.5,0,0,0-.3.121,2.778,2.778,0,0,0-.361.3l-.177.18-.18-.241a8.328,8.328,0,0,1,1.138-1.021,1.835,1.835,0,0,1,.84-.357c.119,0,.24.061.24.182a1.764,1.764,0,0,1-.121.6c-.119.3-.9,2.7-1.017,3.057a2.826,2.826,0,0,0-.181.721c0,.057,0,.117.12.117a2,2,0,0,0,.779-.479l.195-.162.225.283a8.645,8.645,0,0,1-1.138.9,1.868,1.868,0,0,1-.9.419.367.367,0,0,1-.361-.362A2.628,2.628,0,0,1,277.328,838.044Z" transform="translate(-267.793 -828.692)" fill="#fbc311"/>
            <path id="Path_35" data-name="Path 35" d="M278.49,826.849V833.8a5.45,5.45,0,0,1-8.754,3.838c-3.358-2.88-.539-7.255-2.7-10.791H262.36a15.442,15.442,0,0,1,.96,5.094c-.36,4.138.54,6.476,2.218,8.216,3.959,3.955,8.275,3.836,12.951,2.1v6h5.277v-21.4Z" transform="translate(-262.36 -826.849)" fill="#fbc311"/>
          </g>
        </g>
        <g id="Group_3" data-name="Group 3" transform="translate(33.793 4.532)">
          <path id="Path_36" data-name="Path 36" d="M465.834,833.653a2.2,2.2,0,0,1,0-4.407,2.176,2.176,0,0,1,2.2,2.2,2.215,2.215,0,0,1-2.2,2.2m-62.16,14.183h3.907l.462-11.751,3.963,6.975h2.116L417.867,836l.515,11.832h4.1l-.842-18.1h-3.907l-4.613,8.493-4.723-8.493h-3.88Zm31.453-3.853a8.579,8.579,0,0,1-1.384.773,5.832,5.832,0,0,1-2.469.448,3.569,3.569,0,0,1-2.429-.773,2.437,2.437,0,0,1-.91-1.806H437v-.65a10.1,10.1,0,0,0-.407-2.945,6.514,6.514,0,0,0-1.207-2.307,5.569,5.569,0,0,0-1.969-1.505,6.355,6.355,0,0,0-2.714-.543,6.61,6.61,0,0,0-2.769.555,6.278,6.278,0,0,0-2.062,1.479,6.383,6.383,0,0,0-1.289,2.158,7.449,7.449,0,0,0-.448,2.564,7.832,7.832,0,0,0,.475,2.782A5.9,5.9,0,0,0,426,846.37a6.364,6.364,0,0,0,2.211,1.4,8.131,8.131,0,0,0,2.932.5,9.221,9.221,0,0,0,2.171-.232,10.107,10.107,0,0,0,1.642-.531,6.1,6.1,0,0,0,1.126-.609q.435-.312.652-.448Zm-7.192-3.855a2.125,2.125,0,0,1,.177-.828,2.523,2.523,0,0,1,.515-.774,2.723,2.723,0,0,1,.855-.583,2.918,2.918,0,0,1,1.194-.231,2.72,2.72,0,0,1,1.166.231,2.632,2.632,0,0,1,.815.583,2.414,2.414,0,0,1,.488.774,2.268,2.268,0,0,1,.164.828Zm22.324,7.708h11.908v-3.352h-7.809V829.735h-4.1Zm13.621,0h3.908V835.107H463.88Zm17.175-17.259a5.114,5.114,0,0,0-1.927-1.033,7.717,7.717,0,0,0-2.09-.3,6.02,6.02,0,0,0-1.913.313,4.841,4.841,0,0,0-1.669.949,4.685,4.685,0,0,0-1.181,1.615,5.569,5.569,0,0,0-.447,2.334v.65h-2.062v3.068h2.062v9.661h3.88v-9.661h3.012v-3.068h-3.012v-.7a2.048,2.048,0,0,1,.489-1.465,1.711,1.711,0,0,1,1.3-.516,3.176,3.176,0,0,1,1,.162,3.283,3.283,0,0,1,.895.462Zm-33.832,13.867a5.28,5.28,0,0,1-.815.475,2.412,2.412,0,0,1-1.031.2,1.336,1.336,0,0,1-1.153-.5,2.391,2.391,0,0,1-.366-1.426v-5.02h3.283v-3.068h-3.283V831.7h-3.908v3.411h-2.015v3.068h2.015v4.8a8.958,8.958,0,0,0,.244,2.171,4.19,4.19,0,0,0,.813,1.668A3.848,3.848,0,0,0,442.5,847.9a5.826,5.826,0,0,0,2.28.393,6.324,6.324,0,0,0,4.017-1.465Zm43.254-.461a8.664,8.664,0,0,1-1.384.773,5.834,5.834,0,0,1-2.469.448,3.563,3.563,0,0,1-2.429-.773,2.434,2.434,0,0,1-.91-1.806h9.064v-.65a10.08,10.08,0,0,0-.406-2.945,6.476,6.476,0,0,0-1.209-2.307,5.544,5.544,0,0,0-1.967-1.505,6.359,6.359,0,0,0-2.714-.543,6.6,6.6,0,0,0-2.768.555,6.241,6.241,0,0,0-2.061,1.479,6.383,6.383,0,0,0-1.289,2.158,7.436,7.436,0,0,0-.449,2.564,7.857,7.857,0,0,0,.475,2.782,5.9,5.9,0,0,0,1.384,2.157,6.368,6.368,0,0,0,2.212,1.4,8.126,8.126,0,0,0,2.931.5,9.2,9.2,0,0,0,2.17-.232,10.063,10.063,0,0,0,1.642-.531,6.085,6.085,0,0,0,1.126-.609c.289-.208.507-.357.651-.448Zm-7.192-3.855a2.133,2.133,0,0,1,.176-.828,2.528,2.528,0,0,1,.517-.774,2.694,2.694,0,0,1,.856-.583,2.913,2.913,0,0,1,1.193-.231,2.731,2.731,0,0,1,1.167.231,2.648,2.648,0,0,1,.815.583,2.443,2.443,0,0,1,.488.774,2.273,2.273,0,0,1,.161.828Z" transform="translate(-357.762 -829.246)" fill="#1d1d1b"/>
          <path id="Path_37" data-name="Path 37" d="M345.817,830h4.051v11.424s-.053,2.083,1.181,2.927a2.583,2.583,0,0,0,1.183.451,3.006,3.006,0,0,0,1.069-.17,2.391,2.391,0,0,0,1.519-1.518,3.061,3.061,0,0,0,.057-2.082,2.765,2.765,0,0,0-1.745-1.577,3.769,3.769,0,0,0-2.307.169v-4a7.036,7.036,0,0,1,5.009.451,6.283,6.283,0,0,1,3.151,4.221,6.173,6.173,0,0,1,.169,2.025,6.635,6.635,0,0,1-4.446,6.193,7.529,7.529,0,0,1-5.348-.395,6.091,6.091,0,0,1-3.037-3.039,7.777,7.777,0,0,1-.451-2.475c-.056-.845-.112-1.8-.112-2.419,0-3.718.056-10.188.056-10.188m-27.3,23.3h4.334V841.816a3.792,3.792,0,0,1,1.238-2.925,2.655,2.655,0,0,1,1.24-.393,2.387,2.387,0,0,1,1.124.111,2.89,2.89,0,0,1,1.632,1.519,3.109,3.109,0,0,1,.056,2.082,3.03,3.03,0,0,1-1.856,1.633,5.346,5.346,0,0,1-2.42-.17v4a7.8,7.8,0,0,0,5.29-.449A6.666,6.666,0,0,0,332.48,843a6.345,6.345,0,0,0,.168-2.026,6.639,6.639,0,0,0-4.672-6.191,7.922,7.922,0,0,0-5.626.394,5.457,5.457,0,0,0-3.21,2.982,7.726,7.726,0,0,0-.563,2.476c-.056.9-.056,1.8-.056,2.419V853.3m19.247-5.572v-7.483s-.111-1.632,1.351-1.632,1.406,1.914,1.406,1.914v7.258h4.222s-.057-6.7,0-7.258a8.33,8.33,0,0,0-.844-3.546,5.818,5.818,0,0,0-6.7-2.195c-3.548,1.011-3.6,5.233-3.6,5.233v7.765Z" transform="translate(-318.522 -829.593)" fill="#a51d39" fill-rule="evenodd"/>
        </g>
      </g>
      <path id="Path_38" data-name="Path 38" d="M253.092,864.463s2.08,6.4,11.288,7.354H423.235v2.795H264.154a3.219,3.219,0,0,1-.332-.018c-1.419-.153-10.457-1.458-10.731-10.131" transform="translate(-253.092 -840.943)" fill="#fbc311"/>
    </g>
  </g>
</svg>
