<?xml version="1.0" encoding="utf-8"?>
<!-- Generator: Adobe Illustrator 19.0.0, SVG Export Plug-In . SVG Version: 6.00 Build 0)  -->
<svg version="1.1" id="Layer_1" xmlns="http://www.w3.org/2000/svg" xmlns:xlink="http://www.w3.org/1999/xlink" x="0px" y="0px"
	 viewBox="0 0 314.5 96.8" style="enable-background:new 0 0 314.5 96.8;" xml:space="preserve">
<style type="text/css">
	.st0{fill:#595857;}
	.st1{fill:#1D1D1B;}
	.st2{fill-rule:evenodd;clip-rule:evenodd;fill:#A51D3A;}
	.st3{fill-rule:evenodd;clip-rule:evenodd;fill:#FAC317;}
	.st4{fill:#A51D3A;}
	.st5{fill:#FAC317;}
</style>
<path id="XMLID_103_" class="st0" d="M73.6,89.9c0.1,0,0.1,0,0.1,0.1c0,0.1,0,0.2-0.1,0.3c-0.1,0.1-0.1,0.2-0.2,0.3
	c-0.1,0.1-0.2,0.1-0.3,0.1c-0.2,0-0.3-0.1-0.5-0.2c-0.2-0.1-0.4-0.3-0.5-0.6c-0.2-0.3-0.3-0.6-0.4-0.9c-0.1-0.3-0.2-0.7-0.2-1.2
	c0-0.6,0.1-1.4,0.4-2.3c0.3-0.9,0.7-2,1.2-3.1c0.5-1.1,1-2.3,1.6-3.5c0.6-1.2,1.2-2.4,1.8-3.5c-0.5,0.6-1,1.2-1.5,1.9
	c-0.6,0.7-1.1,1.4-1.7,2.1c-0.6,0.7-1.1,1.4-1.7,2.1C71,82.4,70.5,83,70,83.6c-0.5,0.5-0.8,1-1.2,1.4c-0.3,0.4-0.5,0.6-0.6,0.6
	c0,0,0,0,0,0c0,0,0,0,0,0c-0.1,0-0.3-0.1-0.5-0.2c-0.2-0.1-0.4-0.3-0.6-0.5c-0.2-0.2-0.3-0.5-0.5-0.8c-0.1-0.3-0.2-0.6-0.2-1
	c0-0.4,0-0.8,0.1-1.3c0.1-0.5,0.2-1,0.3-1.6c0.1-0.6,0.3-1.1,0.4-1.7c0.1-0.6,0.3-1.2,0.5-1.8c-0.6,1-1.2,2.1-1.8,3.2
	c-0.7,1.1-1.4,2.2-2.1,3.2c-0.7,1-1.5,2-2.2,2.9c-0.7,0.9-1.5,1.7-2.2,2.4c-0.7,0.7-1.4,1.2-2.1,1.6c-0.7,0.4-1.3,0.6-1.8,0.6
	c-0.5,0-0.9-0.1-1.3-0.2c-0.4-0.2-0.7-0.3-0.9-0.6c-0.2-0.2-0.4-0.5-0.5-0.7c-0.1-0.3-0.1-0.5-0.1-0.7c0-0.2,0.1-0.4,0.2-0.5
	c0.1-0.2,0.3-0.2,0.6-0.2c0.1,0,0.1,0.1,0.1,0.2c0,0.1,0,0.3,0,0.4c0,0.2,0,0.3,0,0.4c0,0.1,0.1,0.2,0.2,0.2c0.8,0,1.6-0.3,2.5-0.9
	c0.9-0.6,1.8-1.3,2.6-2.3c0.9-0.9,1.8-2,2.6-3.2c0.9-1.2,1.7-2.4,2.5-3.7c0.8-1.3,1.5-2.5,2.2-3.7c0.7-1.2,1.3-2.3,1.8-3.2
	c0.5-0.9,0.9-1.7,1.3-2.3c0.3-0.6,0.5-0.9,0.6-0.9h0c0,0,0,0,0.1,0c0,0,0,0,0.1,0c0.1,0,0.3,0.1,0.5,0.2c0.2,0.1,0.3,0.3,0.5,0.4
	c0.1,0.2,0.3,0.3,0.4,0.5c0.1,0.2,0.1,0.4,0.1,0.5c0,0.1-0.1,0.4-0.2,0.9c-0.1,0.5-0.2,1-0.4,1.7c-0.2,0.7-0.4,1.4-0.6,2.2
	c-0.2,0.8-0.4,1.6-0.6,2.5c-0.2,0.8-0.4,1.7-0.6,2.5c-0.2,0.8-0.4,1.6-0.5,2.3c0.3-0.4,0.8-1,1.3-1.6c0.5-0.6,1.1-1.3,1.7-2
	c0.6-0.7,1.2-1.5,1.9-2.3c0.7-0.8,1.3-1.5,1.9-2.3c0.6-0.7,1.2-1.5,1.8-2.1c0.6-0.7,1.1-1.3,1.6-1.8c0.5-0.5,0.8-0.9,1.1-1.2
	c0.3-0.3,0.5-0.4,0.5-0.4c0.2,0,0.3,0.2,0.5,0.5c0.1,0.3,0.2,0.7,0.2,1.2c0,0.1-0.1,0.4-0.4,0.9c-0.2,0.5-0.5,1.1-0.9,1.9
	c-0.4,0.8-0.8,1.6-1.3,2.6c-0.5,1-1,2-1.5,3c-0.5,1-1,2.1-1.5,3.1c-0.5,1.1-0.9,2.1-1.3,3c-0.4,0.9-0.7,1.8-0.9,2.6
	c-0.2,0.8-0.4,1.4-0.4,1.9c0,0.1,0,0.2,0.1,0.2c0,0,0.1,0,0.2,0c0.1,0,0.1,0,0.2,0C73.6,89.9,73.6,89.9,73.6,89.9"/>
<path class="st0" d="M84.1,82.3c0.1,0,0.1,0.1,0,0.4c-0.1,0.3-0.2,0.6-0.5,1c-0.2,0.4-0.5,0.8-0.8,1.3c-0.3,0.5-0.7,0.9-1.1,1.3
	c-0.4,0.4-0.8,0.7-1.2,1c-0.4,0.3-0.8,0.4-1.2,0.4c-0.5,0-1-0.1-1.3-0.3c-0.4-0.2-0.6-0.4-0.8-0.7c-0.2-0.3-0.4-0.6-0.4-1
	c-0.1-0.4-0.1-0.7-0.1-1.1c0-0.3,0.1-0.7,0.2-1.2c0.1-0.4,0.3-0.9,0.5-1.4c0.2-0.5,0.4-0.9,0.6-1.3c0.2-0.4,0.4-0.8,0.6-1.2
	c0.2-0.3,0.4-0.6,0.5-0.8c0.2-0.2,0.3-0.3,0.4-0.3c0.1,0,0.3,0,0.5,0.1c0.2,0.1,0.3,0.2,0.5,0.3c0.1,0.1,0.3,0.3,0.4,0.4
	c0.1,0.1,0.1,0.3,0.1,0.4c0,0.1-0.1,0.3-0.2,0.5c-0.1,0.2-0.3,0.5-0.5,0.9c-0.2,0.4-0.4,0.7-0.6,1.2c-0.2,0.4-0.4,0.9-0.6,1.3
	c-0.2,0.4-0.3,0.9-0.5,1.3c-0.1,0.4-0.2,0.8-0.2,1.2c0,0.4,0.2,0.5,0.6,0.5c0.2,0,0.5-0.1,0.9-0.3c0.3-0.2,0.7-0.5,1-0.8
	c0.4-0.3,0.7-0.6,1.1-1c0.4-0.4,0.7-0.7,1-1c0.3-0.3,0.6-0.6,0.8-0.8C83.9,82.4,84,82.3,84.1,82.3 M81.2,77.3
	c-0.3-0.2-0.4-0.4-0.4-0.8c0-0.4,0-0.7,0.3-1.1c0.2-0.4,0.5-0.6,0.8-0.7c0.3-0.1,0.6-0.1,0.9,0c0.3,0.2,0.4,0.4,0.5,0.8
	c0,0.4-0.1,0.7-0.3,1.1c-0.2,0.4-0.5,0.6-0.8,0.7C81.8,77.5,81.5,77.5,81.2,77.3"/>
<path id="XMLID_100_" class="st0" d="M89,82.3c0.1,0,0.1,0.1,0,0.4c-0.1,0.3-0.2,0.6-0.5,1c-0.2,0.4-0.5,0.8-0.8,1.3
	c-0.3,0.5-0.7,0.9-1.1,1.3c-0.4,0.4-0.8,0.7-1.2,1c-0.4,0.3-0.8,0.4-1.2,0.4c-0.4,0-0.7-0.1-1-0.2c-0.3-0.2-0.6-0.4-0.8-0.7
	c-0.2-0.3-0.4-0.6-0.6-1c-0.1-0.4-0.2-0.8-0.2-1.3c0-0.4,0.1-0.9,0.3-1.5c0.2-0.6,0.4-1.2,0.7-2c0.3-0.7,0.7-1.5,1.1-2.2
	c0.4-0.8,0.8-1.5,1.3-2.3c0.4-0.8,0.9-1.5,1.3-2.2c0.5-0.7,0.9-1.3,1.3-1.8c0.4-0.5,0.8-0.9,1.1-1.2c0.3-0.3,0.6-0.5,0.8-0.5
	c0.2,0,0.2,0.2,0.1,0.6c-0.1,0.4-0.3,0.9-0.5,1.5c-0.3,0.6-0.6,1.3-1,2.2c-0.4,0.8-0.8,1.7-1.2,2.5c-0.4,0.9-0.9,1.8-1.3,2.6
	c-0.4,0.9-0.8,1.7-1.2,2.5c-0.3,0.8-0.6,1.4-0.8,2c-0.2,0.6-0.3,1-0.3,1.3c0,0.4,0.2,0.5,0.5,0.5c0.2,0,0.5-0.1,0.9-0.3
	c0.3-0.2,0.7-0.5,1-0.8c0.4-0.3,0.7-0.6,1.1-1c0.4-0.4,0.7-0.7,1-1c0.3-0.3,0.6-0.6,0.8-0.8C88.7,82.4,88.9,82.3,89,82.3"/>
<path id="XMLID_99_" class="st0" d="M97.4,82.3c0.1,0,0.1,0.1,0,0.4c-0.1,0.3-0.2,0.6-0.4,1c-0.2,0.4-0.4,0.8-0.7,1.3
	c-0.3,0.5-0.6,0.9-1,1.3c-0.4,0.4-0.7,0.7-1.1,1c-0.4,0.3-0.8,0.4-1.2,0.4c-0.8,0-1.5-0.3-2.1-0.9c-0.6-0.6-1-1.4-1.2-2.5
	c-0.3,0.5-0.6,0.9-0.7,1.3c-0.2,0.4-0.3,0.8-0.3,1.2c0,0.3,0,0.5,0,0.6c0,0.2-0.1,0.3-0.3,0.3c-0.2,0-0.4-0.1-0.6-0.2
	c-0.2-0.1-0.4-0.3-0.5-0.5c-0.1-0.2-0.3-0.4-0.3-0.7c-0.1-0.2-0.1-0.5-0.1-0.8c0-0.5,0.1-1.2,0.3-1.9c0.2-0.7,0.4-1.5,0.8-2.2
	c0.3-0.8,0.7-1.6,1.1-2.4c0.4-0.8,0.9-1.6,1.3-2.4c0.5-0.8,0.9-1.5,1.4-2.2c0.5-0.7,0.9-1.3,1.3-1.8c0.4-0.5,0.8-0.9,1.1-1.2
	c0.3-0.3,0.6-0.5,0.8-0.5c0.1,0,0.2,0.1,0.1,0.4c-0.1,0.3-0.2,0.6-0.4,1.1c-0.2,0.5-0.5,1-0.8,1.6c-0.3,0.6-0.7,1.3-1.1,2
	c-0.4,0.7-0.8,1.5-1.2,2.3c-0.4,0.8-0.8,1.6-1.1,2.4c0.3-0.3,0.6-0.6,0.9-0.9c0.3-0.3,0.6-0.5,0.9-0.8c0.3-0.2,0.6-0.4,0.9-0.5
	c0.3-0.1,0.5-0.2,0.8-0.2c0.3,0,0.6,0.1,0.8,0.3c0.2,0.2,0.4,0.4,0.4,0.7c0.1,0.2,0.1,0.5,0.1,0.7c0,0.2-0.1,0.3-0.2,0.3
	c-0.1,0-0.1,0-0.1-0.1c0,0,0-0.1,0-0.1c0-0.1,0-0.1-0.1-0.1c0,0-0.1-0.1-0.2-0.1c-0.2,0-0.4,0.1-0.7,0.2c-0.3,0.1-0.5,0.3-0.8,0.5
	c-0.3,0.2-0.6,0.5-0.9,0.8c-0.3,0.3-0.6,0.6-1,0.9c0,0.5,0.1,1.1,0.2,1.6c0.1,0.5,0.2,1,0.3,1.4c0.1,0.4,0.3,0.7,0.4,1
	c0.1,0.2,0.3,0.4,0.4,0.4c0.2,0,0.5-0.1,0.8-0.3c0.3-0.2,0.6-0.5,1-0.8c0.3-0.3,0.7-0.6,1-1c0.3-0.4,0.6-0.7,0.9-1
	c0.3-0.3,0.5-0.6,0.7-0.8C97.2,82.4,97.3,82.3,97.4,82.3"/>
<path id="XMLID_98_" class="st0" d="M107.4,82.3c0.1,0,0.1,0.1,0,0.4c-0.1,0.3-0.2,0.6-0.5,1c-0.2,0.4-0.5,0.8-0.8,1.3
	c-0.3,0.5-0.7,0.9-1.1,1.3c-0.4,0.4-0.8,0.7-1.2,1c-0.4,0.3-0.8,0.4-1.2,0.4c-0.4,0-0.7-0.1-1-0.2c-0.3-0.1-0.6-0.3-0.8-0.5
	c-0.2-0.2-0.4-0.4-0.6-0.7c-0.1-0.3-0.2-0.5-0.3-0.8c-0.3,0.3-0.5,0.6-0.8,0.8c-0.3,0.3-0.5,0.5-0.8,0.7c-0.3,0.2-0.5,0.3-0.7,0.5
	c-0.2,0.1-0.4,0.2-0.6,0.2c-0.2,0-0.5,0-0.7-0.1c-0.2-0.1-0.4-0.2-0.6-0.4c-0.2-0.2-0.3-0.4-0.4-0.8c-0.1-0.3-0.2-0.7-0.2-1.1
	c0-0.4,0.1-0.8,0.3-1.3c0.2-0.5,0.4-1,0.7-1.5c0.3-0.5,0.6-1,1-1.5c0.4-0.5,0.8-0.9,1.2-1.3c0.4-0.4,0.9-0.7,1.4-0.9
	c0.5-0.2,0.9-0.4,1.4-0.4c0.7,0,1.3,0.1,1.8,0.3c0.4,0.2,0.8,0.5,0.9,0.8c0.2,0.3,0.3,0.5,0.2,0.8c0,0.2-0.1,0.3-0.3,0.3
	c-0.1,0-0.1-0.1-0.2-0.2c0-0.1-0.1-0.2-0.2-0.3c-0.1-0.1-0.2-0.2-0.3-0.4c-0.1-0.1-0.3-0.2-0.5-0.2c-0.5,0-1,0.2-1.5,0.5
	c-0.5,0.3-1,0.7-1.4,1.2c-0.5,0.5-0.9,1-1.2,1.6c-0.4,0.6-0.7,1.1-0.9,1.6c-0.2,0.5-0.4,0.9-0.4,1.2c-0.1,0.3,0,0.5,0.2,0.5
	c0.2,0,0.4-0.1,0.7-0.4c0.3-0.3,0.6-0.6,1-1c0.3-0.4,0.7-0.8,1.1-1.3c0.4-0.5,0.7-0.9,1.1-1.3c0.4-0.4,0.7-0.7,1-1
	c0.3-0.3,0.6-0.4,0.8-0.4c0.1,0,0.3,0,0.4,0.1c0.1,0.1,0.2,0.2,0.2,0.4c0,0.1-0.1,0.4-0.3,0.7c-0.2,0.4-0.4,0.8-0.6,1.2
	c-0.2,0.4-0.4,0.9-0.6,1.4c-0.2,0.5-0.3,0.9-0.3,1.2c0,0.4,0.2,0.5,0.5,0.5c0.2,0,0.5-0.1,0.9-0.3c0.3-0.2,0.7-0.5,1-0.8
	c0.3-0.3,0.7-0.6,1.1-1c0.4-0.4,0.7-0.7,1-1c0.3-0.3,0.6-0.6,0.8-0.8C107.2,82.4,107.3,82.3,107.4,82.3"/>
<path id="XMLID_97_" class="st0" d="M116.4,82.3c0.1,0,0.1,0.1,0,0.4c-0.1,0.3-0.2,0.6-0.5,1c-0.2,0.4-0.5,0.8-0.8,1.3
	c-0.3,0.5-0.7,0.9-1.1,1.3c-0.4,0.4-0.8,0.7-1.2,1c-0.4,0.3-0.8,0.4-1.2,0.4c-0.3,0-0.6-0.1-1-0.2c-0.3-0.1-0.6-0.3-0.9-0.5
	c-0.3-0.2-0.5-0.5-0.6-0.8c-0.2-0.3-0.3-0.7-0.3-1.1c0-0.4,0-0.8,0.1-1.3c0.1-0.4,0.2-0.9,0.4-1.3c0.1-0.4,0.3-0.8,0.5-1.2
	c0.2-0.4,0.4-0.8,0.6-1.1c-0.3,0-0.7,0.1-1.1,0.1c-0.4,0-0.7,0.1-1,0.1c-0.1,0.2-0.2,0.5-0.3,0.8c-0.1,0.3-0.3,0.7-0.5,1.1
	c-0.2,0.4-0.4,0.8-0.7,1.2c-0.2,0.4-0.5,0.8-0.8,1.2c-0.3,0.4-0.5,0.7-0.8,1c-0.2,0.3-0.5,0.5-0.7,0.7c-0.1,0.1-0.2,0.1-0.3,0
	c-0.1-0.1-0.2-0.1-0.4-0.3c-0.1-0.1-0.2-0.2-0.3-0.3c-0.1-0.1-0.1-0.2,0-0.2c0.5-0.4,0.9-0.9,1.3-1.5c0.4-0.5,0.8-1.1,1-1.6
	c0.3-0.5,0.5-1,0.7-1.4c0.2-0.4,0.3-0.7,0.4-0.9c-0.3-0.1-0.5-0.3-0.6-0.5c-0.2-0.2-0.3-0.4-0.4-0.6c-0.1-0.2-0.1-0.3-0.1-0.5
	c0-0.1,0.1-0.2,0.2-0.2c0.1,0,0.1,0,0.2,0c0.1,0,0.2,0.1,0.3,0.1c0.1,0,0.2,0.1,0.4,0.1c0.1,0,0.3,0,0.6,0c0.4,0,0.8,0,1.3,0
	c0.4,0,0.8-0.1,1.1-0.1c0.3,0,0.6-0.1,0.9-0.1c0.3,0,0.5,0,0.6,0c0.5,0,0.8,0.1,1,0.4c0.2,0.3,0.2,0.6,0.1,1.1
	c-0.1,0.4-0.2,0.9-0.4,1.5c-0.2,0.6-0.4,1.1-0.7,1.7c-0.2,0.6-0.4,1.1-0.6,1.6c-0.2,0.5-0.3,1-0.3,1.3c0,0.4,0.2,0.6,0.5,0.6
	c0.2,0,0.5-0.1,0.9-0.3c0.3-0.2,0.7-0.5,1-0.8c0.3-0.3,0.7-0.6,1-1c0.4-0.4,0.7-0.7,1-1c0.3-0.3,0.6-0.6,0.8-0.8
	C116.1,82.4,116.3,82.3,116.4,82.3"/>
<path id="XMLID_96_" class="st0" d="M126.1,82.3c0.1,0,0.1,0.1,0,0.4c-0.1,0.3-0.2,0.6-0.5,1c-0.2,0.4-0.5,0.8-0.8,1.3
	c-0.3,0.5-0.7,0.9-1.1,1.3c-0.4,0.4-0.8,0.7-1.2,1c-0.4,0.3-0.8,0.4-1.2,0.4c-0.4,0-0.7-0.1-1-0.2c-0.3-0.2-0.6-0.4-0.8-0.7
	c-0.2-0.3-0.4-0.6-0.6-1c-0.1-0.4-0.2-0.8-0.2-1.3c0-0.4,0.1-0.9,0.3-1.5c0.2-0.6,0.4-1.2,0.7-2c0.3-0.7,0.7-1.5,1.1-2.2
	c0.4-0.8,0.8-1.5,1.3-2.3c0.4-0.8,0.9-1.5,1.3-2.2c0.5-0.7,0.9-1.3,1.3-1.8c0.4-0.5,0.8-0.9,1.1-1.2c0.3-0.3,0.6-0.5,0.8-0.5
	c0.2,0,0.2,0.2,0.1,0.6c-0.1,0.4-0.3,0.9-0.5,1.5c-0.3,0.6-0.6,1.3-1,2.2c-0.4,0.8-0.8,1.7-1.2,2.5c-0.4,0.9-0.9,1.8-1.3,2.6
	c-0.4,0.9-0.8,1.7-1.2,2.5c-0.3,0.8-0.6,1.4-0.8,2c-0.2,0.6-0.3,1-0.3,1.3c0,0.4,0.2,0.5,0.5,0.5c0.2,0,0.5-0.1,0.9-0.3
	c0.3-0.2,0.7-0.5,1-0.8c0.4-0.3,0.7-0.6,1.1-1c0.4-0.4,0.7-0.7,1-1c0.3-0.3,0.6-0.6,0.8-0.8C125.8,82.4,126,82.3,126.1,82.3"/>
<path class="st0" d="M131.4,82.3c0.1,0,0.1,0.1,0,0.4c-0.1,0.3-0.2,0.6-0.5,1c-0.2,0.4-0.5,0.8-0.8,1.3c-0.3,0.5-0.7,0.9-1.1,1.3
	c-0.4,0.4-0.8,0.7-1.2,1c-0.4,0.3-0.8,0.4-1.2,0.4c-0.5,0-1-0.1-1.3-0.3c-0.4-0.2-0.6-0.4-0.8-0.7c-0.2-0.3-0.4-0.6-0.4-1
	c-0.1-0.4-0.1-0.7-0.1-1.1c0-0.3,0.1-0.7,0.2-1.2c0.1-0.4,0.3-0.9,0.5-1.4c0.2-0.5,0.4-0.9,0.6-1.3c0.2-0.4,0.4-0.8,0.6-1.2
	c0.2-0.3,0.4-0.6,0.5-0.8c0.2-0.2,0.3-0.3,0.4-0.3c0.1,0,0.3,0,0.5,0.1c0.2,0.1,0.3,0.2,0.5,0.3c0.1,0.1,0.3,0.3,0.4,0.4
	c0.1,0.1,0.1,0.3,0.1,0.4c0,0.1-0.1,0.3-0.2,0.5c-0.1,0.2-0.3,0.5-0.5,0.9c-0.2,0.4-0.4,0.7-0.6,1.2c-0.2,0.4-0.4,0.9-0.6,1.3
	c-0.2,0.4-0.3,0.9-0.5,1.3c-0.1,0.4-0.2,0.8-0.2,1.2c0,0.4,0.2,0.5,0.6,0.5c0.2,0,0.5-0.1,0.9-0.3c0.3-0.2,0.7-0.5,1-0.8
	c0.4-0.3,0.7-0.6,1.1-1c0.4-0.4,0.7-0.7,1-1c0.3-0.3,0.6-0.6,0.8-0.8C131.2,82.4,131.3,82.3,131.4,82.3 M128.5,77.3
	c-0.3-0.2-0.4-0.4-0.4-0.8c0-0.4,0-0.7,0.3-1.1c0.2-0.4,0.5-0.6,0.8-0.7c0.3-0.1,0.6-0.1,0.9,0c0.3,0.2,0.4,0.4,0.5,0.8
	c0,0.4-0.1,0.7-0.3,1.1c-0.2,0.4-0.5,0.6-0.8,0.7C129.1,77.5,128.8,77.5,128.5,77.3"/>
<path class="st0" d="M137.1,82.3c0.1,0,0.1,0.1,0,0.3c-0.1,0.2-0.2,0.5-0.4,0.8c-0.2,0.3-0.4,0.7-0.7,1.1c-0.3,0.4-0.6,0.8-0.9,1.1
	c-0.3,0.4-0.7,0.7-1.1,1c-0.4,0.3-0.8,0.5-1.1,0.6c0,0.3,0.1,0.6,0.1,0.9c0,0.3,0,0.6,0,0.9c0,0.9-0.1,1.7-0.3,2.5
	c-0.2,0.8-0.4,1.5-0.8,2.1c-0.3,0.6-0.7,1.1-1.2,1.4c-0.5,0.3-1,0.5-1.5,0.5c-0.3,0-0.6-0.1-0.9-0.2c-0.3-0.2-0.5-0.4-0.7-0.7
	c-0.2-0.3-0.4-0.6-0.5-1.1c-0.1-0.4-0.2-0.9-0.2-1.4c0-0.5,0.1-1.1,0.2-1.8c0.1-0.7,0.3-1.4,0.5-2.1c0.2-0.7,0.4-1.5,0.7-2.3
	c0.3-0.8,0.6-1.6,0.9-2.5c-0.1-0.1-0.3-0.2-0.4-0.2c-0.2,0-0.3,0-0.4-0.1c0-0.1,0-0.2,0.1-0.2c0.1-0.1,0.2-0.2,0.4-0.2
	c0.2-0.1,0.4-0.1,0.6-0.1h0.1c0.4-1,0.8-1.9,1.3-2.9c0.5-1,0.9-1.9,1.4-2.8c0.5-0.9,1-1.7,1.4-2.4c0.5-0.7,0.9-1.4,1.4-1.9
	c0.4-0.5,0.8-1,1.2-1.3c0.4-0.3,0.7-0.5,1-0.5c0.1,0,0.1,0.2,0,0.5c-0.1,0.4-0.3,0.8-0.5,1.4c-0.3,0.6-0.6,1.3-1,2.2
	c-0.4,0.8-0.8,1.7-1.3,2.7c-0.5,1-0.9,2-1.4,3c-0.5,1.1-1,2.1-1.4,3.2c0.4,0.6,0.7,1.2,1,2c0.4-0.2,0.8-0.5,1.3-0.9
	c0.5-0.4,0.9-0.8,1.3-1.2c0.4-0.4,0.8-0.8,1.1-1C136.7,82.4,137,82.3,137.1,82.3 M129.2,94.1c0.3,0,0.5-0.1,0.8-0.4
	c0.3-0.3,0.5-0.6,0.7-1.1c0.2-0.5,0.4-1,0.5-1.7c0.1-0.7,0.2-1.4,0.2-2.2c0-0.6-0.1-1.2-0.2-1.7c-0.3-0.1-0.5-0.3-0.7-0.4
	c-0.6,1.4-1,2.7-1.4,3.9c-0.4,1.2-0.5,2.2-0.5,3c0,0.3,0.1,0.5,0.2,0.5C128.9,94.1,129,94.1,129.2,94.1"/>
<path class="st0" d="M143.4,82.3c0.1,0,0.1,0.1,0,0.4c-0.1,0.3-0.2,0.6-0.5,1c-0.2,0.4-0.5,0.8-0.8,1.3c-0.3,0.5-0.7,0.9-1.1,1.3
	c-0.4,0.4-0.8,0.7-1.2,1c-0.4,0.3-0.8,0.4-1.2,0.4c-0.5,0-1-0.1-1.4-0.3c-0.4-0.2-0.8-0.4-1-0.7c-0.3-0.3-0.5-0.7-0.6-1
	c-0.1-0.4-0.2-0.8-0.2-1.2c0-0.4,0.1-0.9,0.2-1.4c0.1-0.5,0.3-0.9,0.6-1.4c0.2-0.4,0.5-0.9,0.8-1.3c0.3-0.4,0.7-0.7,1-1
	c0.3-0.3,0.7-0.5,1-0.7c0.3-0.2,0.7-0.3,1-0.3c0.2,0,0.5,0,0.8,0.1c0.3,0.1,0.5,0.2,0.7,0.4c0.2,0.2,0.4,0.4,0.5,0.7
	c0.1,0.3,0.2,0.6,0.2,0.9c0,0.2-0.1,0.4-0.2,0.7c-0.1,0.3-0.3,0.5-0.5,0.8c-0.2,0.3-0.4,0.5-0.7,0.8c-0.3,0.2-0.5,0.5-0.8,0.7
	c-0.3,0.2-0.5,0.4-0.8,0.5c-0.3,0.1-0.5,0.2-0.7,0.2c-0.2,0-0.3,0-0.5-0.1c-0.1,0-0.3-0.1-0.4-0.2c-0.1,0.3-0.2,0.6-0.3,0.9
	c-0.1,0.3-0.1,0.6-0.1,0.9c0,0.3,0.1,0.6,0.3,0.7c0.2,0.1,0.4,0.2,0.7,0.2c0.2,0,0.5-0.1,0.9-0.3c0.3-0.2,0.7-0.5,1-0.8
	c0.3-0.3,0.7-0.6,1-1c0.4-0.4,0.7-0.7,1-1c0.3-0.3,0.6-0.6,0.8-0.8C143.1,82.4,143.3,82.3,143.4,82.3 M141.1,79.5
	c-0.2,0-0.4,0.1-0.7,0.2c-0.3,0.2-0.5,0.4-0.8,0.7c-0.3,0.3-0.5,0.6-0.8,1c-0.3,0.4-0.5,0.8-0.7,1.2c0.3-0.1,0.5-0.2,0.8-0.4
	c0.3-0.2,0.5-0.4,0.8-0.6c0.2-0.2,0.5-0.5,0.7-0.7c0.2-0.2,0.4-0.5,0.5-0.7c0.1-0.2,0.2-0.4,0.3-0.5
	C141.1,79.6,141.1,79.5,141.1,79.5"/>
<path id="XMLID_89_" class="st0" d="M159.4,82.3c0.1,0,0.1,0.1,0,0.4c-0.1,0.3-0.2,0.6-0.5,1c-0.2,0.4-0.5,0.8-0.8,1.3
	c-0.3,0.5-0.7,0.9-1.1,1.3c-0.4,0.4-0.8,0.7-1.2,1c-0.4,0.3-0.8,0.4-1.2,0.4c-0.4,0-0.7-0.1-1-0.2c-0.3-0.1-0.6-0.3-0.8-0.5
	c-0.2-0.2-0.4-0.4-0.6-0.7c-0.1-0.3-0.2-0.5-0.3-0.8c-0.3,0.3-0.5,0.6-0.8,0.8c-0.3,0.3-0.5,0.5-0.8,0.7c-0.3,0.2-0.5,0.3-0.7,0.5
	c-0.2,0.1-0.4,0.2-0.6,0.2c-0.2,0-0.5,0-0.7-0.1c-0.2-0.1-0.4-0.2-0.6-0.4c-0.2-0.2-0.3-0.4-0.4-0.8c-0.1-0.3-0.2-0.7-0.2-1.1
	c0-0.4,0.1-0.8,0.3-1.3c0.2-0.5,0.4-1,0.7-1.5c0.3-0.5,0.6-1,1-1.5c0.4-0.5,0.8-0.9,1.2-1.3c0.4-0.4,0.9-0.7,1.4-0.9
	c0.5-0.2,0.9-0.4,1.4-0.4c0.7,0,1.3,0.1,1.8,0.3c0.4,0.2,0.8,0.5,0.9,0.8c0.2,0.3,0.3,0.5,0.2,0.8c0,0.2-0.1,0.3-0.3,0.3
	c-0.1,0-0.1-0.1-0.2-0.2c0-0.1-0.1-0.2-0.2-0.3c-0.1-0.1-0.2-0.2-0.3-0.4c-0.1-0.1-0.3-0.2-0.5-0.2c-0.5,0-1,0.2-1.5,0.5
	c-0.5,0.3-1,0.7-1.4,1.2c-0.5,0.5-0.9,1-1.2,1.6c-0.4,0.6-0.7,1.1-0.9,1.6c-0.2,0.5-0.4,0.9-0.4,1.2c-0.1,0.3,0,0.5,0.2,0.5
	c0.2,0,0.4-0.1,0.7-0.4c0.3-0.3,0.6-0.6,1-1c0.3-0.4,0.7-0.8,1.1-1.3c0.4-0.5,0.7-0.9,1.1-1.3c0.4-0.4,0.7-0.7,1-1
	c0.3-0.3,0.6-0.4,0.8-0.4c0.1,0,0.3,0,0.4,0.1c0.1,0.1,0.2,0.2,0.2,0.4c0,0.1-0.1,0.4-0.3,0.7c-0.2,0.4-0.4,0.8-0.6,1.2
	c-0.2,0.4-0.4,0.9-0.6,1.4c-0.2,0.5-0.3,0.9-0.3,1.2c0,0.4,0.2,0.5,0.5,0.5c0.2,0,0.5-0.1,0.9-0.3c0.3-0.2,0.7-0.5,1-0.8
	c0.3-0.3,0.7-0.6,1-1c0.4-0.4,0.7-0.7,1-1c0.3-0.3,0.6-0.6,0.8-0.8C159.2,82.4,159.3,82.3,159.4,82.3"/>
<path id="XMLID_88_" class="st0" d="M169.1,82.3c0.1,0,0.1,0.1,0,0.4c-0.1,0.3-0.2,0.6-0.5,1c-0.2,0.4-0.5,0.8-0.8,1.3
	c-0.3,0.5-0.7,0.9-1.1,1.3c-0.4,0.4-0.8,0.7-1.2,1c-0.4,0.3-0.8,0.4-1.2,0.4c-0.4,0-0.7-0.1-1-0.2c-0.3-0.1-0.6-0.3-0.8-0.5
	c-0.2-0.2-0.4-0.4-0.6-0.7c-0.1-0.3-0.2-0.5-0.3-0.8c-0.3,0.3-0.5,0.6-0.8,0.8c-0.3,0.3-0.5,0.5-0.8,0.7c-0.3,0.2-0.5,0.3-0.7,0.5
	c-0.2,0.1-0.4,0.2-0.6,0.2c-0.2,0-0.5,0-0.7-0.1c-0.2-0.1-0.4-0.2-0.6-0.4c-0.2-0.2-0.3-0.4-0.4-0.8c-0.1-0.3-0.2-0.7-0.2-1.1
	c0-0.4,0.1-0.8,0.3-1.3c0.2-0.5,0.4-1,0.7-1.5c0.3-0.5,0.6-1,1-1.5c0.4-0.5,0.8-0.9,1.2-1.3c0.4-0.4,0.9-0.7,1.4-0.9
	c0.5-0.2,0.9-0.4,1.4-0.4c0.7,0,1.3,0.1,1.8,0.3c0.4,0.2,0.8,0.5,0.9,0.8c0.2,0.3,0.3,0.5,0.2,0.8c0,0.2-0.1,0.3-0.3,0.3
	c-0.1,0-0.1-0.1-0.2-0.2c0-0.1-0.1-0.2-0.2-0.3c-0.1-0.1-0.2-0.2-0.3-0.4c-0.1-0.1-0.3-0.2-0.5-0.2c-0.5,0-1,0.2-1.5,0.5
	c-0.5,0.3-1,0.7-1.4,1.2c-0.5,0.5-0.9,1-1.2,1.6c-0.4,0.6-0.7,1.1-0.9,1.6c-0.2,0.5-0.4,0.9-0.4,1.2c-0.1,0.3,0,0.5,0.2,0.5
	c0.2,0,0.4-0.1,0.7-0.4c0.3-0.3,0.6-0.6,1-1c0.3-0.4,0.7-0.8,1.1-1.3c0.4-0.5,0.7-0.9,1.1-1.3c0.4-0.4,0.7-0.7,1-1
	c0.3-0.3,0.6-0.4,0.8-0.4c0.1,0,0.3,0,0.4,0.1c0.1,0.1,0.2,0.2,0.2,0.4c0,0.1-0.1,0.4-0.3,0.7c-0.2,0.4-0.4,0.8-0.6,1.2
	c-0.2,0.4-0.4,0.9-0.6,1.4c-0.2,0.5-0.3,0.9-0.3,1.2c0,0.4,0.2,0.5,0.5,0.5c0.2,0,0.5-0.1,0.9-0.3c0.3-0.2,0.7-0.5,1-0.8
	c0.3-0.3,0.7-0.6,1-1c0.4-0.4,0.7-0.7,1-1c0.3-0.3,0.6-0.6,0.8-0.8C168.8,82.4,169,82.3,169.1,82.3"/>
<path class="st0" d="M171.9,89.4c0.5,0.2,0.9,0.4,1.3,0.7c0.4,0.3,0.7,0.6,0.9,0.9c0.2,0.3,0.4,0.7,0.6,1.1c0.1,0.4,0.2,0.8,0.2,1.2
	c0,0.2,0,0.3-0.1,0.5c-0.1,0.2-0.1,0.3-0.2,0.4c-0.1,0.1-0.2,0.1-0.2,0c-0.1-0.1-0.1-0.2-0.1-0.5c0-0.4-0.1-0.7-0.2-1
	c-0.1-0.3-0.4-0.6-0.7-0.8c-0.3-0.2-0.7-0.4-1.1-0.6c-0.4-0.1-0.9-0.2-1.5-0.2h0c-0.4,0.6-0.8,1.2-1.3,1.7c-0.4,0.5-0.9,1-1.3,1.4
	c-0.4,0.4-0.8,0.7-1.2,0.9c-0.4,0.2-0.8,0.3-1.1,0.3c-0.6,0-1-0.2-1.3-0.6c-0.3-0.4-0.4-0.9-0.4-1.5c0-0.6,0.2-1.2,0.5-1.7
	c0.3-0.5,0.7-0.9,1.3-1.3c0.5-0.4,1.1-0.7,1.8-0.9c0.7-0.2,1.3-0.3,2-0.4c0.5-0.8,0.9-1.7,1.4-2.5c0.5-0.9,0.9-1.7,1.3-2.6
	c-0.4,0.5-0.7,0.9-1.1,1.3c-0.4,0.4-0.7,0.8-1.1,1.1c-0.3,0.3-0.7,0.6-1,0.8c-0.3,0.2-0.6,0.3-0.8,0.3c-0.2,0-0.5,0-0.7-0.1
	c-0.2-0.1-0.4-0.2-0.6-0.4c-0.2-0.2-0.3-0.4-0.4-0.8c-0.1-0.3-0.2-0.7-0.2-1.1c0-0.4,0.1-0.8,0.3-1.3c0.2-0.5,0.4-1,0.7-1.5
	c0.3-0.5,0.6-1,1-1.5c0.4-0.5,0.8-0.9,1.2-1.3c0.4-0.4,0.9-0.7,1.4-0.9c0.5-0.2,0.9-0.4,1.4-0.4c0.4,0,0.8,0.1,1.1,0.3
	c0.3,0.2,0.5,0.4,0.7,0.8c0.2-0.3,0.4-0.6,0.6-0.8c0.2-0.2,0.3-0.3,0.3-0.3c0.1,0,0.3,0.1,0.4,0.2c0.1,0.1,0.3,0.2,0.4,0.4
	c0.1,0.2,0.2,0.3,0.2,0.5c0.1,0.2,0.1,0.4,0.1,0.6c0,0.2-0.1,0.4-0.2,0.8c-0.1,0.3-0.3,0.8-0.4,1.2c-0.2,0.5-0.4,1-0.7,1.6
	c-0.3,0.6-0.6,1.2-0.9,1.9c-0.3,0.7-0.7,1.3-1,2C172.7,88.1,172.3,88.8,171.9,89.4 M165.2,94.2c0.4,0,0.9-0.3,1.4-0.8
	c0.5-0.5,1.1-1.2,1.7-2.1c-1,0.2-1.8,0.5-2.5,0.9c-0.6,0.4-0.9,1-0.9,1.7c0,0.1,0,0.2,0.1,0.2C165.1,94.2,165.2,94.2,165.2,94.2
	 M168.5,86.1c0.2,0,0.5-0.2,0.9-0.6c0.4-0.4,0.8-0.9,1.3-1.4c0.5-0.6,0.9-1.2,1.4-1.9c0.5-0.7,0.9-1.3,1.4-1.9
	c0.2-0.2,0.2-0.4,0.2-0.6c-0.1-0.2-0.2-0.3-0.4-0.3c-0.3,0-0.7,0.2-1.1,0.5c-0.4,0.3-0.8,0.7-1.2,1.2c-0.4,0.5-0.8,1-1.2,1.6
	c-0.4,0.6-0.7,1.1-0.9,1.6c-0.2,0.5-0.4,0.9-0.5,1.2C168.3,86,168.3,86.1,168.5,86.1"/>
<path class="st0" d="M184.2,82.3c0.1,0,0.1,0.1,0,0.4c-0.1,0.3-0.2,0.6-0.5,1c-0.2,0.4-0.5,0.8-0.8,1.3c-0.3,0.5-0.7,0.9-1.1,1.3
	c-0.4,0.4-0.8,0.7-1.2,1c-0.4,0.3-0.8,0.4-1.2,0.4c-0.5,0-1-0.1-1.4-0.3c-0.4-0.2-0.8-0.4-1-0.7c-0.3-0.3-0.5-0.7-0.6-1
	c-0.1-0.4-0.2-0.8-0.2-1.2c0-0.4,0.1-0.9,0.2-1.4c0.1-0.5,0.3-0.9,0.6-1.4c0.2-0.4,0.5-0.9,0.8-1.3c0.3-0.4,0.6-0.7,1-1
	c0.3-0.3,0.7-0.5,1-0.7c0.3-0.2,0.7-0.3,1-0.3c0.2,0,0.5,0,0.8,0.1c0.3,0.1,0.5,0.2,0.7,0.4c0.2,0.2,0.4,0.4,0.5,0.7
	c0.1,0.3,0.2,0.6,0.2,0.9c0,0.2-0.1,0.4-0.2,0.7c-0.1,0.3-0.3,0.5-0.5,0.8c-0.2,0.3-0.4,0.5-0.7,0.8c-0.3,0.2-0.5,0.5-0.8,0.7
	c-0.3,0.2-0.5,0.4-0.8,0.5c-0.3,0.1-0.5,0.2-0.7,0.2c-0.2,0-0.3,0-0.5-0.1c-0.1,0-0.3-0.1-0.4-0.2c-0.1,0.3-0.2,0.6-0.3,0.9
	c-0.1,0.3-0.1,0.6-0.1,0.9c0,0.3,0.1,0.6,0.3,0.7c0.2,0.1,0.4,0.2,0.7,0.2c0.2,0,0.5-0.1,0.9-0.3c0.3-0.2,0.7-0.5,1-0.8
	c0.3-0.3,0.7-0.6,1-1c0.4-0.4,0.7-0.7,1-1c0.3-0.3,0.6-0.6,0.8-0.8C184,82.4,184.1,82.3,184.2,82.3 M181.9,79.5
	c-0.2,0-0.4,0.1-0.7,0.2c-0.3,0.2-0.5,0.4-0.8,0.7c-0.3,0.3-0.5,0.6-0.8,1c-0.3,0.4-0.5,0.8-0.7,1.2c0.3-0.1,0.5-0.2,0.8-0.4
	c0.3-0.2,0.5-0.4,0.8-0.6c0.2-0.2,0.5-0.5,0.7-0.7c0.2-0.2,0.4-0.5,0.5-0.7c0.1-0.2,0.2-0.4,0.3-0.5C182,79.6,182,79.5,181.9,79.5"
	/>
<path id="XMLID_82_" class="st0" d="M195.8,78.3c0.5,0,0.8,0.2,1.1,0.5c0.2,0.3,0.4,0.8,0.4,1.3c0,0.4-0.1,0.8-0.2,1.3
	c-0.1,0.5-0.3,1-0.5,1.6c-0.2,0.6-0.4,1.1-0.7,1.6c-0.3,0.5-0.5,1-0.8,1.4c-0.3,0.4-0.6,0.8-0.9,1c-0.3,0.3-0.5,0.4-0.8,0.4
	c-0.4,0-0.8-0.1-1.1-0.3c-0.3-0.2-0.5-0.4-0.7-0.6c-0.1-0.2-0.2-0.4-0.2-0.6c0-0.2,0.1-0.3,0.2-0.3c0.1,0,0.1,0,0.1,0.1
	c0,0,0,0.1,0.1,0.1c0,0,0.1,0.1,0.1,0.1c0,0,0.1,0.1,0.1,0.1c0.3,0,0.6-0.2,0.9-0.5c0.3-0.3,0.6-0.7,0.9-1.2c0.3-0.5,0.6-1,0.8-1.6
	c0.2-0.6,0.5-1.1,0.6-1.6c0.2-0.5,0.3-0.9,0.3-1.2c0.1-0.3,0-0.5-0.1-0.5c-0.1,0-0.3,0.1-0.5,0.3c-0.2,0.2-0.4,0.5-0.7,0.9
	c-0.3,0.4-0.5,0.8-0.9,1.2c-0.3,0.5-0.6,0.9-0.9,1.4c-0.3,0.5-0.6,1-0.9,1.4c-0.3,0.5-0.6,0.9-0.8,1.3c-0.3,0.4-0.5,0.7-0.7,0.9
	c-0.2,0.2-0.3,0.4-0.4,0.4h0c-0.2,0-0.3-0.1-0.5-0.2c-0.2-0.1-0.4-0.2-0.5-0.4c-0.2-0.2-0.3-0.4-0.4-0.6c-0.1-0.2-0.2-0.5-0.2-0.7
	c0-0.3,0.1-0.8,0.3-1.4c0.2-0.6,0.4-1.3,0.8-2c0.3-0.8,0.7-1.6,1.1-2.4c0.4-0.9,0.9-1.7,1.3-2.6c0.5-0.9,0.9-1.7,1.4-2.5
	c0.5-0.8,0.9-1.5,1.4-2.1c0.4-0.6,0.8-1.1,1.2-1.4c0.4-0.4,0.7-0.5,0.9-0.5c0.1,0,0.2,0.1,0.1,0.4c-0.1,0.3-0.2,0.7-0.4,1.1
	c-0.2,0.5-0.4,1-0.7,1.7c-0.3,0.6-0.6,1.3-1,2.1c-0.4,0.7-0.7,1.5-1.1,2.3c-0.4,0.8-0.8,1.6-1.2,2.3c-0.4,0.8-0.7,1.5-1,2.2
	c-0.3,0.7-0.6,1.3-0.8,1.9c0.2-0.4,0.5-0.8,0.8-1.3c0.3-0.5,0.6-1,0.9-1.4c0.3-0.5,0.7-0.9,1-1.4c0.3-0.4,0.7-0.8,1-1.2
	c0.3-0.3,0.6-0.6,0.9-0.8C195.2,78.4,195.5,78.3,195.8,78.3"/>
<path id="XMLID_81_" class="st0" d="M209.4,82.3c0.1,0,0.1,0.1,0,0.4c-0.1,0.3-0.2,0.6-0.5,1c-0.2,0.4-0.5,0.8-0.8,1.3
	c-0.3,0.5-0.7,0.9-1.1,1.3c-0.4,0.4-0.8,0.7-1.2,1c-0.4,0.3-0.8,0.4-1.2,0.4c-0.4,0-0.7-0.1-1-0.2c-0.3-0.1-0.6-0.3-0.8-0.5
	c-0.2-0.2-0.4-0.4-0.6-0.7c-0.1-0.3-0.2-0.5-0.3-0.8c-0.3,0.3-0.5,0.6-0.8,0.8c-0.3,0.3-0.5,0.5-0.8,0.7c-0.3,0.2-0.5,0.3-0.7,0.5
	c-0.2,0.1-0.4,0.2-0.6,0.2c-0.2,0-0.5,0-0.7-0.1c-0.2-0.1-0.4-0.2-0.6-0.4c-0.2-0.2-0.3-0.4-0.4-0.8c-0.1-0.3-0.2-0.7-0.2-1.1
	c0-0.4,0.1-0.8,0.3-1.3c0.2-0.5,0.4-1,0.7-1.5c0.3-0.5,0.6-1,1-1.5c0.4-0.5,0.8-0.9,1.2-1.3c0.4-0.4,0.9-0.7,1.4-0.9
	c0.5-0.2,0.9-0.4,1.4-0.4c0.7,0,1.3,0.1,1.8,0.3c0.4,0.2,0.8,0.5,0.9,0.8c0.2,0.3,0.3,0.5,0.2,0.8c0,0.2-0.1,0.3-0.3,0.3
	c-0.1,0-0.1-0.1-0.2-0.2c-0.1-0.1-0.1-0.2-0.2-0.3c-0.1-0.1-0.2-0.2-0.3-0.4c-0.1-0.1-0.3-0.2-0.5-0.2c-0.5,0-1,0.2-1.5,0.5
	c-0.5,0.3-1,0.7-1.4,1.2c-0.5,0.5-0.9,1-1.2,1.6c-0.4,0.6-0.7,1.1-0.9,1.6c-0.2,0.5-0.4,0.9-0.4,1.2c-0.1,0.3,0,0.5,0.2,0.5
	c0.2,0,0.4-0.1,0.7-0.4c0.3-0.3,0.6-0.6,1-1c0.3-0.4,0.7-0.8,1.1-1.3c0.4-0.5,0.7-0.9,1.1-1.3c0.4-0.4,0.7-0.7,1-1
	c0.3-0.3,0.6-0.4,0.8-0.4c0.1,0,0.3,0,0.4,0.1c0.1,0.1,0.2,0.2,0.2,0.4c0,0.1-0.1,0.4-0.3,0.7c-0.2,0.4-0.4,0.8-0.6,1.2
	c-0.2,0.4-0.4,0.9-0.6,1.4c-0.2,0.5-0.3,0.9-0.3,1.2c0,0.4,0.2,0.5,0.5,0.5c0.2,0,0.5-0.1,0.9-0.3c0.3-0.2,0.7-0.5,1-0.8
	c0.3-0.3,0.7-0.6,1-1c0.4-0.4,0.7-0.7,1-1c0.3-0.3,0.6-0.6,0.8-0.8C209.1,82.4,209.3,82.3,209.4,82.3"/>
<path class="st0" d="M219.9,82.3c0.1,0,0.1,0.1,0,0.4c-0.1,0.3-0.2,0.6-0.5,1c-0.2,0.4-0.5,0.8-0.8,1.3c-0.3,0.5-0.7,0.9-1.1,1.3
	c-0.4,0.4-0.8,0.7-1.2,1c-0.4,0.3-0.8,0.4-1.2,0.4c-0.4,0-0.7-0.1-1-0.2c-0.3-0.2-0.6-0.4-0.8-0.7c-0.2-0.3-0.4-0.6-0.6-1
	c-0.1-0.4-0.2-0.8-0.2-1.3v-0.1c-0.3,0.4-0.6,0.8-1,1.2c-0.3,0.4-0.7,0.7-1,1c-0.3,0.3-0.7,0.6-1,0.8c-0.3,0.2-0.6,0.3-0.9,0.3
	c-0.2,0-0.5,0-0.7-0.1c-0.2-0.1-0.4-0.2-0.6-0.4c-0.2-0.2-0.3-0.4-0.4-0.8c-0.1-0.3-0.2-0.7-0.2-1.1c0-0.4,0.1-0.8,0.3-1.3
	c0.2-0.5,0.4-1,0.7-1.5c0.3-0.5,0.6-1,1-1.5c0.4-0.5,0.8-0.9,1.2-1.3c0.4-0.4,0.9-0.7,1.4-0.9c0.5-0.2,0.9-0.4,1.4-0.4
	c0.4,0,0.7,0.1,1,0.2c0.3,0.2,0.5,0.4,0.7,0.6c0.5-1,1-2,1.6-3c0.6-1,1.2-1.9,1.8-2.7c0.6-0.8,1.1-1.5,1.6-2
	c0.5-0.5,0.8-0.8,1.1-0.8c0.2,0,0.2,0.2,0.1,0.6c-0.1,0.4-0.3,0.9-0.5,1.5c-0.3,0.6-0.6,1.3-1,2.2c-0.4,0.8-0.8,1.7-1.2,2.5
	c-0.4,0.9-0.9,1.7-1.3,2.6c-0.4,0.9-0.8,1.7-1.2,2.5c-0.3,0.8-0.6,1.4-0.8,2c-0.2,0.6-0.3,1-0.3,1.3c0,0.4,0.2,0.6,0.6,0.6
	c0.2,0,0.5-0.1,0.9-0.3c0.3-0.2,0.7-0.5,1-0.8c0.4-0.3,0.7-0.6,1.1-1c0.4-0.4,0.7-0.7,1-1c0.3-0.3,0.6-0.6,0.8-0.8
	C219.7,82.4,219.8,82.3,219.9,82.3 M208.8,86.2c0.2,0,0.4-0.1,0.7-0.3c0.3-0.2,0.6-0.5,0.9-0.8c0.3-0.3,0.7-0.7,1-1.1
	c0.3-0.4,0.7-0.8,1-1.2c0.3-0.4,0.6-0.8,0.8-1.2c0.2-0.4,0.4-0.7,0.6-1c0.1-0.1,0.1-0.2,0.1-0.3v0c0.1-0.2,0.1-0.4,0-0.6
	c-0.1-0.2-0.2-0.3-0.4-0.3c-0.3,0-0.7,0.2-1.1,0.5c-0.4,0.3-0.8,0.7-1.2,1.2c-0.4,0.5-0.8,1-1.2,1.6c-0.4,0.6-0.7,1.1-0.9,1.6
	c-0.2,0.5-0.4,0.9-0.5,1.2C208.5,86,208.6,86.2,208.8,86.2"/>
<path id="XMLID_78_" class="st0" d="M230.6,82.3c0.1,0,0.1,0.1,0,0.4c-0.1,0.3-0.2,0.6-0.5,1c-0.2,0.4-0.5,0.8-0.8,1.3
	c-0.3,0.5-0.7,0.9-1.1,1.3c-0.4,0.4-0.8,0.7-1.2,1c-0.4,0.3-0.8,0.4-1.2,0.4c-0.3,0-0.6-0.1-1-0.2c-0.3-0.1-0.6-0.3-0.9-0.5
	c-0.3-0.2-0.5-0.5-0.6-0.8c-0.2-0.3-0.2-0.7-0.2-1.1c0-0.3,0-0.7,0.1-1.1c0.1-0.4,0.2-0.8,0.4-1.2c-0.4,0.6-0.7,1.1-1.1,1.7
	c-0.4,0.6-0.7,1.1-1,1.6c-0.3,0.5-0.6,0.9-0.9,1.2c-0.3,0.3-0.5,0.4-0.7,0.4c-0.3,0-0.5-0.1-0.7-0.2c-0.2-0.1-0.4-0.3-0.5-0.6
	c-0.1-0.2-0.3-0.5-0.3-0.7c-0.1-0.3-0.1-0.5-0.1-0.7c0-0.7,0.2-1.6,0.5-2.5c0.3-1,0.7-2,1.3-3.1c0.5-1.1,1.1-2.2,1.7-3.2
	c0.6-1.1,1.2-2,1.8-2.9c0.6-0.8,1.1-1.5,1.6-2c0.5-0.5,0.9-0.8,1.1-0.8c0.2,0,0.2,0.1,0.2,0.4c0,0.3-0.2,0.7-0.4,1.2
	c-0.2,0.5-0.5,1.1-0.8,1.7c-0.3,0.7-0.7,1.4-1.1,2.1c-0.4,0.8-0.8,1.6-1.2,2.4c-0.4,0.8-0.8,1.6-1.2,2.5c-0.4,0.8-0.7,1.6-1,2.3
	c-0.3,0.8-0.5,1.4-0.7,2.1c0.3-0.3,0.6-0.7,0.9-1.2c0.3-0.5,0.7-1,1-1.5c0.4-0.5,0.7-1.1,1.1-1.6c0.4-0.5,0.7-1,1-1.4
	c0.3-0.4,0.6-0.8,0.9-1c0.3-0.3,0.5-0.4,0.7-0.4c0.5,0,0.9,0.1,1.1,0.4c0.2,0.3,0.2,0.6,0.1,1.1c-0.1,0.4-0.2,0.9-0.5,1.5
	c-0.2,0.6-0.5,1.1-0.7,1.7c-0.3,0.6-0.5,1.1-0.7,1.6c-0.2,0.5-0.3,1-0.3,1.3c0,0.4,0.2,0.6,0.5,0.6c0.2,0,0.5-0.1,0.9-0.3
	c0.3-0.2,0.7-0.5,1-0.8c0.3-0.3,0.7-0.6,1.1-1c0.4-0.4,0.7-0.7,1-1c0.3-0.3,0.6-0.6,0.8-0.8C230.3,82.4,230.5,82.3,230.6,82.3"/>
<path id="XMLID_77_" class="st0" d="M240.7,82.3c0.1,0,0.1,0.1,0,0.4c-0.1,0.3-0.2,0.6-0.5,1c-0.2,0.4-0.5,0.8-0.8,1.3
	c-0.3,0.5-0.7,0.9-1.1,1.3c-0.4,0.4-0.8,0.7-1.2,1c-0.4,0.3-0.8,0.4-1.2,0.4c-0.4,0-0.7-0.1-1-0.2c-0.3-0.1-0.6-0.3-0.8-0.5
	c-0.2-0.2-0.4-0.4-0.6-0.7c-0.1-0.3-0.2-0.5-0.3-0.8c-0.3,0.3-0.5,0.6-0.8,0.8c-0.3,0.3-0.5,0.5-0.8,0.7c-0.3,0.2-0.5,0.3-0.7,0.5
	c-0.2,0.1-0.4,0.2-0.6,0.2c-0.2,0-0.5,0-0.7-0.1c-0.2-0.1-0.4-0.2-0.6-0.4c-0.2-0.2-0.3-0.4-0.4-0.8c-0.1-0.3-0.2-0.7-0.2-1.1
	c0-0.4,0.1-0.8,0.3-1.3c0.2-0.5,0.4-1,0.7-1.5c0.3-0.5,0.6-1,1-1.5c0.4-0.5,0.8-0.9,1.2-1.3c0.4-0.4,0.9-0.7,1.4-0.9
	c0.5-0.2,0.9-0.4,1.4-0.4c0.7,0,1.3,0.1,1.8,0.3c0.4,0.2,0.8,0.5,0.9,0.8c0.2,0.3,0.3,0.5,0.2,0.8c0,0.2-0.1,0.3-0.3,0.3
	c-0.1,0-0.1-0.1-0.2-0.2c0-0.1-0.1-0.2-0.2-0.3c-0.1-0.1-0.2-0.2-0.3-0.4c-0.1-0.1-0.3-0.2-0.5-0.2c-0.5,0-1,0.2-1.5,0.5
	c-0.5,0.3-1,0.7-1.4,1.2c-0.5,0.5-0.9,1-1.2,1.6c-0.4,0.6-0.7,1.1-0.9,1.6c-0.2,0.5-0.4,0.9-0.4,1.2c-0.1,0.3,0,0.5,0.2,0.5
	c0.2,0,0.4-0.1,0.7-0.4c0.3-0.3,0.6-0.6,1-1c0.3-0.4,0.7-0.8,1.1-1.3c0.4-0.5,0.7-0.9,1.1-1.3c0.4-0.4,0.7-0.7,1-1
	c0.3-0.3,0.6-0.4,0.8-0.4c0.1,0,0.3,0,0.4,0.1c0.1,0.1,0.2,0.2,0.2,0.4c0,0.1-0.1,0.4-0.3,0.7c-0.2,0.4-0.4,0.8-0.6,1.2
	c-0.2,0.4-0.4,0.9-0.6,1.4c-0.2,0.5-0.3,0.9-0.3,1.2c0,0.4,0.2,0.5,0.5,0.5c0.2,0,0.5-0.1,0.9-0.3c0.3-0.2,0.7-0.5,1-0.8
	c0.3-0.3,0.7-0.6,1-1c0.4-0.4,0.7-0.7,1-1c0.3-0.3,0.6-0.6,0.8-0.8C240.5,82.4,240.6,82.3,240.7,82.3"/>
<path class="st0" d="M246.2,82.3c0.1,0,0.1,0.1,0,0.4c-0.1,0.3-0.2,0.6-0.5,1c-0.2,0.4-0.5,0.8-0.8,1.3c-0.3,0.5-0.7,0.9-1.1,1.3
	c-0.4,0.4-0.8,0.7-1.2,1c-0.4,0.3-0.8,0.4-1.2,0.4c-0.5,0-1-0.1-1.4-0.3c-0.4-0.2-0.8-0.4-1-0.7c-0.3-0.3-0.5-0.7-0.6-1
	c-0.1-0.4-0.2-0.8-0.2-1.2c0-0.4,0.1-0.9,0.2-1.4c0.1-0.5,0.3-0.9,0.6-1.4c0.2-0.4,0.5-0.9,0.8-1.3c0.3-0.4,0.7-0.7,1-1
	c0.3-0.3,0.7-0.5,1-0.7c0.3-0.2,0.7-0.3,1-0.3c0.2,0,0.5,0,0.8,0.1c0.3,0.1,0.5,0.2,0.7,0.4c0.2,0.2,0.4,0.4,0.5,0.7
	c0.1,0.3,0.2,0.6,0.2,0.9c0,0.2-0.1,0.4-0.2,0.7c-0.1,0.3-0.3,0.5-0.5,0.8c-0.2,0.3-0.4,0.5-0.7,0.8c-0.3,0.2-0.5,0.5-0.8,0.7
	c-0.3,0.2-0.5,0.4-0.8,0.5c-0.3,0.1-0.5,0.2-0.7,0.2c-0.2,0-0.3,0-0.5-0.1c-0.1,0-0.3-0.1-0.4-0.2c-0.1,0.3-0.2,0.6-0.3,0.9
	c-0.1,0.3-0.1,0.6-0.1,0.9c0,0.3,0.1,0.6,0.3,0.7c0.2,0.1,0.4,0.2,0.7,0.2c0.2,0,0.5-0.1,0.9-0.3c0.3-0.2,0.7-0.5,1-0.8
	c0.3-0.3,0.7-0.6,1-1c0.4-0.4,0.7-0.7,1-1c0.3-0.3,0.6-0.6,0.8-0.8C245.9,82.4,246.1,82.3,246.2,82.3 M243.8,79.5
	c-0.2,0-0.4,0.1-0.7,0.2c-0.3,0.2-0.5,0.4-0.8,0.7c-0.3,0.3-0.5,0.6-0.8,1c-0.3,0.4-0.5,0.8-0.7,1.2c0.3-0.1,0.5-0.2,0.8-0.4
	c0.3-0.2,0.5-0.4,0.8-0.6c0.2-0.2,0.5-0.5,0.7-0.7c0.2-0.2,0.4-0.5,0.5-0.7c0.1-0.2,0.2-0.4,0.3-0.5
	C243.9,79.6,243.9,79.5,243.8,79.5"/>
<path class="st0" d="M252.2,82.3c0.1,0,0.1,0.1,0,0.4c-0.1,0.3-0.2,0.6-0.5,1c-0.2,0.4-0.5,0.8-0.8,1.3c-0.3,0.5-0.7,0.9-1.1,1.3
	c-0.4,0.4-0.8,0.7-1.2,1c-0.4,0.3-0.8,0.4-1.2,0.4c-0.5,0-1-0.1-1.3-0.3c-0.4-0.2-0.6-0.4-0.8-0.7c-0.2-0.3-0.3-0.6-0.4-1
	c-0.1-0.4-0.1-0.7-0.1-1.1c0-0.3,0.1-0.7,0.2-1.2c0.1-0.4,0.3-0.9,0.5-1.4c0.2-0.5,0.4-0.9,0.6-1.3c0.2-0.4,0.4-0.8,0.6-1.2
	c0.2-0.3,0.4-0.6,0.5-0.8c0.2-0.2,0.3-0.3,0.4-0.3c0.1,0,0.3,0,0.5,0.1c0.2,0.1,0.3,0.2,0.5,0.3c0.1,0.1,0.3,0.3,0.4,0.4
	c0.1,0.1,0.1,0.3,0.1,0.4c0,0.1-0.1,0.3-0.2,0.5c-0.1,0.2-0.3,0.5-0.5,0.9c-0.2,0.4-0.4,0.7-0.6,1.2c-0.2,0.4-0.4,0.9-0.6,1.3
	c-0.2,0.4-0.3,0.9-0.5,1.3c-0.1,0.4-0.2,0.8-0.2,1.2c0,0.4,0.2,0.5,0.6,0.5c0.2,0,0.5-0.1,0.9-0.3c0.3-0.2,0.7-0.5,1-0.8
	c0.4-0.3,0.7-0.6,1.1-1c0.4-0.4,0.7-0.7,1-1c0.3-0.3,0.6-0.6,0.8-0.8C252,82.4,252.1,82.3,252.2,82.3 M249.3,77.3
	c-0.3-0.2-0.4-0.4-0.4-0.8c0-0.4,0-0.7,0.3-1.1c0.2-0.4,0.5-0.6,0.8-0.7c0.3-0.1,0.6-0.1,0.9,0c0.3,0.2,0.4,0.4,0.5,0.8
	c0,0.4-0.1,0.7-0.3,1.1c-0.2,0.4-0.5,0.6-0.8,0.7C249.9,77.5,249.6,77.5,249.3,77.3"/>
<path id="XMLID_72_" class="st0" d="M262.1,82.3c0.1,0,0.1,0.1,0,0.4c-0.1,0.3-0.2,0.6-0.5,1c-0.2,0.4-0.5,0.8-0.8,1.3
	c-0.3,0.5-0.7,0.9-1.1,1.3c-0.4,0.4-0.8,0.7-1.2,1c-0.4,0.3-0.8,0.4-1.2,0.4c-0.3,0-0.6-0.1-1-0.2c-0.3-0.1-0.6-0.3-0.9-0.5
	c-0.3-0.2-0.5-0.5-0.6-0.8c-0.2-0.3-0.2-0.7-0.2-1.1c0-0.3,0-0.7,0.1-1.1c0.1-0.4,0.2-0.8,0.4-1.2c-0.4,0.6-0.7,1.1-1.1,1.7
	c-0.4,0.6-0.7,1.1-1,1.6c-0.3,0.5-0.6,0.9-0.9,1.2c-0.3,0.3-0.5,0.4-0.7,0.4c-0.3,0-0.5-0.1-0.7-0.2c-0.2-0.1-0.4-0.3-0.5-0.6
	c-0.1-0.2-0.3-0.5-0.3-0.7c-0.1-0.3-0.1-0.5-0.1-0.7c0-0.3,0.1-0.6,0.2-1.1c0.1-0.5,0.3-1,0.5-1.5c0.2-0.5,0.5-1.1,0.7-1.6
	c0.3-0.5,0.5-1,0.8-1.4c0.3-0.4,0.5-0.8,0.7-1c0.2-0.3,0.4-0.4,0.5-0.4c0.3,0,0.5,0.1,0.5,0.3c0.1,0.2,0.1,0.5,0,0.9
	c-0.1,0.4-0.2,0.8-0.3,1.3c-0.2,0.5-0.3,1-0.5,1.5c-0.2,0.5-0.4,1-0.6,1.6c-0.2,0.5-0.4,1-0.5,1.5c0.2-0.4,0.5-0.8,0.8-1.3
	c0.3-0.5,0.6-1,1-1.5c0.3-0.5,0.7-1,1-1.5c0.3-0.5,0.7-1,1-1.4c0.3-0.4,0.6-0.7,0.9-1c0.3-0.2,0.6-0.4,0.8-0.4c0.5,0,0.8,0.1,1,0.4
	c0.1,0.3,0.2,0.6,0.1,1.1c-0.1,0.4-0.2,0.9-0.5,1.5c-0.2,0.6-0.5,1.1-0.7,1.7c-0.2,0.6-0.5,1.1-0.7,1.6c-0.2,0.5-0.3,1-0.3,1.3
	c0,0.4,0.2,0.6,0.5,0.6c0.2,0,0.5-0.1,0.9-0.3c0.3-0.2,0.7-0.5,1-0.8c0.3-0.3,0.7-0.6,1-1c0.4-0.4,0.7-0.7,1-1
	c0.3-0.3,0.6-0.6,0.8-0.8C261.9,82.4,262,82.3,262.1,82.3"/>
<path class="st1" d="M263,17.4c-2.2,0-4-1.8-4-4c0-2.2,1.8-4,4-4c2.2,0,4,1.7,4,4C266.9,15.6,265.1,17.4,263,17.4 M150.8,43h7.1
	l0.8-21.2l7.2,12.6h3.8l6.8-12.7l0.9,21.4h7.4l-1.5-32.7h-7.1l-8.3,15.3l-8.5-15.3h-7L150.8,43z M207.5,36.1
	c-0.5,0.4-1.4,0.9-2.5,1.4c-1.1,0.5-2.6,0.8-4.5,0.8c-1.9,0-3.3-0.5-4.4-1.4c-1.1-0.9-1.6-2-1.6-3.3h16.4v-1.2
	c0-1.9-0.2-3.7-0.7-5.3c-0.5-1.6-1.2-3-2.2-4.2c-1-1.2-2.1-2.1-3.6-2.7c-1.4-0.7-3-1-4.9-1c-1.9,0-3.5,0.3-5,1
	c-1.5,0.7-2.7,1.6-3.7,2.7c-1,1.1-1.8,2.4-2.3,3.9c-0.5,1.5-0.8,3-0.8,4.6c0,1.8,0.3,3.5,0.9,5c0.6,1.5,1.4,2.8,2.5,3.9
	c1.1,1.1,2.4,1.9,4,2.5c1.6,0.6,3.3,0.9,5.3,0.9c1.5,0,2.8-0.1,3.9-0.4c1.1-0.3,2.1-0.6,3-1c0.8-0.4,1.5-0.7,2-1.1
	c0.5-0.4,0.9-0.6,1.2-0.8L207.5,36.1z M194.6,29.1c0-0.5,0.1-1,0.3-1.5c0.2-0.5,0.5-1,0.9-1.4c0.4-0.4,0.9-0.8,1.5-1.1
	c0.6-0.3,1.3-0.4,2.2-0.4c0.8,0,1.5,0.1,2.1,0.4c0.6,0.3,1.1,0.6,1.5,1.1c0.4,0.4,0.7,0.9,0.9,1.4c0.2,0.5,0.3,1,0.3,1.5H194.6z
	 M234.9,43h21.5V37h-14.1V10.4h-7.4V43z M259.4,43h7.1v-23H263h-3.5V43z M290.4,11.9c-1-0.9-2.2-1.5-3.5-1.9
	c-1.3-0.4-2.5-0.5-3.8-0.5c-1.2,0-2.3,0.2-3.5,0.6c-1.1,0.4-2.1,0.9-3,1.7c-0.9,0.8-1.6,1.7-2.1,2.9c-0.5,1.2-0.8,2.6-0.8,4.2v1.2
	h-3.7v5.5h3.7V43h7V25.6h5.4v-5.5h-5.4v-1.3c0-1.1,0.3-2,0.9-2.6c0.6-0.6,1.4-0.9,2.4-0.9c0.6,0,1.2,0.1,1.8,0.3
	c0.6,0.2,1.1,0.5,1.6,0.8L290.4,11.9z M229.4,36.9c-0.5,0.3-0.9,0.6-1.5,0.9c-0.5,0.2-1.1,0.4-1.9,0.4c-0.9,0-1.6-0.3-2.1-0.9
	c-0.4-0.6-0.7-1.5-0.7-2.6v-9.1h5.9v-5.5h-5.9v-6.2h-7.1v6.2h-3.6v5.5h3.6v8.7c0,1.4,0.1,2.7,0.4,3.9c0.3,1.2,0.8,2.2,1.5,3
	c0.7,0.8,1.6,1.5,2.7,2c1.1,0.5,2.5,0.7,4.1,0.7c2.6,0,5-0.9,7.3-2.6L229.4,36.9z M307.4,36.1c-0.5,0.4-1.4,0.9-2.5,1.4
	c-1.1,0.5-2.6,0.8-4.5,0.8c-1.9,0-3.3-0.5-4.4-1.4c-1.1-0.9-1.6-2-1.6-3.3h16.4v-1.2c0-1.9-0.2-3.7-0.7-5.3c-0.5-1.6-1.2-3-2.2-4.2
	c-1-1.2-2.1-2.1-3.6-2.7c-1.4-0.7-3-1-4.9-1c-1.9,0-3.5,0.3-5,1c-1.5,0.7-2.7,1.6-3.7,2.7c-1,1.1-1.8,2.4-2.3,3.9
	c-0.5,1.5-0.8,3-0.8,4.6c0,1.8,0.3,3.5,0.9,5c0.6,1.5,1.4,2.8,2.5,3.9c1.1,1.1,2.4,1.9,4,2.5c1.6,0.6,3.3,0.9,5.3,0.9
	c1.5,0,2.8-0.1,3.9-0.4c1.1-0.3,2.1-0.6,3-1c0.8-0.4,1.5-0.7,2-1.1c0.5-0.4,0.9-0.6,1.2-0.8L307.4,36.1z M294.5,29.1
	c0-0.5,0.1-1,0.3-1.5c0.2-0.5,0.5-1,0.9-1.4c0.4-0.4,0.9-0.8,1.5-1.1c0.6-0.3,1.3-0.4,2.2-0.4c0.8,0,1.5,0.1,2.1,0.4
	c0.6,0.3,1.1,0.6,1.5,1.1c0.4,0.4,0.7,0.9,0.9,1.4c0.2,0.5,0.3,1,0.3,1.5H294.5z"/>
<path id="XMLID_61_" class="st2" d="M7.4,1.3v26.2v0.2c0.3,13,10.9,23.3,24,23.3h0.1h26.8V1.3H7.4z"/>
<path class="st3" d="M42.4,7.1L42.4,7.1h9.5v38.6h-9.5V35c-8.4,3.1-16.2,3.4-23.4-3.8c-3-3.1-4.7-7.4-4-14.8
	c0.1-1.1-0.4-6.2-1.7-9.2h8.4c3.9,6.4-1.2,14.3,4.9,19.5c8.2,5.4,15.5-1.1,15.8-6.9V7.1z M32.8,11c4.5,0,8.2,3.7,8.2,8.1
	c0,4.5-3.7,8.2-8.2,8.2c-4.5,0-8.1-3.7-8.1-8.2C24.7,14.7,28.3,11,32.8,11"/>
<path id="XMLID_58_" class="st4" d="M35.5,14.3c0.2-0.7,0-1.3-0.6-1.5c-0.5-0.2-1.1,0.2-1.3,0.9c-0.2,0.7,0,1.3,0.6,1.5
	C34.7,15.4,35.3,15,35.5,14.3"/>
<path id="XMLID_57_" class="st2" d="M33.7,23.5c-0.7,0.5-1.2,0.9-1.4,0.9c-0.2,0-0.2-0.1-0.2-0.2c0-0.2,0.1-0.7,0.3-1.3
	c0.2-0.6,1.6-5,1.8-5.5c0.2-0.6,0.2-0.9,0.2-1.1c0-0.2-0.2-0.3-0.4-0.3c-0.3,0-0.9,0.2-1.5,0.6c-0.6,0.4-1.3,1.1-2.1,1.8l0.3,0.4
	l0.3-0.3c0,0,0.3-0.3,0.7-0.5c0.3-0.2,0.5-0.2,0.5-0.2s0.2,0,0.2,0.2c0,0.1-2.1,6.1-2.1,6.1c-0.2,0.6-0.3,1.1-0.3,1.4
	c0,0.2,0.1,0.4,0.2,0.5c0.1,0.1,0.2,0.2,0.5,0.2c0.3,0,0.9-0.2,1.6-0.8c0.8-0.4,1.4-1.1,2.1-1.6l-0.4-0.5
	C34.1,23.2,33.7,23.5,33.7,23.5"/>
<path id="XMLID_56_" class="st2" d="M117.2,10.2h7.3v20.6c0,0-0.1,3.8,2.1,5.3c0.7,0.5,1.4,0.7,2.1,0.8c0.7,0,1.4-0.1,1.9-0.3
	c1.2-0.3,2.3-1.5,2.7-2.7c0.2-0.4,0.7-2.3,0.1-3.8c-0.5-1.5-2.2-2.6-3.1-2.8c-1-0.3-2.4-0.3-4.2,0.3v-7.2c0,0,4.9-1.5,9,0.8
	c3,1.5,5,4.6,5.7,7.6c0.3,1.2,0.4,2.4,0.3,3.7c-0.3,4-2,9.1-8,11.2c-3.4,1.1-6.9,0.5-9.7-0.7c-2.9-1.4-4.6-3.5-5.5-5.5
	c-0.5-1.3-0.7-2.6-0.8-4.5c-0.1-1.5-0.2-3.3-0.2-4.4C117.1,21.9,117.2,10.2,117.2,10.2"/>
<path id="XMLID_55_" class="st2" d="M67.9,52.3h7.8V31.5c0,0-0.1-3.7,2.2-5.3c0.7-0.4,1.5-0.7,2.2-0.7c0.7-0.1,1.5,0,2,0.2
	c1.3,0.4,2.4,1.6,2.9,2.7c0.2,0.5,0.7,2.3,0.1,3.8c-0.6,1.6-2.3,2.6-3.4,2.9c-1.1,0.2-2.5,0.2-4.4-0.3v7.2c0,0,5.1,1.5,9.5-0.8
	c3.2-1.6,5.2-4.6,6-7.6c0.3-1.2,0.4-2.5,0.3-3.7c-0.3-4-2.1-9.1-8.4-11.2c-3.7-1.2-7.3-0.5-10.2,0.7c-3.3,1.3-5,3.4-5.8,5.4
	c-0.6,1.3-0.8,2.6-1,4.5c-0.1,1.6-0.1,3.2-0.1,4.4V52.3"/>
<path id="XMLID_54_" class="st2" d="M95.1,42.3v-14c0,0,0.1-7.6,6.5-9.4c6.4-1.8,10.9,1.7,12.1,4c1.2,2.1,1.5,5.3,1.5,6.4
	c-0.1,1,0,13.1,0,13.1h-7.6V29.2c0,0,0.1-3.5-2.5-3.5c-2.6,0-2.4,2.9-2.4,2.9v13.5L95.1,42.3z"/>
<path id="XMLID_53_" class="st5" d="M4.2,43.8c0,0,3.7,11.5,20.3,13.3h286.3v5H24.2c-0.2,0-0.4,0-0.6,0C21,61.8,4.7,59.4,4.2,43.8"
	/>
</svg>
