<svg xmlns="http://www.w3.org/2000/svg" width="34.551" height="42.87" viewBox="0 0 34.551 42.87">
  <g id="Regular_Incom_With_Bonuses" data-name="Regular Incom With Bonuses" transform="translate(-9 -3)">
    <path id="Path_3116" data-name="Path 3116" d="M14.332,49.378c1.087-.535,2.132-1.04,3.168-1.564.5-.251.629.118.79.429.728,1.4,1.448,2.8,2.174,4.2.389.749.769,1.5,1.185,2.238.183.321.186.509-.154.725-1.011.638-2,1.309-3.057,2.008C17.05,54.695,15.7,52.047,14.332,49.378Zm5.438,4.871a.826.826,0,0,0-.988.618.852.852,0,0,0,.648.978.863.863,0,0,0,.968-.663A.823.823,0,0,0,19.77,54.249Z" transform="translate(-1.375 -11.539)" fill="#0061a0"/>
    <path id="Path_3117" data-name="Path 3117" d="M44.934,42.474v.481c0,.884.007.909-.84,1.129a14.059,14.059,0,0,1-7.191-.009c-.816-.214-.807-.251-.806-1.11v-.486A16.231,16.231,0,0,0,44.934,42.474Z" transform="translate(-6.99 -10.183)" fill="#b7dd58"/>
    <path id="Path_3118" data-name="Path 3118" d="M26.671,23.073a16.215,16.215,0,0,0,8.817,0,9.678,9.678,0,0,1-.014,1.078.493.493,0,0,1-.3.327,14.328,14.328,0,0,1-1.994.5,14.5,14.5,0,0,1-5.441-.228c-1.1-.267-1.1-.287-1.085-1.395C26.656,23.269,26.665,23.18,26.671,23.073Z" transform="translate(-4.553 -5.178)" fill="#b7dd58"/>
    <path id="Path_3119" data-name="Path 3119" d="M26.681,26.958a16.161,16.161,0,0,0,8.8,0A8.267,8.267,0,0,1,35.472,28a.534.534,0,0,1-.306.366,12.956,12.956,0,0,1-7.387.269C26.406,28.266,26.639,28.417,26.681,26.958Z" transform="translate(-4.55 -6.18)" fill="#b7dd58"/>
    <path id="Path_3120" data-name="Path 3120" d="M44.934,34.711v.436c0,.931.009.958-.884,1.185a14.054,14.054,0,0,1-7.147-.021c-.816-.214-.807-.249-.806-1.11v-.486A16.208,16.208,0,0,0,44.934,34.711Z" transform="translate(-6.99 -8.18)" fill="#b7dd58"/>
    <path id="Path_3121" data-name="Path 3121" d="M36.1,38.595a16.263,16.263,0,0,0,8.834-.008,6.392,6.392,0,0,1-.02,1.1.639.639,0,0,1-.431.371,24.011,24.011,0,0,1-2.946.54,12.537,12.537,0,0,1-4.627-.406c-.816-.239-.811-.254-.81-1.109C36.1,38.927,36.1,38.768,36.1,38.595Z" transform="translate(-6.99 -9.18)" fill="#b7dd58"/>
    <path id="Path_3122" data-name="Path 3122" d="M36.431,32.433c1.68-1.044,7.072-.948,8.461.039A13.937,13.937,0,0,1,36.431,32.433Z" transform="translate(-7.076 -7.401)" fill="#b7dd58"/>
    <path id="Path_3123" data-name="Path 3123" d="M35.431,20.827a14.494,14.494,0,0,1-8.534,0C28.153,19.809,33.91,19.765,35.431,20.827Z" transform="translate(-4.617 -4.398)" fill="#b7dd58"/>
    <path id="Path_3124" data-name="Path 3124" d="M26.646,30.81a15.735,15.735,0,0,0,5.716.583c-.07.472-.139.93-.221,1.477a15.5,15.5,0,0,1-1.789-.013c-1.021-.117-2.034-.306-3.047-.481a.7.7,0,0,1-.666-.9A3.894,3.894,0,0,0,26.646,30.81Z" transform="translate(-4.545 -7.174)" fill="#b7dd58"/>
    <path id="Path_3125" data-name="Path 3125" d="M32.3,44.512a16.89,16.89,0,0,1-1.931-.014c-1.036-.117-2.064-.316-3.095-.489a.677.677,0,0,1-.637-.877,4.446,4.446,0,0,0,.006-.679,16.382,16.382,0,0,0,5.524.615C32.213,43.538,32.254,43.975,32.3,44.512Z" transform="translate(-4.546 -10.177)" fill="#b7dd58"/>
    <path id="Path_3126" data-name="Path 3126" d="M32.2,35.3v1.447a15.982,15.982,0,0,1-1.837-.013c-1.035-.122-2.061-.318-3.089-.494a.679.679,0,0,1-.628-.882,4.5,4.5,0,0,0,.006-.671A16.3,16.3,0,0,0,32.2,35.3Z" transform="translate(-4.547 -8.174)" fill="#b7dd58"/>
    <path id="Path_3127" data-name="Path 3127" d="M32.134,39.182c.052.067.068.078.068.09,0,1.657.3,1.384-1.232,1.342a22.4,22.4,0,0,1-3.586-.466c-.745-.143-.728-.224-.728-.975v-.607A15.965,15.965,0,0,0,32.134,39.182Z" transform="translate(-4.554 -9.175)" fill="#b7dd58"/>
    <path id="Path_3128" data-name="Path 3128" d="M23.586,53.012c-.983-1.865-2-3.785-3-5.717a.611.611,0,0,1,.087-.53,6.925,6.925,0,0,1,8.49-1.976,18.847,18.847,0,0,0,5.6,2.128c.882.16,1.776.258,2.652.447a1.146,1.146,0,0,1,.944,1.114,1.166,1.166,0,0,1-.979,1.07,7.3,7.3,0,0,1-.767.172,18.728,18.728,0,0,1-6.373-.34,3.98,3.98,0,0,0-.5-.036c-.013.054-.026.106-.04.16a3.336,3.336,0,0,0,.571.253,16.477,16.477,0,0,0,6.307.382c1.036-.16,1.935-.475,2.187-1.68a.8.8,0,0,1,.466-.447c1.625-.612,3.26-1.2,4.893-1.79a1.539,1.539,0,0,1,.278-.04.971.971,0,0,1,1.16.461.939.939,0,0,1-.368,1.191,16.245,16.245,0,0,1-2,1.544,23.623,23.623,0,0,1-7.805,2.915,23.386,23.386,0,0,1-5.33.107,36.348,36.348,0,0,0-4.041.051A16.393,16.393,0,0,0,23.586,53.012Z" transform="translate(-2.981 -10.593)" fill="#0061a0"/>
    <path id="Path_3129" data-name="Path 3129" d="M24.638,13.135c.137-.808.248-1.664.439-2.5a.982.982,0,0,0-.354-1.076A22.422,22.422,0,0,1,23.041,7.9a1.031,1.031,0,0,1-.3-.8c.08-.217.463-.395.741-.45a23.46,23.46,0,0,1,2.387-.35.856.856,0,0,0,.787-.582c.347-.767.715-1.527,1.123-2.262A.91.91,0,0,1,28.393,3a.9.9,0,0,1,.617.453c.425.769.768,1.584,1.2,2.351a1.084,1.084,0,0,0,.658.466c.824.164,1.67.227,2.494.393a1.058,1.058,0,0,1,.71.488c.074.187-.126.559-.308.753-.562.6-1.162,1.169-1.769,1.725a.837.837,0,0,0-.3.885c.171.824.32,1.656.418,2.492a.964.964,0,0,1-.228.776.984.984,0,0,1-.811-.042c-.78-.364-1.52-.811-2.3-1.176a1,1,0,0,0-.754,0c-.829.39-1.624.854-2.446,1.26C25.02,14.1,24.6,13.79,24.638,13.135Z" transform="translate(-3.541)" fill="#0090da"/>
    <path id="Path_3130" data-name="Path 3130" d="M10.649,29.425c.121-.713.224-1.475.386-2.225a.768.768,0,0,0-.282-.83,20.4,20.4,0,0,1-1.52-1.5.928.928,0,0,1-.218-.733c.05-.181.364-.366.589-.411.733-.148,1.485-.207,2.218-.356a.952.952,0,0,0,.562-.424c.357-.636.635-1.317,1-1.949A.9.9,0,0,1,14,20.552a.915.915,0,0,1,.61.455c.363.632.642,1.313,1,1.947a.963.963,0,0,0,.568.421c.677.143,1.375.186,2.05.333.278.06.689.245.734.443a1.171,1.171,0,0,1-.334.845c-.443.507-.974.934-1.421,1.437a1.039,1.039,0,0,0-.236.719c.076.725.253,1.439.329,2.164a.9.9,0,0,1-.233.722.94.94,0,0,1-.768-.027c-.648-.292-1.275-.633-1.892-.987a.747.747,0,0,0-.829.006q-.954.537-1.938,1.022C11.07,30.335,10.632,30.065,10.649,29.425Z" transform="translate(0 -4.528)" fill="#0090da"/>
    <path id="Path_3131" data-name="Path 3131" d="M43.778,23.236c.116-.694.273-1.466.361-2.246a1.034,1.034,0,0,0-.239-.718c-.463-.514-1.006-.955-1.464-1.473a1.076,1.076,0,0,1-.292-.808c.049-.194.426-.379.685-.433.713-.15,1.445-.21,2.16-.348a.8.8,0,0,0,.487-.361c.361-.656.655-1.348,1.026-2a.643.643,0,0,1,1.226-.007c.354.615.653,1.263.951,1.909a.748.748,0,0,0,.664.5,19.793,19.793,0,0,1,2.052.307c.261.055.64.237.69.431a1.084,1.084,0,0,1-.292.811,18.9,18.9,0,0,1-1.44,1.417.769.769,0,0,0-.28.831,15.959,15.959,0,0,1,.344,2.047.979.979,0,0,1-.235.779,1,1,0,0,1-.811-.041c-.648-.289-1.254-.672-1.9-.966a.959.959,0,0,0-.71,0c-.7.321-1.357.717-2.048,1.051C44.18,24.177,43.763,23.893,43.778,23.236Z" transform="translate(-8.547 -2.941)" fill="#0090da"/>
  </g>
</svg>
