<svg id="Riders" xmlns="http://www.w3.org/2000/svg" width="42.572" height="48.245" viewBox="0 0 42.572 48.245">
  <path id="Path_2811" data-name="Path 2811" d="M79.168,6.065C74.392,5.666,69.86,5.3,66.328,0,62.8,5.3,58.274,5.676,53.487,6.065c-1.2.094-2.436.2-3.67.388-5.883,15.571-1.638,28.435,12.958,39.316.6.441,1.085.829,1.479,1.144.947.745,1.468,1.165,1.926,1.165.543,0,1.287-.546,2.777-1.626l.3-.22c15.117-10.975,19.564-23.986,13.6-39.777C81.615,6.275,80.371,6.17,79.168,6.065Z" transform="translate(-42.836)" fill="#0090da"/>
  <path id="Path_2812" data-name="Path 2812" d="M31.853,7.865c-4.777-.4-9.309-.766-12.841-6.065C15.48,7.1,10.959,7.476,6.171,7.865c-1.2.094-2.436.2-3.67.388C-3.382,23.824.852,36.688,15.459,47.569c.6.441,1.085.829,1.479,1.144.947.745,1.468,1.165,1.926,1.165.543,0,1.287-.546,2.777-1.626l.3-.22C37.045,37.055,41.492,24.044,35.524,8.253,34.3,8.064,33.055,7.959,31.853,7.865Z" transform="translate(0.059 -1.632)" fill="#0061a0"/>
  <path id="Path_2813" data-name="Path 2813" d="M100.11,142.634a.977.977,0,0,1-.972.972H93.725v5.412a.971.971,0,0,1-.972.972H89.275a.971.971,0,0,1-.972-.972v-5.412H82.872a.977.977,0,0,1-.972-.972v-3.477a.971.971,0,0,1,.972-.972h5.412v-5.412a.971.971,0,0,1,.972-.972h3.477a.971.971,0,0,1,.972.972v5.4h5.412a.971.971,0,0,1,.972.972v3.487Z" transform="translate(-72.442 -116.875)" fill="#fff"/>
</svg>
