<svg id="Save_Long_Term" data-name="Save Long Term" xmlns="http://www.w3.org/2000/svg" width="50.26" height="46.964" viewBox="0 0 50.26 46.964">
  <path id="Path_2908" data-name="Path 2908" d="M11.877,53.535c-1.259-2.4-2.564-4.879-3.838-7.371a.791.791,0,0,1,.111-.684c2.584-3.286,7.331-4.487,10.868-2.549a23.979,23.979,0,0,0,7.172,2.742c1.129.206,2.274.333,3.394.578a1.476,1.476,0,0,1,1.208,1.436,1.5,1.5,0,0,1-1.253,1.38,9.566,9.566,0,0,1-.982.222,23.853,23.853,0,0,1-8.157-.437,5.285,5.285,0,0,0-.645-.048c-.017.07-.033.138-.051.208a4.192,4.192,0,0,0,.731.325,20.93,20.93,0,0,0,8.073.492c1.327-.208,2.477-.613,2.8-2.165a1.027,1.027,0,0,1,.6-.577c2.081-.79,4.173-1.547,6.264-2.307a1.893,1.893,0,0,1,.356-.051,1.237,1.237,0,0,1,1.485.6,1.216,1.216,0,0,1-.472,1.535,20.792,20.792,0,0,1-2.562,1.991,30.124,30.124,0,0,1-9.991,3.76,29.691,29.691,0,0,1-6.822.137,45.852,45.852,0,0,0-5.172.067A20.673,20.673,0,0,0,11.877,53.535Z" transform="translate(-2.232 -10.691)" fill="#079add"/>
  <path id="Path_2909" data-name="Path 2909" d="M1,48.1c1.324-.683,2.6-1.328,3.859-2,.6-.319.766.151.962.547.888,1.784,1.763,3.573,2.649,5.36.473.957.937,1.92,1.444,2.858.222.41.228.65-.188.925C8.5,56.61,7.291,57.467,6,58.359Zm6.624,6.219a1.006,1.006,0,0,0-1.2.79,1.089,1.089,0,0,0,.789,1.249,1.042,1.042,0,0,0,.414-2.038Z" transform="translate(-1 -11.395)" fill="#079add"/>
  <path id="Path_2910" data-name="Path 2910" d="M43.948,9c1.3,2.567,2.652,5.211,3.97,7.87a.881.881,0,0,1-.111.732c-2.637,3.529-7.5,4.835-11.136,2.777a24.008,24.008,0,0,0-7.369-2.9c-1.16-.216-2.334-.345-3.485-.6a1.561,1.561,0,0,1-1.245-1.531,1.586,1.586,0,0,1,1.279-1.483,9.43,9.43,0,0,1,1.007-.242,23.478,23.478,0,0,1,8.368.431,5.186,5.186,0,0,0,.661.048c.016-.075.034-.148.05-.222a4.2,4.2,0,0,0-.751-.345,20.575,20.575,0,0,0-8.283-.49c-1.359.227-2.538.668-2.862,2.33a1.072,1.072,0,0,1-.609.619c-2.13.855-4.273,1.674-6.415,2.5a2,2,0,0,1-.365.057,1.246,1.246,0,0,1-1.525-.631A1.33,1.33,0,0,1,15.6,16.27a21.513,21.513,0,0,1,2.619-2.143,30.115,30.115,0,0,1,10.232-4.069,29.2,29.2,0,0,1,7-.177,45.086,45.086,0,0,0,5.305-.095A20.132,20.132,0,0,0,43.948,9Z" transform="translate(-3.465 -4.88)" fill="#079add"/>
  <path id="Path_2911" data-name="Path 2911" d="M60.063,14.236c-1.317.689-2.584,1.34-3.839,2.016-.6.322-.763-.148-.961-.542-.892-1.781-1.771-3.568-2.66-5.35-.476-.955-.942-1.917-1.451-2.852-.223-.41-.23-.649.185-.927,1.223-.82,2.419-1.682,3.7-2.581C56.736,7.46,58.392,10.833,60.063,14.236ZM53.437,8.045a1,1,0,0,0,1.2-.8A1.088,1.088,0,0,0,53.843,6a1.042,1.042,0,0,0-.406,2.04Z" transform="translate(-9.803 -4)" fill="#079add"/>
  <path id="Path_2912" data-name="Path 2912" d="M30.628,31.222h-.319c-.815,0-1.629,0-2.444,0a.567.567,0,1,1,0-1.13q1.37,0,2.739,0H30.8a1.488,1.488,0,0,0-.064-.175,1.282,1.282,0,0,0-1.181-.765c-.568-.011-1.137,0-1.706,0a.571.571,0,0,1-.572-.772.564.564,0,0,1,.552-.359c.694,0,1.388,0,2.084,0h2.855a.546.546,0,0,1,.517.31.529.529,0,0,1-.044.581.574.574,0,0,1-.494.241c-.312,0-.623,0-.935,0h-.152c.116.313.229.613.351.942.222,0,.478,0,.733,0a.566.566,0,1,1,.009,1.13c-.251,0-.5,0-.755.006a.193.193,0,0,0-.147.082,2.466,2.466,0,0,1-2.091,1.6.353.353,0,0,0-.062.02c.058.042.1.077.151.109q1.211.815,2.425,1.631a.578.578,0,0,1,.3.584.569.569,0,0,1-.9.384c-.632-.417-1.256-.843-1.883-1.265q-1.124-.757-2.249-1.513a.586.586,0,0,1-.3-.569.574.574,0,0,1,.6-.5c.579,0,1.159.006,1.738-.006A1.3,1.3,0,0,0,30.628,31.222Z" transform="translate(-5.62 -8.228)" fill="#b7dd58"/>
  <path id="Path_2913" data-name="Path 2913" d="M29.153,39.089a8.672,8.672,0,1,1,8.779-8.672A8.736,8.736,0,0,1,29.153,39.089Zm0-15.727a7.055,7.055,0,1,0,7.141,7.054A7.106,7.106,0,0,0,29.153,23.362Z" transform="translate(-4.411 -7.124)" fill="#b7dd58"/>
</svg>
