<svg xmlns="http://www.w3.org/2000/svg" width="32" height="39.262" viewBox="0 0 32 39.262">
  <g id="Group_4565" data-name="Group 4565" transform="translate(-2.117 -1)">
    <circle id="Ellipse_91" data-name="Ellipse 91" cx="6.956" cy="6.956" r="6.956" transform="translate(11.159 13.675)" fill="#0061a0"/>
    <path id="Path_1905" data-name="Path 1905" d="M14.637,12.132a2.8,2.8,0,0,1-2.782-2.784,3.005,3.005,0,0,1,3.01-2.79l7.425.008a.7.7,0,1,1,0,1.391H14.637a1.391,1.391,0,1,0,0,2.782,23.131,23.131,0,0,1,7.945,1.535,10.92,10.92,0,0,0,3.4.542,6.677,6.677,0,0,0,3.723-1.286c1.117-.686,2.09-1.5,3.712-1.5a.7.7,0,0,0,.7-.7V3.774a.7.7,0,0,0-.7-.694l-1.412.005a20.661,20.661,0,0,1-6.925-1.012A19.11,19.11,0,0,0,18.8,1a10.573,10.573,0,0,0-7.454,2.987L2.724,12.742l-.016.013A2.212,2.212,0,0,0,2.117,14.2v.016A2.1,2.1,0,0,0,4.2,16.3c1.393,0,4.743-.016,5.566,0a1.98,1.98,0,0,0,1.391-.7c1.338-1.415,2.666-2.663,3.478-3.478Z" fill="#fff"/>
    <path id="Path_1906" data-name="Path 1906" d="M21.594,14.287a2.793,2.793,0,0,1,2.782,2.782,3,3,0,0,1-3.008,2.79l-7.425-.008a.7.7,0,1,1,0-1.391h7.651a1.391,1.391,0,0,0,0-2.782,23.131,23.131,0,0,1-7.945-1.535,10.985,10.985,0,0,0-3.4-.542,6.666,6.666,0,0,0-3.723,1.288c-1.115.686-2.09,1.5-3.712,1.5a.693.693,0,0,0-.694.694v5.563a.7.7,0,0,0,.694.694l1.412-.005a20.7,20.7,0,0,1,6.925,1.015,19.123,19.123,0,0,0,6.284,1.07,10.572,10.572,0,0,0,7.451-2.987l8.624-8.753.016-.016a2.227,2.227,0,0,0,.594-1.443V12.2a2.105,2.105,0,0,0-2.088-2.09c-1.391,0-4.74.018-5.566,0a1.985,1.985,0,0,0-1.391.7c-1.338,1.417-2.666,2.666-3.478,3.478Z" transform="translate(0 14.845)" fill="#fff"/>
    <g id="Group_4564" data-name="Group 4564" transform="translate(14.974 16.202)">
      <path id="Path_1907" data-name="Path 1907" d="M7.583,6.782h5.708v.011a8.391,8.391,0,0,1-.571.831H11.2a2.009,2.009,0,0,1,.429.9h1.625c.021.005.029.013.029.024-.363.547-.55.82-.557.82H11.666a2.345,2.345,0,0,1-1.336,1.79,3.685,3.685,0,0,1-1.591.4v.013q0,.059,3.436,4.078H10.662q-3.348-3.9-3.347-3.918v-.789l.013-.032a4.865,4.865,0,0,0,.694.042q1.873,0,2.332-1.215a1,1,0,0,0,.071-.368H7.031a.021.021,0,0,1-.024-.024q.564-.82.576-.82h2.692V8.509a1.571,1.571,0,0,0-.894-.731,2.822,2.822,0,0,0-.854-.155H7.018V7.594C7.383,7.053,7.57,6.782,7.583,6.782Z" transform="translate(-7.007 -6.782)" fill="#fff"/>
    </g>
  </g>
</svg>
