<svg id="Serious_Illness_Rider" data-name="Serious Illness Rider" xmlns="http://www.w3.org/2000/svg" width="33.377" height="36.374" viewBox="0 0 33.377 36.374">
  <path id="Path_3022" data-name="Path 3022" d="M23.31,32.085q-1.041.917-2.18,1.753a.326.326,0,0,1-.46,0,26.352,26.352,0,0,1-11.5-22.8c.854-.135,1.7-.258,2.537-.4A27.606,27.606,0,0,0,20.45,7.586a.807.807,0,0,1,.9,0,27.764,27.764,0,0,0,10.784,3.331c.153.016.3.044.5.073,0,.583.016,1.171,0,1.757a27.044,27.044,0,0,1-.368,3.685,5.257,5.257,0,0,1,1.255.112A5.7,5.7,0,0,1,36.362,18a30.112,30.112,0,0,0,.474-4.023c.1-2.012.063-4.03.071-6.046a10.283,10.283,0,0,0-.114-1.139c-.412,0-.767.013-1.121,0-1.278-.054-2.565-.038-3.831-.192A23.967,23.967,0,0,1,23.65,4.021c-.919-.477-1.787-1.053-2.679-1.583h-.142a2.476,2.476,0,0,1-.237.2A24.73,24.73,0,0,1,6.1,6.794c-.4-.012-.8,0-1.228,0,.07,2.984-.119,5.925.213,8.857a28.889,28.889,0,0,0,3.25,10.563A31.674,31.674,0,0,0,20.521,38.656c.21.123.374.242.665.069A35.759,35.759,0,0,0,26.921,34.5,29.951,29.951,0,0,1,23.31,32.085Z" transform="translate(-4.875 -2.438)" fill="#fff"/>
  <path id="Path_3023" data-name="Path 3023" d="M21.184,27.325V26.236a1.2,1.2,0,0,0,.035-.154,6.4,6.4,0,0,1,1.693-3.835,5.378,5.378,0,0,1,7.855-.292c.26.25.494.525.736.783.272-.285.529-.589.821-.853A5.129,5.129,0,0,1,37,20.5a5.779,5.779,0,0,1,4.3,3.624,7.212,7.212,0,0,1,.06,5.333,12.713,12.713,0,0,1-3.041,4.7,27,27,0,0,1-6.5,4.75.614.614,0,0,1-.633,0l-.229-.127A26.82,26.82,0,0,1,24.7,34.164a13.845,13.845,0,0,1-2.619-3.653c-.03-.062-.055-.127-.093-.215h.256c.894,0,1.788,0,2.682,0a.688.688,0,0,0,.688-.426c.181-.382.376-.758.565-1.136.043-.085.087-.17.142-.278.047.091.078.15.108.21.631,1.26,1.256,2.523,1.9,3.779a.934.934,0,0,0,.359.383.588.588,0,0,0,.8-.351q.952-1.9,1.9-3.8c.031-.063.069-.123.12-.214.242.485.478.935.694,1.394a.711.711,0,0,0,.719.441c1.452-.006,2.9,0,4.355,0a1.136,1.136,0,0,0,.26-.026.6.6,0,0,0-.083-1.175,2.543,2.543,0,0,0-.262-.008c-1.277,0-2.554,0-3.831,0a.263.263,0,0,1-.276-.172c-.334-.681-.676-1.358-1.014-2.037a.635.635,0,0,0-.407-.363.606.606,0,0,0-.735.378q-.957,1.908-1.912,3.817c-.031.063-.066.124-.11.2-.044-.086-.076-.145-.106-.2q-.95-1.9-1.9-3.8a.621.621,0,0,0-1.173.006c-.328.669-.669,1.331-.995,2a.259.259,0,0,1-.275.171c-.793-.007-1.586,0-2.38,0-.578,0-.585,0-.7-.574C21.305,28.119,21.25,27.721,21.184,27.325Z" transform="translate(-8.466 -6.389)" fill="#fff"/>
  <path id="Path_3024" data-name="Path 3024" d="M22.689,31.911c-.1-.1-.194-.2-.288-.3l-.1-.107,0,0c-.186-.2-.362-.4-.526-.607h0q-.432-.523-.81-1.085l-.038-.056-.017-.026C18.091,25.564,19.335,23,19.335,23A6.247,6.247,0,0,1,20.9,19.993a5.378,5.378,0,0,1,7.855-.292c.26.25.494.525.736.783.272-.285.529-.589.82-.853a5.748,5.748,0,0,1,2.275-1.318,31.776,31.776,0,0,0,.634-4.727c-.534-.1-1.019-.178-1.5-.27A34.718,34.718,0,0,1,22.6,10.208a.558.558,0,0,0-.436-.019,34.279,34.279,0,0,1-10.374,3.333c-.208.031-.266.119-.247.319.057.613.078,1.23.154,1.839a27.4,27.4,0,0,0,8.323,16.756c.735.712,1.537,1.356,2.333,2.054q.838-.672,1.612-1.376Q23.308,32.544,22.689,31.911Zm6.243-13.728.181.18-.344.344Z" transform="translate(-6.344 -4.137)" fill="#fff"/>
</svg>
