<svg xmlns="http://www.w3.org/2000/svg" width="39.263" height="42.967" viewBox="0 0 39.263 42.967"><defs><style>.a{fill:#0090da;}.b{fill:#0061a0;}</style></defs><path class="a" d="M16.766,35c.051,2.27,3.553,4.1,7.865,4.1S32.444,37.27,32.5,35A12.66,12.66,0,0,1,44.263,47.4c0,6.879-5.8,6.861-12.958,6.861H17.958C10.8,54.261,5,54.279,5,47.4A12.659,12.659,0,0,1,16.766,35Z" transform="translate(-5 -11.294)"/><path class="b" d="M37.414,14.83c-.007.093-.014.184-.022.275-.584,6.963-4.448,12.342-9.132,12.342S19.713,22.068,19.128,15.1c-.007-.091-.015-.182-.022-.275-.042-.3-.069-.608-.086-.917-.012-.212-.02-.425-.02-.641a11.569,11.569,0,0,1,.106-1.558C19.783,6.78,23.624,3,28.261,3s8.477,3.78,9.154,8.714a11.428,11.428,0,0,1,.106,1.558c0,.216-.008.429-.019.641C37.483,14.223,37.456,14.528,37.414,14.83Zm-17.166.354c.531,6.082,3.915,10.77,8.012,10.77s7.481-4.689,8.013-10.77c0,0,.458-5.573-7.786-5.578C19.827,9.6,20.248,15.185,20.248,15.185Z" transform="translate(-8.629 -3)"/></svg>