<svg xmlns="http://www.w3.org/2000/svg" width="24.343" height="28.419" viewBox="0 0 24.343 28.419">
  <g id="Reason_2" transform="translate(0.315 0.092)">
    <path id="Path_1807" data-name="Path 1807" d="M58.129,1.172C57.067.4,54.653.593,53.494,1.365c-9.462-4.731-4.248,3.572-2.414,3.572h8.69C61.122,4.938,66.046-2.787,58.129,1.172Z" transform="translate(-43.642 0)" fill="#0090da" fill-rule="evenodd"/>
    <path id="Path_1808" data-name="Path 1808" d="M70.514,61.931a.967.967,0,1,1,0-1.931h8.593a.966.966,0,0,1,0,1.931Z" transform="translate(-63.075 -54.29)" fill="#0061a0"/>
    <path id="Path_1809" data-name="Path 1809" d="M6.763,88c-28.193,26.745,38.91,26.359,9.752,0Z" transform="translate(0 -79.587)" fill="#0090da" fill-rule="evenodd"/>
    <path id="Path_1810" data-name="Path 1810" d="M84.315,139.429l-.1-.1c-4.512-5.248-4.512-5.248-4.512-5.4v-1.079l.1-.245H80a4.769,4.769,0,0,0,.883.049c1.57,0,2.5-.491,2.894-1.471,0-.049.049-.1.049-.147H79.312l-.049-.294V130.7l.049-.049c.834-1.177.834-1.177.981-1.177h3.139a2.723,2.723,0,0,0-.834-.54,2.905,2.905,0,0,0-1.03-.2H79.312v-.343l.049-.1c.785-1.177.785-1.177.981-1.177h7.9v.294l-.049.1a5.62,5.62,0,0,1-.834,1.177l-.1.049H85.59a1.72,1.72,0,0,1,.294.687h1.962q.294.074.294.294v.1l-.049.049c-.785,1.226-.785,1.226-.932,1.226H85.983a3.234,3.234,0,0,1-.54,1.226,3.4,3.4,0,0,1-1.373,1.128,6.088,6.088,0,0,1-1.766.54c.441.54,1.619,1.962,4.316,5.1l.343.392H84.315Z" transform="translate(-71.895 -114.928)" fill="#fff"/>
  </g>
</svg>
