<svg xmlns="http://www.w3.org/2000/svg" width="35.747" height="30.781" viewBox="0 0 35.747 30.781">
  <g id="Group_7372" data-name="Group 7372" transform="translate(-5 -17.564)">
    <path id="Path_2780" data-name="Path 2780" d="M40.479,59.468c0-2.052-3.149-3.168-6.059-3.168-2.99,0-6.059,1.16-6.179,3.123a.429.429,0,0,0-.12.312v1.249a9.5,9.5,0,0,0-5.1-1.294c-3.189,0-6.458,1.249-6.458,3.346v1.651A9.225,9.225,0,0,0,11.378,63.3C8.229,63.3,5,64.553,5,66.65v3.257c0,2.1,3.269,3.212,6.378,3.212,2.272,0,4.664-.625,5.78-1.829,1.076,1.2,3.508,1.829,5.78,1.829s4.664-.625,5.74-1.829c1.036,1.2,3.349,1.785,5.621,1.785,3.508,0,6.179-1.428,6.179-3.3v-2.9a.626.626,0,0,0-.04-.268,1.375,1.375,0,0,0,.04-.4V63.3a.626.626,0,0,0-.04-.268,1.375,1.375,0,0,0,.04-.4V59.468Zm-1.2,6.737c0,.8-1.953,1.963-4.983,1.963-3.07,0-4.983-1.115-4.983-1.874V64.732A9.458,9.458,0,0,0,34.3,65.981a8.688,8.688,0,0,0,4.983-1.294ZM17.757,64.955A9.888,9.888,0,0,0,23.019,66.2a9.4,9.4,0,0,0,5.1-1.294V66.2c0,.8-2.193,1.963-5.182,1.963-3.109,0-5.182-1.115-5.182-1.874Zm21.527-2.32c0,.8-1.953,1.963-4.983,1.963-3.07,0-4.983-1.115-4.983-1.874V61.386a9.3,9.3,0,0,0,5.1,1.249,9.019,9.019,0,0,0,4.863-1.249ZM34.42,57.594c2.99,0,4.9,1.115,4.9,1.874s-1.913,1.874-4.9,1.874c-3.03,0-5.023-1.071-5.023-1.829C29.357,58.754,31.47,57.594,34.42,57.594Zm-11.4,3.435c3.109,0,5.1,1.16,5.1,1.918s-1.993,1.918-5.1,1.918c-3.149,0-5.262-1.115-5.262-1.874C17.757,62.189,19.949,61.029,23.019,61.029ZM11.378,64.6c3.07,0,5.063,1.16,5.063,1.918s-1.953,1.918-5.063,1.918S6.2,67.319,6.2,66.561,8.388,64.6,11.378,64.6Zm0,7.138c-3.109,0-5.182-1.115-5.182-1.874V68.524a9.688,9.688,0,0,0,5.182,1.249,9.225,9.225,0,0,0,5.182-1.383v1.383C16.561,70.576,14.488,71.736,11.378,71.736Zm11.561,0c-3.109,0-5.182-1.115-5.182-1.874V68.212a9.69,9.69,0,0,0,5.182,1.294,9.694,9.694,0,0,0,5.182-1.338v1.606C28.121,70.576,26.048,71.736,22.939,71.736Zm11.361,0c-3.07,0-4.983-1.115-4.983-1.874V68.3A9.458,9.458,0,0,0,34.3,69.55a8.688,8.688,0,0,0,4.983-1.294v1.561C39.283,70.576,37.33,71.736,34.3,71.736Z" transform="translate(0 -24.773)" fill="#0090da"/>
    <path id="Path_2781" data-name="Path 2781" d="M41.589,19.9v-.178c0-.045-.04-.134-.04-.178s-.04-.089-.04-.134c-.04-.089-.04-.134-.08-.178,0-.045-.04-.089-.04-.134a1.164,1.164,0,0,0-.2-.268h0l-.04-.045a.41.41,0,0,0-.2-.178c-.04-.045-.08-.045-.119-.089a.291.291,0,0,0-.159-.089.137.137,0,0,0-.119-.045.22.22,0,0,0-.159-.045c-.04,0-.08-.045-.159-.045-.04,0-.08,0-.08-.045l-4.3-.669a1.69,1.69,0,0,0-1.831,1.561,1.82,1.82,0,0,0,1.394,2.052l.8.134-8.52,8.387-6.41-4.684a1.477,1.477,0,0,0-1.911.089L7.15,35.827a1.943,1.943,0,0,0-.279,2.543,1.608,1.608,0,0,0,1.274.714,1.433,1.433,0,0,0,1-.4l11.307-9.9,6.49,4.774a1.49,1.49,0,0,0,1.991-.178l9.4-9.324v.892a1.643,1.643,0,1,0,3.265,0V19.9Z" transform="translate(-0.842)" fill="#0090da"/>
  </g>
</svg>
