<svg xmlns="http://www.w3.org/2000/svg" width="26.333" height="32.547" viewBox="0 0 26.333 32.547">
  <g id="Wealth_Accumulation" data-name="Wealth Accumulation" transform="translate(-9 -3)">
    <path id="Path_2937" data-name="Path 2937" d="M35.511,3h-2.5a.729.729,0,0,0,0,1.458h.736l-5.2,5.2H25.108a.732.732,0,0,0-.515.214L18.567,15.9H15.544a.733.733,0,0,0-.515.214l-3.743,3.743a.732.732,0,0,0-.214.516H11.7a.1.1,0,0,1,.031-.073l.037-.037,1.04-.3.221.221,2.82-2.827h3.026a.733.733,0,0,0,.515-.214l6.026-6.026h3.445a.724.724,0,0,0,.516-.214l5.411-5.411v.736a.729.729,0,0,0,1.458,0V3.728A.731.731,0,0,0,35.511,3Z" transform="translate(-0.91 0)" fill="#fff"/>
    <path id="Path_2938" data-name="Path 2938" d="M38.267,21.78c3.079,0,4.969-1.034,4.969-1.775s-1.89-1.776-4.969-1.776S33.3,19.262,33.3,20,35.188,21.78,38.267,21.78Z" transform="translate(-10.671 -6.688)" fill="#fff"/>
    <path id="Path_2939" data-name="Path 2939" d="M38.266,31.195a10.881,10.881,0,0,1-4.03-.695,4.824,4.824,0,0,1-.939-.5v1.842c0,.742,1.891,1.776,4.97,1.776s4.969-1.034,4.969-1.776V29.995a4.819,4.819,0,0,1-.94.5A10.878,10.878,0,0,1,38.266,31.195Z" transform="translate(-10.671 -11.856)" fill="#fff"/>
    <path id="Path_2940" data-name="Path 2940" d="M38.266,25.312a10.893,10.893,0,0,1-4.03-.694,4.84,4.84,0,0,1-.939-.5v1.775c0,.742,1.891,1.776,4.97,1.776s4.969-1.035,4.969-1.776V24.112a4.834,4.834,0,0,1-.94.5A10.89,10.89,0,0,1,38.266,25.312Z" transform="translate(-10.671 -9.273)" fill="#fff"/>
    <path id="Path_2941" data-name="Path 2941" d="M38.266,37.2a10.887,10.887,0,0,1-4.03-.695A4.809,4.809,0,0,1,33.3,36V37.84c0,.741,1.891,1.775,4.97,1.775s4.969-1.034,4.969-1.775V36a4.78,4.78,0,0,1-.94.5A10.884,10.884,0,0,1,38.266,37.2Z" transform="translate(-10.671 -14.493)" fill="#fff"/>
    <path id="Path_2942" data-name="Path 2942" d="M41.906,55.2c-.107,0-.214,0-.321,0v1.076c0,.015,0,.029,0,.044s0,.015,0,.023v1.275c.107,0,.214,0,.321,0,3.078,0,4.969-1.034,4.969-1.776V54a4.834,4.834,0,0,1-.94.5A10.883,10.883,0,0,1,41.906,55.2Z" transform="translate(-14.311 -22.402)" fill="#fff"/>
    <path id="Path_2943" data-name="Path 2943" d="M41.5,43.2c-.285,0-.567-.009-.845-.025a1.663,1.663,0,0,1,.524,1.165v1.275c.107,0,.214,0,.321,0,3.078,0,4.969-1.035,4.969-1.776V42a4.835,4.835,0,0,1-.94.5A10.877,10.877,0,0,1,41.5,43.2Z" transform="translate(-13.902 -17.129)" fill="#fff"/>
    <path id="Path_2944" data-name="Path 2944" d="M41.906,49.2c-.107,0-.214,0-.321,0v1.077c0,.015,0,.029,0,.044s0,.015,0,.023v1.274c.107,0,.214,0,.321,0,3.078,0,4.969-1.034,4.969-1.776V48a4.837,4.837,0,0,1-.94.5A10.883,10.883,0,0,1,41.906,49.2Z" transform="translate(-14.311 -19.765)" fill="#fff"/>
    <path id="Path_2945" data-name="Path 2945" d="M27.932,43.028l-.046,0c-.239-.013-.487-.02-.743-.02a12.119,12.119,0,0,0-1.826.132.475.475,0,0,1-.088.014c-1.929.311-3.055,1.057-3.055,1.63,0,.742,1.89,1.776,4.969,1.776s4.97-1.035,4.97-1.776C32.112,44.1,30.542,43.185,27.932,43.028Z" transform="translate(-5.786 -17.57)" fill="#fff"/>
    <path id="Path_2946" data-name="Path 2946" d="M27.143,50.088a10.88,10.88,0,0,1-4.03-.695,4.859,4.859,0,0,1-.94-.5v1.776c0,.311.332.673.946.989l.005,0a9.113,9.113,0,0,0,4.018.783c3.079,0,4.97-1.034,4.97-1.776V48.888a4.828,4.828,0,0,1-.939.5A10.884,10.884,0,0,1,27.143,50.088Z" transform="translate(-5.786 -20.154)" fill="#fff"/>
    <path id="Path_2947" data-name="Path 2947" d="M27.143,55.9a10.881,10.881,0,0,1-4.03-.695,4.858,4.858,0,0,1-.94-.5v1.776c0,.311.332.673.946.989l.005,0a9.112,9.112,0,0,0,4.018.783c3.079,0,4.97-1.034,4.97-1.776V54.7a4.825,4.825,0,0,1-.939.5A10.878,10.878,0,0,1,27.143,55.9Z" transform="translate(-5.786 -22.709)" fill="#fff"/>
    <path id="Path_2948" data-name="Path 2948" d="M15.44,55.124a13.227,13.227,0,0,1-1.471.081,10.889,10.889,0,0,1-4.03-.694A4.85,4.85,0,0,1,9,54v1.842c0,.742,1.89,1.776,4.97,1.776a12.183,12.183,0,0,0,1.471-.087V56.344c0-.008,0-.015,0-.023s0-.03,0-.044Z" transform="translate(0 -22.402)" fill="#fff"/>
    <path id="Path_2949" data-name="Path 2949" d="M15.44,49.121a13.351,13.351,0,0,1-1.471.08,10.888,10.888,0,0,1-4.03-.695A4.835,4.835,0,0,1,9,48v1.843c0,.742,1.89,1.776,4.97,1.776a12.318,12.318,0,0,0,1.471-.087V50.342c0-.008,0-.016,0-.023s0-.029,0-.044Z" transform="translate(0 -19.765)" fill="#fff"/>
    <path id="Path_2950" data-name="Path 2950" d="M9.94,42.5A4.82,4.82,0,0,1,9,42v1.842c0,.742,1.89,1.776,4.97,1.776a12.261,12.261,0,0,0,1.471-.087V44.339a1.754,1.754,0,0,1,.681-1.315,12.884,12.884,0,0,1-2.151.175A10.871,10.871,0,0,1,9.94,42.5Z" transform="translate(0 -17.129)" fill="#fff"/>
    <path id="Path_2951" data-name="Path 2951" d="M13.97,39.668c3.079,0,4.969-1.034,4.969-1.775V36.117a4.789,4.789,0,0,1-.94.5,10.878,10.878,0,0,1-4.03.695,10.887,10.887,0,0,1-4.03-.695,4.81,4.81,0,0,1-.939-.5v1.775C9,38.634,10.891,39.668,13.97,39.668Z" transform="translate(0 -14.545)" fill="#fff"/>
    <path id="Path_2952" data-name="Path 2952" d="M13.97,33.785c3.079,0,4.969-1.034,4.969-1.776s-1.89-1.776-4.969-1.776S9,31.267,9,32.009,10.891,33.785,13.97,33.785Z" transform="translate(0 -11.961)" fill="#fff"/>
  </g>
</svg>
