<svg xmlns="http://www.w3.org/2000/svg" width="38" height="50" viewBox="0 0 38 50"><defs><style>.a{fill:#0090da;}.b{fill:#b7dd58;}.c{fill:#0061a0;}</style></defs><g transform="translate(-9 -2)"><path class="a" d="M41.4,7.524A18.974,18.974,0,0,0,14.564,34.357L28.033,47.721,41.4,34.357A18.863,18.863,0,0,0,41.4,7.524ZM28.033,31.306A10.207,10.207,0,1,1,38.24,21.1,10.15,10.15,0,0,1,28.033,31.306Z" transform="translate(0 0)"/><path class="b" d="M31.109,29.617a5.682,5.682,0,1,1,5.682-5.682A5.659,5.659,0,0,1,31.109,29.617Z" transform="translate(-2.866 -2.836)"/><ellipse class="c" cx="17.5" cy="2.5" rx="17.5" ry="2.5" transform="translate(11 47)"/></g></svg>