<svg xmlns="http://www.w3.org/2000/svg" width="47" height="37.6" viewBox="0 0 47 37.6"><defs><style>.a{fill:#0061a0;}.b{fill:#b7dd58;}.c{fill:#0090da;}</style></defs><g transform="translate(-2 -8)"><path class="a" d="M25.422,43.929a.762.762,0,0,0-.754-.741H6.68a.762.762,0,0,0-.754.741v1.54H25.364Z" transform="translate(-0.851 -7.624)"/><path class="b" d="M2,47.933V53.35a.762.762,0,0,0,.754.741h24.2a.762.762,0,0,0,.754-.741V47.933a.79.79,0,0,0-.58-.741H2.58A.741.741,0,0,0,2,47.933Z" transform="translate(0 -8.492)"/><path class="c" d="M49.67,38.187a4.61,4.61,0,0,0-1.857-4.9,9.512,9.512,0,0,0-1.335-.627,92.811,92.811,0,0,1-11.257-6.1,2.665,2.665,0,0,0-2.089-3.136,2.466,2.466,0,0,0-2.089.456c-.986-.684-2.031-1.369-3.075-2.053l.986-1.426a4.622,4.622,0,0,0,1.277.285A3.351,3.351,0,0,0,33.6,17.315a3.288,3.288,0,0,0-1.451-2.737L23.5,8.59a3.457,3.457,0,0,0-4.7.8,3.3,3.3,0,0,0,.232,4.163l-5.28,7.47a4.623,4.623,0,0,0-1.277-.285A3.351,3.351,0,0,0,9.111,24.1a3.288,3.288,0,0,0,1.451,2.737l8.646,5.988a3.447,3.447,0,0,0,4.7-.8,3.235,3.235,0,0,0-.29-4.163l.986-1.426c1.044.741,2.031,1.426,3.017,2.167a2.724,2.724,0,0,0,1.044,2.908,2.774,2.774,0,0,0,2.959.114,89.1,89.1,0,0,1,9.632,8.383L42.3,41.038a4.634,4.634,0,0,0,2.669.855,4.689,4.689,0,0,0,2.611-.8,1.7,1.7,0,0,0,2.437,0,1.634,1.634,0,0,0,0-2.4A.578.578,0,0,0,49.67,38.187ZM33.54,26.724l-2.263,3.193a1.238,1.238,0,0,1-1.741.285,1.19,1.19,0,0,1-.29-1.711L31.509,25.3a1.248,1.248,0,0,1,1.044-.513,1.024,1.024,0,0,1,.7.228,1.257,1.257,0,0,1,.29,1.711Z" transform="translate(-1.541)"/></g></svg>