<svg xmlns="http://www.w3.org/2000/svg" width="42" height="41.44" viewBox="0 0 42 41.44"><defs><style>.a{fill:#b7dd58;}.b{fill:#0090da;}.c{fill:#0061a0;}</style></defs><g transform="translate(1411 12394.968)"><path class="a" d="M39.667,42.267H36.555A1.556,1.556,0,0,0,35,43.822v1.555a1.556,1.556,0,0,0,1.555,1.555h3.111a1.555,1.555,0,0,0,1.555-1.555V43.822A1.555,1.555,0,0,0,39.667,42.267Z" transform="translate(-1432.467 -12420.124)"/><path class="a" d="M56.334,42.267H53.222a1.556,1.556,0,0,0-1.555,1.555v1.555a1.555,1.555,0,0,0,1.555,1.555h3.111a1.555,1.555,0,0,0,1.555-1.555V43.822A1.555,1.555,0,0,0,56.334,42.267Z" transform="translate(-1441.356 -12420.124)"/><path class="a" d="M73,42.267H69.889a1.556,1.556,0,0,0-1.556,1.555v1.555a1.556,1.556,0,0,0,1.556,1.555H73a1.556,1.556,0,0,0,1.556-1.555V43.822A1.556,1.556,0,0,0,73,42.267Z" transform="translate(-1450.244 -12420.124)"/><path class="a" d="M23,56.667H19.888a1.555,1.555,0,0,0-1.555,1.555v1.555a1.556,1.556,0,0,0,1.555,1.556H23a1.556,1.556,0,0,0,1.555-1.556V58.222A1.555,1.555,0,0,0,23,56.667Z" transform="translate(-1423.578 -12427.805)"/><path class="a" d="M39.667,56.667H36.555A1.556,1.556,0,0,0,35,58.222v1.555a1.556,1.556,0,0,0,1.555,1.556h3.111a1.556,1.556,0,0,0,1.555-1.556V58.222A1.555,1.555,0,0,0,39.667,56.667Z" transform="translate(-1432.467 -12427.805)"/><path class="a" d="M56.334,56.667H53.222a1.555,1.555,0,0,0-1.555,1.555v1.555a1.556,1.556,0,0,0,1.555,1.556h3.111a1.556,1.556,0,0,0,1.555-1.556V58.222A1.555,1.555,0,0,0,56.334,56.667Z" transform="translate(-1441.356 -12427.805)"/><path class="a" d="M73,56.667H69.889a1.556,1.556,0,0,0-1.556,1.555v1.555a1.556,1.556,0,0,0,1.556,1.556H73a1.556,1.556,0,0,0,1.556-1.556V58.222A1.556,1.556,0,0,0,73,56.667Z" transform="translate(-1450.244 -12427.805)"/><path class="a" d="M23,71.066H19.888a1.556,1.556,0,0,0-1.555,1.556v1.555a1.555,1.555,0,0,0,1.555,1.555H23a1.555,1.555,0,0,0,1.555-1.555V72.622A1.556,1.556,0,0,0,23,71.066Z" transform="translate(-1423.578 -12435.483)"/><path class="a" d="M39.667,71.066H36.555A1.556,1.556,0,0,0,35,72.622v1.555a1.556,1.556,0,0,0,1.555,1.555h3.111a1.555,1.555,0,0,0,1.555-1.555V72.622A1.556,1.556,0,0,0,39.667,71.066Z" transform="translate(-1432.467 -12435.483)"/><path class="a" d="M56.334,71.066H53.222a1.556,1.556,0,0,0-1.555,1.556v1.555a1.555,1.555,0,0,0,1.555,1.555h3.111a1.555,1.555,0,0,0,1.555-1.555V72.622A1.556,1.556,0,0,0,56.334,71.066Z" transform="translate(-1441.356 -12435.483)"/><path class="b" d="M42.333,15.6H40.389v2.333a3.5,3.5,0,1,1-7,0V15.6H29.5v2.333a3.5,3.5,0,1,1-7,0V15.6H18.611v2.333a3.5,3.5,0,1,1-7,0V15.6H9.667A4.672,4.672,0,0,0,5,20.267v27.44a4.672,4.672,0,0,0,4.667,4.667H42.333A4.672,4.672,0,0,0,47,47.707V20.267A4.672,4.672,0,0,0,42.333,15.6Zm1.555,32.107a1.557,1.557,0,0,1-1.555,1.555H9.667a1.557,1.557,0,0,1-1.555-1.555V26.489a1.556,1.556,0,0,1,1.555-1.555H42.333a1.555,1.555,0,0,1,1.555,1.555Z" transform="translate(-1416 -12405.901)"/><path class="c" d="M24,14.933A2.333,2.333,0,0,0,26.334,12.6V7.933a2.333,2.333,0,0,0-4.667,0V12.6A2.333,2.333,0,0,0,24,14.933Z" transform="translate(-1425.356 -12400.568)"/><path class="c" d="M47.333,14.933A2.333,2.333,0,0,0,49.667,12.6V7.933a2.333,2.333,0,1,0-4.667,0V12.6A2.334,2.334,0,0,0,47.333,14.933Z" transform="translate(-1437.8 -12400.568)"/><path class="c" d="M70.666,14.933A2.333,2.333,0,0,0,73,12.6V7.933a2.333,2.333,0,0,0-4.667,0V12.6A2.334,2.334,0,0,0,70.666,14.933Z" transform="translate(-1450.244 -12400.568)"/></g></svg>