<svg xmlns="http://www.w3.org/2000/svg" width="47" height="40.733" viewBox="0 0 47 40.733"><defs><style>.a{fill:#0090da;}.b{fill:#b7dd58;}.c{fill:#0061a0;fill-rule:evenodd;}</style></defs><g transform="translate(-2 -6)"><path class="a" d="M29.234,6c.567.342,1.119.715,1.7,1.023a15.07,15.07,0,0,0,5.208,1.664c.8.1,1.624.09,2.436.124.225.009.45,0,.713,0a7.209,7.209,0,0,1,.073.735c-.005,1.3.02,2.607-.046,3.907a18.625,18.625,0,0,1-3.207,9.664,21.337,21.337,0,0,1-6.743,6.324c-.184.112-.289.034-.422-.045A20.322,20.322,0,0,1,21.2,21.36a18.913,18.913,0,0,1-2.067-6.825c-.209-1.893-.09-3.794-.135-5.721.273,0,.526-.005.78,0A15.538,15.538,0,0,0,28.993,6.13,1.457,1.457,0,0,0,29.143,6C29.173,6,29.2,6,29.234,6Zm-7.5,5.557a17.437,17.437,0,0,0,.232,3.563,17.139,17.139,0,0,0,7.08,11.17.2.2,0,0,0,.292,0,18.4,18.4,0,0,0,5.637-6.748,16.671,16.671,0,0,0,1.675-6.877c.012-.378,0-.758,0-1.135-.124-.018-.222-.038-.319-.047a17.439,17.439,0,0,1-6.857-2.153.507.507,0,0,0-.573,0A17.406,17.406,0,0,1,23.341,11.3C22.81,11.39,22.272,11.469,21.73,11.557Z" transform="translate(-3.683)"/><path class="b" d="M36.533,13.988A16.118,16.118,0,0,1,30.253,26.1c-.46-.4-.924-.777-1.349-1.191A15.89,15.89,0,0,1,24.091,15.2c-.044-.354-.056-.711-.089-1.065-.011-.115.024-.166.144-.184a19.764,19.764,0,0,0,6-1.931.326.326,0,0,1,.251.011,20.045,20.045,0,0,0,5.27,1.8C35.944,13.886,36.224,13.933,36.533,13.988Zm-9.5,4.887c.839.841,1.691,1.694,2.5,2.509l4.619-4.628c-.291-.29-.606-.607-.968-.966q-1.813,1.824-3.665,3.687l-1.54-1.546C27.662,18.251,27.341,18.572,27.037,18.875Z" transform="translate(-4.767 -1.3)"/><path class="c" d="M2,47.755l.032-.465A5.317,5.317,0,0,1,3.5,44.016c1.263-1.284,2.877-.962,4.549-1.7a4.481,4.481,0,0,0,1.1-.674A20.57,20.57,0,0,0,11.7,47.185l.288-3.364a.2.2,0,0,1-.131-.179l-.1-1.168a.187.187,0,0,1,.2-.191,3.3,3.3,0,0,0,1.412,0,.188.188,0,0,1,.2.191l-.1,1.168a.209.209,0,0,1-.131.179l.288,3.364a20.625,20.625,0,0,0,2.551-5.538,4.438,4.438,0,0,0,1.1.674c.145.063.288.118.432.168a9.8,9.8,0,0,1-1.283,2.99L15.6,46.77a17.7,17.7,0,0,0-2.585,2.738l-.242.32h-.111C7.858,49.8,3.046,49.115,2,47.755ZM15.559,34.778c-.007-.331-.12-.334-.389-.254a14.294,14.294,0,0,1-4.8-.755c-.136-.063-.265-.1-.38.039a.771.771,0,0,0-.133.291,6.175,6.175,0,0,0-.111,1.01c-.005.073-.009.134-.012.174-.023.231-.092.243-.159.193a.643.643,0,0,1-.173-.245c-.108-.211-.23-.336-.349-.336-.281,0-.439.7-.35,1.574s.386,1.574.667,1.574c.073,0,.117.038.134.118a4.363,4.363,0,0,0,2.026,2.818,1.914,1.914,0,0,0,2.187.036,4.261,4.261,0,0,0,2.095-2.854c.016-.082.062-.122.134-.118.281,0,.58-.7.667-1.574s-.069-1.574-.35-1.574c-.136,0-.274.163-.393.429-.065.131-.2.281-.267.147A4.672,4.672,0,0,1,15.559,34.778Zm-4.848-3.931a2.171,2.171,0,0,0-2,1.479,5.244,5.244,0,0,0-.334,2.232,3.272,3.272,0,0,0-.318,1.981c.062.613.285,1.7.879,2.065a5.135,5.135,0,0,0,2.334,2.97,2.556,2.556,0,0,0,2.7.052A5.088,5.088,0,0,0,16.38,38.6c.594-.363.817-1.452.879-2.065a3.26,3.26,0,0,0-.318-1.981,4.15,4.15,0,0,0-.947-3.244c-1.336-1.236-3.894-1.5-4.98-.585C10.89,30.822,10.89,30.845,10.711,30.847Zm29.126,13.9a5.009,5.009,0,0,0,2.153-1.828c1.327,1.034,2.907.944,4.488,1.779A6.663,6.663,0,0,1,49,47.2c-.393,1.563-5.95,2.3-11.25,2.226-1.15-1.479-2.311-2.284-3.331-3.92A11.368,11.368,0,0,1,33.49,43.7a4.885,4.885,0,0,0,1.536-.782,5.009,5.009,0,0,0,2.153,1.828A4.642,4.642,0,0,0,39.837,44.749Zm.8-13.659a2.433,2.433,0,0,1,2.242,1.654,5.915,5.915,0,0,1,.375,2.5,3.653,3.653,0,0,1,.356,2.217c-.069.687-.318,1.908-.985,2.312A5.747,5.747,0,0,1,40.014,43.1a2.859,2.859,0,0,1-3.02.057,5.693,5.693,0,0,1-2.7-3.383c-.667-.406-.916-1.626-.985-2.312a3.653,3.653,0,0,1,.356-2.217,4.642,4.642,0,0,1,1.06-3.63c1.495-1.384,4.357-1.683,5.575-.656C40.439,31.062,40.439,31.088,40.639,31.09Zm-5.426,4.4c.009-.37.134-.374.435-.284.817.241,4.5-.451,5.369-.846.154-.07.3-.113.426.043a.868.868,0,0,1,.149.327,6.864,6.864,0,0,1,.124,1.13c.005.082.011.15.014.195.027.258.1.272.179.215a.722.722,0,0,0,.195-.275c.12-.236.257-.377.391-.377.315,0,.49.789.393,1.761s-.432,1.761-.747,1.761c-.081,0-.131.041-.15.132a4.882,4.882,0,0,1-2.266,3.155,2.14,2.14,0,0,1-2.449.039,4.773,4.773,0,0,1-2.344-3.2c-.019-.091-.069-.136-.15-.132-.315,0-.649-.789-.747-1.761s.078-1.761.393-1.761c.152,0,.308.182.439.481.074.147.226.315.3.165A5.137,5.137,0,0,0,35.213,35.489ZM25.438,48.38a9.515,9.515,0,0,0,4.409-3.822,18.951,18.951,0,0,1,4.368,2.588A16.653,16.653,0,0,1,37.1,50.1c-2.457,2.445-20.868,2.445-23.325,0a16.836,16.836,0,0,1,2.886-2.954,18.888,18.888,0,0,1,4.368-2.588A9.515,9.515,0,0,0,25.438,48.38Zm-4.05-9.367a6.723,6.723,0,0,0,.619,2.457A5.97,5.97,0,0,0,24.578,43.9a1.56,1.56,0,0,0,1.709,0,5.97,5.97,0,0,0,2.571-2.432,5.648,5.648,0,0,0,.492-1.518c.012-.07.039-.075.1-.079.349,0,.718-.853.828-1.906s-.087-1.906-.435-1.906c-.147,0-.3.152-.433.408s-.248.417-.421.2a4.347,4.347,0,0,1-.455-1.223c-.251-.742-.564-.638-.964-.35C24.469,37.342,21.111,36.838,21.388,39.012Zm2.334-8.865A5.917,5.917,0,0,0,19.536,33.8a7.15,7.15,0,0,0-.41,2.087c-.234,3.65.333,6.6-1.9,10.122a19.965,19.965,0,0,1,3.678-2.03l.327-.14a4.289,4.289,0,0,0,.931.857c.111.057.366-.651.433-1.091,0,0,.021.02.025.021A8.943,8.943,0,0,0,24.1,44.667a2.406,2.406,0,0,0,2.652,0,9.125,9.125,0,0,0,1.484-1.044l.025-.021c.067.44.322,1.148.433,1.091a4.29,4.29,0,0,0,.931-.857l.327.14A19.852,19.852,0,0,1,33.635,46c-2.367-3.791-1.667-6.472-1.9-10.122a7.147,7.147,0,0,0-.41-2.087,5.25,5.25,0,0,0-1.355-2.162c-.642-.578-1.981-1.415-3.029-1.014A4.068,4.068,0,0,0,23.722,30.148Z" transform="translate(0 -5.2)"/></g></svg>